<?xml version="1.0" encoding="utf-8"?>
<!-- Generator: Adobe Illustrator 15.1.0, SVG Export Plug-In  -->
<!DOCTYPE svg PUBLIC "-//W3C//DTD SVG 1.1//EN" "http://www.w3.org/Graphics/SVG/1.1/DTD/svg11.dtd" [
	<!ENTITY ns_flows "http://ns.adobe.com/Flows/1.0/">
]>
<svg version="1.1"
	 xmlns="http://www.w3.org/2000/svg" xmlns:xlink="http://www.w3.org/1999/xlink" xmlns:a="http://ns.adobe.com/AdobeSVGViewerExtensions/3.0/"
	 x="0px" y="0px" width="140px" height="20px" viewBox="-1.5009766 -4.3759766 140 20"
	 enable-background="new -1.5009766 -4.3759766 140 20" xml:space="preserve">
<defs>
</defs>
<path d="M17.3759766,3.5620117c0,0,0.0209961-0.0488281,0-0.1367188c-1.190918-1.2890625-1.1811523-1.1992188-1.4628906-1.2954102
	c-0.2822266-0.09375-0.6069336-0.0629883-0.6069336-0.0629883s-0.2900391-0.1699219-0.472168-0.1567383
	c0.0322266,0.2138672,0.2871094,0.4287109,0.2871094,0.4287109s-0.0361328,0.0063477-0.1669922,0
	c-0.3461914-0.3466797-0.8798828-0.3447266-0.8798828-0.3447266s0.1787109,0.0600586,0.3256836,0.1728516
	c-0.1386719-0.0878906-0.402832-0.0288086-0.402832-0.0288086s0.1337891,0.0229492,0.222168,0.1679688
	c-0.0820313-0.0673828-0.4282227-0.1489258-0.6342773-0.0800781c0.2631836-0.0161133,0.3442383,0.2270508,0.3442383,0.2270508
	s-0.15625-0.1323242-0.2880859-0.1259766c0.1259766,0.0668945,0.1318359,0.2006836,0.1318359,0.2006836
	s-0.1459961-0.1508789-0.2827148-0.1186523c0.1328125,0.0366211,0.1328125,0.21875,0.1328125,0.21875
	s-0.1889648-0.1376953-0.5341797-0.0380859c0.2709961,0.0063477,0.3330078,0.2211914,0.3330078,0.2211914
	s-0.0439453-0.1049805-0.237793-0.0820313c0.125,0.0151367,0.1391602,0.2128906,0.1391602,0.2128906
	s-0.0332031-0.0039063-0.3530273-0.0708008c0.3520508,0.2290039,0.2749023,0.3710938,0.2255859,0.347168
	c-0.1635742-0.2714844-0.4389648-0.2011719-0.4389648-0.2011719s-0.3779297-0.125-0.621582-0.2299805
	c-0.0810547-0.1201172-0.0629883-0.2890625-0.0629883-0.2890625l0.1186523-0.0200195c0,0,0,0,0.1132813,0.1459961
	c0.3320313-0.0629883,0.5458984-0.3129883,0.5458984-0.3129883s0,0,0.0878906,0.0209961
	c0.1118164-0.0307617,0.105957-0.1689453,0.2080078-0.2231445c0.1879883,0.0761719,0.2368164,0.0532227,0.2368164,0.0532227
	s-0.0375977-0.0532227-0.1376953-0.1259766c0.1640625-0.3540039,0.0629883-0.8662109-0.3632813-0.9033203
	c-0.4277344-0.0366211-0.7539063,0.3129883-0.7407227,0.4301758c-0.0258789,0.1108398-0.2392578,0.1469727-0.2392578,0.1469727
	s-0.4887695-0.2670898-1.5957031-0.1420898C9.2021484,1.6958008,9.3398438,2.25,9.3398438,2.25
	S9.0751953,2.3588867,9.1518555,2.5009766C9.0751953,2.5371094,8.6259766,2.8618164,8.75,3.2749023
	C8.8759766,3.690918,9.6289063,3.9169922,10.3061523,3.902832c-0.0551758,0.0209961-0.0703125,0.0991211-0.0703125,0.0991211
	s0.0444336,0.1049805-0.8237305-0.0249023C8.546875,3.8369141,8.3828125,3.8330078,8.2119141,3.9638672
	C7.6938477,3.9780273,7.8618164,3.8740234,6.9819336,3.8740234S5.0571289,4.5151367,4.7841797,4.9101563
	C4.512207,5.3061523,3.8369141,5.9008789,3.1411133,6.3300781C2.4438477,6.7607422,1.28125,6.5322266,0.8388672,6.1650391
	c0.1313477,0.3671875,0.7993164,0.6220703,0.7993164,0.6220703S0.6459961,6.8544922,0,6.6435547
	C0.2451172,6.953125,1.0878906,7.1767578,1.6230469,7.1865234C1.487793,7.3037109,0.7802734,7.3330078,0.3051758,7.2568359
	c0.015625,0.0097656,0.6230469,0.2773438,1.2626953,0.2207031C1.4121094,7.6533203,1.0742188,7.6904297,0.6879883,7.6601563
	c0.2260742,0.1884766,1.190918,0.0244141,1.190918,0.0244141S1.7202148,7.8505859,1.4638672,7.9248047
	c1.2280273,0.1640625,2.1040039-0.7109375,2.1040039-0.7109375S3.5322266,7.5947266,3.0742188,7.9541016
	c0.3540039-0.0195313,0.7758789-0.4355469,0.9135742-0.703125c0.0424805,0.0488281,0.1040039,0.2402344-0.074707,0.4570313
	c0.6499023-0.2773438,0.5737305-0.9316406,0.5737305-0.9316406s0.1879883,0.3007813,0.828125,0.6396484
	C5.9570313,7.7548828,6.03125,7.6982422,5.9750977,8.1884766C5.9179688,8.6787109,5.4848633,8.7900391,5.4848633,9.2607422
	c0,0.46875,0.3959961,0.2636719,0.8110352,0.4726563c0.4140625,0.2070313,0.9052734,0.6386719,1.262207,0.8085938
	s0.0927734,0.3574219,0.0927734,0.3574219s-0.1118164,0.2050781,0.0581055,0.4101563
	c0.1689453,0.2089844,0.1191406,0.3417969,0.1191406,0.3417969s0.1508789,0.0351563,0.3828125-0.125
	c0.2319336-0.1640625-0.019043-0.7617188-0.09375-1.0742188c-0.0771484-0.3125-0.3842773-0.4443359-0.3701172-0.4804688
	c1.1918945,0.4335938,1.5058594,0.7910156,1.5058594,0.7910156l0.2519531,0.0078125c0,0,0.0239258,0.0429688,0.1313477,0.125
	c-0.0063477,0.0507813-0.105957,0.1699219-0.105957,0.1699219s0.4155273,0.4589844,0.6708984,0.5146484
	c0.125-0.2441406-0.012207-0.6962891-0.012207-0.6962891s0.8032227,0.0078125,1.1728516,0.0078125
	c0.3701172,0,0.5170898-0.2832031,0.5170898-0.7617188s-0.3266602-1.4179688-0.3266602-1.5351563
	c0-0.1210938,0.1938477-0.1953125,0.3647461-0.1953125c0.1679688,0,0.4951172,0.1191406,0.6518555,0.1191406
	c0.15625,0,0.7773438,0.2128906,0.7773438,0.2128906c0.9990234,0,1.0878906,0.2324219,1.0620117,0.7167969
	c-0.0253906,0.4824219-0.4140625,0.8505859-0.4140625,0.984375c0,0.140625-0.03125,0.4794922-0.03125,0.4794922
	s-0.0566406,0.0205078-0.2270508,0.0205078c-0.1948242,0.1757813-0.1289063,0.6367188,0.0512695,0.8134766
	c0.2207031,0,0.2207031-0.2128906,0.3779297-0.4287109c0.1547852-0.2128906,0.0927734-0.5449219,0.0927734-0.5449219
	s0.125,0.0224609,0.2451172-0.2949219c0.1191406-0.3193359,0.4140625-1.1923828,0.4892578-1.4628906
	c0.074707-0.2714844-0.2070313-0.5039063-0.6640625-0.7539063c-0.4589844-0.25-0.7041016-0.4511719-0.9370117-0.6806641
	c0.2319336-0.4267578,0.7041016-1.3369141,0.6650391-1.7080078c0.1269531-0.125,0.2758789-0.2451172,0.5898438-0.7529297
	c0.3139648-0.5092773,0.5219727-0.6220703,0.6801758-0.7910156c0.1557617-0.1699219,0.2817383-0.03125,0.4897461,0.0048828
	c0.2050781,0.0390625,0.9208984,0.2519531,1.1982422,0.4741211c0.2749023,0.2197266,0.4018555,0.1191406,0.4897461,0.1191406
	s0.137207-0.0522461,0.0878906-0.1582031c0.0991211,0.0498047,0.1430664,0.0498047,0.3701172-0.2578125
	C18.1860352,4.1967773,17.3759766,3.5620117,17.3759766,3.5620117z M7.2299805,8.8056641
	C6.9790039,9.2353516,7.0019531,9.6123047,7.0019531,9.6123047c-0.2871094-0.015625-0.5249023-0.3398438-0.5249023-0.3398438
	S6.4379883,9.1708984,6.4902344,8.8427734C6.6142578,8.7421875,6.8168945,8.453125,7.1181641,7.8525391
	C7.2558594,7.9736328,7.2299805,8.8056641,7.2299805,8.8056641z M10.019043,10.3759766c0,0-0.1020508-0.0888672-0.2768555-0.0888672
	c-0.175293,0-0.1621094-0.2519531-0.1621094-0.2519531S9.5551758,9.9833984,9.3789063,9.8955078
	c-0.1630859,0.1289063-0.4140625,0.0625-0.4140625,0.0625s0,0-0.5410156-0.2363281
	c-0.5385742-0.2382813-0.4125977-0.6640625-0.362793-0.9902344c0.362793-0.7167969,0.2890625-1.1044922,0.2890625-1.1044922
	C8.8129883,7.8154297,9.027832,7.9404297,9.2661133,7.9912109c0.2387695,0.0507813,0.1757813,0.1015625,0.1757813,0.1015625
	s0.2758789,0.1015625,0.4902344-0.0136719c0.3637695,0.1875,0.7768555,0.9160156,0.8789063,1.3945313
	c0.1010742,0.4794922,0.4140625,0.6289063,0.453125,1.0039063C10.7719727,10.5009766,10.019043,10.3759766,10.019043,10.3759766z
	 M11.5498047,4.222168c-0.375,0.4140625-0.5146484,0.5-0.6518555,0.515625
	c0.2001953-0.2265625,0.4628906-0.6147461,0.4628906-0.6147461C11.5629883,4.1088867,11.6010742,4.1728516,11.5498047,4.222168z"/>
<path d="M37.6171875,8.8154297c0,0-0.4023438-0.1962891-0.4892578-0.3046875
	c-0.1010742-0.1298828-0.777832-0.4863281-0.9248047-0.6484375c-0.0371094-0.1875-0.40625-0.4589844-0.7021484-0.6796875
	c-0.5151367-0.3837891-0.4008789-0.4384766-0.8730469-0.9042969c0.1630859-0.1455078,0.2021484-0.4145508,0.1772461-1.0053711
	c-0.0253906-0.5898438,0.34375-1.2421875,0.8476563-1.6386719c1.0991211,0.3828125,1.3129883,0.8168945,1.6132813,0.8208008
	c0.2128906,0.0029297,0.1621094-0.0649414,0.1518555-0.1279297c0.1000977,0.1279297,0.2119141,0.0610352,0.262207-0.0102539
	c0.0507813-0.0678711,0.1499023-0.1479492,0.2280273-0.2207031c0.074707-0.0683594,0.0668945-0.184082-0.0693359-0.3193359
	c-0.1367188-0.1396484-0.8647461-1.3959961-1.5200195-1.8540039c0.1049805-0.2270508,0.0371094-0.7397461,0.0371094-0.7397461
	s-0.1547852,0.2128906-0.1699219,0.3027344c-0.0449219-0.2290039-0.125-0.324707-0.2011719-0.3686523
	c-0.1757813,0.2080078-0.2006836,0.4580078-0.1640625,0.6860352c-0.1679688-0.2929688-0.5957031-0.4140625-0.8457031-0.4140625
	c0.3520508,0.1699219,0.4331055,0.3769531,0.4331055,0.3769531s-0.4213867-0.184082-0.9599609-0.0371094
	c0.4135742,0.0698242,0.581543,0.2519531,0.581543,0.2519531c-0.5136719-0.1040039-0.8339844-0.0307617-1.2226563,0.1010742
	c0.5258789,0.0371094,0.6948242,0.1489258,0.6948242,0.1489258c-0.684082,0.0141602-1.065918,0.0581055-1.6640625,0.3911133
	c0.7421875-0.0678711,0.8051758,0.0507813,0.8051758,0.0507813s-0.7148438,0.1391602-0.9492188,0.3261719
	c0.3032227,0.0307617,0.3139648,0.0961914,0.3139648,0.0961914s-0.6459961,0.3999023-0.8959961,0.4345703
	c-0.2519531,0.0283203-1.3769531,0.1464844-2.5117188,0.1044922c-1.1362305-0.0371094-1.7329102,0.0117188-2.4882813,0.3955078
	c-0.9916992,0.1694336-4.0737305,0.6660156-4.0737305,0.6660156s-0.0083008-0.0629883-0.1132813-0.1015625
	c-0.0249023-0.0390625,0.012207-0.0761719-0.1577148-0.03125c-0.1689453,0.0429688-0.2192383,0.1879883-0.2641602,0.28125
	c-0.237793,0.1845703-0.5581055,0.3398438-0.5581055,0.3398438s-0.1259766-0.0678711-0.1557617-0.1259766
	c-0.0068359-0.28125-0.4389648-0.6601563-0.6162109-0.6860352c-0.0307617-0.0820313,0-0.1318359,0-0.1318359
	s0.1132813,0.1318359,0.1689453,0.0375977c0.0571289-0.0947266,0.0820313-0.4140625,0.0820313-0.4140625
	s0.1064453,0.0419922,0.0991211-0.0458984c-0.0058594-0.0898438-0.105957-0.0898438-0.09375-0.2319336
	c0.0058594-0.0800781,0.0058594-0.0800781,0.0058594-0.0800781s0.1958008-0.0146484,0.2758789-0.1206055
	c-0.199707-0.03125-0.2250977-0.0429688-0.2250977-0.0429688c-0.0078125-0.3652344-0.4160156-0.5024414-0.7988281-0.5024414
	s-0.7280273,0.590332-0.3710938,1.137207c-0.0371094,0.2070313-0.0737305,0.2739258-0.0737305,0.2739258
	s-0.3520508,0.4018555-0.2070313,0.9599609c0.1450195,0.5610352,0.559082,1.15625,0.9599609,1.3691406
	c0.1821289,0.3134766,0.3017578,0.453125,0.3530273,0.5039063c0.1000977,0.0146484,0.1821289,0.0087891,0.1821289,0.0087891
	l0.0439453,0.1445313c0,0,0.9589844-0.0751953,1.4438477-0.1679688c0.0029297,0.0595703,0.0029297,0.0947266,0.0019531,0.1132813
	c-0.7680664,0.1923828-1.3349609,0.8916016-1.3349609,1.71875c0,0.9794922,0.7919922,1.7705078,1.7700195,1.7705078
	s1.7709961-0.7949219,1.7709961-1.7705078c0-0.3642578-0.1108398-0.7050781-0.3012695-0.9853516
	c0.1064453-0.0615234,0.5483398-0.3095703,0.9379883-0.4072266c0.4462891-0.1113281,1.3510742-0.5537109,1.5893555-0.5537109
	c0.2568359,0,0.4199219-0.0878906,0.6030273-0.3261719c0.2070313,0.2744141,0.2709961,0.3896484,0.1699219,0.828125
	c-0.1020508,0.4384766-0.2329102,0.671875,0.1630859,0.8789063c0.3950195,0.2070313,0.7910156,0.5839844,1.0610352,0.7792969
	c0.2709961,0.1943359,0.2006836,0.4833984,0.6040039,0.4736328c-0.125,0.1611328-0.0371094,0.3007813-0.0073242,0.3623047
	c0.2382813,0.0878906,0.5390625,0.1943359,0.5893555,0.1943359c0.0507813,0,0.1835938,0-0.0292969-0.4648438
	c-0.2661133-0.2773438-0.3398438-0.3408203-0.4140625-0.484375c-0.0756836-0.1445313-0.5336914-0.4804688-0.8310547-0.6894531
	c-0.2949219-0.2050781-0.4580078-0.3076172-0.4018555-0.7666016c0.0571289-0.4570313,0.2890625-0.7333984,0.3139648-1.5146484
	c0.4091797,0.0371094,1.269043,0.6660156,2.7749023,0.6171875c0.0209961,0.2265625,0.1191406,0.1308594,0.1191406,0.5839844
	c0,0.4482422,0.1699219,0.6982422,0.1699219,0.9384766c-0.25,0.1904297-0.7910156,0.1044922-0.7910156,0.1044922
	s-0.5766602-0.0888672-0.6459961-0.1835938c-0.0136719-0.1552734-0.0957031-0.2871094-0.2006836-0.2949219
	c-0.5161133,0.0947266-0.6523438,0.2578125-0.6523438,0.2578125s0.3442383,0.1796875,0.4453125,0.2070313
	c0.2949219,0.1191406,0.4819336,0.2832031,0.5839844,0.4003906c0.0996094,0.1191406,0.4199219,0.015625,0.796875-0.0234375
	c0.3769531-0.0380859,0.546875,0.1035156,0.690918-0.0214844s0.3261719-0.125,0.3188477-0.5097656
	c-0.0068359-0.3808594,0.1381836-1.0605469,0.1323242-1.2177734c0.2207031-0.0068359,0.3847656-0.0673828,0.5600586-0.2001953
	c0.1767578,0.0507813,0.09375,0.1484375,0.5400391,0.2070313c0.4589844,0.2148438,0.4589844,0.3125,0.7456055,0.4355469
	c0.2890625,0.1171875,0.7363281,0.40625,0.9492188,0.4589844c0.2011719,0.1621094,0.6347656,0.5,0.8339844,0.734375
	c0.203125,0.2294922,0.2709961,0.2050781,0.4838867,0.2050781c0.0141602,0.1386719,0,0.2285156,0.0571289,0.2753906
	c0.0571289,0.0517578,0.1938477,0.1308594,0.1938477,0.1308594S37.875,9.1611328,38,9.0888672
	C37.7680664,8.9160156,37.6171875,8.8154297,37.6171875,8.8154297z M23.0429688,4.7788086
	c0.5458984-0.112793,0.796875-0.1386719,0.796875-0.1386719l-0.0058594,0.0878906c0,0-0.434082,0.2270508-0.8671875,0.3398438
	C23.0561523,4.9931641,23.0429688,4.7788086,23.0429688,4.7788086z M22.5268555,5.4072266
	c0.0820313-0.0244141,0.0751953-0.0581055,0.1132813-0.0883789c0.0380859-0.0307617,0.125-0.0209961,0.1450195-0.0888672
	c0.21875-0.0371094,1.1000977-0.4160156,1.1000977-0.4160156c0.0996094,0.0209961,0.0869141,0.0820313,0.0869141,0.0820313
	s-0.0869141,0.0249023-0.1630859,0c0.0141602,0.0629883,0.1757813,0.0961914,0.1757813,0.0961914
	s-0.0507813,0.0136719-0.1948242-0.0073242c0.0888672,0.0571289,0.0449219,0.0751953,0.2270508,0.2080078
	c-0.2319336-0.0200195-0.2319336-0.1699219-0.3891602-0.1938477c0.105957,0.0239258,0.0820313,0.2001953,0.3261719,0.3691406
	c0,0-0.2270508-0.0800781-0.3081055-0.1621094c0.0629883,0.1879883,0.0952148,0.0688477,0.2709961,0.3408203
	c-0.2578125-0.2890625-0.5341797-0.1069336-0.5341797-0.1069336s-0.2197266-0.0180664-0.4335938,0.0629883
	c-0.2143555,0.0820313-0.4462891,0.1459961-0.7670898,0.215332C22.2700195,5.6137695,22.4458008,5.4311523,22.5268555,5.4072266z
	 M24.5708008,7.5224609c-0.2905273-0.2333984-0.6577148-0.3828125-1.0595703-0.3964844L23.5,6.9648438l0.3139648-0.1025391
	l-0.0117188-0.0429688c0,0,0,0,0.1816406-0.0917969c0.3320313,0.2460938,0.8979492,0.453125,0.8979492,0.453125
	S24.7758789,7.3544922,24.5708008,7.5224609z M23.3310547,6.7587891c0,0,0.0380859-0.1484375,0.0947266-0.2714844
	c0.019043,0,0.2202148,0.1230469,0.2202148,0.1230469C23.5322266,6.6992188,23.3310547,6.7587891,23.3310547,6.7587891z
	 M22.9921875,6.875c0,0-0.0742188,0.0205078-0.2319336,0l-0.0683594-0.2128906
	c0.0683594,0.0517578,0.2133789,0.0820313,0.3833008,0.0371094C23.0620117,6.75,22.9921875,6.875,22.9921875,6.875z
	 M25.8188477,5.4570313c0,0-0.1635742,0.112793-0.1816406,0.434082c-0.2270508,0.105957-0.2890625,0.1210938-0.2890625,0.1210938
	s-0.1069336-0.0332031-0.3081055-0.0209961c0.3139648-0.1879883,0.3139648-0.6040039,0.8217773-0.8583984
	C25.8251953,5.3061523,25.8188477,5.4570313,25.8188477,5.4570313z M25.171875,5.0561523
	c-0.3208008,0.2006836-0.7856445,0.4648438-1.0996094-0.2280273c0.2265625-0.0942383,1.6386719-0.3901367,1.9848633-0.4438477
	C25.6489258,4.6791992,25.4931641,4.8530273,25.171875,5.0561523z M24.315918,4.6459961
	C24.2978516,4.625,24.2851563,4.6010742,24.3242188,4.5639648c0.746582-0.1499023,1.9458008-0.3188477,1.9458008-0.3188477
	S24.7880859,4.5839844,24.315918,4.6459961z M26.453125,5.1479492c-0.2890625,0.0371094-0.1831055-0.5019531,0.2509766-0.6079102
	C26.7041016,4.5400391,26.5419922,4.7412109,26.453125,5.1479492z"/>
<path d="M57.9770508,3.9550781c-0.5761719-0.0458984-1.237793-0.315918-1.4750977-0.6582031
	c-0.3911133-0.2358398-1.2397461-0.2607422-1.6147461,0.0693359c-0.7573242-0.0693359-0.7792969,0.4008789-0.875,0.5649414
	c-0.0942383,0.1640625-0.8374023,0.9428711-2.1459961,0.4829102c-1.3110352-0.4609375-2.7729492-0.8862305-3.1982422-0.9199219
	c-0.4248047-0.0361328-1.2041016-0.097168-2.1831055,0.3168945c-0.9799805,0.4121094-1.0166016,1.3691406-1.2988281,1.828125
	c-0.2832031,0.4609375-0.4960938,0.6030273-1.0390625,1.3110352s-1.5209961,0.6875-2.2661133,0.6376953
	c-0.7436523-0.0478516-1.1679688-0.5078125-1.5810547-0.5078125c-0.4125977,0-0.3779297,0.3173828-0.0239258,0.3173828
	c0.2172852,0,0.3432617,0.0634766,0.6811523,0.2578125c0.3359375,0.1914063,1.1040039,0.3896484,1.762207,0.359375
	c0.6538086-0.0244141,1.3530273-0.3105469,1.7158203-0.7851563c0.4799805-0.6328125,0.7519531-0.9453125,0.9819336-1.159668
	c-0.0449219,0.237793,0.1318359,0.5405273,0.4858398,0.8081055c0.3540039,0.2636719,1.5761719,0.2802734,1.5761719,0.2802734
	s-0.0551758,0.3359375-0.25,0.5830078c-0.1928711,0.2480469-0.5390625,0.6308594-0.7338867,0.8007813
	c-0.1943359,0.1679688-0.0332031,0.34375-0.0332031,0.34375s-0.2397461,0.0195313-0.4169922-0.0078125
	c-0.1137695-0.0351563-0.2817383-0.0800781-0.3618164-0.0625c-0.0800781,0.0166016-0.0981445,0.0175781-0.2128906-0.0351563
	c-0.1860352,0-0.6972656,0.390625-0.6972656,0.390625s0.0083008,0.0625,0.2719727,0.0898438
	c0.0991211,0.0800781,0.6728516,0.0800781,0.8320313,0.0351563c0.1591797-0.0429688,0.6899414-0.0097656,1.2568359-0.0253906
	c0.0610352,0.0898438,0.4082031,0.2578125,0.8144531,0.4707031c-0.1152344,0.3359375,0.3349609,0.8320313,0.3349609,0.8320313
	s0.1347656-0.0214844,0.1938477-0.2392578c0.3461914,0.203125,0.8769531,0.1601563,1.487793,0.1601563
	c0.6103516,0,0.5942383-0.4794922,0.5942383-0.4794922s0.0800781,0.0693359,0.328125,0.0449219
	c0.2456055,0.1679688,0.7246094,0.0244141,0.8378906-0.0195313c-0.1040039-0.1875-0.1772461-0.1240234-0.2890625-0.2226563
	c-0.1152344-0.0976563-0.2241211-0.2207031-0.3730469-0.1865234c-0.078125-0.0341797-0.4331055-0.0820313-0.4331055-0.0820313
	s0.0541992-0.8056641,0.300293-1.6083984C52.328125,8.1552734,54.3271484,6.1689453,55,5.4702148
	c0.6728516-0.6992188,1.4951172-0.5761719,2.0087891-0.512207c0.5151367,0.0629883,0.4604492-0.0351563,0.4604492-0.1069336
	c-0.0209961,0-0.043457-0.0019531-0.0644531-0.0039063c0.019043-0.0209961,0.0512695-0.078125,0.0644531-0.1391602
	c0.0200195-0.0698242-0.03125-0.1171875-0.0683594-0.0351563c-0.0410156,0.0839844-0.1459961,0.0703125-0.1459961,0.0703125
	s-0.059082-0.0483398-0.059082-0.0629883c0-0.012207-0.0878906-0.0039063-0.0878906-0.0039063l-0.0527344-0.0883789
	l-0.1132813,0.0361328l0.0063477-0.0439453h-0.0981445l-0.0292969-0.0541992L56.730957,4.5297852l-0.0410156-0.0795898
	l-0.1030273,0.0249023l0.0151367-0.125l-0.0620117,0.0209961L56.5,4.3242188l-0.1230469,0.1020508
	c-0.0180664-0.0180664-0.0288086-0.0410156-0.0209961-0.078125c0.105957-0.0541992,0.2128906-0.0878906,0.3149414-0.109375
	l0.0112305,0.0532227l0.1289063-0.0249023l0.0800781,0.0307617l0.0527344-0.0229492l0.0703125,0.0170898l0.074707-0.0341797
	l0.0600586,0.0844727l0.0668945-0.0371094l0.1123047,0.0839844l0.0610352-0.0351563l0.0878906,0.0488281l0.046875-0.0605469
	l0.0180664-0.0332031c0.0439453,0.0170898,0.0698242,0.0258789,0.0698242,0.0258789L57.559082,4.519043
	c0,0,0.1049805-0.0449219,0.1479492-0.1870117C58.0351563,4.3408203,58.0229492,3.9912109,57.9770508,3.9550781z
	 M48.2587891,7.6962891l0.0483398,0.1230469c0,0-0.6469727,0.4472656-0.6791992,0.4882813
	C47.7729492,8.0859375,48.1000977,7.8193359,48.2587891,7.6962891z M49.7641602,10.0927734
	c-0.3359375,0.0546875-0.8129883-0.0351563-0.9023438-0.1582031c-0.0878906-0.125-0.2949219,0.0410156-0.3579102-0.0234375
	c-0.0966797-0.484375-0.2548828-0.4316406-0.2548828-0.4316406s-0.4790039-0.2539063-0.6538086-0.4101563
	c0.1816406-0.0976563,0.440918-0.2890625,0.8540039-0.5097656c0,0,0.034668,0.2011719,0.0429688,0.5507813
	c0.0039063,0.3486328,0.0229492,0.4306641,0.4780273,0.5595703c0.4536133,0.1337891,1.0805664,0.2021484,1.0805664,0.2021484
	S50.1020508,10.0390625,49.7641602,10.0927734z M49.487793,9.2607422c-0.2026367-0.3769531-0.2929688-0.4785156-0.34375-1.03125
	c0.2832031-0.1474609,0.5898438-0.3652344,0.8598633-0.3535156c-0.027832,0.7167969,0.0629883,1.4912109,0.0703125,1.6015625
	C49.8110352,9.4365234,49.6518555,9.2646484,49.487793,9.2607422z"/>
<path d="M74.7685547,5.8740234c-0.5-0.1811523-1.0390625-0.3120117-1.4140625-0.3432617
	c-0.0292969-0.2705078-0.1572266-1.1425781-0.6054688-2.0205078c-0.6464844-1.2651367-1.6777344-1.9882813-2.9960938-2.1152344
	c-0.078125-0.1621094-0.3125-0.2558594-0.6464844-0.2558594c-0.0654297,0-0.140625,0.0039063-0.2084961,0.0117188
	c-0.3320313,0.0410156-0.6738281,0.175293-0.7651367,0.3901367c-1.2817383,0.3818359-2.2539063,1.4121094-2.8398438,3.0390625
	c-0.5581055,1.5527344-0.5649414,3.0810547-0.5649414,3.1455078l-0.0019531,0.4570313l0.3120117-0.3339844
	c0.0029297-0.0039063,0.1079102-0.1132813,0.3320313-0.2695313c0.2050781,0.3066406,1.4926758,2.1210938,3.5019531,2.4648438
	c-0.0209961,1.3867188,0.3925781,2.4580078,0.4111328,2.5136719l0.6015625-0.2333984
	c-0.0058594-0.0146484-0.546875-1.4384766-0.3066406-3.0390625c0.2167969-1.4443359,0.0322266-2.3818359-0.0537109-2.703125
	c0.0507813,0,0.0976563-0.0009766,0.1445313-0.0019531c0.4550781,0.0068359,1.1445313,0.0634766,1.8886719,0.2822266
	c0.6621094,0.1953125,1.8125,0.4804688,2.9375,0.3710938C75.6210938,7.125,75.8623047,6.8398438,75.8623047,6.6621094
	C75.8583984,6.5595703,75.8583984,6.2685547,74.7685547,5.8740234z M68.347168,2.2470703
	c-0.5063477,0.6640625-1.2089844,2.2416992-0.8852539,4.1386719c-0.1210938,0.0214844-0.2358398,0.046875-0.3500977,0.0732422
	C66.7080078,3.9541016,68.347168,2.2470703,68.347168,2.2470703z M68.9370117,9.1826172
	c-0.0151367,0.0957031-0.0239258,0.1884766-0.0351563,0.28125c-1.671875-0.3203125-2.8149414-1.859375-3.0390625-2.1787109
	c0.609375-0.3076172,1.5742188-0.6376953,2.9770508-0.6982422C68.9199219,6.8916016,69.1357422,7.8603516,68.9370117,9.1826172z
	 M69.5849609,2.1191406c0,0,1.8652344,1.3286133,1.9121094,3.940918c-0.1113281,0.0209961-0.2285156,0.0371094-0.3554688,0.0561523
	C71.1552734,3.690918,70.0898438,2.6401367,69.5849609,2.1191406z M71.4267578,6.4365234
	c1.4384766-0.2207031,1.8417969-0.6293945,1.8955078-0.6894531l0.0498047-0.0581055
	C73.3691406,5.6889648,74.4423828,6.3056641,71.4267578,6.4365234z"/>
<path d="M93.6943359,0.8510742l-9.7382813,1.4121094l0.6464844,4.4663086
	c0.4941406-0.2949219,0.7851563-0.6303711,0.8603516-0.765625c0.1923828-0.3359375,0.2402344-1.2949219,1.7705078-1.1518555
	c0.7695313-0.6699219,2.4921875-0.6191406,3.2832031-0.1430664c0.4794922,0.6938477,1.8203125,1.2451172,2.9960938,1.3422852
	c0.0957031,0.0708008,0.1181641,0.777832-0.546875,0.7612305c-0.0898438,0.2871094-0.3046875,0.3769531-0.3046875,0.3769531
	l0.1074219-0.3769531c0,0-0.0537109-0.0234375-0.1464844-0.0595703l-0.0351563,0.0654297l-0.0878906,0.1269531l-0.1816406-0.0976563
	l-0.125,0.0683594l-0.2255859-0.1708984l-0.1445313,0.0712891l-0.1171875-0.171875l-0.1513672,0.0703125l-0.1455078-0.0234375
	l-0.1064453,0.0449219l-0.1601563-0.0634766l-0.2626953,0.0556641l-0.0205078-0.1044922
	c-0.2109375,0.0458984-0.4277344,0.1152344-0.6464844,0.2236328c-0.0136719,0.0761719,0.0136719,0.125,0.0488281,0.1582031
	l0.25-0.203125l0.0791016,0.0996094l0.1269531-0.0351563l-0.0263672,0.2519531l0.2070313-0.0566406l0.0800781,0.1621094
	l0.1816406-0.0097656l0.0625,0.1083984h0.1962891l-0.0097656,0.0888672l0.2255859-0.0703125l0.1083984,0.1796875
	c0,0,0.1787109-0.0175781,0.1787109,0.0097656s0.1201172,0.1279297,0.1201172,0.1279297s0.2167969,0.0224609,0.296875-0.1455078
	c0.0810547-0.1699219,0.1806641-0.0703125,0.1455078,0.0712891c-0.0292969,0.1201172-0.0976563,0.2314453-0.1347656,0.2763672
	c0.046875,0.0078125,0.0917969,0.0107422,0.1347656,0.0107422c0,0.1455078,0.1064453,0.3417969-0.9365234,0.2167969
	c-1.0410156-0.1269531-2.7138672-0.3769531-4.0791016,1.0410156c-0.4716797,0.4912109-1.2666016,1.2929688-2.2207031,2.1152344
	l0.1152344,0.7988281l9.7402344-1.4111328L93.6943359,0.8510742z"/>
<path d="M107.8242188,3.1040039c0,0,0.0068359,0.0087891,0.0087891,0.0112305
	c0.0214844,0.0126953,0.0488281,0.019043,0.0703125,0.0327148C107.8525391,3.1191406,107.8242188,3.1040039,107.8242188,3.1040039z
	 M111.4208984,4.8569336c-0.0791016-0.0498047-0.0214844-0.1967773,0.0996094-0.1577148
	c0.0605469,0.019043,0.2089844,0.1079102,0.359375,0.2128906c0.0722656-0.0742188,0.1367188-0.1391602,0.1835938-0.1938477
	c0.0351563-0.0380859,0.0742188-0.0771484,0.1152344-0.1201172c-0.1308594-0.0859375-0.2626953-0.1640625-0.3515625-0.2060547
	c-0.1054688-0.0488281,0.0097656-0.1572266,0.1582031-0.1279297c0.0654297,0.0117188,0.2050781,0.0908203,0.3476563,0.1870117
	c0.09375-0.0849609,0.1982422-0.1762695,0.3144531-0.2680664C112.5,4.0869141,112.3564453,4.0048828,112.3007813,3.980957
	c-0.1376953-0.0581055,0.0341797-0.1708984,0.1923828-0.112793c0.0761719,0.0268555,0.2050781,0.0957031,0.3320313,0.1777344
	c0.0869141-0.0649414,0.1767578-0.1259766,0.2714844-0.1879883c-0.1328125-0.0820313-0.2705078-0.1499023-0.375-0.1826172
	c-0.125-0.0390625,0.0205078-0.1591797,0.1835938-0.1142578c0.0957031,0.0268555,0.234375,0.0678711,0.3847656,0.1738281
	c0.0791016-0.046875,0.1582031-0.0927734,0.2382813-0.1357422c-0.0957031-0.059082-0.2041016-0.1088867-0.3300781-0.1420898
	c-0.1064453-0.0268555-0.2041016-0.059082-0.0400391-0.0888672c0.1103516-0.0200195,0.3232422,0.0019531,0.5361328,0.1459961
	c0.0683594-0.0332031,0.1376953-0.0639648,0.2070313-0.0942383c-0.1210938-0.0708008-0.2392578-0.1240234-0.2949219-0.1308594
	c-0.1123047-0.0161133-0.1865234-0.0791016,0.0957031-0.0600586c0.1201172,0.0087891,0.2402344,0.0610352,0.3515625,0.1298828
	c0.3027344-0.1157227,0.6181641-0.1918945,0.9296875-0.2041016c-1.4433594-0.6425781-3.6679688,0.3681641-4.6992188,1.6923828
	c-0.4580078,0.5859375-0.7451172,1.140625-0.8945313,1.6401367c0.0341797-0.1884766,0.0595703-0.3793945,0.0595703-0.5771484
	c0-0.4770508-0.1044922-0.9321289-0.2900391-1.340332c-0.0849609,0.1152344-0.1982422,0.2060547-0.1982422,0.2060547
	s-0.4033203-0.5859375-0.8808594-0.9506836c-0.0224609-0.4492188-0.2216797-0.684082-0.2460938-0.7099609
	c-0.4179688-0.2451172-0.8935547-0.40625-1.4052734-0.4414063c-0.2177734,0.0283203-0.7421875,0.128418-0.875,0.3212891
	c-0.2050781-0.0449219-0.6230469-0.0161133-0.9980469,0.1176758c-0.9589844,0.5634766-1.6025391,1.6054688-1.6025391,2.7983398
	c0,0.2792969,0.0458984,0.546875,0.1123047,0.8066406c-0.0625-0.1054688-0.1210938-0.2128906-0.2128906-0.3027344
	c-0.5214844-0.5229492-1.328125-0.5898438-1.9257813-0.203125l2.1308594,2.1308594
	c0.1972656-0.3046875,0.2744141-0.6621094,0.234375-1.0107422c0.5273438,1.0771484,1.6259766,1.8251953,2.9082031,1.8251953
	c1.5253906,0,2.7988281-1.0566406,3.1464844-2.4765625c-0.1660156,0.7167969-0.0449219,1.3066406,0.2910156,1.6757813
	c0.1572266-1.2705078,1.390625-2.5693359,2.0820313-3.2802734C111.5966797,4.9799805,111.4736328,4.8911133,111.4208984,4.8569336z
	 M103.4775391,6.1826172c0,0-0.2578125,0-0.4902344-0.0756836c0-1.0610352,0.3183594-1.6210938,0.3183594-1.6210938
	l0.3300781-0.3188477c0,0,0.0117188,0.3432617,0.2314453,0.7583008C103.5,5.5458984,103.4775391,6.1826172,103.4775391,6.1826172z
	 M105.6728516,8.7197266c0,0-0.8769531-0.2441406-1.0625-0.3544922c-0.1816406-0.109375-0.4257813-0.6337891-0.4140625-1.1220703
	c0.4394531-0.0117188,1.0996094-0.1835938,1.0996094-0.1835938s0.4150391,0.5371094,0.9150391,0.9257813
	C105.796875,8.4384766,105.6728516,8.7197266,105.6728516,8.7197266z M107.0556641,5.4370117
	c-0.4296875,0.1328125-1.3671875,0.2919922-1.3671875,0.2919922s-0.4160156-0.487793-0.7109375-1.0742188
	c0.1953125-0.3535156,0.8564453-0.9638672,0.8564453-0.9638672c0.5722656,0.109375,1.2451172,0.4750977,1.2451172,0.4750977
	S107.1513672,4.6191406,107.0556641,5.4370117z M109.0322266,7.0341797c0,0-0.28125,0.5869141-0.7919922,0.9902344
	c-0.4404297-0.1962891-0.6972656-0.4033203-0.6972656-0.4033203s0.3916016-0.8193359,0.3916016-1.2216797
	c0,0,0.5976563-0.1230469,0.9394531-0.3652344C109.1064453,6.4609375,109.0322266,7.0341797,109.0322266,7.0341797z
	 M117.7275391,7.4082031c-0.0185547,0.0878906-0.0947266,0.1962891-0.3378906,0.1884766
	c-0.6269531-0.0253906-1.1582031-0.6699219-1.796875-0.1777344c-0.6386719,0.4902344-0.2890625,1.3476563,0.4482422,1.5419922
	c-1.1103516-0.2783203-0.9990234-1.2646484-0.5556641-1.5898438c0.4414063-0.3242188,0.75-0.3486328,1.4414063-0.0185547
	c0.6484375,0.3115234,0.7412109,0.1289063,0.7949219-0.0058594c-0.0390625-0.4589844-0.3886719-1.2705078-1.4453125-1.2705078
	c-0.1796875,0-0.3515625,0.0419922-0.5117188,0.1064453c0.96875-1.9477539-0.3339844-2.8217773-0.6738281-2.96875
	c-0.2910156,0.0200195-0.6054688,0.0742188-0.9570313,0.2041016c0.1074219,0.0830078,0.1933594,0.1772461,0.2285156,0.2460938
	c0.0351563,0.0600586-0.0234375,0.1538086-0.1523438-0.0048828c-0.0498047-0.0600586-0.1318359-0.125-0.2207031-0.184082
	c-0.0722656,0.0288086-0.1445313,0.0620117-0.21875,0.0966797c0.0712891,0.0600586,0.1416016,0.1333008,0.2070313,0.2260742
	c0.0820313,0.1240234,0.0283203,0.2470703-0.0898438,0.1079102c-0.0625-0.0698242-0.1523438-0.1645508-0.2753906-0.2519531
	c-0.0771484,0.0429688-0.1591797,0.090332-0.2441406,0.1411133c0.0830078,0.0678711,0.1660156,0.15625,0.2470703,0.2709961
	c0.0244141,0.0532227,0.0205078,0.2421875-0.1435547,0.0742188c-0.0664063-0.0703125-0.1728516-0.1513672-0.2851563-0.2260742
	c-0.0878906,0.0600586-0.1796875,0.1230469-0.2705078,0.1938477c0.1025391,0.0722656,0.1943359,0.1489258,0.2441406,0.2148438
	c0.1201172,0.1621094-0.0205078,0.3061523-0.1474609,0.1484375c-0.0507813-0.0629883-0.1601563-0.1484375-0.2753906-0.2270508
	c-0.1035156,0.0830078-0.2109375,0.1708984-0.3203125,0.2670898c0.140625,0.1040039,0.2675781,0.2128906,0.3085938,0.284668
	c0.0898438,0.1591797-0.0390625,0.2573242-0.1464844,0.1201172c-0.0527344-0.0649414-0.1777344-0.1669922-0.3193359-0.2641602
	c-0.1035156,0.0961914-0.2080078,0.1962891-0.3173828,0.3022461c0.125,0.0888672,0.2421875,0.1821289,0.3007813,0.2490234
	c0.1376953,0.1586914-0.0683594,0.237793-0.1972656,0.1279297c-0.0566406-0.0458984-0.1601563-0.1279297-0.2675781-0.2119141
	c-0.1289063,0.1318359-0.2617188,0.2709961-0.3964844,0.4208984c-1.7128906,1.8779297-1.6640625,2.8964844-1.6640625,2.8964844
	c0.5507813,1.0410156,3.4277344,0.6386719,5.1152344-0.9755859c-0.0048828,0.0498047-0.015625,0.0966797-0.015625,0.1455078
	c0,1.0986328,0.9648438,1.4375,1.5625,1.4375C116.9736328,9.0439453,117.9404297,8.3525391,117.7275391,7.4082031z
	 M100.5087891,6.6123047l2.1484375,2.1464844c0.0166016-0.0117188,0.0332031-0.0234375,0.0517578-0.0371094l-2.1611328-2.1621094
	C100.5361328,6.5771484,100.5224609,6.5947266,100.5087891,6.6123047z M100.6767578,8.5927734
	c0.5224609,0.5244141,1.3291016,0.5917969,1.9257813,0.2041016l-2.1289063-2.1298828
	C100.0830078,7.2646484,100.1513672,8.0693359,100.6767578,8.5927734z M100.8193359,6.2880859l2.1621094,2.1601563
	c0.0126953-0.0175781,0.0244141-0.0341797,0.0390625-0.0527344L100.8710938,6.25
	C100.8544922,6.2626953,100.8369141,6.2724609,100.8193359,6.2880859z M102.9404297,8.4990234l-2.171875-2.1699219
	c0-0.0019531,0-0.0039063-0.0039063-0.0039063c-0.0234375-0.0253906-0.0859375-0.0058594-0.1347656,0.0449219
	c-0.0507813,0.0517578-0.0703125,0.1113281-0.046875,0.1376953c0.0029297,0,0.0029297,0.0009766,0.0048828,0.0029297
	l2.1728516,2.1699219c0,0.0019531,0,0.0019531,0.0019531,0.0019531c0.0244141,0.0263672,0.0859375,0.0058594,0.1347656-0.0429688
	c0.0517578-0.0498047,0.0722656-0.1113281,0.046875-0.1376953C102.9423828,8.5019531,102.9423828,8.5,102.9404297,8.4990234z"/>
<path d="M129.0966797,12.1533203c-3.3564453,0-6.078125-2.7207031-6.078125-6.0761719
	c0-3.355957,2.7216797-6.0771484,6.078125-6.0771484c3.3544922,0,6.0751953,2.7202148,6.0751953,6.0771484
	C135.171875,9.4326172,132.4511719,12.1533203,129.0966797,12.1533203z M129.0966797,1.3510742
	c-2.6113281,0-4.7275391,2.1162109-4.7275391,4.7270508c0,2.6103516,2.1162109,4.7255859,4.7275391,4.7255859
	c2.6083984,0,4.7255859-2.1152344,4.7255859-4.7255859C133.8212891,3.4658203,131.7050781,1.3510742,129.0966797,1.3510742z
	 M130.7705078,6.5107422c0.2539063,0.2832031,0.3808594,0.6347656,0.3808594,1.0546875
	c0,0.5449219-0.1640625,0.9863281-0.4863281,1.3222656C130.3398438,9.2236328,129.8789063,9.4287109,129.2822266,9.5v0.7685547
	h-0.4746094v-0.75c-0.5371094-0.0351563-0.96875-0.1757813-1.2929688-0.4160156
	c-0.3261719-0.2421875-0.5449219-0.5839844-0.6523438-1.0273438l0.8544922-0.3789063
	c0.0722656,0.2587891,0.1992188,0.4609375,0.3798828,0.6035156c0.1816406,0.1445313,0.4179688,0.2324219,0.7109375,0.265625
	V6.4980469c-0.6191406-0.2529297-1.0664063-0.5307617-1.3486328-0.8339844
	c-0.2802734-0.3022461-0.4208984-0.6591797-0.4208984-1.0688477c0-0.4799805,0.15625-0.875,0.4707031-1.1860352
	c0.3134766-0.3100586,0.7470703-0.5,1.2988281-0.5703125V2.3310547h0.4746094V2.847168
	c0.4316406,0.0390625,0.7851563,0.1459961,1.0625,0.3208008c0.2773438,0.175293,0.4765625,0.4179688,0.59375,0.7290039
	l-0.8339844,0.4160156c-0.1015625-0.1601563-0.21875-0.2861328-0.3525391-0.3769531
	c-0.1318359-0.0917969-0.2880859-0.1552734-0.4707031-0.1879883V5.565918
	C130.0205078,5.9121094,130.5185547,6.2275391,130.7705078,6.5107422z M129.2822266,8.5371094
	c0.2480469-0.0634766,0.4375-0.1748047,0.5644531-0.328125c0.1308594-0.1552734,0.1943359-0.3505859,0.1943359-0.5820313
	c0-0.1982422-0.0595703-0.3720703-0.1806641-0.5205078c-0.1201172-0.1474609-0.3134766-0.2851563-0.5791016-0.4160156v1.8466797
	H129.2822266z M128.8076172,3.7739258c-0.2197266,0.065918-0.3789063,0.1591797-0.4785156,0.2783203
	c-0.0976563,0.1186523-0.1484375,0.2758789-0.1484375,0.4726563c0,0.1870117,0.0507813,0.3500977,0.1484375,0.4882813
	c0.0996094,0.1386719,0.2597656,0.2675781,0.4785156,0.3847656V3.7739258z"/>
</svg>
