<?xml version="1.0" encoding="utf-8"?>
<!-- Generator: Adobe Illustrator 16.0.3, SVG Export Plug-In . SVG Version: 6.00 Build 0)  -->
<!DOCTYPE svg PUBLIC "-//W3C//DTD SVG 1.1//EN" "http://www.w3.org/Graphics/SVG/1.1/DTD/svg11.dtd">
<svg version="1.1" id="Layer_1" xmlns="http://www.w3.org/2000/svg" xmlns:xlink="http://www.w3.org/1999/xlink" x="0px" y="0px"
	 width="100px" height="100px" viewBox="0.5 100.5 100 100" enable-background="new 0.5 100.5 100 100" xml:space="preserve">
<g>
	<g>
		<path fill="#666666" d="M10,116.5h2v-8h-2V116.5z M10,104.5v2h2v-2H10z"/>
	</g>
</g>
<path fill="#666666" d="M26.885,107.555l1.179-1.18l2.946,2.945l2.946-2.945l1.179,1.18l-2.947,2.945l2.946,2.945l-1.179,1.18
	l-2.946-2.945l-2.946,2.945l-1.179-1.18l2.947-2.945L26.885,107.555z"/>
<path fill="#666666" d="M52.755,115l1.169-1.125l-3.508-3.375l3.508-3.375L52.755,106l-4.679,4.5L52.755,115z"/>
<path fill="#666666" d="M69.245,106l-1.169,1.125l3.508,3.375l-3.508,3.375L69.245,115l4.679-4.5L69.245,106z"/>
<path fill="#666666" d="M55.5,128.669l-1.125-1.169L51,131.008l-3.375-3.508l-1.125,1.169l4.5,4.679L55.5,128.669z"/>
<path fill="#666666" d="M66.5,132.18l1.125,1.168L71,129.84l3.375,3.508l1.125-1.168L71,127.5L66.5,132.18z"/>
<g>
	
		<rect x="89.19" y="106.67" transform="matrix(-0.7068 -0.7074 0.7074 -0.7068 76.8684 253.0888)" fill="#666666" width="3.382" height="7.89"/>
	<polygon fill="#666666" points="86.5,115 88.096,115 86.5,113.404 	"/>
	<path fill="#666666" d="M95.271,105.432c0,0-0.799-0.795-1.599,0c-0.797,0.797-0.797,0.797-0.797,0.797l2.396,2.396
		c0,0,0,0,0.797-0.797c0.797-0.8,0-1.599,0-1.599L95.271,105.432z"/>
</g>
<polygon fill="#666666" points="27,129.5 31.021,133.521 35.04,129.5 "/>
<polygon fill="#666666" points="15.02,133.521 10.998,129.5 6.98,133.521 "/>
<rect x="86" y="124.5" fill="#666666" width="10" height="2"/>
<rect x="86" y="128.5" fill="#666666" width="10" height="2"/>
<rect x="86" y="132.501" fill="#666666" width="10" height="2"/>
</svg>
