<?xml version="1.0" encoding="utf-8"?>
<!-- Generator: Adobe Illustrator 16.0.3, SVG Export Plug-In . SVG Version: 6.00 Build 0)  -->
<!DOCTYPE svg PUBLIC "-//W3C//DTD SVG 1.1//EN" "http://www.w3.org/Graphics/SVG/1.1/DTD/svg11.dtd">
<svg version="1.1" id="Layer_1" xmlns="http://www.w3.org/2000/svg" xmlns:xlink="http://www.w3.org/1999/xlink" x="0px" y="0px"
	 width="80px" height="40px" viewBox="0 0 80 40" enable-background="new 0 0 80 40" xml:space="preserve">
<path fill="#FFFFFF" d="M3,38h5v-6h4v6h5v-7h3l-10-9L0,31h3V38z"/>
<path fill="#FFFFFF" d="M32,38l2-2l-6-6l6-6l-2-2l-8,8L32,38z"/>
<path fill="#FFFFFF" d="M48,22l-2,2l6,6l-6,6l2,2l8-8L48,22z"/>
<path fill="#FFFFFF" d="M78,30c0-4.418-3.582-8-8-8c-2.775,0-5.218,1.418-6.652,3.564l1.664,1.108C66.087,25.063,67.918,24,70,24
	c3.313,0,6,2.688,6,6h-2l3.042,3.125L80,30H78z M70,36c-3.313,0-6-2.688-6-6h2l-3.042-3.125L60,30h2c0,4.418,3.582,8,8,8
	c2.775,0,5.218-1.418,6.652-3.564l-1.664-1.108C73.913,34.938,72.082,36,70,36z"/>
<path fill="#FFFFFF" d="M12.6,16l1.4-1.5L9.8,10L14,5.5L12.6,4L7,10L12.6,16z"/>
<path fill="#FFFFFF" d="M38.429,17.032c-1.871,0-8.42,0-8.42,0s-6.549,0-8.419,0c0-4.678,6.548-3.273,6.548-4.678
	c0-1.87-1.642-1.87-1.642-3.741c0-1.871,0-0.936,0-2.807S28.138,3,30.009,3c1.871,0,3.513,0.936,3.513,2.807s0,0.936,0,2.807
	c0,1.871-1.642,1.871-1.642,3.741C31.88,13.759,38.429,12.354,38.429,17.032z"/>
<path fill="#FFFFFF" d="M56,15.01c0,0-0.171,0-2,0v-6h2v-1l-4.923,0.008L49,7.009h7v-1L46.913,6.03l-3.708-1.698
	C43.205,4.021,43.658,4,43.658,4S54.934,4.009,56,4.009c0.98,0,1,1,1,1s0.003,7.923,0.003,8.991C57.003,14.658,56,15.01,56,15.01z
	 M53.002,10.013c0,1.824,0,9.239,0,9.687c0,0.508-0.479,0.252-0.479,0.252l-9.258-5.213c0,0-0.267-0.15-0.267-0.533
	c0-0.268,0-9.23,0-9.23l9.64,4.482C52.639,9.457,53.002,9.622,53.002,10.013z M51.49,12.848c-0.264-0.128-0.477,0.097-0.477,0.503
	c0,0.406,0.213,0.838,0.477,0.965c0.263,0.129,0.477-0.098,0.477-0.502C51.967,13.408,51.753,12.976,51.49,12.848z"/>
<g>
	<g>
		<path fill="#FFFFFF" d="M64,4v1.993h12V4H64z M64,10.993h12V9H64V10.993z M64,15.993h12V14H64V15.993z"/>
	</g>
</g>
</svg>
