<?xml version="1.0" encoding="utf-8"?>
<!-- Generator: Adobe Illustrator 16.0.3, SVG Export Plug-In . SVG Version: 6.00 Build 0)  -->
<!DOCTYPE svg PUBLIC "-//W3C//DTD SVG 1.1//EN" "http://www.w3.org/Graphics/SVG/1.1/DTD/svg11.dtd">
<svg version="1.1" id="Layer_1" xmlns="http://www.w3.org/2000/svg" xmlns:xlink="http://www.w3.org/1999/xlink" x="0px" y="0px" fill="#D64748"
	 width="100px" height="100px" viewBox="0 0 100 100" enable-background="new 0 0 100 100" xml:space="preserve">
<path fill-rule="evenodd" clip-rule="evenodd" d="M21.146,15.854C2.563,31.513,0.194,59.271,15.854,77.854
	c15.66,18.582,43.417,20.952,62,5.292c18.582-15.659,20.951-43.417,5.292-62C67.487,2.564,39.729,0.194,21.146,15.854z
	 M24.179,70.839c-10.619-12.602-10.22-30.809,0.195-42.91L66.501,77.92C52.81,86.132,34.798,83.44,24.179,70.839z M74.627,71.071
	L32.5,21.081c13.691-8.213,31.703-5.521,42.323,7.081C85.441,40.763,85.041,58.971,74.627,71.071z"/>
</svg>
