<?xml version="1.0" encoding="utf-8"?>
<!-- Generator: Adobe Illustrator 15.1.0, SVG Export Plug-In . SVG Version: 6.00 Build 0)  -->
<!DOCTYPE svg PUBLIC "-//W3C//DTD SVG 1.1//EN" "http://www.w3.org/Graphics/SVG/1.1/DTD/svg11.dtd">
<svg version="1.1" id="Layer_1" xmlns="http://www.w3.org/2000/svg" xmlns:xlink="http://www.w3.org/1999/xlink" x="0px" y="0px"
	 width="720px" height="120px" viewBox="0 0 720 120" enable-background="new 0 0 720 120" xml:space="preserve">
<path fill="#512D6D" d="M59.729,106.689c-26.325,0-47.666-21.342-47.666-47.667c0-26.324,21.341-47.665,47.666-47.665
	c26.326,0,47.666,21.341,47.666,47.665C107.395,85.35,86.055,106.689,59.729,106.689z M59.729,21.95
	c-20.475,0-37.073,16.598-37.073,37.073c0,20.476,16.598,37.075,37.073,37.075c20.476,0,37.074-16.599,37.074-37.075
	C96.803,38.548,80.205,21.95,59.729,21.95z M68.19,84.406H52.302l20.126-25.42L52.302,33.563H68.19l20.125,25.422L68.19,84.406z
	 M51.243,80.17H35.354l15.889-21.184L35.354,37.801h15.889l15.888,21.185L51.243,80.17z"/>
<path fill="#512D6D" d="M217.98,51.393c-4.215-1.529-8.777-2.624-11.945-2.902c-0.258-2.298-1.335-9.647-5.139-17.091
	c-5.459-10.685-14.17-16.814-25.333-17.891c-0.674-1.366-2.631-2.16-5.465-2.16c-0.579,0-1.177,0.037-1.776,0.106
	c-2.802,0.331-5.685,1.469-6.44,3.284c-10.856,3.217-19.055,11.933-23.998,25.684c-4.722,13.138-4.813,26.05-4.814,26.593
	l-0.008,3.854l2.629-2.82c0.029-0.029,0.923-0.96,2.82-2.26c1.723,2.58,12.624,17.936,29.591,20.84
	c-0.164,11.706,3.303,20.773,3.48,21.229l5.073-1.979c-0.045-0.115-4.622-12.164-2.586-25.691
	c1.837-12.209,0.289-20.125-0.423-22.854c0.401-0.004,0.8-0.009,1.192-0.016c3.845,0.06,9.657,0.53,15.947,2.395
	c5.609,1.662,15.324,4.059,24.852,3.137c9.526-0.922,11.579-3.324,11.579-4.842C227.216,57.198,227.216,54.742,217.98,51.393z
	 M163.688,20.735c-4.26,5.603-10.209,18.943-7.456,34.974c-1.024,0.195-2.012,0.403-2.959,0.628
	C149.856,35.163,163.688,20.735,163.688,20.735z M168.686,79.374c-0.121,0.804-0.22,1.599-0.301,2.388
	c-14.128-2.711-23.813-15.732-25.685-18.426c5.136-2.584,13.298-5.371,25.152-5.902C168.554,60.005,170.368,68.199,168.686,79.374z
	 M174.169,19.643c0,0,15.761,11.235,16.163,33.339c-0.938,0.161-1.939,0.311-3.004,0.45
	C187.459,32.945,178.434,24.042,174.169,19.643z M189.741,56.165c12.153-1.861,15.553-5.329,16.002-5.852l0.409-0.474
	C206.152,49.839,215.242,55.042,189.741,56.165z"/>
<path fill="#512D6D" d="M316.813,60.185C329.157,54.848,340,41.669,340,26.823c0-8.174-3.17-8.841-3.17-8.841h-37.531h-37.533
	c0,0-3.168,0.667-3.168,8.841c0,14.846,10.842,28.024,23.187,33.362c12.344,5.338,14.68,11.176,14.68,14.512
	c0,7.507-3.003,9.342-7.841,14.346c-4.837,5.005-10.676,4.671-10.676,6.84c0,2.168,7.673,6.172,21.353,6.172
	c13.679,0,21.353-4.004,21.353-6.172c0-2.169-5.84-1.835-10.678-6.84c-4.836-5.004-7.84-6.839-7.84-14.346
	C302.134,71.361,304.469,65.523,316.813,60.185z M325.82,35.164c0-4.67-1.168-5.671-1.168-9.008c0-3.336,2.17-5.337,6.34-5.337
	s10.842,5.004,1.168,22.019c-9.676,17.015-22.188,18.016-22.188,18.016S325.82,49.676,325.82,35.164z M266.438,42.837
	c-9.676-17.015-3.004-22.019,1.166-22.019s6.34,2.001,6.34,5.337c0,3.337-1.168,4.338-1.168,9.008
	c0,14.512,15.848,25.688,15.848,25.688S276.111,59.852,266.438,42.837z"/>
<path fill="#512D6D" d="M381.756,60.788l1.23,1.198c1.298-0.627,2.563-1.103,3.756-1.361
	C385.557,60.518,383.406,60.652,381.756,60.788z M472.035,47.351l-35.955-5.225l-16.078-32.58l-16.078,32.58l-35.956,5.225
	l13.052,12.72c5.666-3.208,14.095-4.968,14.095-4.968s-1.714-0.761-7.423-1.711c11.039-3.237,18.846-0.762,18.846-0.762
	s-3.43-2.093-8.379-3.236c2.101-1.143,10.092-3.045,16.374,0.571c-0.382-2.283,2.663-7.232,4.565-11.04
	c1.521,3.808,1.145,7.996,1.145,7.996s1.332-2.665,3.618-4.759c0.185,4.375-2.286,8.946-2.286,8.946s-0.189,2.284,4.377,6.471
	c4.571,4.187,15.422,18.847,17.893,24.175c2.477,5.33,1.332,4.949-0.379,7.805c-1.713,2.854-2.472,3.619-3.999,3.236
	c0.384,1.328,1.333,1.902-2.665,1.902c-3.997,0-5.709-4.76-5.709-4.76s-1.525-1.711-11.039-5.898
	c-8.186,0.762-12.371-6.473-9.712-13.518c-3.804,6.094,1.718,12.371,1.718,12.371s-2.871,6.377-3.765,14.873l11.71-6.158
	l32.161,16.91l-6.142-35.811L472.035,47.351z"/>
<path fill="#512D6D" d="M697.567,11.086L611.85,23.513l5.703,39.305c4.346-2.584,6.918-5.557,7.599-6.747
	c1.687-2.949,2.11-11.389,15.604-10.121c6.747-5.904,21.929-5.485,28.889-1.268c4.211,6.116,16.024,10.964,26.357,11.808
	c0.85,0.631,1.056,6.856-4.8,6.698c-0.788,2.531-2.688,3.319-2.688,3.319l0.946-3.319c0,0-0.455-0.211-1.268-0.504l-0.311,0.584
	l-0.795,1.104l-1.578-0.868l-1.104,0.638l-1.983-1.504l-1.263,0.631l-1.02-1.506l-1.354,0.631l-1.262-0.229l-0.953,0.39l-1.42-0.56
	l-2.293,0.479l-0.184-0.93c-1.855,0.395-3.762,1.02-5.673,1.96c-0.134,0.661,0.097,1.099,0.406,1.39l2.202-1.783l0.71,0.861
	l1.109-0.31l-0.235,2.215l1.819-0.474l0.717,1.42l1.577-0.073l0.553,0.946h1.741l-0.078,0.789l1.972-0.631l0.952,1.578
	c0,0,1.584-0.158,1.584,0.078s1.024,1.109,1.024,1.109s1.899,0.23,2.609-1.262c0.71-1.506,1.583-0.631,1.269,0.631
	c-0.268,1.056-0.855,2.045-1.184,2.439c0.419,0.061,0.813,0.09,1.184,0.09c0,1.27,0.946,3.004-8.229,1.899
	c-9.174-1.11-23.882-3.325-35.902,9.175c-4.149,4.313-11.14,11.37-19.544,18.604l1.021,7.031L710,96.805L697.567,11.086z"/>
<path fill="#512D6D" d="M540.244,10.999c26.615,0,48.188,21.573,48.188,48.185c0,26.612-21.572,48.185-48.188,48.185
	c-26.607,0-48.182-21.573-48.182-48.185C492.063,32.572,513.637,10.999,540.244,10.999z"/>
<path fill="#FFFFFF" d="M527.896,34.858l0.19,54.727h12.16V71.531l12.16-0.188v-12.16h-12.16v-12.16h18.236l0.188-12.166
	L527.896,34.858L527.896,34.858z"/>
</svg>
