<?xml version="1.0" encoding="utf-8"?>
<!-- Generator: Adobe Illustrator 15.1.0, SVG Export Plug-In . SVG Version: 6.00 Build 0)  -->
<!DOCTYPE svg PUBLIC "-//W3C//DTD SVG 1.1//EN" "http://www.w3.org/Graphics/SVG/1.1/DTD/svg11.dtd">
<svg version="1.1" id="Layer_1" xmlns="http://www.w3.org/2000/svg" xmlns:xlink="http://www.w3.org/1999/xlink" x="0px" y="0px"
	 width="80px" height="40px" viewBox="0 0 80 40" enable-background="new 0 0 80 40" xml:space="preserve">
<g>
	<g>
		<path fill="#CC2027" d="M38,0H22c-1.104,0-2,0.896-2,2v16c0,1.104,0.896,2,2,2h16c1.104,0,2-0.896,2-2V2C40,0.896,39.104,0,38,0z
			 M35.675,14.262l-1.417,1.416l-4.25-4.25l-4.25,4.25l-1.417-1.416l4.25-4.251l-4.25-4.25l1.417-1.417l4.25,4.25l4.25-4.25
			l1.417,1.417l-4.25,4.25L35.675,14.262z"/>
	</g>
</g>
<g>
	<g>
		<path fill="#8CBC3F" d="M18,0H2C0.895,0,0,0.896,0,2v16c0,1.104,0.895,2,2,2h16c1.104,0,2-0.896,2-2V2C20,0.896,19.104,0,18,0z
			 M8.339,15.686l-4.993-4.158l1.386-1.665l3.329,2.771l6.929-8.322l1.664,1.386L8.339,15.686z"/>
	</g>
</g>
<path fill="#5594CF" d="M78,0H62c-1.105,0-2,0.896-2,2v16c0,1.104,0.896,2,2,2h16c1.104,0,2-0.896,2-2V2C80,0.896,79.104,0,78,0z
	 M71,16.001L69,16V9.001h2V16.001z M71,7h-2V5h2V7z"/>
<path fill="#CC6728" d="M42,20h16c1.105,0,2-0.896,2-2V2c0-1.104-0.895-2-2-2H42c-1.104,0-2,0.896-2,2v16C40,19.104,40.896,20,42,20
	z M49,5h2v6.999h-2V5z M49,14h2v2h-2V14z"/>
<g>
	<g>
		<path fill="#CC2027" d="M35.675,34.262l-1.417,1.416l-4.25-4.25l-4.25,4.25l-1.417-1.416l4.25-4.25l-4.25-4.25l1.417-1.418
			l4.25,4.25l4.25-4.25l1.417,1.418l-4.25,4.25L35.675,34.262z"/>
	</g>
</g>
<g>
	<g>
		<path fill="#8CBC3F" d="M8.339,35.686l-4.993-4.158l1.386-1.664l3.329,2.771l6.929-8.322l1.664,1.387L8.339,35.686z"/>
	</g>
</g>
<path fill="#5594CF" d="M71,36.002L69,36v-6.998h2V36.002z M71,27h-2v-2h2V27z"/>
<path fill="#CC6728" d="M49,25h2v7h-2V25z M49,34h2v2h-2V34z"/>
</svg>
