<?xml version="1.0" encoding="utf-8"?>
<!-- Generator: Adobe Illustrator 16.0.0, SVG Export Plug-In . SVG Version: 6.00 Build 0)  -->
<!DOCTYPE svg PUBLIC "-//W3C//DTD SVG 1.1//EN" "http://www.w3.org/Graphics/SVG/1.1/DTD/svg11.dtd">
<svg version="1.1" id="Layer_1" xmlns="http://www.w3.org/2000/svg" xmlns:xlink="http://www.w3.org/1999/xlink" x="0px" y="0px"
	 width="30px" height="10px" viewBox="0.5 30.5 30 10" enable-background="new 0.5 30.5 30 10" xml:space="preserve">
<rect x="3.192" y="32.169" transform="matrix(-0.7071 -0.7071 0.7071 -0.7071 -17.2009 65.1066)" fill="#666666" width="3.382" height="7.892"/>
<polygon fill="#666666" points="0.5,40.5 2.095,40.5 0.5,38.905 "/>
<path fill="#666666" d="M9.271,30.932c0,0-0.799-0.795-1.597,0c-0.797,0.797-0.797,0.797-0.797,0.797l2.394,2.394
	c0,0,0,0,0.797-0.797c0.797-0.798,0-1.597,0-1.597L9.271,30.932z"/>
<polygon fill="#666666" points="11.495,34.49 15.516,38.512 19.535,34.49 "/>
<polygon fill="#666666" points="29.5,37.521 25.479,33.5 21.46,37.521 "/>
</svg>
