<?xml version="1.0" encoding="utf-8"?>
<!-- Generator: Adobe Illustrator 16.0.3, SVG Export Plug-In . SVG Version: 6.00 Build 0)  -->
<!DOCTYPE svg PUBLIC "-//W3C//DTD SVG 1.1//EN" "http://www.w3.org/Graphics/SVG/1.1/DTD/svg11.dtd">
<svg version="1.1" id="Layer_1" xmlns="http://www.w3.org/2000/svg" xmlns:xlink="http://www.w3.org/1999/xlink" x="0px" y="0px"
	 width="100px" height="100px" viewBox="0.5 100.5 100 100" enable-background="new 0.5 100.5 100 100" xml:space="preserve">
<g>
	<g>
		<path fill="#FFFFFF" d="M9.5,116.5h2v-8h-2V116.5z M9.5,104.5v2h2v-2H9.5z"/>
	</g>
</g>
<path fill="#FFFFFF" d="M26.385,107.555l1.179-1.18l2.946,2.945l2.946-2.945l1.179,1.18l-2.947,2.945l2.946,2.945l-1.179,1.18
	l-2.946-2.945l-2.946,2.945l-1.179-1.18l2.947-2.945L26.385,107.555z"/>
<path fill="#FFFFFF" d="M52.255,115l1.169-1.125l-3.508-3.375l3.508-3.375L52.255,106l-4.679,4.5L52.255,115z"/>
<path fill="#FFFFFF" d="M68.745,106l-1.169,1.125l3.508,3.375l-3.508,3.375L68.745,115l4.679-4.5L68.745,106z"/>
<path fill="#FFFFFF" d="M55,128.669l-1.125-1.169l-3.375,3.508l-3.375-3.508L46,128.669l4.5,4.679L55,128.669z"/>
<path fill="#FFFFFF" d="M66,132.18l1.125,1.168l3.375-3.508l3.375,3.508L75,132.18l-4.5-4.68L66,132.18z"/>
<g>
	
		<rect x="88.69" y="106.67" transform="matrix(-0.7068 -0.7074 0.7074 -0.7068 76.015 252.7351)" fill="#FFFFFF" width="3.382" height="7.89"/>
	<polygon fill="#FFFFFF" points="86,115 87.596,115 86,113.404 	"/>
	<path fill="#FFFFFF" d="M94.771,105.432c0,0-0.799-0.795-1.599,0c-0.797,0.797-0.797,0.797-0.797,0.797l2.396,2.396
		c0,0,0,0,0.797-0.797c0.797-0.8,0-1.599,0-1.599L94.771,105.432z"/>
</g>
<polygon fill="#FFFFFF" points="26.5,129.5 30.521,133.521 34.54,129.5 "/>
<polygon fill="#FFFFFF" points="14.52,133.521 10.498,129.5 6.48,133.521 "/>
<rect x="85.5" y="124.5" fill="#FFFFFF" width="10" height="2"/>
<rect x="85.5" y="128.5" fill="#FFFFFF" width="10" height="2"/>
<rect x="85.5" y="132.501" fill="#FFFFFF" width="10" height="2"/>
</svg>
