<?xml version="1.0" encoding="utf-8"?>
<!-- Generator: Adobe Illustrator 16.0.0, SVG Export Plug-In . SVG Version: 6.00 Build 0)  -->
<!DOCTYPE svg PUBLIC "-//W3C//DTD SVG 1.1//EN" "http://www.w3.org/Graphics/SVG/1.1/DTD/svg11.dtd">
<svg version="1.1" id="Layer_1" xmlns="http://www.w3.org/2000/svg" xmlns:xlink="http://www.w3.org/1999/xlink" x="0px" y="0px"
	 width="1442.83px" height="340.16px" viewBox="0 0 1442.83 340.16" enable-background="new 0 0 1442.83 340.16"
	 xml:space="preserve">
<rect x="-13" y="-51" display="none" fill="#ED1C24" width="1458.223" height="408"/>
<g>
	<rect x="-270.97" y="12.792" fill="none" width="1986.97" height="602.82"/>
	<path fill="#FFFFFF" d="M483.27,157.082c0.849,3.395-0.637,5.517-3.819,5.517h-23.553c-4.456,0-6.79-1.061-7.639-4.668
		c-4.668-16.126-11.034-46.045-11.67-48.804H420.25l-9.336,48.804c-0.212,1.91-1.485,4.668-5.093,4.668h-25.25
		c-3.607,0-4.456-1.91-4.031-4.668l25.675-131.77c0.637-2.546,2.122-4.668,5.729-4.668l51.562,0.212
		c21.643,0,39.042,10.609,39.042,36.072c0,18.885-10.185,35.648-30.555,45.196L483.27,157.082z M431.708,50.563l-5.729,30.768
		h16.551c9.973,0,20.158-5.729,20.158-19.097c0-8.488-5.941-11.67-14.641-11.67H431.708z"/>
	<path fill="#FFFFFF" d="M531.862,156.658c-2.122,4.456-4.668,5.941-8.488,5.941h-24.401c-3.183,0-4.244-0.849-1.91-5.517
		l65.779-129.435c2.122-3.819,3.819-6.153,9.548-6.153h26.736c5.941,0,6.366,2.334,7.002,6.366l17.399,129.647
		c0.212,3.395-0.424,5.092-3.395,5.092h-25.25c-4.668,0-5.517-2.122-5.941-6.578l-2.122-25.25h-42.226L531.862,156.658z
		 M582.575,81.543l-1.697-25.887h-1.061l-12.095,25.675L556.9,104.884h27.584L582.575,81.543z"/>
	<path fill="#FFFFFF" d="M749.355,26.798c4.031,1.91,6.365,3.819,4.031,9.548l-5.305,12.52c-1.485,4.031-2.971,4.88-8.063,4.244
		c-11.671-1.061-21.856-2.334-30.768-2.334c-23.341,0-32.041,17.824-36.285,41.165c-1.485,7.214-2.122,13.58-1.91,19.097
		c0.424,15.278,7.002,22.917,23.341,22.917c11.458,0,18.46-0.637,32.253-2.122c5.305-0.424,7.002,0,7.427,4.244l0.424,11.67
		c0.637,5.305-2.546,7.851-7.214,9.761c-11.671,4.668-28.434,7.214-41.802,7.214c-40.315,0-51.35-23.129-50.925-51.35
		c0-6.79,0.849-13.792,1.91-20.794c5.729-36.072,21.855-72.568,73.417-72.568C723.256,20.008,739.383,21.918,749.355,26.798z"/>
	<path fill="#FFFFFF" d="M776.73,26.374c0.636-2.758,2.121-4.88,5.729-4.88h25.038c3.819,0,3.819,2.758,3.396,4.88L785.43,157.931
		c-0.424,1.91-1.485,4.668-5.305,4.668h-25.038c-3.607,0-4.456-1.91-4.031-4.668L776.73,26.374z"/>
	<path fill="#FFFFFF" d="M857.147,80.482h-0.637l-14.853,77.449c-0.425,2.122-1.485,4.668-5.305,4.668h-24.189
		c-2.971,0-4.032-1.273-4.032-3.183c0-0.425,0.212-1.061,0.212-1.485l25.463-131.557c0.637-2.546,2.122-4.668,5.729-4.668h17.611
		c6.578,0,7.215,2.334,8.912,5.941l32.677,75.115h0.849c4.669-25.462,9.549-50.925,14.429-76.176c0.425-2.122,1.485-4.88,5.306-4.88
		h24.189c2.971,0,4.031,1.273,4.031,3.183c0,0.424,0,1.061-0.212,1.697c-8.7,43.711-17.188,87.634-25.675,131.557
		c-0.425,2.546-1.91,4.456-5.518,4.456h-17.611c-4.88,0-6.79-1.91-8.275-5.092l-21.431-49.228L857.147,80.482z"/>
	<path fill="#FFFFFF" d="M1068.913,26.798c4.032,1.91,6.366,3.819,3.819,9.548l-5.092,12.52c-1.485,4.031-2.971,4.88-8.063,4.244
		c-11.671-1.061-22.067-2.334-30.979-2.334c-23.129,0-32.253,17.611-36.709,41.165c-1.273,7.214-2.122,14.004-1.909,19.097
		c0.212,14.854,3.819,23.341,21.006,23.341c4.881,0,10.822-0.637,15.278-1.485l4.668-24.401h-14.217
		c-3.819,0-4.244-1.698-3.819-4.456l3.607-18.249c0.424-2.758,1.697-4.668,5.517-4.668h42.438c2.971,0,4.456,1.91,4.032,4.668
		l-11.883,60.262c-1.061,4.88-2.546,9.124-8.7,11.458c-14.641,5.305-33.101,7.214-46.469,7.214
		c-40.528,0-48.379-23.553-48.167-51.138c0-6.578,0.849-13.792,2.122-21.007c5.729-36.496,22.704-72.568,73.842-72.568
		C1041.116,20.008,1058.94,21.918,1068.913,26.798z"/>
	<path fill="#FFFFFF" d="M384.498,191.46c4.032,1.91,6.366,3.819,4.032,9.549l-5.305,12.519c-1.485,4.032-2.97,4.881-8.063,4.244
		c-11.67-1.062-21.855-2.334-30.768-2.334c-23.34,0-32.04,17.823-36.284,41.164c-1.485,7.215-2.122,13.58-1.91,19.098
		c0.424,15.277,7.002,22.916,23.341,22.916c11.458,0,18.46-0.637,32.253-2.122c5.305-0.424,7.002,0,7.426,4.244l0.424,11.67
		c0.637,5.305-2.546,7.852-7.214,9.761c-11.67,4.668-28.433,7.215-41.801,7.215c-40.316,0-51.35-23.129-50.926-51.35
		c0-6.79,0.849-13.793,1.91-20.795c5.729-36.072,21.855-72.568,73.417-72.568C358.398,184.67,374.524,186.58,384.498,191.46z"/>
	<path fill="#FFFFFF" d="M410.811,321.319c-2.122,4.456-4.668,5.941-8.488,5.941h-24.401c-3.183,0-4.244-0.849-1.91-5.517
		l65.778-129.436c2.122-3.819,3.819-6.153,9.548-6.153h26.736c5.941,0,6.366,2.334,7.002,6.365l17.399,129.647
		c0.212,3.396-0.424,5.093-3.395,5.093h-25.25c-4.668,0-5.517-2.122-5.941-6.578l-2.122-25.25h-42.225L410.811,321.319z
		 M461.523,246.205l-1.697-25.888h-1.061l-12.095,25.675l-10.822,23.553h27.584L461.523,246.205z"/>
	<path fill="#FFFFFF" d="M623.636,321.744c0.849,3.395-0.637,5.517-3.819,5.517h-23.553c-4.456,0-6.79-1.061-7.639-4.668
		c-4.668-16.127-11.034-46.045-11.67-48.804h-16.338l-9.336,48.804c-0.212,1.909-1.485,4.668-5.093,4.668h-25.25
		c-3.607,0-4.456-1.91-4.031-4.668l25.675-131.77c0.637-2.546,2.122-4.668,5.729-4.668l51.562,0.212
		c21.643,0,39.042,10.609,39.042,36.072c0,18.885-10.185,35.647-30.555,45.196L623.636,321.744z M572.074,215.225l-5.729,30.768
		h16.551c9.973,0,20.158-5.729,20.158-19.097c0-8.487-5.941-11.671-14.641-11.671H572.074z"/>
	<path fill="#FFFFFF" d="M691.325,245.144h-0.636l-14.854,77.449c-0.424,2.122-1.485,4.668-5.305,4.668h-24.189
		c-2.971,0-4.032-1.273-4.032-3.183c0-0.425,0.212-1.062,0.212-1.485l25.462-131.558c0.637-2.546,2.122-4.668,5.729-4.668h17.611
		c6.578,0,7.214,2.334,8.912,5.941l32.677,75.115h0.849c4.668-25.463,9.549-50.926,14.429-76.176
		c0.425-2.122,1.485-4.881,5.305-4.881h24.189c2.971,0,4.031,1.273,4.031,3.183c0,0.425,0,1.062-0.212,1.698
		c-8.699,43.711-17.188,87.634-25.675,131.557c-0.424,2.546-1.909,4.456-5.517,4.456h-17.612c-4.88,0-6.79-1.91-8.275-5.093
		l-21.431-49.228L691.325,245.144z"/>
	<path fill="#FFFFFF" d="M805.271,191.035c0.636-2.758,2.121-4.88,5.729-4.88h25.038c3.819,0,3.819,2.759,3.396,4.88
		l-25.463,131.558c-0.424,1.909-1.485,4.668-5.305,4.668h-25.038c-3.607,0-4.456-1.91-4.031-4.668L805.271,191.035z"/>
	<path fill="#FFFFFF" d="M916.881,321.107c-1.909,3.607-3.606,6.153-10.185,6.153h-24.401c-7.427,0-7.852-2.971-8.488-7.851
		l-16.975-127.95c-0.425-3.607,0.849-5.093,4.88-5.093h21.432c5.729,0,7.427,1.273,7.851,5.729
		c1.273,12.731,2.971,29.706,4.881,47.105c1.909,17.188,3.819,35.224,5.092,48.379h1.062c5.941-13.155,14.641-31.616,23.341-49.228
		c8.063-16.551,16.126-33.102,21.643-45.196c2.122-4.668,4.881-6.79,9.549-6.79h26.735c4.032,0,2.759,2.971,1.485,5.305
		L916.881,321.107z"/>
	<path fill="#FFFFFF" d="M979.264,321.319c-2.121,4.456-4.668,5.941-8.487,5.941h-24.401c-3.183,0-4.244-0.849-1.91-5.517
		l65.778-129.436c2.122-3.819,3.819-6.153,9.549-6.153h26.736c5.94,0,6.365,2.334,7.002,6.365l17.399,129.647
		c0.212,3.396-0.425,5.093-3.396,5.093h-25.25c-4.668,0-5.517-2.122-5.941-6.578l-2.122-25.25h-42.226L979.264,321.319z
		 M1029.978,246.205l-1.698-25.888h-1.061l-12.095,25.675l-10.821,23.553h27.584L1029.978,246.205z"/>
	<path fill="#FFFFFF" d="M1125.038,298.403h56.442c2.122,0,3.396,1.061,2.971,3.607l-4.031,21.006
		c-0.637,2.547-1.697,4.244-5.305,4.244h-85.3c-3.607,0-4.456-1.91-3.819-4.668l25.462-131.558c0.637-2.758,2.122-4.88,5.729-4.88
		h25.038c3.396,0,4.244,1.909,3.607,4.88L1125.038,298.403z"/>
</g>
<g>
	<defs>
		<rect id="SVGID_1_" x="1231.819" y="54.35" width="203.992" height="232.762"/>
	</defs>
	<clipPath id="SVGID_2_">
		<use xlink:href="#SVGID_1_"  overflow="visible"/>
	</clipPath>
	<path clip-path="url(#SVGID_2_)" fill="#FFFFFF" d="M1262.77,238.251c-31.507-46.478-9.271-82.775-9.271-82.775
		c-5.176-1.534-21.68,9.305-21.68,9.305c9.271-34.05,60.365-62.961,60.365-62.961c-5.683-2.092-21.662,2.039-21.662,2.039
		c41.807-40.22,92.886-25.252,92.886-25.252c1.533-8.783,26.836-24.274,26.836-24.274c-2.6,2.579-3.626,16.536-3.626,16.536
		c2.561-4.67,10.854-9.305,10.854-9.305c-4.669,10.839,0,34.034,0,34.034c13.422,13.435,28.37,59.877,28.37,59.877l5.684,8.243
		c7.25,10.351,4.586,26.592-2.579,30.444c-26.835,14.498-29.415-11.869-29.415-11.869c-22.202-2.56-38.723-27.34-38.723-27.34
		c-29.922,15.474-13.245,59.126-0.329,75.91c16.607,21.485,4.44,56.249,4.44,56.249S1293.858,284.17,1262.77,238.251"/>
</g>
<g>
	<defs>
		<rect id="SVGID_3_" x="9.464" y="54.35" width="203.992" height="232.762"/>
	</defs>
	<clipPath id="SVGID_4_">
		<use xlink:href="#SVGID_3_"  overflow="visible"/>
	</clipPath>
	<path clip-path="url(#SVGID_4_)" fill="#FFFFFF" d="M182.508,238.251c31.506-46.478,9.27-82.775,9.27-82.775
		c5.175-1.534,21.679,9.305,21.679,9.305c-9.271-34.05-60.365-62.961-60.365-62.961c5.683-2.092,21.662,2.039,21.662,2.039
		c-41.808-40.22-92.886-25.252-92.886-25.252c-1.533-8.783-26.836-24.274-26.836-24.274c2.6,2.579,3.625,16.536,3.625,16.536
		c-2.558-4.67-10.854-9.305-10.854-9.305c4.669,10.839,0,34.034,0,34.034c-13.421,13.435-28.371,59.877-28.371,59.877l-5.683,8.243
		c-7.249,10.351-4.583,26.592,2.58,30.444c26.836,14.498,29.415-11.869,29.415-11.869c22.205-2.56,38.724-27.34,38.724-27.34
		c29.922,15.474,13.245,59.126,0.33,75.91c-16.607,21.485-4.441,56.249-4.441,56.249S151.418,284.17,182.508,238.251"/>
</g>
<g>
</g>
<g>
</g>
<g>
</g>
<g>
</g>
<g>
</g>
<g>
</g>
</svg>
