<?xml version="1.0" standalone="no"?>
<!DOCTYPE svg PUBLIC "-//W3C//DTD SVG 1.1//EN" "http://www.w3.org/Graphics/SVG/1.1/DTD/svg11.dtd" >
<svg xmlns="http://www.w3.org/2000/svg">
<metadata></metadata>
<defs>
<font id="pf_square_sans_probold_italic" horiz-adv-x="1278" >
<font-face units-per-em="2048" ascent="1536" descent="-512" />
<missing-glyph horiz-adv-x="630" />
<glyph unicode="&#xfb01;" horiz-adv-x="1283" d="M39 -368l232 1168h-90q-25 0 -33.5 11.5t-3.5 37.5l32 166q10 48 56 48h90l24 119q18 92 52.5 160t93 119t147.5 76.5t208 25.5q86 0 187.5 -13.5t157.5 -41.5q17 -7 25 -15.5t7.5 -21t-3 -20t-8.5 -23.5l-52 -140q-10 -25 -25.5 -29.5t-49.5 1.5q-156 13 -204 13 q-89 0 -142.5 -32t-70.5 -108l-13 -70h571q27 0 34 -15t1 -33l-187 -968q-5 -47 -53 -47h-240q-48 0 -38 47l146 753h-288l-230 -1168q-11 -47 -54 -47h-238q-48 0 -41 47z" />
<glyph unicode="&#xfb02;" horiz-adv-x="1291" d="M101 -69l170 869h-90q-49 0 -37 49l30 166q5 17 11.5 27t17.5 15.5t27 5.5h92l24 119q18 92 52.5 160t93 119t147.5 76.5t208 25.5q81 0 175 -12t150 -37l148 37q20 4 29.5 0.5t11 -13.5t-1.5 -24l-339 -1766q-11 -47 -54 -47h-242q-49 0 -38 47l293 1520q-6 1 -44 4 t-55 3q-58 0 -100 -13t-71.5 -45t-39.5 -84l-13 -70h152q26 0 35 -11.5t4 -36.5l-32 -166q-7 -26 -19.5 -37.5t-36.5 -11.5h-157l-169 -869q-2 -19 -15 -33.5t-40 -14.5h-238q-26 0 -34.5 12t-4.5 36z" />
<glyph unicode="&#xfb03;" horiz-adv-x="1870" d="M41 -226l207 1026h-94q-37 0 -37 31q0 2 0.5 5l1 6t0.5 5l31 166q10 50 57 50h90l21 103q19 91 54 158t92 117.5t142 76.5t198 26q174 0 290 -46q58 51 165.5 74.5t238.5 21.5q173 -12 283 -61q34 -14 34 -41q0 -6 -11 -41l-54 -137q-15 -40 -92 -28q-93 15 -187 15 q-88 0 -142 -33.5t-69 -110.5l-19 -94h571q37 0 37 -33q0 -10 -2 -17l-187 -966q-2 -19 -14 -33t-37 -14h-241q-21 0 -30 9t-9 26v12l146 753h-289l-232 -1168q-1 -11 -5 -20.5t-16 -18t-30 -8.5h-238q-41 0 -41 35v12l232 1168h-280q-54 -283 -204 -1026q-2 -11 -6 -20.5 t-16 -18t-30 -8.5h-238q-41 0 -41 35v12zM630 1063h277q7 27 20 105q12 53 21 79q-80 9 -135 9q-143 0 -168 -123z" />
<glyph unicode="&#xfb04;" horiz-adv-x="1902" d="M64 -226l207 1026h-93q-38 0 -38 33q0 1 1 6t1 8q0 1 32 166q7 26 19.5 38t36.5 12h90l20 103q75 381 456 381q60 0 104 -2.5t106.5 -14t111.5 -32.5q122 89 343 89q81 0 176.5 -12.5t149.5 -37.5l148 39q22 5 34 -1.5t5 -27.5l-290 -1500q-2 -19 -14.5 -33t-37.5 -14 h-241q-23 0 -32 9t-9 26v12l244 1246q-10 0 -46.5 3t-53.5 3q-89 0 -142 -32.5t-68 -109.5l-20 -94h156q27 0 34 -13t1 -37l-31 -166q-3 -16 -9.5 -26.5t-18 -15.5t-28.5 -5h-157l-232 -1168q-2 -11 -6 -20.5t-16 -18t-30 -8.5h-239q-39 0 -39 35v12q223 1119 233 1168h-282 q-87 -453 -204 -1026q-2 -18 -14 -32.5t-38 -14.5h-239q-41 0 -41 35v12zM654 1063h277l19 103l22 81q-99 11 -133 11q-77 0 -118.5 -36t-55.5 -108z" />
<glyph horiz-adv-x="2048" />
<glyph horiz-adv-x="2048" />
<glyph unicode="&#xd;" horiz-adv-x="2048" />
<glyph unicode=" "  horiz-adv-x="630" />
<glyph unicode="&#x09;" horiz-adv-x="630" />
<glyph unicode="&#xa0;" horiz-adv-x="630" />
<glyph unicode="!" horiz-adv-x="632" d="M80 86q0 44 11 80.5t34 66.5t63.5 47t95.5 17q144 0 144 -104q0 -31 -5 -59t-18.5 -57.5t-36 -50t-59.5 -34t-85 -13.5q-144 0 -144 107zM193 449q0 3 1 8t1 7l147 917q5 25 16 35t34 10h232q34 0 34 -26q0 -11 -2 -17q-48 -175 -117 -508.5t-85 -406.5q-10 -47 -52 -47 h-174q-19 0 -27 7t-8 21z" />
<glyph unicode="&#x22;" horiz-adv-x="790" d="M230 938l67 451q3 17 14.5 27t28.5 10h181q19 0 24 -11.5t3 -25.5l-111 -451q-8 -33 -41 -33h-142q-13 0 -20 9.5t-4 23.5zM546 938l67 451q2 16 13.5 26.5t29.5 10.5h181q17 0 22 -11.5t3 -25.5l-107 -451q-12 -33 -43 -33h-142q-8 0 -14.5 4t-9 11.5t-0.5 17.5z" />
<glyph unicode="#" horiz-adv-x="1352" d="M43 466q-6 8 4 31l62 137q7 15 15 23.5t18.5 12t27.5 3.5h183l68 158h-185q-22 0 -27.5 8.5t4.5 30.5l62 134q9 22 23.5 31.5t39.5 9.5h179l150 338q9 19 13 26t12.5 12t23.5 5h170q23 0 28 -9.5t-7 -33.5l-146 -338h179l150 338q7 15 10 20.5t8.5 12.5t12 8.5t16.5 1.5 h172q22 0 27.5 -9.5t-5.5 -33.5l-149 -338h188q25 0 30 -9t-7 -32l-62 -134q-5 -11 -10 -18t-11.5 -12t-15.5 -7t-21 -2h-185l-68 -158h184q25 0 30 -9t-7 -32l-61 -135q-12 -22 -24 -30.5t-34 -8.5h-185l-183 -417l-9 -18t-8.5 -12t-13 -8.5t-17.5 -2.5h-163q-50 0 -32 43 l182 415h-180l-181 -417q-10 -18 -13.5 -23.5t-13 -11.5t-22.5 -6h-164q-50 0 -29 43l180 415h-185q-22 0 -28 8zM595 673h179l71 158h-180z" />
<glyph unicode="$" d="M54 111q0 11 2 18.5t8 22.5l50 123q15 38 33.5 46t59.5 -1q8 -1 51.5 -6.5t59.5 -7t55.5 -6t65 -6t61 -3t68.5 -1.5q215 0 230 149q2 30 -6 50t-31 34t-51 22.5t-78 18.5q-52 12 -89.5 22.5t-84 28t-79 36.5t-65.5 47.5t-53 62.5t-33 79.5t-13 99.5q0 72 17 134t49 110 t75.5 86.5t98 65.5t115.5 44t129 24l36 180q7 41 47 41h166q39 0 33 -41l-35 -180q170 -8 269 -54q23 -9 35.5 -18t15 -21t1 -21t-8.5 -28l-45 -118q-17 -40 -36.5 -48t-68.5 -4q-177 24 -323 24q-193 0 -204 -133q-2 -19 -0.5 -33t10 -25t19 -18.5t31 -15t41.5 -12.5 t55 -13q43 -9 70 -16t66.5 -19t65.5 -23t58.5 -28.5t53.5 -36.5t43 -46t34.5 -57.5t20.5 -70t8 -85.5q0 -88 -26 -162t-70.5 -126.5t-107 -91.5t-131.5 -61.5t-147 -32.5l-37 -178q0 -13 -12 -27t-35 -14h-165q-36 0 -32 41l34 168q-216 13 -321 62q-19 8 -31 16t-17 15 t-5 18z" />
<glyph unicode="%" horiz-adv-x="2056" d="M78 843q2 58 19 146q7 39 14.5 71t25.5 82.5t40 90t59 83t81.5 72.5t109.5 48t141 19q69 0 124 -12t93 -34.5t65.5 -51.5t43 -66t22.5 -75t7 -81q0 -61 -16 -146q-8 -39 -14.5 -67t-19.5 -70.5t-26.5 -74.5t-35.5 -70.5t-47 -67t-60.5 -57t-76 -46t-93.5 -28.5t-113 -11 q-306 0 -337 264q0 3 -3 34t-3 48zM355 837q3 -113 88 -113q41 0 71.5 17.5t51.5 53t35.5 77.5t26.5 102q17 112 17 138q0 59 -23.5 87t-79.5 28q-37 0 -65.5 -18.5t-48.5 -55t-33.5 -79t-24.5 -100.5q-15 -82 -15 -137zM454 -35q0 14 4 18q26 44 878 1494q10 16 18.5 22.5 t22.5 6.5q32 0 96.5 -1t96.5 -1q14 0 14 -14q0 -13 -4 -17l-876 -1497q-16 -25 -37 -25h-193q-20 0 -20 14zM1118 312q0 82 17 168q7 38 15 70.5t26 82.5t40 89.5t59.5 83t82.5 72t109.5 47.5t141.5 19q81 0 144 -18t101.5 -47.5t63.5 -71.5t34 -86t9 -95q0 -58 -15 -146 q-8 -40 -14.5 -67.5t-19.5 -71t-26 -74.5t-34.5 -70t-46.5 -66.5t-60 -56t-75.5 -45.5t-93.5 -28t-113 -11q-345 0 -345 322zM1395 342q0 -23 2.5 -42t9 -35t16.5 -27t25 -17t36 -6q32 0 58.5 12t45.5 32.5t34 52.5t25 68t19 84q18 95 18 138q0 59 -22.5 86.5t-79.5 27.5 q-37 0 -66 -18.5t-49 -55t-33 -78.5t-24 -100q-15 -75 -15 -122z" />
<glyph unicode="&#x26;" horiz-adv-x="1599" d="M69 320q0 309 405 538q-44 110 -44 200q0 116 54 206.5t148.5 139.5t212.5 49q156 0 248.5 -75.5t92.5 -197.5q0 -53 -18.5 -105.5t-51 -96.5t-76 -84t-92.5 -70t-101 -52q50 -99 93.5 -165t113.5 -145q85 83 151 185.5t104 212.5q3 8 9 22t7 17.5t6 11t7.5 8t9.5 3.5 t14.5 3h20.5h150q42 0 50.5 -14t-1.5 -64q-23 -99 -84 -213.5t-129.5 -206t-135.5 -156.5q84 -91 208 -172q15 -11 18.5 -21t-1 -18t-19.5 -27q-1 -1 -1.5 -2t-1.5 -2.5t-2 -2.5l-103 -127q-13 -15 -23.5 -21.5t-26 -6.5t-36.5 10q-55 29 -131.5 89.5t-143.5 123.5 q-215 -120 -482 -120q-74 0 -137 12.5t-115 40t-89 68t-57.5 97.5t-20.5 128zM378 374q0 -69 47.5 -108.5t122.5 -39.5q121 -4 248 62q-156 204 -222 346q-44 -27 -76 -52.5t-61 -57.5t-44 -69.5t-15 -80.5zM712 1099q-4 -54 30 -112q31 16 53.5 30t44.5 32t34.5 38t13.5 42 q3 31 -17.5 52t-55.5 21q-40 0 -70 -32t-33 -71z" />
<glyph unicode="'" horiz-adv-x="489" d="M234 938l67 451q4 17 15 27t28 10h181q33 0 27 -37l-111 -451q-2 -14 -13 -23.5t-28 -9.5h-142q-8 0 -14 4t-8.5 11.5t-1.5 17.5z" />
<glyph unicode="(" horiz-adv-x="728" d="M125 441q4 154 41 303.5t102 284t150 254.5t191 229q31 31 49.5 33.5t42.5 -14.5l112 -76q25 -13 25 -29.5t-27 -53.5q-348 -432 -357 -968q-4 -279 75 -484q12 -37 6.5 -52.5t-36.5 -31.5l-142 -72q-32 -20 -48.5 -17.5t-35.5 34.5q-72 132 -111.5 301t-36.5 359z" />
<glyph unicode=")" horiz-adv-x="730" d="M-20.5 -134q0.5 16 28.5 52q348 436 357 970q4 282 -77 484q-12 38 -5.5 52.5t37.5 30.5l140 74q33 19 49.5 16t34.5 -35q73 -134 112.5 -302t35.5 -356q-8 -303 -136.5 -575.5t-346.5 -495.5q-31 -31 -48.5 -34t-41.5 15l-115 74q-25 14 -24.5 30z" />
<glyph unicode="*" horiz-adv-x="934" d="M172 917q7 14 37 33l142 95l-111 77q-15 15 -20 23t-1.5 22t19.5 35l46 68q15 20 29 26.5t23 4.5t28 -10l6 -3l131 -61l39 152q9 31 22 40t49 9h86q35 0 47 -12t7 -42l-22 -151l166 70q28 15 38.5 13t23.5 -28l30 -67q20 -42 -13 -60l-168 -102l119 -101 q24 -22 23.5 -34.5t-23.5 -40.5l-49 -60q-22 -27 -38.5 -30t-41.5 11l-133 68l-41 -146q-10 -34 -20 -41.5t-46 -7.5h-100q-33 0 -39.5 7.5t-3.5 41.5l13 146l-149 -62q-22 -11 -41 -10.5t-29 21.5l-33 77q-9 15 -2 29z" />
<glyph unicode="+" d="M170.5 600.5q-0.5 8.5 1.5 21.5l31 154q9 45 53 45h298l57 297q5 24 18 34.5t38 10.5h195q23 0 32 -10.5t5 -34.5l-56 -297h301q27 0 33 -10t1 -33l-29 -156q-5 -26 -16.5 -36t-38.5 -10h-300l-63 -316q-5 -26 -16 -35.5t-34 -9.5h-199q-26 0 -34.5 9t-4.5 36l62 316 h-296q-12 0 -20 2.5t-13 8t-5.5 14z" />
<glyph unicode="," horiz-adv-x="511" d="M-96 -243.5q4 10.5 10.5 17.5t25.5 26q102 86 105 187q3 55 -26 99q-24 29 -20 51t46 50l164 110q24 17 42 18t29 -7.5t28 -28.5q51 -57 51 -154q0 -59 -19 -120t-51 -114t-73.5 -101t-86.5 -84.5t-90 -60.5q-53 -26 -78 13l-43 58q-10 15 -14 22.5t0 18z" />
<glyph unicode="-" horiz-adv-x="880" d="M97 602l34 176q6 45 54 45h671q26 0 32.5 -10.5t1.5 -34.5l-34 -176q-4 -26 -15 -36t-39 -10h-671q-23 0 -31 10.5t-3 35.5z" />
<glyph unicode="." horiz-adv-x="496" d="M8 92q0 45 11.5 83t35.5 69t66.5 48.5t100.5 17.5q79 0 113.5 -26.5t34.5 -80.5q0 -33 -5.5 -62.5t-20 -60t-37.5 -52t-60.5 -35.5t-86.5 -14q-152 0 -152 113z" />
<glyph unicode="/" horiz-adv-x="687" d="M-89 -121q-6 12 3 33q432 1011 665 1541q14 37 53 37h205q41 0 27 -52l-661 -1535q-6 -15 -22.5 -25.5t-30.5 -10.5h-210q-23 0 -29 12z" />
<glyph unicode="0" d="M88 480q3 122 31 253q11 55 20 96t27 102t37.5 107t50 102.5t65.5 97.5t84.5 82.5t106.5 67.5t131.5 42.5t158.5 16.5q112 0 199 -25t143.5 -67t92.5 -103.5t51 -130.5t15 -151q0 -111 -21 -237q-10 -58 -20.5 -107t-28 -111.5t-38.5 -113.5t-53 -107.5t-69 -100.5 t-88 -85t-110.5 -68t-135.5 -43t-163 -16q-110 0 -196 27t-140.5 72.5t-89 110.5t-48 135.5t-12.5 153.5zM444 439.5q5 -52.5 22.5 -89t54 -56t92.5 -19.5q43 0 79 12.5t65 37.5t52.5 58.5t43 80t34.5 96.5t29 113q25 125 30 203q7 66 1.5 117.5t-24 87t-56 54t-95.5 18.5 q-51 0 -93 -20.5t-72.5 -55.5t-56 -87.5t-42.5 -109t-32 -127.5q-25 -117 -31 -194q-6 -67 -1 -119.5z" />
<glyph unicode="1" d="M138 47l36 191q10 46 56 46h226l159 817h-198q-31 0 -41.5 7.5t-5.5 32.5l20 109q7 27 19 44.5t38 28.5l205 81q37 16 67.5 21t74.5 5h172q18 0 28.5 -5t13.5 -16t1 -28l-215 -1097h247q25 0 32 -10.5t2 -33.5l-39 -193q-3 -25 -14 -36t-37 -11h-809q-48 0 -38 47z" />
<glyph unicode="2" d="M13 47l30 156q13 53 49 85q3 2 364 291q4 3 62 49.5t121 97.5t81 66q76 62 119 122.5t43 128.5q0 55 -41 79.5t-137 24.5q-126 0 -373 -27q-41 -5 -53.5 3.5t-12.5 44.5l8 122q0 31 15 53t63 40q85 31 214.5 46.5t212.5 15.5q231 0 348 -89t117 -257q0 -65 -15 -123 t-39 -105t-65 -96t-82.5 -88.5t-101.5 -89.5q-123 -103 -378 -300l2 -11h507q25 0 31.5 -10.5t3.5 -35.5l-39 -193q-3 -25 -13.5 -36t-36.5 -11h-968q-46 0 -36 47z" />
<glyph unicode="3" d="M5 86q-10 23 5 54l46 120q12 35 29.5 44.5t58.5 5.5q207 -31 342 -31q67 0 123.5 14.5t102 43.5t71 79t25.5 115q0 73 -104 91l-278 53q-19 3 -29.5 8t-17 14t-6.5 22.5t3 33.5l16 80q6 37 14.5 54t28.5 31l292 219l-3 7h-445q-46 0 -36 46l36 191q9 47 56 47h895 q26 0 33.5 -11t2.5 -38l-31 -149q-8 -56 -65 -99l-286 -224v-6l103 -23q91 -23 142 -86t51 -154q0 -657 -724 -657q-83 0 -203 15.5t-191 46.5q-47 20 -57 43z" />
<glyph unicode="4" d="M28 370l34 170q4 39 37 69l765 778q45 39 95 39h243q43 0 37 -45l-153 -779h137q27 0 34.5 -10t2.5 -33l-37 -196q-7 -25 -17.5 -36t-35.5 -11l-138 2l-53 -271q-11 -47 -54 -47h-248q-42 0 -34 45l54 273l-621 -2q-16 0 -27.5 5t-17.5 17.5t-3 31.5zM441 595h312l78 390 h-12l-138 -142z" />
<glyph unicode="5" d="M29 86q-10 23 6 54l45 120q13 35 30 44.5t58 5.5q211 -31 341 -31q51 0 95 6.5t86 23.5t71.5 43.5t47.5 70t18 100.5q0 38 -26 63.5t-74 35.5l-458 82q-38 7 -54.5 23t-15.5 38t14 58l187 525q14 43 38.5 61.5t68.5 18.5h732q24 0 32.5 -11t3.5 -34l-36 -193 q-9 -46 -59 -46h-524l-67 -194l349 -53q127 -20 193.5 -92t66.5 -194q0 -134 -38 -241.5t-103 -179t-155.5 -119.5t-191.5 -69t-215 -21q-84 0 -211 15.5t-198 46.5q-47 20 -57 43z" />
<glyph unicode="6" d="M92 370q-2 112 25 299q11 80 27 152t45 152t67 146t94.5 128t126 104.5t164 68t204.5 25.5q268 0 415 -60q43 -17 51.5 -37t-6.5 -51l-49 -129q-14 -33 -30.5 -44t-45.5 -8l-45 6t-50.5 6.5t-50 6t-55 5.5t-54.5 4.5t-58.5 3.5t-58.5 1q-120 0 -186.5 -65t-102.5 -196 q198 19 337 19q359 0 359 -335q0 -120 -36 -218.5t-98 -167t-147 -115.5t-182 -68.5t-204 -21.5t-187.5 19.5t-130.5 53t-81 84.5t-43 106t-14 126zM426 411q0 -52 7 -73q14 -36 54 -56t124 -20q114 0 188 60.5t74 161.5q0 74 -31.5 110t-108.5 36q-86 0 -279 -19 q-25 -126 -28 -200z" />
<glyph unicode="7" d="M180 87q-1 16 20 46l697 1011h-626q-44 0 -35 46l37 191q10 49 54 49h989q25 0 32 -11t2 -38l-27 -138q-6 -27 -18 -48.5t-39 -59.5l-792 -1141q-10 -14 -17.5 -22t-17 -12t-20 -2t-23.5 9l-187 91q-28 13 -29 29z" />
<glyph unicode="8" d="M51 335q0 98 33 180.5t94.5 143t148.5 96.5q-41 27 -67.5 66t-37.5 79.5t-11 84.5q0 87 32 162t88.5 129.5t133 93t166 58t186.5 19.5q49 0 94 -4.5t87.5 -14t79 -24t68.5 -34.5t57 -46t42.5 -57.5t27 -70t9.5 -82.5q0 -82 -30 -152t-81 -120t-120 -83v-2 q53 -26 87.5 -68.5t49 -91.5t14.5 -107q0 -98 -34 -181t-94.5 -143t-142.5 -102t-178.5 -62.5t-202.5 -20.5q-83 0 -155 11t-136 37.5t-109.5 66.5t-72 101t-26.5 138zM404 411q0 -68 52.5 -103t136.5 -35q119 0 192 60t73 145q0 29 -11.5 53.5t-29.5 41.5t-44.5 30.5 t-53.5 21.5t-59 13q-48 -8 -90.5 -24.5t-81 -42.5t-61.5 -67.5t-23 -92.5zM562 993q0 -82 158 -115q66 9 112.5 32t69.5 57t23 76q0 55 -43 82.5t-110 27.5q-93 0 -151.5 -43t-58.5 -117z" />
<glyph unicode="9" d="M73.5 78q-8.5 20 6.5 51l49 129q14 33 30.5 44t45.5 8q11 -2 62 -8.5t76 -9l70 -7t84.5 -6.5t78.5 -2q121 0 187.5 65t102.5 196q-198 -19 -337 -19q-359 0 -359 335q0 100 25 186t70 150t106.5 113t136.5 80t157.5 46.5t171.5 15.5q107 0 187.5 -19.5t130.5 -53 t81 -84.5t43 -106t14 -126q2 -112 -25 -299q-11 -80 -27 -152t-45 -152t-67 -146.5t-94.5 -128t-126 -104t-164 -68t-204.5 -25.5q-268 0 -415 60q-43 17 -51.5 37zM511 942q0 -49 13 -80.5t44.5 -48.5t83.5 -17q86 0 279 19q25 126 28 200q0 52 -7 73q-14 36 -54 55.5 t-124 19.5q-114 0 -188.5 -60t-74.5 -161z" />
<glyph unicode=":" horiz-adv-x="502" d="M13 92q0 45 11 83t35 69t66.5 48.5t100.5 17.5q78 0 113 -27t35 -80q0 -33 -5.5 -62.5t-20 -60t-37.5 -52t-61.5 -35.5t-87.5 -14q-149 0 -149 113zM144 761q0 44 11 81t34.5 68t65.5 48.5t100 17.5q80 0 115 -26.5t35 -81.5q0 -32 -5.5 -61.5t-20.5 -59.5t-38 -51.5 t-61 -35t-87 -13.5q-81 0 -115 30t-34 84z" />
<glyph unicode=";" horiz-adv-x="502" d="M-96 -243.5q4 10.5 10.5 17.5t25.5 26q102 86 105 187q3 55 -26 99q-24 29 -20 51t46 50l164 110q24 17 42 18t29 -7.5t28 -28.5q51 -57 51 -154q0 -59 -19 -120t-51 -114t-73.5 -101t-86.5 -84.5t-90 -60.5q-53 -26 -78 13l-43 58q-10 15 -14 22.5t0 18zM144 761 q0 44 11 81t34.5 68t65.5 48.5t100 17.5q80 0 115 -26.5t35 -81.5q0 -32 -5.5 -61.5t-20.5 -59.5t-38 -51.5t-61 -35t-87 -13.5q-81 0 -115 30t-34 84z" />
<glyph unicode="&#x3c;" d="M181 624l30 154q2 11 5.5 19t9.5 13.5t10.5 9t13.5 7.5l959 446q14 5 22.5 2.5t9.5 -10t0 -15.5l-41 -233q-2 -10 -6.5 -18.5t-10.5 -14t-12 -9t-14 -7.5l-587 -280l-2 -11l481 -273q16 -7 22 -17.5t2 -31.5l-43 -203q-3 -17 -17 -22.5t-26 1.5l-784 443q-29 15 -22 50z " />
<glyph unicode="=" d="M133 417l31 157q2 13 6 21.5t10.5 14t15.5 8t21 2.5h887q26 0 33 -10t2 -34l-29 -159q-4 -16 -9 -25.5t-16 -14.5t-29 -5h-886q-46 0 -37 45zM211 817l29 155q5 25 18 36.5t37 11.5h885q27 0 34.5 -11t2.5 -35l-31 -157q-6 -27 -16.5 -37t-36.5 -10h-885q-24 0 -33 11 t-4 36z" />
<glyph unicode="&#x3e;" d="M114 158l40 232q5 20 15.5 30.5t27.5 18.5l588 279l3 11l-482 273q-16 7 -22.5 17.5t-2.5 31.5l43 203q3 17 17 22.5t27 -1.5l785 -442q28 -14 21 -51l-30 -154q-2 -15 -8.5 -24.5t-12.5 -14t-17 -10.5l-960 -446q-21 -8 -28 0.5t-4 24.5z" />
<glyph unicode="?" horiz-adv-x="938" d="M131 88q0 43 11.5 79t35 66t64.5 47t96 17q78 0 110 -27t32 -77q0 -31 -5 -58.5t-18.5 -56.5t-35.5 -49.5t-59.5 -34t-86.5 -13.5q-144 0 -144 107zM215 437v2q3 56 13 107q11 63 31.5 115.5t45 91t64.5 77.5t76.5 67.5t96.5 70.5q48 34 71 62t23 66q0 39 -34.5 56.5 t-117.5 17.5q-113 0 -209 -13q-12 -2 -23 -1.5t-18.5 3t-11.5 11t-3 22.5l13 128q2 25 5.5 35t13.5 19.5t33 18.5q132 52 307 52q200 0 304.5 -73t104.5 -213q0 -59 -22 -115t-60.5 -101t-79 -79.5t-87.5 -65.5q-50 -32 -82.5 -57.5t-60.5 -56.5t-45.5 -65.5t-29.5 -78.5 q-8 -34 -20 -103q-8 -41 -42 -41h-217q-11 0 -18 1.5t-12 6.5t-7 13t-2 20z" />
<glyph unicode="@" horiz-adv-x="1941" d="M172 579q0 138 33.5 265.5t95 235.5t152.5 197.5t203 151.5t250 96t290 34q169 0 302.5 -47t218.5 -131.5t129 -197.5t44 -247q0 -181 -66 -322t-183.5 -218.5t-268.5 -77.5q-95 0 -163 41t-84 101q-51 -48 -129.5 -82t-156.5 -34q-65 0 -109 16t-68.5 48t-34.5 73.5 t-10 101.5q0 67 19 178q15 82 32.5 142.5t46 116t66 90t92 54.5t125.5 20q42 0 100.5 -16.5t99.5 -40.5l6 28q3 17 11 22t24 5h176q23 0 28 -8t2 -30l-97 -535q-4 -14 -2 -28.5t8 -26.5t25 -19.5t49 -7.5q93 0 161.5 110t68.5 277q0 94 -29.5 172t-87.5 136t-149.5 90 t-209.5 32q-143 0 -267.5 -38t-216.5 -106.5t-158 -160.5t-99.5 -202t-34.5 -230q0 -105 25 -182.5t80 -136t150 -88.5t229 -30q143 0 269 23q3 1 13.5 3t12.5 2.5t10 1.5t10 0t7.5 -2.5t7 -4.5t5 -7.5t5 -11t3.5 -14.5l14 -84q10 -46 -38 -63q-71 -29 -170.5 -42.5 t-178.5 -13.5q-175 0 -307.5 44t-215.5 126.5t-124 195.5t-41 256zM882 667q0 -48 15 -65t49 -17q58 0 155 47l56 293q-64 21 -116 21q-65 0 -98.5 -42t-50.5 -134q-10 -62 -10 -103z" />
<glyph unicode="A" horiz-adv-x="1326" d="M-64 10q-1 2 0 5q0 12 13 41l666 1312q18 33 37.5 47.5t59.5 14.5h271q41 0 53.5 -14.5t17.5 -50.5l176 -1314v-7q0 -22 -6 -32q-6 -12 -28 -12h-256q-34 0 -45.5 14.5t-14.5 51.5l-22 256h-428l-129 -262q-15 -33 -35.5 -46.5t-50.5 -13.5h-248q-27 0 -31 10zM554 585 h281l-20 236l-17 263h-10l-123 -261z" />
<glyph unicode="B" horiz-adv-x="1326" d="M60 47l260 1334q7 47 58 47l536 2q69 0 128 -12.5t108.5 -39.5t83.5 -67.5t52 -98.5q16 -52 15 -114v-14q-1 -55 -24.5 -115t-75 -120t-122.5 -96l-2 -9q46 -22 77.5 -57t46 -75t19.5 -76q4 -26 3 -54v-22q-4 -136 -73 -241.5t-184 -162t-254 -56.5h-609q-29 0 -38 12 q-6 8 -6 22q0 6 1 13zM458 293h211q89 0 140.5 48.5t54.5 122.5v9q0 53 -33 89q-36 38 -109 38h-205zM572 880h196q67 0 114 39t51 101v13q0 46 -25 73q-29 31 -100 31h-188z" />
<glyph unicode="C" horiz-adv-x="1272" d="M154 499q0 75 20 211q13 83 32 156t49.5 149t70.5 138t98 117.5t128 93t163 59.5t203 22q112 0 220.5 -17t179.5 -51q17 -8 27 -15q9 -8 17 -19q6 -9 7 -21q-1 -2 -1 -6q-2 -16 -9 -36l-54 -127q-11 -31 -27 -39.5t-55 -3.5q-28 2 -83.5 7.5t-85 8t-70.5 5t-73 2.5 q-69 0 -124.5 -21t-94 -57t-68.5 -90.5t-48 -114t-32 -134.5q-19 -97 -19 -173v-20q2 -79 26 -129.5t76 -77t134 -26.5q80 0 142.5 4.5t184.5 17.5q20 1 33.5 1t22.5 -5t13.5 -14t5.5 -25l5 -119q4 -37 -15.5 -60t-58.5 -39q-86 -34 -201.5 -53t-221.5 -19q-119 0 -210.5 27 t-149.5 73t-94 113.5t-50 141.5q-13 70 -13 153v12z" />
<glyph unicode="D" horiz-adv-x="1412" d="M64 35v10l2 2l258 1334q11 45 59 45h450q115 0 204.5 -24t148.5 -67t96.5 -107t53.5 -138.5t16 -166.5q0 -96 -16 -207q-15 -92 -34.5 -168.5t-50 -151.5t-70 -133.5t-95.5 -109t-125 -83.5t-159.5 -51.5t-197.5 -18.5h-497q-43 0 -43 35zM460 290h137q163 0 257.5 99.5 t126.5 311.5q17 108 17 165q0 269 -239 269h-135q-78 -395 -164 -845z" />
<glyph unicode="E" horiz-adv-x="1194" d="M64 47l260 1334q11 49 59 49h847q21 0 30 -13q6 -8 6 -20q0 -6 -2 -14l-39 -203q-7 -45 -53 -45h-548l-48 -249h478q23 0 32 -12.5t4 -34.5l-39 -203q-3 -21 -15 -32t-38 -11h-477l-59 -300h564q38 0 38 -36q0 -6 -1 -12l-39 -202q-6 -22 -17 -32.5t-37 -10.5h-865 q-42 0 -42 36q0 5 1 11z" />
<glyph unicode="F" horiz-adv-x="1145" d="M58 47l258 1336q8 47 58 47h830q24 0 34 -13q7 -9 7 -21q0 -6 -2 -13l-39 -203q-5 -22 -17.5 -33.5t-39.5 -11.5h-532l-47 -249h458q21 0 31 -13t6 -34l-39 -203q-4 -21 -16.5 -33t-39.5 -12h-457l-107 -544q-2 -18 -14 -32.5t-37 -14.5h-256q-27 0 -35 12q-6 8 -5 21 q0 7 1 14z" />
<glyph unicode="G" horiz-adv-x="1379" d="M152 497q0 84 22 213q13 83 32.5 157t51 150t72.5 138t99 117t128.5 92.5t163.5 59t202 21.5q104 0 218 -17t184 -51q17 -8 27 -15.5t17 -18.5q5 -9 5 -20v-7q-2 -15 -11 -36l-52 -127q-11 -31 -27 -39.5t-54 -3.5q-28 2 -84.5 7.5t-86 8t-71 5t-72.5 2.5 q-69 0 -124.5 -21t-95 -57t-69.5 -90t-49.5 -113.5t-33.5 -135.5q-19 -111 -19 -176v-17q1 -48 6.5 -82.5t19 -65.5t37 -49.5t61 -29t88.5 -10.5q71 0 155 15l48 247h-144q-27 0 -34.5 11t-4.5 34l37 185q3 23 15.5 35t39.5 12h431q22 0 32.5 -12.5t7.5 -34.5l-120 -610 q-9 -44 -27.5 -72t-60.5 -45q-103 -37 -230 -54.5t-242 -17.5q-86 0 -156 14.5t-120.5 39t-88 62.5t-61 80.5t-38 96.5t-19.5 107.5t-5 117.5z" />
<glyph unicode="H" horiz-adv-x="1386" d="M64 39l260 1350q4 15 10.5 23.5t18.5 13t30 4.5h255q25 0 31 -10.5t2 -30.5l-95 -501h409l94 501q4 15 10 23.5t18 13t30 4.5h252q29 0 35 -10q4 -6 4 -17q0 -6 -2 -14l-260 -1350q-5 -39 -52 -39h-254q-27 0 -35.5 8.5t-5.5 30.5l106 554h-406l-106 -554q-9 -39 -52 -39 h-256q-27 0 -35 8q-6 6 -7 20q0 5 1 11z" />
<glyph unicode="I" horiz-adv-x="653" d="M74 47l259 1334q11 49 59 49h253q36 0 36 -33q0 -7 -2 -16l-258 -1334q-10 -47 -53 -47h-254q-41 0 -41 35q0 5 1 12z" />
<glyph unicode="J" horiz-adv-x="1042" d="M-26 60q-4 7 -4 18q0 17 9 43l42 144q9 31 24 38.5t45 2.5q122 -18 207 -18q45 0 79 9t56 24t38 38.5t24.5 47t14.5 55.5l175 919q7 49 56 49h247q29 0 37 -12q4 -7 4 -19q0 -8 -2 -18l-187 -979q-15 -80 -38.5 -141.5t-64 -115.5t-97.5 -89t-139 -55t-188 -20 q-63 0 -141.5 10.5t-135.5 32.5q-52 19 -61 36z" />
<glyph unicode="K" horiz-adv-x="1328" d="M51 47l259 1334q11 49 58 49h256q36 0 36 -33q0 -7 -2 -16l-94 -480h6l174 189l290 297q17 16 29.5 24.5t30 13.5t39.5 5h318q27 0 34 -17q2 -4 2 -8q0 -15 -20 -35l-568 -568l331 -736q11 -33 -1 -49.5t-37 -16.5h-265q-37 0 -55 14t-29 42l-205 488l-184 -187l-56 -310 q-2 -18 -14.5 -32.5t-37.5 -14.5h-256q-26 0 -34 12q-6 9 -6 23q0 6 1 12z" />
<glyph unicode="L" horiz-adv-x="1126" d="M66 47l258 1334q11 49 59 49h253q39 0 39 -33q0 -7 -2 -16l-211 -1088h572q32 0 32 -27q0 -4 -1 -10l-41 -213q-6 -22 -17 -32.5t-37 -10.5h-865q-41 0 -41 32q0 7 2 15z" />
<glyph unicode="M" horiz-adv-x="1670" d="M64 47l260 1336q4 14 9.5 23.5t17 15.5t29.5 6h174q44 0 60.5 -10t25.5 -39q12 -34 46.5 -152.5t44.5 -153.5q15 -50 62.5 -218.5t62.5 -224.5h10q19 30 81.5 123t127.5 189t82 123l217 312q22 28 43 39.5t65 11.5h191q36 0 36 -28q0 -7 -2 -17l-260 -1336 q-5 -47 -54 -47h-244q-26 0 -33.5 12.5t-3.5 34.5l125 641h-7q-2 -3 -58 -88.5t-62 -96.5q-123 -180 -166 -241q-2 -2 -7 -8q-10 -14 -15.5 -20.5t-15.5 -14.5t-22 -11t-28 -3h-138q-12 0 -21 2t-14 3.5t-10 9t-6.5 9.5t-6.5 15.5t-6 15.5l-67 232l-56 200l-4 -2l-125 -643 q-9 -47 -51 -47h-246q-27 0 -35 12q-6 9 -7 24q0 5 1 11z" />
<glyph unicode="N" horiz-adv-x="1434" d="M62 33q0 2 1 7t1 7l258 1334q12 47 58 47h179q16 0 28 -1.5t21 -6.5t14 -7.5t11 -13t7.5 -13.5t8.5 -18l332 -761h8q51 279 146 772q10 49 55 49h244q41 0 41 -33q0 -10 -2 -16q-88 -444 -260 -1334q-7 -45 -56 -45h-178q-35 0 -53.5 12.5t-30.5 38.5l-218 499l-118 283 h-7l-150 -786q-9 -47 -53 -47h-246q-41 0 -41 33z" />
<glyph unicode="O" horiz-adv-x="1476" d="M152 480q0 96 24 253q12 68 27.5 130t44.5 136t66 135.5t93.5 121t125 100.5t162.5 66t204 25q527 0 527 -506v-30q0 -55 -18 -178q-12 -84 -28.5 -156t-45.5 -150.5t-67.5 -141.5t-96 -121.5t-128.5 -97.5t-168 -62t-211 -23q-118 0 -207.5 26t-146.5 70.5t-92.5 109.5 t-50 136t-14.5 157zM517 521v-19q-1 -107 41 -162q46 -59 150 -59q62 0 111 20t84 54t62.5 89.5t46 117.5t35.5 148q24 127 24 204v14q-1 111 -47 163q-50 56 -160 56q-48 0 -88 -13.5t-71.5 -40.5t-56.5 -63t-45 -87t-35 -106.5t-28 -126.5q-20 -93 -23 -189z" />
<glyph unicode="P" horiz-adv-x="1210" d="M60 47l260 1336q8 47 58 47l476 -2q93 0 169.5 -24t133.5 -71t89 -121.5t32 -170.5q0 -66 -14.5 -128.5t-43.5 -121t-76.5 -107t-109 -85t-145 -56.5t-181.5 -20h-207l-93 -476q-10 -47 -53 -47h-254q-29 0 -37 12q-6 8 -5 21q0 7 1 14zM554 806h156q86 0 146 53.5 t60 149.5q0 126 -153 126h-143z" />
<glyph unicode="Q" horiz-adv-x="1481" d="M152 480q0 96 24 253q12 68 27.5 130t44.5 136t66 135.5t93.5 121t125 100.5t162.5 66t204 25q527 0 527 -506v-30q0 -55 -18 -178q-13 -91 -32.5 -168.5t-50 -158t-78.5 -150.5t-110 -123l170 -62q29 -11 34 -23.5t-10 -37.5l-118 -199q-16 -29 -43 -37q-10 -3 -20 -3 q-18 0 -36 10l-439 200h-12q-118 0 -207.5 26t-146.5 70.5t-92.5 109.5t-50 136t-14.5 157zM517 521v-19q0 -108 41 -162q46 -59 150 -59q62 0 111 20t84 54t62.5 89.5t46 117.5t35.5 148q24 127 24 204v14q0 110 -47 163q-49 56 -160 56q-48 0 -88 -13.5t-71.5 -40.5 t-56.5 -63t-45 -87t-35 -106.5t-28 -126.5q-20 -93 -23 -189z" />
<glyph unicode="R" horiz-adv-x="1289" d="M60 47l260 1336q12 47 58 47l523 -2q84 0 154.5 -21t125.5 -64t85.5 -114.5t30.5 -165.5q0 -147 -79 -267.5t-231 -191.5l154 -548q7 -26 -3 -41t-34 -15h-240q-35 0 -52.5 10.5t-23.5 36.5q-39 132 -119 495h-166l-95 -495q-2 -18 -14 -32.5t-37 -14.5h-256 q-42 0 -42 36q0 5 1 11zM562 823h167q39 0 74.5 11.5t65 34.5t47 61.5t17.5 86.5q0 118 -148 118h-165z" />
<glyph unicode="S" horiz-adv-x="1246" d="M36 112q2 10 9 28l49 129q15 41 34 48.5t61 -1.5q187 -30 370 -30q113 0 178.5 37t66.5 112v5q0 47 -34 72q-36 26 -132 50q-50 15 -86.5 27t-78 28t-70.5 30.5t-60.5 34t-52 40.5t-40 47.5t-30.5 56.5t-18 67t-7 79q0 97 33 176t89.5 133t134.5 91t166 54t186 17 q266 0 405 -62q19 -9 31 -17.5t17.5 -15.5t5.5 -17.5t-2.5 -19t-8.5 -23.5l-52 -129q-6 -13 -10.5 -21.5t-11 -14t-10 -8.5t-14 -3.5t-15 -0.5t-20 1.5t-23.5 1.5q-169 23 -318 23q-44 0 -77.5 -5.5t-65 -19t-48.5 -41.5t-17 -69q0 -45 35.5 -67t127.5 -43q52 -11 91 -21.5 t88.5 -29t85.5 -39t72.5 -51.5t59.5 -67.5t37.5 -87t14.5 -110.5q0 -110 -34.5 -196.5t-94 -144t-144.5 -95t-181.5 -53.5t-208.5 -16q-96 0 -221.5 15.5t-209.5 50.5q-23 11 -36 21q-12 10 -14 22q-2 8 -2 14q-1 4 0 8z" />
<glyph unicode="T" horiz-adv-x="1115" d="M168 1180l39 203q5 24 17 35.5t41 11.5h972q14 0 23 -6q8 -6 12 -16q2 -6 3 -13q0 -6 -2 -12l-38 -203q-11 -45 -59 -45h-312l-212 -1088q-2 -18 -14 -32.5t-38 -14.5h-254q-41 0 -41 36q0 5 1 11l211 1088h-310q-27 -1 -35 11q-5 8 -5 20q0 6 1 14z" />
<glyph unicode="U" horiz-adv-x="1403" d="M160 533l164 848q4 15 10 25.5t18.5 17t30.5 6.5h251q27 0 34 -15t1 -34l-164 -841q-9 -48 -9 -87q0 -169 173 -169q218 0 269 256l161 841q11 49 58 49h251q39 0 39 -33q0 -7 -2 -16l-165 -848q-103 -552 -637 -552q-185 0 -305.5 68.5t-165.5 192.5q-26 72 -26 157 q0 63 14 134z" />
<glyph unicode="V" horiz-adv-x="1367" d="M213 1377q-1 6 -1 11q0 19 9 28q11 12 41 12h218q43 0 59 -12t20 -46q8 -82 50 -478q40 -366 51 -490h11q101 225 236 499q171 350 220 458q16 36 38.5 52.5t57.5 16.5h271q15 0 22 -4q6 -4 6 -12t-4 -18q-2 -8 -8 -20l-689 -1312q-17 -33 -37 -47.5t-66 -14.5h-247 q-27 0 -43.5 4.5t-25 17.5t-11.5 23.5t-6 34.5z" />
<glyph unicode="W" horiz-adv-x="1878" d="M213 1374q-1 6 -1 12q0 44 48 44h232q38 0 53.5 -13t18.5 -47l25 -559l15 -337h11l109 236q7 9 85.5 172t82.5 176l-36 319q-1 10 1 19t6 17t12.5 12.5t19.5 4.5h230q36 0 52.5 -12.5t18.5 -47.5q39 -574 41 -602l15 -294h10l127 320l245 576q12 33 35 46.5t65 13.5h248 q36 0 36 -25q0 -13 -9 -33l-596 -1310q-11 -21 -23.5 -33.5t-33.5 -20.5t-51 -8h-199q-45 0 -61 15.5t-21 48.5l-33 306l-21 192l-11 -3l-95 -189l-156 -306q-17 -34 -38 -49t-66 -15h-202q-43 0 -61.5 15.5t-20.5 46.5z" />
<glyph unicode="X" horiz-adv-x="1264" d="M-51 24q0 17 18 38l521 667l-243 639q-10 28 1 45t42 17h256q32 0 43.5 -9t21.5 -38l56 -187l55 -196l136 206l120 173q19 28 36 38.5t44 10.5h296q19 0 29.5 -3.5t13.5 -8.5q2 -3 2 -7q0 -3 -1 -7q-2 -8 -5.5 -14.5t-9.5 -15.5l-505 -643l263 -671q4 -14 4.5 -27 t-11 -22t-33.5 -9h-258q-29 0 -44.5 9.5t-24.5 37.5l-60 196l-67 228l-146 -233l-131 -187q-22 -29 -41.5 -40t-51.5 -11h-294q-32 0 -32 24z" />
<glyph unicode="Y" horiz-adv-x="1354" d="M207 1377q-3 9 -3 17q0 12 6 20q9 16 33 16h239q36 0 49.5 -10t22.5 -41l86 -278l78 -266h13l183 269l182 257q17 22 23.5 30t19.5 20t26 15.5t31 3.5h286q24 0 28 -14v-6q0 -12 -12 -27l-651 -864l-90 -472q-2 -18 -14.5 -32.5t-38.5 -14.5h-255q-40 0 -40 31q0 7 2 16 l90 472z" />
<glyph unicode="Z" horiz-adv-x="1180" d="M13 47l36 177q4 43 43 88l739 823h-517q-29 0 -36.5 11.5t-2.5 33.5l39 203q5 24 17 35.5t41 11.5h863q20 0 30 -13q7 -9 7 -21q0 -6 -2 -13l-31 -160q-6 -33 -18 -56t-35 -49l-739 -825h568q29 0 36.5 -11.5t2.5 -33.5l-39 -201q-5 -24 -16.5 -35.5t-39.5 -11.5h-908 q-23 0 -33 12q-7 8 -7 21q0 7 2 14z" />
<glyph unicode="[" horiz-adv-x="632" d="M-41 -158l312 1605q7 47 56 47h395q21 0 26.5 -11t0.5 -34l-35 -181q-2 -11 -4 -16.5t-6.5 -12t-13 -9.5t-21.5 -3h-131l-226 -1167h133q20 0 25.5 -11.5t0.5 -33.5l-34 -179q-3 -14 -5.5 -21.5t-12 -13.5t-25.5 -6h-398q-17 0 -26 6t-11 16.5t0 24.5z" />
<glyph unicode="\" horiz-adv-x="687" d="M191 1436q7 52 45 52h207q30 0 39 -35q58 -962 90 -1539q0 -47 -45 -47h-209q-15 0 -26 10t-13 26q-44 796 -88 1533z" />
<glyph unicode="]" horiz-adv-x="632" d="M-37 -193q-5 12 2 31l33 177q10 45 47 45h131l228 1167h-131q-24 0 -29 10.5t-1 32.5l36 179q7 45 45 45h394q26 0 34 -12t5 -35l-314 -1605q-7 -47 -56 -47h-395q-24 0 -29 12z" />
<glyph unicode="^" horiz-adv-x="1207" d="M140 838q2 12 24 35l458 516q23 23 40.5 31t53.5 8l176 -2q31 0 46.5 -4.5t20 -10t13.5 -22.5l237 -527q12 -23 10 -34.5t-23 -25.5l-86 -55q-21 -16 -36 -15t-29 19l-284 415l-458 -419q-21 -21 -37.5 -21t-31.5 16l-82 69q-14 15 -12 27z" />
<glyph unicode="_" horiz-adv-x="1065" d="M-174 -262l24 118q5 25 17 36t36 11h1051q27 0 34.5 -10.5t2.5 -34.5l-23 -118q-3 -18 -8 -27.5t-16 -15t-30 -5.5h-1052q-46 0 -36 46z" />
<glyph unicode="`" horiz-adv-x="1147" d="M495 1518q-37 46 4 69l144 88q25 14 41 10.5t34 -29.5l241 -398q22 -34 -9 -54l-88 -55q-21 -14 -35 -13.5t-27 15.5z" />
<glyph unicode="a" horiz-adv-x="1205" d="M74 288q0 88 25 229q20 106 44.5 185.5t64 151.5t90.5 117t125 71.5t168 26.5q57 0 130.5 -20t132.5 -54l8 35q3 14 9 21.5t14.5 10.5t23.5 3h240q29 0 35 -11q3 -6 3 -16t-3 -23l-184 -968q-2 -19 -15 -33t-39 -14h-242q-26 0 -33 11t-2 34l10 54l-2 2 q-93 -61 -171.5 -89.5t-154.5 -28.5q-78 0 -133 21t-86 62.5t-44.5 95t-13.5 126.5zM423 398q0 -66 22.5 -89t73.5 -23q68 0 208 63l75 386q-93 30 -162 30q-87 -1 -130.5 -53.5t-68.5 -182.5q-18 -91 -18 -131z" />
<glyph unicode="b" horiz-adv-x="1180" d="M37 117q0 10 4 35q172 878 256 1317q11 47 56 47h240q39 0 39 -30q0 -13 -2 -17q-43 -210 -82 -422q121 35 217 35q105 0 177 -23t112.5 -69t57.5 -105.5t17 -142.5q0 -73 -17 -188q-17 -107 -44 -190.5t-74 -157t-112 -122t-158.5 -76t-212.5 -27.5q-120 0 -239.5 15.5 t-189.5 48.5q-45 22 -45 72zM400 281q7 0 34.5 -4t39.5 -5q12 -2 36 -3q12 0 24 -0.5t25 0.5q31 1 56 9t49 27t44.5 54t35.5 86q22 69 28 136q3 26 3 50q0 67 -22 108q-29 55 -115 55q-15 0 -27 -0.5t-24 -2t-25.5 -4t-29 -6t-37.5 -9.5z" />
<glyph unicode="c" horiz-adv-x="1024" d="M86 355q0 101 21 211q10 56 22.5 102.5t31 96t43 88.5t56.5 76.5t74 64.5t94 48t118 31.5t144 10.5q84 0 173 -14.5t148 -41.5q36 -15 36 -47q0 -16 -9 -35l-40 -133q-12 -32 -24.5 -37.5t-53.5 -2.5q-7 1 -11 1q-161 16 -214 16q-106 0 -164.5 -58.5t-83.5 -189.5 q-10 -79 -10 -119q0 -81 39 -115.5t124 -34.5q98 0 249 17q34 7 49.5 1t15.5 -39v-123q0 -41 -13 -59.5t-64 -39.5q-66 -22 -161 -35.5t-175 -13.5q-97 0 -171 20.5t-119.5 54t-74 83t-39.5 101.5t-11 115z" />
<glyph unicode="d" horiz-adv-x="1182" d="M76 293q2 116 45 327q17 75 38.5 134.5t51.5 113.5t70 93t92 67.5t119.5 43t150.5 14.5q45 0 108.5 -9t114.5 -26v3l10 47l72 368q6 24 17 36.5t37 12.5h241q39 0 39 -32q0 -11 -2 -17l-278 -1422q-5 -47 -54 -47h-242q-37 0 -37 28q0 11 2 17q1 7 3 17t4.5 20t2.5 17h-4 q-180 -116 -324 -116q-79 0 -134.5 22t-87 63.5t-44.5 96.5q-11 48 -11 109v19zM426 392q0 -63 22 -84.5t71 -21.5q70 0 210 63l82 425q-81 22 -130 22q-47 0 -78.5 -7t-59 -26.5t-47 -55.5t-36.5 -94q-13 -48 -23.5 -114.5t-10.5 -106.5z" />
<glyph unicode="e" horiz-adv-x="1139" d="M74 342q0 126 40 275q14 51 30.5 94.5t42.5 91.5t58.5 87t78.5 74.5t101 60t127.5 38.5t157.5 14q77 0 145 -17.5t121.5 -52t84.5 -90.5t31 -127t-24 -128.5t-62.5 -97.5t-95 -71t-113.5 -49.5t-127.5 -31t-127 -17.5t-121.5 -8q-8 -22 -8 -54q0 -17 4.5 -30.5t12 -22.5 t21 -15t26.5 -9.5t33.5 -5t36.5 -2t42 -0.5q121 0 299 19q27 3 40.5 -3.5t13.5 -33.5v-103q0 -43 -14.5 -60.5t-61.5 -36.5q-45 -16 -114 -27.5t-136.5 -16.5t-131.5 -5q-94 0 -167.5 20t-129 62.5t-84.5 113t-29 165.5zM454 602q54 3 100 11.5t91.5 24.5t72 45t26.5 68 q0 31 -25.5 49.5t-69.5 18.5q-37 0 -67 -14t-48.5 -33.5t-35.5 -52t-25.5 -56.5t-18.5 -61z" />
<glyph unicode="f" horiz-adv-x="900" d="M-310 -352v9v13q2 9 7 22l45 138q10 28 22.5 32.5t52.5 -2.5q113 -18 144 -18q80 0 115.5 39.5t54.5 131.5l155 787h-114q-24 0 -30.5 11.5t0.5 37.5l30 166q3 17 9 27t16.5 15.5t26.5 5.5h116l17 103q15 72 39 131t61.5 107.5t87.5 81.5t117.5 51t150.5 18q46 0 94 -4.5 t101.5 -16.5t90.5 -30q16 -8 25 -17q8 -9 8 -20t-4 -22q-2 -9 -8 -23l-45 -136q-9 -26 -22 -30t-51 2q-109 15 -157 15q-74 0 -109 -34.5t-50 -107.5l-15 -68h247q27 0 34.5 -10.5t1.5 -35.5l-31 -168q-5 -27 -17 -38t-40 -11h-249l-172 -864q-17 -90 -49.5 -158t-84 -119 t-128 -77.5t-177.5 -26.5q-69 0 -146.5 14.5t-134.5 43.5q-16 6 -25 15t-10 20z" />
<glyph unicode="g" horiz-adv-x="1180" d="M15 -342q0 14 6 30l50 123q11 25 22 35t25 9.5t34 -3.5q142 -24 287 -24q59 0 96 7.5t61 27t36.5 44.5t23.5 69l15 57l-2 2q-111 -35 -217 -35q-104 0 -176.5 23.5t-112.5 69.5t-57.5 106t-17.5 141q0 150 39 292q19 70 43.5 128t60 109.5t82 90t105.5 67t134.5 43 t165.5 14.5q112 0 225.5 -17t185.5 -47q25 -10 37 -28q10 -17 10 -35q0 -15 -4 -46l-163 -845q-15 -76 -26 -119.5t-33 -106t-48 -98.5t-69.5 -77.5t-99.5 -63t-136 -36t-180 -14.5h-16q-52 0 -109 5q-66 7 -123.5 19t-94.5 27q-22 9 -35 17t-18.5 17t-5.5 22zM439 421 q0 -38 8 -64t24.5 -40.5t38 -20.5t52.5 -6q69 0 162 22l91 468q-91 12 -134 12q-40 0 -71 -8.5t-61.5 -31t-53 -67.5t-37.5 -113q-19 -89 -19 -151z" />
<glyph unicode="h" horiz-adv-x="1197" d="M26 47l275 1424q7 47 54 47h238q38 0 38 -33q0 -6 -1 -14l-94 -486q79 41 171.5 69t168.5 28q52 0 94.5 -8.5t72.5 -22t52 -35.5t35 -45t20 -55q6 -31 8 -59q0 -9 1 -20q0 -21 -2 -45q-3 -37 -7.5 -66.5t-12.5 -67.5l-117 -611q-10 -47 -54 -47h-237q-40 0 -40 35 q0 5 1 12q83 408 114 579q8 37 8 65q0 17 -2 29q-8 36 -33.5 52t-70.5 16q-63 0 -224 -64l-131 -677q-10 -47 -54 -47h-237q-23 0 -30 12q-5 8 -5 22q0 6 1 13z" />
<glyph unicode="i" horiz-adv-x="597" d="M51 47l187 968q5 24 19 36t40 12h241q36 0 36 -31q0 -8 -2 -17l-187 -968q-2 -18 -14.5 -32.5t-39.5 -14.5h-241q-41 0 -41 32q0 7 2 15zM293 1290q0 45 11 82.5t34.5 68t65.5 48t99 17.5q149 0 149 -108q0 -33 -5 -61.5t-19.5 -58.5t-37.5 -51.5t-61 -35t-88 -13.5 q-148 0 -148 112z" />
<glyph unicode="j" horiz-adv-x="630" d="M-324 -342l43 147q9 29 20 34.5t54 0.5q5 0 15 -1q24 -2 37 -3t36 -2t36.5 0t33.5 4.5t32 9.5t27 16t24.5 23.5t18 32.5t13.5 43l203 1057q4 25 16 34t37 9h244q25 0 32.5 -9t3.5 -34l-226 -1170q-18 -90 -54.5 -152t-90.5 -97t-118 -50t-148 -15q-63 0 -139 12.5 t-125 34.5q-30 11 -30 44q0 14 5 31zM320 1290q0 45 11.5 82.5t36 68t66 48t97.5 17.5q54 0 87 -13t47 -36.5t14 -58.5q0 -32 -5 -60.5t-19.5 -58.5t-37.5 -51.5t-61 -35.5t-88 -14q-148 0 -148 112z" />
<glyph unicode="k" horiz-adv-x="1139" d="M33 45l275 1426q7 47 55 47h234q39 0 39 -32q0 -7 -2 -15l-144 -738v-2q46 45 96.5 92.5t103.5 97t98 92.5q19 19 30 27t31 14t48 6h271q38 0 38 -20q0 -16 -26 -38l-386 -366l251 -578q9 -16 6 -30q-2 -12 -15 -20t-34 -8h-214q-14 0 -25.5 1t-20.5 4t-15.5 4.5 t-12.5 8.5t-9 8.5t-8 12t-6 12t-6 14.5t-6 15l-137 316q-14 -14 -65.5 -61.5t-76.5 -72.5l-43 -217q-9 -45 -54 -45h-234q-38 0 -38 30q0 7 2 15z" />
<glyph unicode="l" horiz-adv-x="646" d="M92 271l232 1200q11 47 56 47h242q40 0 40 -32q0 -7 -2 -15l-219 -1120q-2 -13 -2.5 -23t0 -17.5t4.5 -13.5t6.5 -10t11 -7.5t12.5 -5t17 -3.5t18 -2.5t21 -1.5q32 -3 39.5 -11.5t3.5 -33.5l-22 -158q-3 -18 -12.5 -28.5t-30.5 -18.5q-65 -27 -178 -27q-145 0 -205 68 q-41 46 -41 128q0 39 9 85z" />
<glyph unicode="m" horiz-adv-x="1801" d="M24 45l187 968q11 47 56 47h236q38 0 38 -33q0 -6 -1 -14l-9 -49l2 -3q81 56 168 87t169 31q100 0 165.5 -36.5t84.5 -109.5q94 67 196.5 106.5t195.5 39.5q50 0 89.5 -8t67 -21.5t47.5 -35.5t31.5 -44t16.5 -54t6 -59v-11q0 -23 -3 -54q-4 -38 -8.5 -66t-12.5 -68 l-118 -613q-10 -45 -52 -45h-236q-27 0 -35.5 11.5t-3.5 33.5l109 566q8 50 8.5 81.5t-12.5 49.5t-32 25t-51 7q-18 0 -45 -5.5t-55 -15t-54.5 -20t-50.5 -21.5l-19 -99l-110 -568q-2 -9 -4.5 -16t-8 -14t-16 -11t-24.5 -4h-237q-38 0 -38 30q0 7 2 15l109 572q8 40 8 69 q0 36 -12 54q-20 34 -80 34q-37 0 -95.5 -18t-110.5 -44l-129 -667q-9 -45 -56 -45h-237q-25 0 -33 12q-5 7 -5 18q0 7 2 15z" />
<glyph unicode="n" horiz-adv-x="1197" d="M24 47l187 968q11 48 56 48h240q28 0 35.5 -14t1.5 -34l-8 -51h4q40 27 88 49.5t95 37t92 23t82 8.5q49 0 89 -8.5t68 -22.5t48.5 -36t32.5 -45.5t18 -55.5t7 -60v-13q0 -24 -2 -52q-4 -37 -8.5 -66t-12.5 -67l-117 -609q-1 -6 -3 -12t-6 -12.5t-10 -11.5t-15 -8t-20 -3 h-244q-25 0 -32.5 12t-3.5 35l110 560q7 40 7 68.5t-6 47t-20 29t-32 14.5t-46 4q-58 0 -202 -56q-8 -3 -11 -4l-129 -663q-2 -18 -15 -32.5t-41 -14.5h-241q-25 0 -32 12q-5 8 -5 22q0 6 1 13z" />
<glyph unicode="o" horiz-adv-x="1178" d="M88 383q0 60 17 163q10 55 23 102.5t36 104t52 102t73.5 89.5t99 73.5t130.5 48t165 18.5q80 0 146 -13.5t113 -39t82 -59.5t55.5 -78t30 -92.5t9.5 -104.5q0 -68 -14 -151q-12 -67 -23 -115.5t-32.5 -111t-49 -107t-71.5 -90.5t-99 -74.5t-134 -46.5t-174 -18 q-99 0 -175 21.5t-124.5 57.5t-79.5 88t-43.5 108.5t-12.5 124.5zM428 406q0 -73 28.5 -105t93.5 -32q43 0 75 12t54 33t38.5 56t26.5 72.5t19 90.5q15 83 15 130q0 70 -31 101.5t-100 31.5q-49 0 -84 -18t-58 -55t-36.5 -81t-25.5 -109q-15 -82 -15 -127z" />
<glyph unicode="p" horiz-adv-x="1182" d="M-51 -374l266 1387q11 50 56 50h240q29 0 36 -10t3 -31l-8 -58q0 -3 2 -3q83 55 169 86.5t160 31.5q71 0 122.5 -21t82 -62t45.5 -94.5t16 -123.5q0 -50 -2 -79q-3 -108 -33 -254q-24 -115 -64 -198.5t-102 -145t-151.5 -92t-207.5 -30.5q-48 0 -111 8.5t-113 22.5 l-76 -384q-10 -47 -55 -47h-239q-38 0 -38 32q0 7 2 15zM406 288q104 -23 173 -23q40 0 73.5 19t55.5 51t38.5 71t25.5 83t13.5 82t4.5 72q0 35 -3.5 57t-13.5 39t-28.5 24t-47.5 7q-79 0 -207 -60q-18 -84 -48.5 -242.5t-35.5 -179.5z" />
<glyph unicode="q" horiz-adv-x="1180" d="M84 310q0 72 13 162t34 162q30 109 74.5 189t113.5 140t168 90.5t229 30.5q115 0 229.5 -16.5t185.5 -47.5q23 -13 33 -30q11 -16 11 -34q0 -15 -3 -45l-251 -1285q-2 -18 -14.5 -32.5t-40.5 -14.5h-240q-39 0 -39 34v13l78 387l-2 2q-110 -32 -216 -32 q-99 0 -170.5 22.5t-113 66.5t-60.5 102t-19 136zM439 404q0 -77 30.5 -106t96.5 -29q60 0 154 21l95 490q-91 12 -131 12q-46 0 -81.5 -12.5t-66 -41.5t-52.5 -80.5t-35 -126.5q-10 -59 -10 -127z" />
<glyph unicode="r" horiz-adv-x="880" d="M56 47l187 968q10 48 56 48h243q26 0 33.5 -14.5t3.5 -33.5l-25 -129l2 -4q66 72 167 126.5t174 64.5q19 3 32 3q17 0 23 -4q10 -7 10 -34q0 -6 -1 -14l-17 -220q-2 -31 -14.5 -43t-59.5 -21q-186 -34 -369 -118l-109 -575q-11 -47 -54 -47h-244q-26 0 -34 12q-6 8 -5 21 q0 7 1 14z" />
<glyph unicode="s" horiz-adv-x="1046" d="M16 70q-4 8 -4 18q0 19 12 47l42 103q12 32 26.5 39t49.5 0q69 -12 156 -19.5t145 -7.5q54 0 88 7.5t54 26.5t22 51q1 13 -1.5 22.5t-9 17t-14.5 12.5t-21.5 9.5t-25 7.5t-30.5 7q-46 7 -81.5 15t-75.5 20.5t-69 28t-57 38t-45.5 50t-28 64t-10.5 81.5q0 84 27.5 150 t74.5 107.5t114 69t139 38.5t156 11q49 0 106.5 -5.5t117.5 -17t101 -27.5q23 -8 35.5 -14.5t21.5 -16.5q9 -9 9 -23q0 -15 -10 -36l-47 -111q-11 -31 -23 -37.5t-51 -1.5q-191 22 -294 25h-13q-60 -1 -88 -17q-30 -18 -32 -58q-2 -16 7.5 -28t29 -19.5t37 -11.5t41.5 -8 q43 -6 76.5 -12.5t72.5 -18.5t67.5 -26t56.5 -36t45.5 -49t28 -64t10.5 -81q0 -409 -546 -409q-81 0 -176.5 13.5t-155.5 33.5q-50 20 -60 42z" />
<glyph unicode="t" horiz-adv-x="878" d="M130 824q-1 5 -1 11q0 7 2 17l33 161q5 26 16.5 36.5t36.5 10.5h97l41 210q4 25 18.5 37.5t39.5 19.5l227 58q12 4 21 4q11 1 18 -5q13 -10 9 -36l-56 -288h220q27 0 34 -10q4 -6 4 -17q0 -8 -2 -18l-32 -163q-5 -27 -15.5 -37.5t-38.5 -10.5h-221l-76 -400 q-7 -33 -7 -56v-10q2 -26 28 -37.5t87 -12.5q30 0 150 9h7q11 0 16.5 -0.5t11.5 -4.5t7.5 -13.5t0.5 -26.5l-10 -155q1 -24 -14 -43t-38 -26q-73 -23 -165 -34t-158 -11q-57 0 -101 10t-73.5 27t-49 42.5t-29.5 53.5t-12 64q-1 16 -1 32q0 19 2 38q3 34 11 74l94 480h-94 q-17 0 -26.5 5t-11.5 15z" />
<glyph unicode="u" horiz-adv-x="1186" d="M65 172q-2 14 -2 32t2 40q4 44 9 75.5t14 80.5l121 615q10 48 53 48h243q39 0 39 -33q0 -7 -2 -15l-107 -559q-7 -38 -7 -67q0 -38 12 -58q21 -36 89 -36q16 0 36 3.5t35 7t39 11.5t34.5 12t34.5 13.5t27 10.5l127 662q11 48 56 48h241q41 0 41 -32q0 -7 -2 -16 l-189 -968q-7 -47 -55 -47h-242q-26 0 -32.5 13t-4.5 34l11 52l-5 2q-84 -54 -182 -86t-175 -32q-55 0 -98.5 8.5t-72 27t-48 39t-28 53.5t-12.5 61z" />
<glyph unicode="v" horiz-adv-x="1171" d="M146 1006q-1 8 -1 14q0 10 2 17q3 12 14 19t30 7h226q33 0 46.5 -8.5t16.5 -41.5l43 -368q27 -269 29 -277h10l142 290l188 359q12 25 29.5 35.5t54.5 10.5h239q35 0 39 -13q1 -3 0 -6q0 -13 -13 -35l-533 -940q-21 -37 -44.5 -53t-63.5 -16h-202q-44 0 -60.5 15.5 t-23.5 53.5z" />
<glyph unicode="w" horiz-adv-x="1627" d="M144 1020q-1 5 -1 9q1 15 9 23q10 11 35 11h226q28 0 40 -9.5t13 -38.5q19 -216 26 -359l21 -266h12q21 41 64.5 126.5t78 151.5t67.5 124l-31 221q0 50 40 50h226q32 0 41 -9t11 -45q1 -8 25 -250q14 -155 35 -348h8l110 241q26 63 79.5 183.5t77.5 175.5q6 16 12 25.5 t14 15.5t17 8.5t22 2.5h257q30 0 34 -14q1 -3 1 -7q0 -12 -11 -27l-488 -976q-13 -25 -34.5 -32t-51.5 -7h-185q-31 0 -47 16.5t-19 52.5l-53 348h-6l-212 -374q-30 -43 -86 -43h-168q-40 0 -57 16t-23 58z" />
<glyph unicode="x" horiz-adv-x="1113" d="M-66 15q-1 2 0 5q0 14 21 38l430 484l-225 464q-12 20 -2.5 38.5t39.5 18.5h246q21 0 31.5 -3.5t15.5 -10.5t11 -23l108 -258l208 256q17 23 29 31t36 8h292q39 0 39 -22q0 -16 -19 -35l-420 -466l246 -482q10 -23 -1 -40.5t-40 -17.5h-248q-27 0 -40 7.5t-22 29.5 l-121 279l-221 -275q-21 -24 -37 -32.5t-42 -8.5h-281q-29 0 -33 15z" />
<glyph unicode="y" horiz-adv-x="1120" d="M78 -409q-2 3 -2 7q0 12 14 34l224 396l-179 981q-4 27 6 40.5t40 13.5h219q15 0 21.5 -0.5t15 -2.5t12 -7t7 -13.5t4.5 -22.5l41 -305l30 -291h11q11 20 31.5 58t41 77.5t39.5 76t31 60.5l12 23q104 208 155 301q10 25 27.5 35.5t53.5 10.5h233q34 0 38 -15q1 -3 1 -6 q0 -14 -13 -36l-779 -1378q-13 -20 -23.5 -30t-24.5 -14.5t-38 -4.5h-210q-33 0 -39 12z" />
<glyph unicode="z" horiz-adv-x="1008" d="M-19 45l25 138q8 45 52 84l542 531h-397q-37 0 -37 31q0 8 2 18l29 170q5 16 12 26t18 15t27 5h752q26 1 33 -9q5 -7 5 -21q0 -6 -1 -13l-28 -144q-11 -46 -51 -86l-534 -525h432q25 0 33 -11t4 -37l-33 -170q-9 -47 -53 -47h-796q-27 0 -34 10q-4 6 -4 17q0 8 2 18z" />
<glyph unicode="{" horiz-adv-x="741" d="M90 591l21 117q6 29 41 36q24 7 41.5 16t30 22t20.5 25.5t14.5 33.5t10 37.5t8.5 44.5l65 331q11 52 32 95.5t56.5 81t92 58.5t129.5 21q99 0 185 -12q33 -3 27 -43l-29 -146q-5 -22 -16 -30.5t-31 -8.5l-59 -4q-44 -3 -65.5 -26.5t-31.5 -71.5l-53 -276 q-5 -24 -12.5 -50t-22.5 -58t-35 -58t-50.5 -49t-66.5 -34l-2 -7q30 -12 51 -27.5t32 -36t16.5 -39t4.5 -44.5t-3.5 -45t-8.5 -48l-59 -299q-10 -49 3.5 -71.5t57.5 -25.5l56 -4q21 -2 29 -10.5t3 -30.5l-28 -140q-3 -19 -15 -30t-28 -13q-74 -10 -170 -10q-54 0 -96 11.5 t-67.5 32t-42 46.5t-22 58t-4.5 63t8 64l65 335q1 1 1 5q5 29 7 43t4 35.5t-1.5 32.5t-10.5 24t-20.5 21.5t-32.5 14.5q-34 11 -29 43z" />
<glyph unicode="|" horiz-adv-x="644" d="M176 -191v1642q0 47 48 47h199q45 0 45 -47v-1642q0 -47 -45 -47h-199q-48 0 -48 47z" />
<glyph unicode="}" horiz-adv-x="741" d="M-62 -185l27 140q5 22 16 30.5t32 10.5l53 4q47 3 68.5 25t31.5 72l58 299q5 29 10 47.5t14.5 45t22 45t31.5 39t46.5 36t62.5 27.5l2 7q-40 13 -63.5 43.5t-30.5 69t-6 71.5t7 65l52 276q10 48 -2.5 71.5t-55.5 26.5l-54 4q-20 0 -28.5 8.5t-3.5 30.5l28 146q7 40 45 43 q88 12 181 12q44 0 80.5 -10t61.5 -27.5t43 -41.5t26 -52.5t10 -60t-6 -64.5l-65 -331q-4 -22 -5.5 -30.5t-4 -27t-2 -25.5t0.5 -21t3.5 -20.5t8.5 -16.5t13 -15.5t19 -11.5t25 -11q32 -8 26 -36l-24 -117q-5 -30 -43 -43q-28 -7 -47.5 -19.5t-31 -24t-20.5 -35t-13 -39.5 t-10 -50q-1 -6 -2 -8l-69 -359q-10 -49 -32 -92t-58 -79.5t-91.5 -58t-124.5 -21.5q-118 0 -185 10q-33 3 -27 43z" />
<glyph unicode="~" d="M142 585q37 70 80 118.5t90.5 74.5t94 36.5t102.5 10.5q48 0 104.5 -16.5t99 -36t91 -36t82.5 -16.5q25 0 46.5 7t45.5 25t48 48q16 20 29 23t33 -10l96 -66q23 -14 24.5 -22t-10.5 -30q-41 -68 -83.5 -114t-87 -70t-87.5 -33.5t-95 -9.5q-37 0 -89.5 18.5t-96.5 41 t-94.5 41t-84.5 18.5q-49 0 -86.5 -21.5t-85.5 -77.5q-26 -32 -58 -12l-100 60q-26 14 -8 49z" />
<glyph unicode="&#xa1;" horiz-adv-x="632" d="M17 -329l209 920q6 24 16.5 33.5t32.5 9.5h174q24 0 31 -10t4 -33l-153 -920q-3 -17 -9 -26.5t-16 -13t-27 -3.5h-230q-23 0 -30.5 9.5t-1.5 33.5zM243 876q0 19 2.5 37t9 38.5t16 38t25 33.5t36 27.5t49.5 18t64 6.5q84 0 114 -31.5t28 -86.5q-2 -45 -12.5 -79.5 t-32.5 -63t-61.5 -44t-95.5 -15.5q-82 0 -114 31.5t-28 89.5z" />
<glyph unicode="&#xa2;" d="M207 355q0 74 21 207q15 81 34 144.5t53.5 128.5t81.5 110.5t118.5 79t163.5 46.5l54 267q7 47 55 47h135q43 0 34 -47l-52 -261q144 -11 228 -49q51 -23 28 -82l-43 -133q-11 -32 -23 -37.5t-53 -2.5q-8 1 -12 1q-157 16 -213 16q-108 0 -166 -58.5t-83 -189.5 q-12 -87 -12 -119q0 -80 39.5 -115t124.5 -35q99 0 250 17q34 7 50 1t16 -39l-2 -123q0 -42 -12.5 -60t-62.5 -39q-93 -33 -267 -45l-47 -258q-3 -10 -6 -16t-9 -14.5t-16 -12.5t-23 -4h-135q-45 0 -35 47l50 271q-74 16 -127 49.5t-82 82t-42 103.5t-13 122z" />
<glyph unicode="&#xa3;" d="M35 43l16 111q8 47 28.5 76.5t78.5 79.5q47 41 75.5 91.5t47.5 117.5l20 81h-108q-9 0 -16 0.5t-11.5 3t-7 4t-3.5 6.5t-1 7v10.5v11.5l31 159q4 23 16 31t37 8h100q30 186 49 260q21 79 58 139t95.5 105.5t144.5 69t197 23.5q257 -6 380 -59q26 -12 30 -27.5t-6 -35.5 l-51 -150q-8 -25 -21 -34.5t-36 -9.5q-165 25 -273 25q-181 0 -215 -177l-23 -129h294q28 0 34.5 -8t2.5 -31l-32 -159q-5 -26 -16 -34.5t-36 -8.5h-286q-15 -83 -45 -165q-40 -122 -78 -160q89 0 268 -1t270 -1q27 0 32.5 -9.5t1.5 -33.5l-34 -189q-7 -26 -16.5 -33.5 t-35.5 -7.5h-917q-25 0 -33 10.5t-6 32.5z" />
<glyph unicode="&#xa4;" horiz-adv-x="1160" d="M51 981.5q0 13.5 25 35.5l92 89q21 19 33 23.5t21 -0.5t28 -23l99 -102q98 51 221 54q141 0 236 -58l119 116q18 18 30 23t20 0.5t25 -19.5l101 -98q21 -24 20 -36t-25 -36l-124 -125q17 -31 28.5 -69t16.5 -71.5t5 -62.5q0 -53 -14 -116.5t-42 -120.5l124 -125 q17 -17 22.5 -26t2.5 -21t-19 -28l-85 -91q-27 -28 -42 -28.5t-38 22.5l-133 129q-111 -56 -228 -53q-108 0 -202 43l-120 -113q-18 -17 -27.5 -23t-21.5 -3.5t-27 18.5l-98 101q-18 17 -17.5 31.5t25.5 37.5l109 107q-28 59 -43 128.5t-15 121.5q0 119 52 220l-109 111 q-25 24 -25 37.5zM376 620q0 -68 23.5 -116t68 -73t106.5 -25q100 0 155.5 59t55.5 155q0 99 -55 155t-156 56q-93 0 -145.5 -56.5t-52.5 -154.5z" />
<glyph unicode="&#xa5;" d="M78 344l19 93q4 19 16 28t35 9h919q17 0 25 -3.5t10 -11.5t-1 -22l-19 -95q-4 -15 -8 -22.5t-14 -12t-28 -4.5h-292l-52 -256q-2 -18 -14 -32.5t-38 -14.5h-242q-46 0 -39 47l51 256h-292q-23 0 -32 9t-4 32zM127 593l19 93q3 21 15 29.5t36 8.5h197l-191 650 q-7 22 5.5 38t36.5 16h231q35 0 47.5 -9.5t22.5 -41.5l121 -538h12l316 522q17 22 22.5 28.5t18 19t25 16t29.5 3.5h264q23 0 27 -17.5t-11 -36.5l-452 -650h196q27 0 33.5 -7.5t1.5 -30.5l-20 -93q-4 -23 -13 -32t-34 -9h-918q-24 0 -33 9t-4 32z" />
<glyph unicode="&#xa6;" horiz-adv-x="644" d="M176 -191v759q0 47 48 47h199q45 0 45 -47v-759q0 -47 -45 -47h-199q-48 0 -48 47zM176 785v662q0 24 10.5 36.5t37.5 12.5h199q45 0 45 -49v-662q0 -48 -45 -48h-199q-48 0 -48 48z" />
<glyph unicode="&#xa7;" horiz-adv-x="975" d="M-26.5 -257.5q-6.5 16.5 2.5 42.5l48 118q5 11 9 19t9 13t8.5 9t10.5 5t10 1.5t12.5 -1.5t13.5 -3t16.5 -5t17.5 -5q89 -26 207 -26q48 0 89 9.5t70.5 33.5t29.5 60q0 29 -23.5 59t-62 56t-77 47t-80 42t-58.5 33q-140 94 -140 257q0 100 53 189.5t138 146.5 q-90 84 -90 198q0 60 13 113t37 94t57.5 74.5t74.5 57.5t89.5 40t100.5 23.5t108 7.5q99 0 201.5 -21.5t151.5 -48.5q25 -14 29.5 -30.5t-6.5 -39.5q-8 -17 -15 -36.5t-15 -42t-13 -36.5q-21 -37 -40.5 -42.5t-54.5 5.5q-145 31 -230 31q-37 0 -64 -4t-53.5 -14.5 t-41.5 -33.5t-17 -56q0 -20 11 -38.5t33.5 -35.5t39.5 -27.5t46.5 -25.5t37.5 -19q5 -3 17 -9q36 -19 54.5 -29.5t50.5 -30.5t49.5 -35.5t40 -40t33.5 -48.5t19.5 -56.5t8.5 -69.5q0 -95 -47.5 -173.5t-143.5 -162.5q98 -106 98 -244q0 -76 -26.5 -140t-73 -110 t-109.5 -78.5t-134.5 -48t-148.5 -15.5q-103 0 -201.5 18t-147.5 47q-26 16 -32.5 32.5zM390 548q0 -12 4 -23.5t15.5 -23t19.5 -19t28.5 -19t30 -17t36 -18.5t35.5 -17q68 68 75 135q0 29 -14.5 51t-47.5 41l-106 57q-76 -87 -76 -147z" />
<glyph unicode="&#xa8;" horiz-adv-x="1147" d="M378 1270q0 205 194 205q74 0 107 -23.5t33 -70.5q0 -42 -10 -77.5t-32 -66t-62.5 -48t-96.5 -17.5q-72 0 -102.5 25.5t-30.5 72.5zM827 1270q0 94 46 149.5t149 55.5q74 0 106.5 -23.5t32.5 -70.5q0 -43 -9.5 -78t-31 -65.5t-62.5 -48t-97 -17.5q-134 0 -134 98z" />
<glyph unicode="&#xa9;" horiz-adv-x="1779" d="M127 722.5q0 154.5 60 294t162 240t243 159.5t296 59q160 0 302 -59t243 -159.5t160 -240t59 -294.5q0 -154 -60.5 -293.5t-163 -240t-243.5 -159.5t-296.5 -59t-296.5 59t-243 159.5t-162 240t-60 294zM310 722.5q0 -117.5 46 -224.5t123.5 -184.5t184.5 -123.5t224 -46 q79 0 154 21t138.5 58t117 90.5t90.5 117t58 138.5t21 153q0 118 -46 224.5t-123 183.5t-184.5 123t-225.5 46q-117 0 -224 -46t-184.5 -123t-123.5 -183.5t-46 -224zM521 710q0 434 369 434q148 0 239 -38q23 -11 32 -23t5 -34l-15 -75q-5 -18 -15.5 -23.5t-29.5 -2.5 q-90 13 -197 13q-34 0 -60.5 -9t-45 -25.5t-31 -38.5t-19.5 -51t-10 -59t-3 -66q0 -64 7.5 -107.5t25.5 -77.5t52 -50.5t84 -16.5q66 0 199 14q20 1 29.5 -4t15.5 -23l17 -69q4 -23 -5 -36t-30 -22q-91 -43 -245 -43q-369 0 -369 433z" />
<glyph unicode="&#xaa;" horiz-adv-x="855" d="M111 699q0 61 18 148q14 70 31.5 124t45.5 103t64.5 80.5t89 50t118.5 18.5q98 0 171 -55l7 30q1 6 3 10t5.5 6.5t8.5 3.5t13 1h180q29 0 29 -17q0 -9 -3 -16l-122 -644q-5 -33 -39 -33h-172q-26 0 -26 20v9l9 43h-2q-121 -84 -232 -84q-102 0 -148.5 51.5t-48.5 150.5z M374 774q0 -23 6 -37t18.5 -20.5t31.5 -6.5q18 0 42 5t46.5 13t40.5 16q10 55 48 237q-47 19 -98 19q-52 0 -78.5 -32.5t-47.5 -113.5q-9 -40 -9 -80z" />
<glyph unicode="&#xab;" horiz-adv-x="1197" d="M70 439.5q4 16.5 27 38.5l286 285q39 39 73 39h262q19 0 22.5 -11t-7.5 -19l-343 -342l195 -331q7 -8 2.5 -23.5t-21.5 -15.5h-258q-14 0 -26 8t-15.5 13.5t-12.5 19.5l-172 293q-16 29 -12 45.5zM525.5 440q4.5 17 26.5 38l287 285q39 39 72 39h261q20 0 23.5 -11 t-9.5 -19l-339 -342l191 -331q7 -8 3 -23.5t-21 -15.5h-257q-13 0 -23.5 6.5t-15.5 13t-12 17.5q-1 3 -2 4l-174 293q-15 29 -10.5 46z" />
<glyph unicode="&#xac;" d="M176 636l29 146q5 24 17 34.5t36 10.5h886q27 0 34 -9t2 -33l-101 -523q-6 -26 -17.5 -34.5t-35.5 -8.5h-187q-26 0 -35.5 8.5t-3.5 34.5l62 327h-651q-24 0 -31.5 11t-3.5 36z" />
<glyph unicode="&#xad;" horiz-adv-x="880" d="M97 602l34 176q6 45 54 45h671q26 0 32.5 -10.5t1.5 -34.5l-34 -176q-4 -26 -15 -36t-39 -10h-671q-23 0 -31 10.5t-3 35.5z" />
<glyph unicode="&#xae;" horiz-adv-x="1156" d="M92 1083.5q0 100.5 39.5 191t105.5 155.5t157.5 103.5t192.5 38.5q82 0 158 -24.5t136.5 -69t106 -104.5t70 -135t24.5 -155q0 -101 -39 -191.5t-105 -155.5t-158 -103.5t-193 -38.5t-192.5 38.5t-157.5 103.5t-105.5 155.5t-39.5 191zM215 1083.5q0 -100.5 50 -185.5 t135.5 -134.5t186.5 -49.5t186 49.5t134.5 134.5t49.5 185.5t-49.5 186t-134.5 134.5t-186 49t-186.5 -49t-135.5 -134.5t-50 -186zM390 839v501q0 23 23 23h202q35 0 66.5 -10t58 -29t42.5 -53t16 -77q0 -47 -20 -87.5t-64 -61.5l94 -206q6 -8 2.5 -15t-14.5 -7h-106 q-25 0 -34 20l-80 180h-43v-178q0 -22 -20 -22h-102q-13 0 -17 5.5t-4 16.5zM533 1135h58q58 0 58 57q0 26 -16 38.5t-42 12.5h-58v-108z" />
<glyph unicode="&#xaf;" horiz-adv-x="1153" d="M359 1264l31 156q4 24 17.5 34.5t37.5 10.5h654q25 0 32 -9.5t2 -33.5l-32 -158q-3 -25 -14 -36t-36 -11h-655q-24 0 -33 11.5t-4 35.5z" />
<glyph unicode="&#xb0;" horiz-adv-x="848" d="M78 1114q0 89 47.5 166t129.5 123t178 46q72 0 137 -27.5t110.5 -73t72.5 -107t27 -127.5q0 -92 -45.5 -169t-125.5 -122t-176 -45q-82 0 -149 26t-112 71.5t-69.5 107t-24.5 131.5zM288 1110q0 -57 40.5 -96.5t99.5 -39.5q38 0 69.5 18t50 49.5t18.5 68.5q0 57 -40.5 97 t-97.5 40t-98.5 -40.5t-41.5 -96.5z" />
<glyph unicode="&#xb1;" d="M78 66l27 145q5 24 17.5 34.5t37.5 10.5h887q18 0 26.5 -4.5t10 -14t-1.5 -24.5l-28 -147q-3 -16 -8.5 -25.5t-16.5 -14.5t-29 -5h-886q-46 0 -36 45zM207 716l31 154q4 24 16 35t36 11h297l53 270q9 47 55 47h197q46 0 37 -47l-53 -270h300q28 0 35 -10.5t4 -35.5 l-31 -154q-5 -25 -16 -35t-39 -10h-302l-57 -297q-2 -18 -8.5 -28t-16.5 -13.5t-25 -3.5h-199q-25 0 -33.5 9t-3.5 36l56 297h-297q-24 0 -31.5 10t-4.5 35z" />
<glyph unicode="&#xb2;" horiz-adv-x="870" d="M78 740l21 112q8 42 47 71q16 15 205 160t199 154q87 69 90 126q1 13 -2.5 22.5t-14 17t-30 11.5t-47.5 4q-130 0 -243 -16q-41 -8 -53 -3t-12 39v87q-1 14 0.5 23.5t7.5 21.5t22 21.5t42 17.5q56 21 141.5 31t143.5 10q179 0 256.5 -58.5t77.5 -169.5q0 -99 -51 -177 t-156 -163q-53 -43 -201 -155h300q20 0 26 -7.5t2 -27.5l-30 -152q-8 -36 -41 -36h-671q-20 0 -25.5 8t-3.5 28z" />
<glyph unicode="&#xb3;" horiz-adv-x="870" d="M85.5 766.5q-11.5 19.5 2.5 54.5l35 84q11 30 20.5 38t34.5 3q129 -23 245 -23q30 0 53.5 2t49 9.5t42.5 19.5t28 33.5t11 50.5q0 23 -13 34t-42 16l-172 32q-33 7 -44.5 21.5t-6.5 40.5l15 74q3 13 7 21.5t12 17t22 16.5q58 33 169 102v5h-294q-37 0 -30 33l30 151 q6 37 41 37h630q17 0 24.5 -5t7.5 -13t-2 -19l-17 -96q-5 -30 -33 -65q-20 -21 -50 -43.5t-73 -52t-64 -44.5l52 -15q125 -38 125 -209q0 -81 -25 -146t-68.5 -109t-105.5 -74t-133.5 -43t-153.5 -13q-64 0 -146 10t-125 27q-47 18 -58.5 37.5z" />
<glyph unicode="&#xb4;" horiz-adv-x="1147" d="M607 1273l271 372q31 43 66 21l144 -94q19 -11 19 -29t-19 -39l-318 -326q-31 -35 -58 -19l-101 62q-30 19 -4 52z" />
<glyph unicode="&#xb6;" horiz-adv-x="1214" d="M152 921q0 114 43 211t114.5 161.5t164.5 100.5t193 36h619q51 0 41 -47l-34 -174q-6 -27 -18.5 -39.5t-39.5 -12.5h-39l-260 -1338q-3 -15 -7.5 -25t-11.5 -15.5t-16.5 -8t-22.5 -2.5h-151q-17 0 -27 4.5t-13.5 16t-0.5 30.5l260 1340h-183l-260 -1340q-5 -29 -19 -40 t-41 -11h-146q-28 0 -39 11.5t-6 39.5l152 785q-66 4 -116 30t-79 70t-43 98t-14 119z" />
<glyph unicode="&#xb7;" horiz-adv-x="502" d="M101 531q0 44 11 81t35 68t66.5 49t100.5 18q78 0 113 -27.5t35 -81.5q0 -33 -5 -62t-19.5 -59.5t-37 -52.5t-60.5 -35.5t-88 -13.5q-151 0 -151 116z" />
<glyph unicode="&#xb8;" horiz-adv-x="907" d="M97 -454l32 89q6 15 31 12q68 -10 137 -10q27 0 50.5 4t45 13.5t34 28t12.5 44.5q0 35 -30 46t-114 16q-23 2 -29 15.5t7 35.5l95 179q0 1 3.5 5t10 7.5t12.5 3.5h109q7 0 8 -7.5t-2 -10.5l-68 -120q64 -2 108 -23.5t63.5 -54t19.5 -73.5q0 -116 -91.5 -183.5 t-252.5 -67.5q-37 0 -91.5 7t-87.5 18q-20 8 -12 26z" />
<glyph unicode="&#xb9;" horiz-adv-x="835" d="M148 737l33 153q2 14 6.5 21.5t12.5 10.5t22 3h137l88 464h-129q-18 0 -26 3.5t-9.5 11.5t1.5 20l17 88q6 24 13.5 34.5t31.5 19.5l142 57q44 16 86 16h148q22 0 30 -8t5 -29l-129 -677h146q21 0 27 -6t3 -27l-32 -155q-4 -19 -11.5 -26t-27.5 -7h-555q-13 0 -20 2 t-9.5 9.5t-0.5 21.5z" />
<glyph unicode="&#xba;" horiz-adv-x="812" d="M127 742q-2 47 11 134q6 35 15 65.5t25 67.5t37 67.5t52.5 59.5t70 49t91.5 32.5t115 12.5q308 0 308 -256q0 -36 -9 -101q-7 -42 -15.5 -75t-24 -73.5t-35.5 -71t-51.5 -61t-71 -50t-95 -31.5t-122.5 -12q-82 0 -141.5 18.5t-93 52.5t-49.5 76.5t-17 95.5zM383 790 q0 -42 17 -60t56 -18q30 0 52 10t36.5 31t23.5 47t17 64q10 51 10 78q0 40 -19 57.5t-59 17.5q-54 0 -81.5 -39t-43.5 -114q-9 -38 -9 -74z" />
<glyph unicode="&#xbb;" horiz-adv-x="1197" d="M6.5 74.5q-0.5 14.5 8.5 22.5l331 336l-204 335q-9 9 -0.5 21.5t28.5 12.5h253q14 0 27.5 -8t18 -12.5t15.5 -18.5l172 -287q15 -21 11.5 -40t-27.5 -44l-287 -291q-14 -14 -20 -19.5t-20.5 -13.5t-28.5 -8h-263q-14 0 -14.5 14.5zM461.5 74.5q0.5 12.5 9.5 22.5l331 336 l-207 335q-7 10 1 22t28 12h258q8 0 15 -2t13.5 -7.5t10 -8.5t10 -11.5t7.5 -9.5l172 -287q15 -22 12 -40.5t-28 -43.5l-286 -291q-3 -3 -11 -10.5t-12.5 -11.5t-12 -9t-15.5 -7.5t-17 -2.5h-262q-17 2 -16.5 14.5z" />
<glyph unicode="&#xbc;" horiz-adv-x="2042" d="M197 544l33 153q2 13 6.5 20.5t12.5 10.5t22 3h137l89 465h-129q-27 0 -33 7t-2 27l18 88q3 16 6.5 24t12.5 16t26 14l142 58q40 15 86 15h148q22 0 29.5 -8t4.5 -29l-129 -677h146q21 0 27.5 -5.5t3.5 -26.5l-33 -155q-3 -19 -11 -27t-28 -8h-554q-20 0 -27 7t-4 28z M547 -40q-5 9 3 23l880 1494q16 29 39 29h193q12 0 15 -9.5t-4 -23.5l-877 -1497q-13 -25 -37 -25h-193q-14 0 -19 9zM1088 234l24 119q8 33 32 58q39 35 244 244.5t235 239.5q24 25 39.5 31.5t42.5 6.5h201q19 0 23.5 -7.5t1.5 -26.5l-95 -484h89q18 0 24.5 -8t1.5 -27 l-28 -146q-4 -18 -12.5 -27.5t-28.5 -9.5h-86l-33 -158q-3 -21 -12 -29t-31 -8h-193q-22 0 -28 6t-3 29l33 160h-404q-21 0 -30.5 8t-6.5 29zM1391 411h183l43 219h-6z" />
<glyph unicode="&#xbd;" horiz-adv-x="2042" d="M150 544l33 153q3 20 12 27t29 7h137l88 465h-129q-26 0 -32 7t-2 27l17 88q4 16 7.5 24t12.5 16t26 14l141 58q41 15 86 15h148q22 0 30 -8t5 -29l-129 -677h146q21 0 27 -5.5t3 -26.5l-32 -155q-4 -19 -11.5 -27t-27.5 -8h-554q-21 0 -27.5 7t-3.5 28zM484.5 -40 q-4.5 9 3.5 23l880 1494q9 16 17 22.5t21 6.5h194q12 0 15 -9.5t-4 -23.5l-878 -1497q-13 -25 -36 -25h-194q-14 0 -18.5 9zM1149 37l21 111q8 43 47 71q16 16 205 161t199 153q87 70 91 127q1 27 -19.5 40.5t-75.5 13.5q-138 0 -243 -15q-41 -7 -53 -2.5t-12 38.5v86 q-1 14 0.5 23.5t7.5 21.5t22 22t42 17q56 22 141.5 31.5t143.5 9.5q92 0 157 -15.5t103.5 -45.5t56 -71t17.5 -96q0 -99 -51 -177t-156 -163q-53 -43 -201 -154h300q20 0 26 -7.5t2 -27.5l-30 -152q-8 -37 -41 -37h-671q-20 0 -25.5 8.5t-3.5 28.5z" />
<glyph unicode="&#xbe;" horiz-adv-x="2042" d="M155 573q-12 19 3 55l33 84q11 30 21.5 37.5t35.5 3.5q134 -24 244 -24q38 0 67 4t57 15.5t43.5 36t15.5 60.5q0 15 -6 25t-17 15.5t-30 9.5l-173 32q-33 6 -44.5 21t-6.5 41l15 74q3 19 11.5 31t29.5 24q86 49 170 101v4h-295q-37 0 -30 35l30 150q6 37 41 37h630 q23 0 28.5 -9t1.5 -28l-17 -97q-2 -12 -6.5 -23t-10 -19t-15.5 -22q-20 -20 -50.5 -42.5t-73.5 -52t-63 -44.5l51 -16q125 -38 125 -208q0 -81 -25 -146t-68.5 -109.5t-105.5 -74t-133 -42.5t-154 -13q-64 0 -146 10t-125 27q-46 18 -58 37zM570.5 -40q-4.5 9 3.5 23 l879 1494q16 29 39 29h194q12 0 15 -9.5t-4 -23.5l-878 -1497q-13 -25 -37 -25h-193q-14 0 -18.5 9zM1135 234l24 119q9 33 33 58q38 35 243 244.5t236 239.5q23 25 38.5 31.5t42.5 6.5h201q19 0 24 -7.5t1 -26.5l-94 -484h88q18 0 24.5 -8t1.5 -27l-28 -146 q-4 -18 -12 -27.5t-29 -9.5h-86l-33 -158q-3 -21 -12 -29t-31 -8h-193q-22 0 -28 6t-2 29l32 160h-404q-21 0 -30.5 8t-6.5 29zM1438 411h183l43 219h-6z" />
<glyph unicode="&#xbf;" horiz-adv-x="938" d="M-35 -107q0 59 22.5 115t61 101.5t78.5 79.5t88 65q99 64 147.5 118.5t70.5 138.5q5 22 19 104q8 41 43 41h217q15 0 23 -3.5t12 -12t4 -25.5v-2q-3 -50 -14 -108q-11 -63 -31.5 -115.5t-45 -90.5t-64.5 -77.5t-76.5 -67.5t-96.5 -70q-31 -22 -49.5 -39t-31.5 -40.5 t-13 -49.5t15 -42t48.5 -24t89.5 -8q104 0 208 14q17 2 30 1.5t21 -9t6 -27.5l-14 -129q-3 -35 -11 -47.5t-41 -25.5q-132 -52 -307 -52q-200 0 -304.5 73.5t-104.5 213.5zM486 858q0 31 4.5 58.5t18.5 57t35.5 50t59 34t86.5 13.5q145 0 145 -107q0 -43 -11.5 -79t-35 -66 t-64.5 -47t-96 -17q-78 0 -110 26.5t-32 76.5z" />
<glyph unicode="&#xc0;" horiz-adv-x="1326" d="M-63.5 10q-4.5 10 12.5 46l666 1312q18 33 37.5 47.5t59.5 14.5h271q41 0 53.5 -14.5t17.5 -50.5l176 -1314q1 -27 -5.5 -39t-28.5 -12h-256q-34 0 -45.5 14.5t-14.5 51.5l-22 256h-428l-129 -262q-15 -33 -35.5 -46.5t-50.5 -13.5h-248q-26 0 -30.5 10zM462 1806 l114 125q22 21 38.5 21t39.5 -21l322 -310q14 -11 17 -21t0.5 -16t-10.5 -16l-72 -76q-23 -33 -70 0l-365 250q-46 32 -14 64zM554 585h281l-20 236l-17 263h-10l-123 -261z" />
<glyph unicode="&#xc1;" horiz-adv-x="1326" d="M-63.5 10q-4.5 10 12.5 46l666 1312q18 33 37.5 47.5t59.5 14.5h271q41 0 53.5 -14.5t17.5 -50.5l176 -1314q1 -27 -5.5 -39t-28.5 -12h-256q-34 0 -45.5 14.5t-14.5 51.5l-22 256h-428l-129 -262q-15 -33 -35.5 -46.5t-50.5 -13.5h-248q-26 0 -30.5 10zM554 585h281 l-20 236l-17 263h-10l-123 -261zM744 1625q-16 29 24 52l395 231q45 23 62 -12l68 -165q9 -18 0 -35.5t-33 -27.5l-411 -164q-17 -8 -32 -7t-25 17z" />
<glyph unicode="&#xc2;" horiz-adv-x="1326" d="M-63.5 10q-4.5 10 12.5 46l666 1312q18 33 37.5 47.5t59.5 14.5h271q41 0 53.5 -14.5t17.5 -50.5l176 -1314q1 -27 -5.5 -39t-28.5 -12h-256q-34 0 -45.5 14.5t-14.5 51.5l-22 256h-428l-129 -262q-15 -33 -35.5 -46.5t-50.5 -13.5h-248q-26 0 -30.5 10zM421 1579 q1 12 22 32l322 260q25 23 42 31t51 8h137q37 0 50.5 -6.5t27.5 -26.5l215 -266q14 -21 10.5 -32.5t-23.5 -27.5l-73 -65q-23 -15 -33 -13.5t-28 17.5l-242 196l-333 -204q-20 -13 -29.5 -17t-18.5 -1.5t-17 13.5l-68 76q-13 14 -12 26zM554 585h281l-20 236l-17 263h-10 l-123 -261z" />
<glyph unicode="&#xc3;" horiz-adv-x="1326" d="M-63.5 10q-4.5 10 12.5 46l666 1312q18 33 37.5 47.5t59.5 14.5h271q41 0 53.5 -14.5t17.5 -50.5l176 -1314q1 -27 -5.5 -39t-28.5 -12h-256q-34 0 -45.5 14.5t-14.5 51.5l-22 256h-428l-129 -262q-15 -33 -35.5 -46.5t-50.5 -13.5h-248q-26 0 -30.5 10zM411 1593 q-4 11 4 30q28 53 58.5 92.5t61.5 64.5t66 41t69 22t72 6q42 0 91 -15.5t85.5 -34t78.5 -34t72 -15.5q67 0 121 78q14 18 25.5 21t29.5 -8l91 -62q15 -11 17.5 -19t-7.5 -29q-29 -51 -60 -89.5t-60.5 -62.5t-62 -39t-63 -20.5t-66.5 -5.5q-32 0 -77.5 17t-83.5 37.5 t-82.5 37.5t-74.5 17q-27 0 -50 -9t-46.5 -28t-51.5 -53q-27 -34 -61 -11l-84 56q-8 4 -12 15zM554 585h281l-20 236l-17 263h-10l-123 -261z" />
<glyph unicode="&#xc4;" horiz-adv-x="1326" d="M-63.5 10q-4.5 10 12.5 46l666 1312q18 33 37.5 47.5t59.5 14.5h271q41 0 53.5 -14.5t17.5 -50.5l176 -1314q1 -27 -5.5 -39t-28.5 -12h-256q-34 0 -45.5 14.5t-14.5 51.5l-22 256h-428l-129 -262q-15 -33 -35.5 -46.5t-50.5 -13.5h-248q-26 0 -30.5 10zM492 1594 q0 206 194 206q75 0 107 -24.5t32 -74.5q0 -42 -9 -76.5t-30 -64.5t-60.5 -47t-95.5 -17q-138 0 -138 98zM554 585h281l-20 236l-17 263h-10l-123 -261zM942 1594q0 206 195 206q50 0 80.5 -11t44 -32t13.5 -54t-5.5 -62t-19 -56t-35.5 -46.5t-56.5 -31t-79.5 -11.5 q-137 0 -137 98z" />
<glyph unicode="&#xc5;" horiz-adv-x="1326" d="M-63.5 10q-4.5 10 12.5 46l666 1312q18 33 37.5 47.5t59.5 14.5h271q41 0 53.5 -14.5t17.5 -50.5l176 -1314q1 -27 -5.5 -39t-28.5 -12h-256q-34 0 -45.5 14.5t-14.5 51.5l-22 256h-428l-129 -262q-15 -33 -35.5 -46.5t-50.5 -13.5h-248q-26 0 -30.5 10zM554 585h281 l-20 236l-17 263h-10l-123 -261zM624 1668q0 71 28 130t73.5 96.5t100.5 58.5t112 21q100 0 167 -67t67 -163q0 -62 -26 -118t-69 -95.5t-100 -62.5t-117 -23q-99 0 -167.5 62t-68.5 161zM804 1688q0 -35 21.5 -57t56.5 -22q29 0 56 16t44.5 44t17.5 60q0 36 -22 58.5 t-57 22.5q-48 0 -82.5 -36.5t-34.5 -85.5z" />
<glyph unicode="&#xc6;" horiz-adv-x="1945" d="M-84.5 14q-3.5 14 15.5 42l865 1318q14 23 25.5 34t30 16.5t49.5 5.5h1034q23 0 33.5 -13t7.5 -34l-30 -203q-4 -45 -54 -45h-542l-34 -249h480q21 0 32.5 -13t7.5 -34l-28 -203q-7 -43 -53 -43h-482l-40 -300h558q23 0 33.5 -13.5t7.5 -34.5l-28 -202q-4 -22 -15 -32.5 t-37 -10.5h-862q-27 0 -35.5 11.5t-5.5 33.5l39 277h-408l-177 -273q-21 -27 -41 -38t-51 -11h-267q-25 0 -28.5 14zM658 593h267l77 538h-4z" />
<glyph unicode="&#xc7;" horiz-adv-x="1272" d="M154 499q0 75 20 211q13 83 32 156t49.5 149t70.5 138t98 117.5t128 93t163 59.5t203 22q112 0 220.5 -17t179.5 -51q17 -8 27 -15.5t17.5 -18.5t6 -26.5t-9.5 -36.5l-54 -127q-11 -31 -27 -39.5t-55 -3.5q-28 2 -83.5 7.5t-85 8t-70.5 5t-73 2.5q-69 0 -124.5 -21 t-94 -57t-68.5 -90.5t-48 -114t-32 -134.5q-22 -110 -19 -193q2 -79 26 -129.5t76 -77t134 -26.5q80 0 142.5 4.5t184.5 17.5q20 1 33.5 1t22.5 -5t13.5 -14t5.5 -25l5 -119q4 -37 -15.5 -60t-58.5 -39q-51 -20 -116 -35.5t-130.5 -24t-129.5 -10.5l-47 -84q95 -3 143 -45 t48 -106q0 -77 -40.5 -133.5t-118.5 -87t-184 -30.5q-37 0 -91.5 7t-85.5 18q-23 8 -15 26l32 89q6 15 28 12q72 -10 140 -10q21 0 40 2.5t38 8.5t33 16t22.5 26t8.5 37q0 35 -30 46t-114 16q-23 2 -28.5 15.5t8.5 35.5l76 143q-434 42 -427 516z" />
<glyph unicode="&#xc8;" horiz-adv-x="1194" d="M64 47l260 1334q11 49 59 49h847q21 0 30 -13t4 -34l-39 -203q-7 -45 -53 -45h-548l-48 -249h478q23 0 32 -12.5t4 -34.5l-39 -203q-3 -21 -15 -32t-38 -11h-477l-59 -300h564q44 0 37 -48l-39 -202q-6 -22 -17 -32.5t-37 -10.5h-865q-48 0 -41 47zM458 1806l114 125 q22 21 38 21t39 -21l323 -310q14 -11 17 -21t0.5 -16t-10.5 -16l-72 -76q-23 -33 -70 0l-366 250q-46 32 -13 64z" />
<glyph unicode="&#xc9;" horiz-adv-x="1194" d="M64 47l260 1334q11 49 59 49h847q21 0 30 -13t4 -34l-39 -203q-7 -45 -53 -45h-548l-48 -249h478q23 0 32 -12.5t4 -34.5l-39 -203q-3 -21 -15 -32t-38 -11h-477l-59 -300h564q44 0 37 -48l-39 -202q-6 -22 -17 -32.5t-37 -10.5h-865q-48 0 -41 47zM640 1625 q-16 29 25 52l395 231q45 23 62 -12l68 -165q9 -18 0 -35.5t-33 -27.5l-410 -164q-18 -8 -33.5 -7t-25.5 17z" />
<glyph unicode="&#xca;" horiz-adv-x="1194" d="M64 47l260 1334q11 49 59 49h847q21 0 30 -13t4 -34l-39 -203q-7 -45 -53 -45h-548l-48 -249h478q23 0 32 -12.5t4 -34.5l-39 -203q-3 -21 -15 -32t-38 -11h-477l-59 -300h564q44 0 37 -48l-39 -202q-6 -22 -17 -32.5t-37 -10.5h-865q-48 0 -41 47zM388 1579q1 12 23 32 l322 260q24 23 41 31t51 8h139q25 0 39 -3.5t21 -9.5t17 -20l215 -266q13 -21 10.5 -32.5t-23.5 -27.5l-73 -65q-14 -11 -24 -12.5t-17 2t-19 14.5l-244 196l-333 -204q-20 -13 -29 -17t-18 -1.5t-18 13.5l-68 76q-13 14 -12 26z" />
<glyph unicode="&#xcb;" horiz-adv-x="1194" d="M64 47l260 1334q11 49 59 49h847q21 0 30 -13t4 -34l-39 -203q-7 -45 -53 -45h-548l-48 -249h478q23 0 32 -12.5t4 -34.5l-39 -203q-3 -21 -15 -32t-38 -11h-477l-59 -300h564q44 0 37 -48l-39 -202q-6 -22 -17 -32.5t-37 -10.5h-865q-48 0 -41 47zM458 1594 q0 206 194 206q75 0 107.5 -24.5t32.5 -74.5q0 -42 -9.5 -76.5t-30.5 -64.5t-61 -47t-96 -17q-137 0 -137 98zM907 1594q0 45 10 81t32.5 64.5t61.5 44.5t93 16q49 0 80 -11t44 -32t13 -54q0 -42 -9.5 -77t-30.5 -65.5t-61 -47.5t-95 -17q-138 0 -138 98z" />
<glyph unicode="&#xcc;" horiz-adv-x="653" d="M74 47l259 1334q11 49 59 49h253q44 0 34 -49l-258 -1334q-10 -47 -53 -47h-254q-48 0 -40 47zM129 1806l114 125q21 21 37.5 21t39.5 -21l323 -310q13 -11 16 -21t0.5 -16t-10.5 -16l-70 -76q-24 -33 -72 0l-365 250q-46 31 -13 64z" />
<glyph unicode="&#xcd;" horiz-adv-x="653" d="M74 47l259 1334q11 49 59 49h253q44 0 34 -49l-258 -1334q-10 -47 -53 -47h-254q-48 0 -40 47zM419 1625q-16 29 24 52l396 231q45 23 62 -12l67 -165q10 -18 1 -35.5t-33 -27.5l-411 -164q-17 -8 -33 -7t-26 17z" />
<glyph unicode="&#xce;" horiz-adv-x="653" d="M74 47l259 1334q11 49 59 49h253q44 0 34 -49l-258 -1334q-10 -47 -53 -47h-254q-48 0 -40 47zM115 1579q1 12 23 32l322 260q24 23 41 31t51 8h138q36 0 50 -6.5t28 -26.5l215 -266q13 -21 10.5 -32.5t-23.5 -27.5l-73 -65q-14 -11 -24 -12.5t-17 2t-19 14.5l-244 196 l-333 -204q-20 -13 -29 -17t-18 -1.5t-18 13.5l-68 76q-13 14 -12 26z" />
<glyph unicode="&#xcf;" horiz-adv-x="653" d="M74 47l259 1334q11 49 59 49h253q44 0 34 -49l-258 -1334q-10 -47 -53 -47h-254q-48 0 -40 47zM174 1594q0 206 194 206q74 0 106.5 -24.5t32.5 -74.5q0 -42 -9 -76.5t-30 -64.5t-61 -47t-95 -17q-138 0 -138 98zM624 1594q0 206 195 206q50 0 80.5 -11t44 -32t13.5 -54 q0 -42 -9.5 -77t-30.5 -65.5t-60.5 -47.5t-95.5 -17q-137 0 -137 98z" />
<glyph unicode="&#xd0;" horiz-adv-x="1412" d="M64 35v10l2 2q70 367 112 579h-71q-38 0 -38 23q0 2 1 6.5t1 7.5q15 77 28 125q5 20 16 28.5t35 8.5h67q56 296 107 556q11 45 59 45h450q115 0 204.5 -24t148.5 -67t96.5 -107t53.5 -138.5t16 -166.5q0 -96 -16 -207q-15 -92 -34.5 -168.5t-50 -151.5t-70 -133.5 t-95.5 -109t-125 -83.5t-159.5 -51.5t-197.5 -18.5h-497q-43 0 -43 35zM460 290h137q163 0 257.5 99.5t126.5 311.5q17 108 17 165q0 269 -239 269h-135l-62 -310h232q37 0 37 -23q0 -5 -4 -14l-27 -125q-3 -14 -8.5 -21.5t-15 -11.5t-25.5 -4h-228z" />
<glyph unicode="&#xd1;" horiz-adv-x="1434" d="M62 33q0 2 1 7t1 7l258 1334q12 47 58 47h179q16 0 28 -1.5t21 -6.5t14 -7.5t11 -13t7.5 -13.5t8.5 -18l332 -761h8q51 279 146 772q10 49 55 49h244q41 0 41 -33q0 -10 -2 -16q-88 -444 -260 -1334q-7 -45 -56 -45h-178q-35 0 -53.5 12.5t-30.5 38.5l-218 499l-118 283 h-7l-150 -786q-9 -47 -53 -47h-246q-41 0 -41 33zM450 1574q-4 11 4 30q34 66 72.5 111t80.5 69.5t83 35t90 10.5q42 0 91 -15.5t86 -34t79 -34t72 -15.5q67 0 119 77q15 18 27 21.5t30 -7.5l90 -63q16 -10 18.5 -18.5t-7.5 -28.5q-36 -65 -74 -108.5t-78 -67t-77.5 -33 t-82.5 -9.5q-32 0 -77.5 17.5t-84 38t-82.5 37.5t-74 17q-40 0 -73 -20t-75 -70q-27 -34 -61 -10l-84 55q-8 4 -12 15z" />
<glyph unicode="&#xd2;" horiz-adv-x="1476" d="M152 480q0 96 24 253q12 68 27.5 130t44.5 136t66 135.5t93.5 121t125 100.5t162.5 66t204 25q543 0 527 -536q0 -55 -18 -178q-12 -84 -28.5 -156t-45.5 -150.5t-67.5 -141.5t-96 -121.5t-128.5 -97.5t-168 -62t-211 -23q-118 0 -207.5 26t-146.5 70.5t-92.5 109.5 t-50 136t-14.5 157zM517 521q-4 -122 41.5 -181t149.5 -59q62 0 111 20t84 54t62.5 89.5t46 117.5t35.5 148q24 127 24 204q3 121 -46.5 177t-160.5 56q-48 0 -88 -13.5t-71.5 -40.5t-56.5 -63t-45 -87t-35 -106.5t-28 -126.5q-20 -93 -23 -189zM568 1812l113 125 q22 22 38.5 22t39.5 -22l323 -309q10 -9 14.5 -16t3.5 -14t-3.5 -11.5t-8.5 -12.5l-71 -76q-23 -33 -71 0l-365 250q-46 32 -13 64z" />
<glyph unicode="&#xd3;" horiz-adv-x="1476" d="M152 480q0 96 24 253q12 68 27.5 130t44.5 136t66 135.5t93.5 121t125 100.5t162.5 66t204 25q543 0 527 -536q0 -55 -18 -178q-12 -84 -28.5 -156t-45.5 -150.5t-67.5 -141.5t-96 -121.5t-128.5 -97.5t-168 -62t-211 -23q-118 0 -207.5 26t-146.5 70.5t-92.5 109.5 t-50 136t-14.5 157zM517 521q-4 -122 41.5 -181t149.5 -59q62 0 111 20t84 54t62.5 89.5t46 117.5t35.5 148q24 127 24 204q3 121 -46.5 177t-160.5 56q-48 0 -88 -13.5t-71.5 -40.5t-56.5 -63t-45 -87t-35 -106.5t-28 -126.5q-20 -93 -23 -189zM823 1625q-16 29 24 52 l396 231q45 23 62 -12l67 -165q10 -18 1 -35.5t-33 -27.5l-411 -164q-17 -8 -33 -7t-26 17z" />
<glyph unicode="&#xd4;" horiz-adv-x="1476" d="M152 480q0 96 24 253q12 68 27.5 130t44.5 136t66 135.5t93.5 121t125 100.5t162.5 66t204 25q543 0 527 -536q0 -55 -18 -178q-12 -84 -28.5 -156t-45.5 -150.5t-67.5 -141.5t-96 -121.5t-128.5 -97.5t-168 -62t-211 -23q-118 0 -207.5 26t-146.5 70.5t-92.5 109.5 t-50 136t-14.5 157zM517 521q-4 -122 41.5 -181t149.5 -59q62 0 111 20t84 54t62.5 89.5t46 117.5t35.5 148q24 127 24 204q3 121 -46.5 177t-160.5 56q-48 0 -88 -13.5t-71.5 -40.5t-56.5 -63t-45 -87t-35 -106.5t-28 -126.5q-20 -93 -23 -189zM528 1579q1 12 22 32 l323 260q24 22 41.5 30.5t51.5 8.5h138q36 0 49 -6.5t27 -26.5l215 -266q14 -21 11 -32.5t-23 -27.5l-74 -65q-10 -8 -17.5 -11t-15 -1.5t-13 5t-13.5 11.5l-244 196l-333 -204q-20 -13 -29 -17t-18 -1.5t-17 13.5l-69 76q-13 14 -12 26z" />
<glyph unicode="&#xd5;" horiz-adv-x="1476" d="M152 480q0 96 24 253q12 68 27.5 130t44.5 136t66 135.5t93.5 121t125 100.5t162.5 66t204 25q543 0 527 -536q0 -55 -18 -178q-12 -84 -28.5 -156t-45.5 -150.5t-67.5 -141.5t-96 -121.5t-128.5 -97.5t-168 -62t-211 -23q-118 0 -207.5 26t-146.5 70.5t-92.5 109.5 t-50 136t-14.5 157zM499.5 1583q-3.5 11 3.5 30q67 126 147 176t181 50q42 0 90.5 -15.5t85.5 -34t78.5 -34t71.5 -15.5q68 0 121 78q14 18 25.5 20.5t30.5 -8.5l90 -63q15 -10 17.5 -18.5t-7.5 -28.5q-29 -52 -59.5 -90.5t-60 -62t-62.5 -38t-63.5 -20t-66.5 -5.5 q-32 0 -77.5 17t-83.5 37.5t-82.5 37.5t-74.5 17q-40 0 -73 -20.5t-75 -70.5q-27 -34 -61 -10l-84 56q-8 4 -11.5 15zM517 521q-4 -122 41.5 -181t149.5 -59q62 0 111 20t84 54t62.5 89.5t46 117.5t35.5 148q24 127 24 204q3 121 -46.5 177t-160.5 56q-48 0 -88 -13.5 t-71.5 -40.5t-56.5 -63t-45 -87t-35 -106.5t-28 -126.5q-20 -93 -23 -189z" />
<glyph unicode="&#xd6;" horiz-adv-x="1476" d="M152 480q0 96 24 253q12 68 27.5 130t44.5 136t66 135.5t93.5 121t125 100.5t162.5 66t204 25q543 0 527 -536q0 -55 -18 -178q-12 -84 -28.5 -156t-45.5 -150.5t-67.5 -141.5t-96 -121.5t-128.5 -97.5t-168 -62t-211 -23q-118 0 -207.5 26t-146.5 70.5t-92.5 109.5 t-50 136t-14.5 157zM517 521q-4 -122 41.5 -181t149.5 -59q62 0 111 20t84 54t62.5 89.5t46 117.5t35.5 148q24 127 24 204q3 121 -46.5 177t-160.5 56q-48 0 -88 -13.5t-71.5 -40.5t-56.5 -63t-45 -87t-35 -106.5t-28 -126.5q-20 -93 -23 -189zM581 1594q0 206 193 206 q75 0 107.5 -24.5t32.5 -74.5q0 -42 -9.5 -76.5t-30.5 -64.5t-60.5 -47t-95.5 -17q-137 0 -137 98zM1030 1594q0 206 195 206q74 0 106 -24t32 -73q0 -42 -9 -77t-30 -65.5t-61 -47.5t-95 -17q-138 0 -138 98z" />
<glyph unicode="&#xd7;" d="M181.5 420.5q2.5 13.5 23.5 33.5l285 241l-191 238q-13 21 -9.5 33t22.5 27l140 119q22 19 35 20t30 -18l191 -238l277 234q21 18 36.5 18t29.5 -18l112 -140q25 -31 -12 -65l-281 -234l190 -232q14 -19 10 -34t-25 -33l-140 -118q-39 -31 -62 2l-189 236l-284 -240 q-23 -19 -36 -19t-24 19l-117 140q-14 15 -11.5 28.5z" />
<glyph unicode="&#xd8;" horiz-adv-x="1476" d="M114.5 53q2.5 12 20.5 31l87 92q-70 118 -70 304q0 96 24 253q12 68 27.5 130t44.5 136t66 135.5t93.5 121t125 100.5t162.5 66t204 25q263 0 394 -124l75 81q16 16 23.5 21.5t15.5 4.5t19 -10l49 -43q16 -17 14 -27t-22 -32l-97 -103q59 -113 56 -304q0 -55 -18 -178 q-12 -84 -28.5 -156t-45.5 -150.5t-67.5 -141.5t-96 -121.5t-128.5 -97.5t-168 -62t-211 -23q-231 0 -355 97l-76 -82q-13 -14 -21.5 -19.5t-18.5 -4.5t-20 11l-45 43q-15 15 -12.5 27zM517 490l528 568q-45 89 -181 89q-48 0 -88 -13.5t-71.5 -40.5t-56.5 -63t-45 -87 t-35 -106.5t-28 -126.5q-20 -93 -23 -189v-31zM556 342q46 -61 152 -61q62 0 111 20t84 54t62.5 89.5t46 117.5t35.5 148q22 119 24 182z" />
<glyph unicode="&#xd9;" horiz-adv-x="1403" d="M160 533l164 848q4 15 10 25.5t18.5 17t30.5 6.5h251q27 0 34 -15t1 -34l-164 -841q-49 -256 164 -256q218 0 269 256l161 841q11 49 58 49h251q47 0 37 -49l-165 -848q-103 -552 -637 -552q-185 0 -305.5 68.5t-165.5 192.5t-12 291zM521 1806l113 125q21 21 38 21 t40 -21l322 -310q14 -11 17 -21t0.5 -16t-10.5 -16l-71 -76q-24 -33 -71 0l-366 250q-45 31 -12 64z" />
<glyph unicode="&#xda;" horiz-adv-x="1403" d="M160 533l164 848q4 15 10 25.5t18.5 17t30.5 6.5h251q27 0 34 -15t1 -34l-164 -841q-49 -256 164 -256q218 0 269 256l161 841q11 49 58 49h251q47 0 37 -49l-165 -848q-103 -552 -637 -552q-185 0 -305.5 68.5t-165.5 192.5t-12 291zM759 1625q-16 29 23 52l396 231 q46 23 63 -12l66 -165q10 -18 1 -35.5t-33 -27.5l-411 -164q-17 -8 -32.5 -7t-25.5 17z" />
<glyph unicode="&#xdb;" horiz-adv-x="1403" d="M160 533l164 848q4 15 10 25.5t18.5 17t30.5 6.5h251q27 0 34 -15t1 -34l-164 -841q-49 -256 164 -256q218 0 269 256l161 841q11 49 58 49h251q47 0 37 -49l-165 -848q-103 -552 -637 -552q-185 0 -305.5 68.5t-165.5 192.5t-12 291zM489 1579q1 12 22 32l324 260 q24 23 41 31t51 8h138q36 0 49.5 -6.5t26.5 -26.5l216 -266q13 -21 10 -32.5t-23 -27.5l-74 -65q-10 -8 -17.5 -11t-14.5 -1.5t-12.5 5t-14.5 11.5l-243 196l-334 -204q-20 -13 -29 -17t-18 -1.5t-17 13.5l-69 76q-13 14 -12 26z" />
<glyph unicode="&#xdc;" horiz-adv-x="1403" d="M160 533l164 848q4 15 10 25.5t18.5 17t30.5 6.5h251q27 0 34 -15t1 -34l-164 -841q-49 -256 164 -256q218 0 269 256l161 841q11 49 58 49h251q47 0 37 -49l-165 -848q-103 -552 -637 -552q-185 0 -305.5 68.5t-165.5 192.5t-12 291zM538 1594q0 206 193 206 q75 0 107 -24.5t32 -74.5q0 -42 -9 -76.5t-30 -64.5t-60.5 -47t-95.5 -17q-137 0 -137 98zM987 1594q0 206 195 206q50 0 80.5 -11t44 -32t13.5 -54q0 -42 -9.5 -77t-30.5 -65.5t-60.5 -47.5t-94.5 -17q-138 0 -138 98z" />
<glyph unicode="&#xdd;" horiz-adv-x="1354" d="M207 1377q-7 22 2.5 37.5t33.5 15.5h239q36 0 49.5 -10t22.5 -41l86 -278l78 -266h13l183 269l182 257q17 22 23.5 30t19.5 20t26 15.5t31 3.5h286q24 0 27.5 -14.5t-11.5 -32.5l-651 -864l-90 -472q-2 -18 -14.5 -32.5t-38.5 -14.5h-255q-49 0 -38 47l90 472zM697 1625 q-16 29 23 52l396 231q45 23 62 -12l67 -165q10 -18 1 -35.5t-33 -27.5l-411 -164q-17 -8 -32.5 -7t-25.5 17z" />
<glyph unicode="&#xde;" horiz-adv-x="1225" d="M60 47l260 1336q5 23 17.5 35t38.5 12h256q45 0 35 -47l-39 -193h193q192 0 302 -100.5t110 -297.5q-1 -73 -22 -144t-67 -137.5t-111.5 -116.5t-162 -80t-212.5 -30h-204l-46 -237q-10 -47 -53 -47h-254q-28 0 -36.5 12t-4.5 35zM509 568h156q86 0 147 53.5t61 152.5 q0 43 -20 71.5t-54 41t-83 12.5l-142 -2z" />
<glyph unicode="&#xdf;" horiz-adv-x="1182" d="M19 43l196 1004q48 246 181 367t344 121q86 0 159.5 -21t128 -61t85.5 -102t31 -138q0 -103 -43.5 -198.5t-136.5 -160.5q78 -31 115 -101t37 -162q0 -102 -18.5 -194t-58 -170.5t-96 -135.5t-136 -89t-175.5 -32q-31 0 -75.5 4.5t-66.5 12.5q-24 6 -30 22t2 40l39 166 q6 23 15 29.5t34 11.5q103 11 157 84.5t61 184.5q3 43 -0.5 73t-17 55t-40.5 40t-70 21q-30 4 -38 13.5t-5 29.5l23 109q4 24 14 34t29 18q45 15 81.5 47t58.5 78t22 98q0 51 -29 82t-82 31q-63 0 -103 -46t-55 -126l-203 -1037q-2 -19 -14.5 -33t-39.5 -14h-243 q-26 0 -33.5 11.5t-3.5 33.5z" />
<glyph unicode="&#xe0;" horiz-adv-x="1205" d="M74 288q0 88 25 229q20 106 44.5 185.5t64 151.5t90.5 117t125 71.5t168 26.5q57 0 130.5 -20t132.5 -54l8 35q3 14 9 21.5t14.5 10.5t23.5 3h240q28 0 34.5 -11t0.5 -39l-184 -968q-2 -19 -15 -33t-39 -14h-242q-26 0 -33 11t-2 34l10 54l-2 2q-93 -61 -171.5 -89.5 t-154.5 -28.5q-78 0 -133 21t-86 62.5t-44.5 95t-13.5 126.5zM423 398q0 -66 22.5 -89t73.5 -23q68 0 208 63l75 386q-93 30 -162 30q-87 -1 -130.5 -53.5t-68.5 -182.5q-18 -91 -18 -131zM426 1518q-36 46 4 69l144 88q26 14 41.5 10.5t33.5 -29.5l241 -398q23 -34 -8 -54 l-88 -55q-39 -26 -63 2z" />
<glyph unicode="&#xe1;" horiz-adv-x="1205" d="M74 288q0 88 25 229q20 106 44.5 185.5t64 151.5t90.5 117t125 71.5t168 26.5q57 0 130.5 -20t132.5 -54l8 35q3 14 9 21.5t14.5 10.5t23.5 3h240q28 0 34.5 -11t0.5 -39l-184 -968q-2 -19 -15 -33t-39 -14h-242q-26 0 -33 11t-2 34l10 54l-2 2q-93 -61 -171.5 -89.5 t-154.5 -28.5q-78 0 -133 21t-86 62.5t-44.5 95t-13.5 126.5zM423 398q0 -66 22.5 -89t73.5 -23q68 0 208 63l75 386q-93 30 -162 30q-87 -1 -130.5 -53.5t-68.5 -182.5q-18 -91 -18 -131zM570 1273l271 372q32 43 66 21l144 -94q20 -11 20 -29t-20 -39l-318 -326 q-31 -35 -58 -19l-101 62q-30 19 -4 52z" />
<glyph unicode="&#xe2;" horiz-adv-x="1205" d="M74 288q0 88 25 229q20 106 44.5 185.5t64 151.5t90.5 117t125 71.5t168 26.5q57 0 130.5 -20t132.5 -54l8 35q3 14 9 21.5t14.5 10.5t23.5 3h240q28 0 34.5 -11t0.5 -39l-184 -968q-2 -19 -15 -33t-39 -14h-242q-26 0 -33 11t-2 34l10 54l-2 2q-93 -61 -171.5 -89.5 t-154.5 -28.5q-78 0 -133 21t-86 62.5t-44.5 95t-13.5 126.5zM307.5 1234.5q0.5 11.5 21.5 31.5l320 291q10 9 13.5 12t12 9t14 8t14.5 5t19 4t22 1h138q38 0 51.5 -7t25.5 -28l209 -299q13 -22 10.5 -32.5t-21.5 -25.5l-84 -69q-20 -15 -32 -14.5t-28 16.5l-239 228 l-316 -228q-20 -11 -28 -14.5t-17.5 -1.5t-18.5 14l-74 74q-13 14 -12.5 25.5zM423 398q0 -66 22.5 -89t73.5 -23q68 0 208 63l75 386q-93 30 -162 30q-87 -1 -130.5 -53.5t-68.5 -182.5q-18 -91 -18 -131z" />
<glyph unicode="&#xe3;" horiz-adv-x="1205" d="M74 288q0 88 25 229q20 106 44.5 185.5t64 151.5t90.5 117t125 71.5t168 26.5q57 0 130.5 -20t132.5 -54l8 35q3 14 9 21.5t14.5 10.5t23.5 3h240q28 0 34.5 -11t0.5 -39l-184 -968q-2 -19 -15 -33t-39 -14h-242q-26 0 -33 11t-2 34l10 54l-2 2q-93 -61 -171.5 -89.5 t-154.5 -28.5q-78 0 -133 21t-86 62.5t-44.5 95t-13.5 126.5zM293.5 1260q-3.5 11 3.5 30q67 126 146.5 176t180.5 50q42 0 91 -15.5t85.5 -34t78.5 -33.5t71 -15q69 0 121 76q14 19 25.5 22t30.5 -8l90 -63q15 -10 17.5 -18.5t-7.5 -28.5q-36 -65 -74 -108.5t-77.5 -67 t-77.5 -33t-82 -9.5q-33 0 -78.5 17.5t-83.5 38t-82.5 37.5t-74.5 17q-40 0 -73 -20t-75 -70q-26 -33 -59 -10l-84 55q-9 4 -12.5 15zM423 398q0 -66 22.5 -89t73.5 -23q68 0 208 63l75 386q-93 30 -162 30q-87 -1 -130.5 -53.5t-68.5 -182.5q-18 -91 -18 -131z" />
<glyph unicode="&#xe4;" horiz-adv-x="1205" d="M74 288q0 88 25 229q20 106 44.5 185.5t64 151.5t90.5 117t125 71.5t168 26.5q57 0 130.5 -20t132.5 -54l8 35q3 14 9 21.5t14.5 10.5t23.5 3h240q28 0 34.5 -11t0.5 -39l-184 -968q-2 -19 -15 -33t-39 -14h-242q-26 0 -33 11t-2 34l10 54l-2 2q-93 -61 -171.5 -89.5 t-154.5 -28.5q-78 0 -133 21t-86 62.5t-44.5 95t-13.5 126.5zM394 1270q0 205 193 205q74 0 107 -23.5t33 -70.5q0 -42 -10 -77.5t-32 -66t-62 -48t-96 -17.5q-73 0 -103 25.5t-30 72.5zM423 398q0 -66 22.5 -89t73.5 -23q68 0 208 63l75 386q-93 30 -162 30 q-87 -1 -130.5 -53.5t-68.5 -182.5q-18 -91 -18 -131zM843 1270q0 205 193 205q74 0 107 -23.5t33 -70.5q0 -43 -9.5 -78t-31 -65.5t-62 -48t-97.5 -17.5q-133 0 -133 98z" />
<glyph unicode="&#xe5;" horiz-adv-x="1205" d="M74 288q0 88 25 229q20 106 44.5 185.5t64 151.5t90.5 117t125 71.5t168 26.5q57 0 130.5 -20t132.5 -54l8 35q3 14 9 21.5t14.5 10.5t23.5 3h240q28 0 34.5 -11t0.5 -39l-184 -968q-2 -19 -15 -33t-39 -14h-242q-26 0 -33 11t-2 34l10 54l-2 2q-93 -61 -171.5 -89.5 t-154.5 -28.5q-78 0 -133 21t-86 62.5t-44.5 95t-13.5 126.5zM423 398q0 -66 22.5 -89t73.5 -23q68 0 208 63l75 386q-93 30 -162 30q-87 -1 -130.5 -53.5t-68.5 -182.5q-18 -91 -18 -131zM503 1363q0 70 28 129.5t73.5 97t100.5 58t112 20.5q100 0 167 -66.5t67 -163.5 q0 -82 -44 -151.5t-115 -108.5t-152 -39q-99 0 -168 62.5t-69 161.5zM684 1383q0 -36 21 -58t56 -22q29 0 56.5 16t45 44.5t17.5 60.5q0 35 -22.5 58.5t-57.5 23.5q-47 0 -81.5 -37.5t-34.5 -85.5z" />
<glyph unicode="&#xe6;" horiz-adv-x="1797" d="M51 217q0 110 37 194.5t104.5 137t158 79t201.5 26.5q33 0 70 -2t84.5 -5t73.5 -4q2 9 9 39.5t7 48.5q0 28 -14.5 44.5t-51.5 26t-102 9.5q-46 0 -132.5 -6t-149.5 -13q-3 -1 -12.5 -2t-12.5 -1t-11 -0.5t-11 0t-9 2t-8.5 4.5t-5.5 7.5t-4 10.5t-1 14q0 20 -1 59t-1 58 q0 29 17 48t69 36q73 25 183.5 39.5t196.5 14.5q225 0 299 -93q59 41 145.5 63.5t185.5 22.5q83 0 154 -18t124 -52.5t83.5 -90t30.5 -124.5q0 -358 -585 -386q-56 0 -82 -2q-13 -38 -13 -69q0 -22 7.5 -37.5t19.5 -24.5t32.5 -14t39 -6.5t47.5 -2.5q155 0 308 17 q22 1 38.5 1t26.5 -11.5t10 -37.5v-90q0 -43 -13.5 -60.5t-59.5 -36.5q-66 -24 -174.5 -36.5t-209.5 -12.5q-271 0 -359 154q-227 -152 -476 -152q-77 0 -130.5 18t-81.5 51.5t-39.5 73t-11.5 91.5zM398 301q2 -38 22.5 -53.5t65.5 -15.5q43 0 114 21.5t124 47.5 q5 91 13 138q-90 6 -163 6q-58 0 -97 -16t-59 -48t-20 -80zM1122 617q31 0 46 3q242 17 242 131q0 20 -11 35.5t-33 24t-52 8.5q-42 0 -74 -15t-54 -44.5t-36.5 -63t-27.5 -79.5z" />
<glyph unicode="&#xe7;" horiz-adv-x="1024" d="M86 355q0 101 21 211q10 56 22.5 102.5t31 96t43 88.5t56.5 76.5t74 64.5t94 48t118 31.5t144 10.5q84 0 173 -14.5t148 -41.5q53 -23 27 -82l-40 -133q-12 -32 -24.5 -37.5t-53.5 -2.5q-7 1 -11 1q-161 16 -214 16q-106 0 -164.5 -58.5t-83.5 -189.5q-10 -79 -10 -119 q0 -81 39 -115.5t124 -34.5q98 0 249 17q34 7 49.5 1t15.5 -39v-123q0 -41 -13 -59.5t-64 -39.5q-63 -21 -154 -34t-174 -15l-47 -84q95 -3 143.5 -45t48.5 -106q0 -77 -41 -133.5t-119 -87t-184 -30.5q-37 0 -91.5 7t-87.5 18q-20 8 -12 26l31 89q6 15 31 12 q68 -10 137 -10q27 0 50.5 4t45 13.5t34 28t12.5 44.5q0 15 -5.5 25t-15 16.5t-29 10.5t-39.5 6t-55 4q-23 2 -28.5 15.5t7.5 35.5l79 152q-48 8 -88 23t-69 35.5t-52 47t-37.5 55t-24 62.5t-13.5 68t-4 72z" />
<glyph unicode="&#xe8;" horiz-adv-x="1139" d="M74 342q0 126 40 275q14 51 30.5 94.5t42.5 91.5t58.5 87t78.5 74.5t101 60t127.5 38.5t157.5 14q77 0 145 -17.5t121.5 -52t84.5 -90.5t31 -127t-24 -128.5t-62.5 -97.5t-95 -71t-113.5 -49.5t-127.5 -31t-127 -17.5t-121.5 -8q-8 -22 -8 -54q0 -17 4.5 -30.5t12 -22.5 t21 -15t26.5 -9.5t33.5 -5t36.5 -2t42 -0.5q121 0 299 19q27 3 40.5 -3.5t13.5 -33.5v-103q0 -43 -14.5 -60.5t-61.5 -36.5q-45 -16 -114 -27.5t-136.5 -16.5t-131.5 -5q-94 0 -167.5 20t-129 62.5t-84.5 113t-29 165.5zM404 1518q-36 46 4 69l144 88q26 14 42 10.5 t34 -29.5l240 -398q23 -34 -8 -54l-88 -55q-22 -14 -35.5 -13.5t-26.5 15.5zM454 602q54 3 100 11.5t91.5 24.5t72 45t26.5 68q0 31 -25.5 49.5t-69.5 18.5q-37 0 -67 -14t-48.5 -33.5t-35.5 -52t-25.5 -56.5t-18.5 -61z" />
<glyph unicode="&#xe9;" horiz-adv-x="1139" d="M74 342q0 126 40 275q14 51 30.5 94.5t42.5 91.5t58.5 87t78.5 74.5t101 60t127.5 38.5t157.5 14q77 0 145 -17.5t121.5 -52t84.5 -90.5t31 -127t-24 -128.5t-62.5 -97.5t-95 -71t-113.5 -49.5t-127.5 -31t-127 -17.5t-121.5 -8q-8 -22 -8 -54q0 -17 4.5 -30.5t12 -22.5 t21 -15t26.5 -9.5t33.5 -5t36.5 -2t42 -0.5q121 0 299 19q27 3 40.5 -3.5t13.5 -33.5v-103q0 -43 -14.5 -60.5t-61.5 -36.5q-45 -16 -114 -27.5t-136.5 -16.5t-131.5 -5q-94 0 -167.5 20t-129 62.5t-84.5 113t-29 165.5zM454 602q54 3 100 11.5t91.5 24.5t72 45t26.5 68 q0 31 -25.5 49.5t-69.5 18.5q-37 0 -67 -14t-48.5 -33.5t-35.5 -52t-25.5 -56.5t-18.5 -61zM607 1273l271 372q31 43 66 21l144 -94q19 -11 19 -29t-19 -39l-318 -326q-31 -35 -58 -19l-101 62q-30 19 -4 52z" />
<glyph unicode="&#xea;" horiz-adv-x="1139" d="M74 342q0 126 40 275q14 51 30.5 94.5t42.5 91.5t58.5 87t78.5 74.5t101 60t127.5 38.5t157.5 14q77 0 145 -17.5t121.5 -52t84.5 -90.5t31 -127t-24 -128.5t-62.5 -97.5t-95 -71t-113.5 -49.5t-127.5 -31t-127 -17.5t-121.5 -8q-8 -22 -8 -54q0 -17 4.5 -30.5t12 -22.5 t21 -15t26.5 -9.5t33.5 -5t36.5 -2t42 -0.5q121 0 299 19q27 3 40.5 -3.5t13.5 -33.5v-103q0 -43 -14.5 -60.5t-61.5 -36.5q-45 -16 -114 -27.5t-136.5 -16.5t-131.5 -5q-94 0 -167.5 20t-129 62.5t-84.5 113t-29 165.5zM297 1234.5q1 11.5 21 31.5l320 291q15 13 20.5 17 t17.5 11t25 9t32 2h137q27 0 41.5 -3.5t21.5 -10t15 -21.5l209 -299q13 -22 11 -32.5t-21 -25.5l-84 -69q-20 -15 -32.5 -14.5t-28.5 16.5l-239 228l-316 -228q-19 -11 -27.5 -14.5t-18 -1.5t-18.5 14l-73 74q-14 14 -13 25.5zM454 602q54 3 100 11.5t91.5 24.5t72 45 t26.5 68q0 31 -25.5 49.5t-69.5 18.5q-37 0 -67 -14t-48.5 -33.5t-35.5 -52t-25.5 -56.5t-18.5 -61z" />
<glyph unicode="&#xeb;" horiz-adv-x="1139" d="M74 342q0 126 40 275q14 51 30.5 94.5t42.5 91.5t58.5 87t78.5 74.5t101 60t127.5 38.5t157.5 14q77 0 145 -17.5t121.5 -52t84.5 -90.5t31 -127t-24 -128.5t-62.5 -97.5t-95 -71t-113.5 -49.5t-127.5 -31t-127 -17.5t-121.5 -8q-8 -22 -8 -54q0 -17 4.5 -30.5t12 -22.5 t21 -15t26.5 -9.5t33.5 -5t36.5 -2t42 -0.5q121 0 299 19q27 3 40.5 -3.5t13.5 -33.5v-103q0 -43 -14.5 -60.5t-61.5 -36.5q-45 -16 -114 -27.5t-136.5 -16.5t-131.5 -5q-94 0 -167.5 20t-129 62.5t-84.5 113t-29 165.5zM363 1270q0 205 193 205q50 0 81.5 -10.5t45.5 -31.5 t14 -52q0 -42 -10 -77.5t-32 -66t-62.5 -48t-95.5 -17.5q-73 0 -103.5 25.5t-30.5 72.5zM454 602q54 3 100 11.5t91.5 24.5t72 45t26.5 68q0 31 -25.5 49.5t-69.5 18.5q-37 0 -67 -14t-48.5 -33.5t-35.5 -52t-25.5 -56.5t-18.5 -61zM813 1270q0 205 193 205 q74 0 107.5 -23.5t33.5 -70.5q0 -43 -10 -78t-31.5 -65.5t-62 -48t-97.5 -17.5q-133 0 -133 98z" />
<glyph unicode="&#xec;" horiz-adv-x="636" d="M127 47l187 968q5 25 17 36.5t39 11.5h241q26 0 33 -14.5t3 -33.5l-189 -968q-2 -18 -14 -32.5t-38 -14.5h-242q-47 0 -37 47zM162 1518q-36 46 4 69l144 88q26 14 41.5 10.5t33.5 -29.5l241 -398q23 -34 -9 -54l-88 -55q-38 -26 -63 2z" />
<glyph unicode="&#xed;" horiz-adv-x="575" d="M45 47l187 968q5 25 17 36.5t39 11.5h241q18 0 28 -8.5t10 -19t-1 -20.5l-190 -968q-1 -11 -5.5 -20.5t-16.5 -18t-30 -8.5h-242q-47 0 -37 47zM351 1273l271 372q31 43 66 21l145 -94q19 -11 19 -29t-19 -39l-320 -326q-31 -35 -57 -19l-101 62q-30 19 -4 52z" />
<glyph unicode="&#xee;" horiz-adv-x="825" d="M116.5 1234.5q0.5 11.5 21.5 31.5l320 291q19 16 26.5 22t25.5 11.5t42 5.5h138q38 0 52 -7t26 -28l208 -299q14 -22 11.5 -32.5t-21.5 -25.5l-84 -69q-20 -15 -32.5 -14.5t-28.5 16.5l-238 228l-316 -228q-20 -11 -28 -14.5t-17.5 -1.5t-18.5 14l-74 74 q-13 14 -12.5 25.5zM152 47l188 968q5 25 17.5 36.5t38.5 11.5h240q26 0 33.5 -14.5t3.5 -33.5l-189 -968q-2 -18 -13.5 -32.5t-37.5 -14.5h-244q-47 0 -37 47z" />
<glyph unicode="&#xef;" horiz-adv-x="782" d="M127 47l187 968q5 25 17 36.5t39 11.5h241q26 0 33 -14.5t3 -33.5l-189 -968q-2 -18 -14 -32.5t-38 -14.5h-242q-47 0 -37 47zM146 1270q0 205 194 205q38 0 64.5 -6t43 -18t24.5 -29.5t8 -40.5q0 -42 -10 -77.5t-32 -66t-62.5 -48t-96.5 -17.5q-72 0 -102.5 25.5 t-30.5 72.5zM595 1270q0 94 46 149.5t149 55.5q73 0 106 -23.5t33 -70.5q0 -43 -9.5 -78t-31 -65.5t-62.5 -48t-97 -17.5q-134 0 -134 98z" />
<glyph unicode="&#xf0;" horiz-adv-x="1167" d="M80 355q0 78 12 140q10 45 21 84.5t32.5 92.5t48.5 96t70 87t94.5 73.5t124.5 48t157 18.5q58 0 131.5 -19.5t98.5 -48.5h3q11 64 11 148q0 63 -16 99q-31 -28 -103 -86q-28 -28 -51 -2l-47 53q-19 19 6 43q20 15 55 45.5t46 38.5q-47 24 -134 24q-38 0 -137 -8 q-10 0 -16.5 -0.5t-11 4t-7.5 8t-4 10.5t-1.5 12t-0.5 13l4 132q0 22 10.5 34.5t34.5 20.5q97 33 229 33q161 0 269 -72l118 99q18 16 28.5 17t24.5 -13l47 -53q10 -12 11 -19.5t-2.5 -12t-16.5 -16.5l-118 -100q39 -53 58.5 -139.5t20.5 -185.5q0 -149 -27 -330 q-13 -85 -29 -155.5t-42.5 -149.5t-60.5 -140t-84 -119t-111.5 -96t-145.5 -60.5t-183 -22.5t-174.5 22t-120.5 57t-73.5 85.5t-38.5 100.5t-10 109zM415 394q0 -125 125 -125q153 0 197 219q12 64 12 91q0 65 -28 99t-97 34q-55 0 -94.5 -27t-64 -76.5t-39.5 -124.5 q-11 -63 -11 -90z" />
<glyph unicode="&#xf1;" horiz-adv-x="1197" d="M24 47l187 968q11 48 56 48h240q28 0 35.5 -14t1.5 -34l-8 -51h4q40 27 88 49.5t95 37t92 23t82 8.5q49 0 89 -8.5t68 -22.5t48.5 -36t32.5 -45.5t18 -55t7 -60t-2.5 -65.5t-8 -66t-12.5 -67l-117 -609q-1 -6 -3 -12t-6 -12.5t-10 -11.5t-15 -8t-20 -3h-244 q-25 0 -32.5 12t-3.5 35l110 560q7 40 7 68.5t-6 47t-20 29t-32 14.5t-46 4q-58 0 -202 -56q-8 -3 -11 -4l-129 -663q-2 -18 -15 -32.5t-41 -14.5h-241q-25 0 -32 12t-4 35zM252.5 1260q-3.5 11 3.5 30q67 126 146.5 176t180.5 50q42 0 91 -15.5t85.5 -34t78.5 -33.5t71 -15 q69 0 121 76q14 19 25.5 22t30.5 -8l90 -63q15 -10 17.5 -18.5t-7.5 -28.5q-35 -65 -73 -108.5t-77.5 -67t-77.5 -33t-82 -9.5q-33 0 -78.5 17.5t-84 38t-82.5 37.5t-75 17q-40 0 -73 -20t-75 -70q-26 -33 -59 -10l-84 55q-9 4 -12.5 15z" />
<glyph unicode="&#xf2;" horiz-adv-x="1178" d="M88 383q0 60 17 163q10 55 23 102.5t36 104t52 102t73.5 89.5t99 73.5t130.5 48t165 18.5q80 0 146 -13.5t113 -39t82 -59.5t55.5 -78t30 -92.5t9.5 -104.5q0 -68 -14 -151q-12 -67 -23 -115.5t-32.5 -111t-49 -107t-71.5 -90.5t-99 -74.5t-134 -46.5t-174 -18 q-99 0 -175 21.5t-124.5 57.5t-79.5 88t-43.5 108.5t-12.5 124.5zM404 1518q-36 46 4 69l144 88q26 14 42 10.5t34 -29.5l240 -398q23 -34 -8 -54l-88 -55q-22 -14 -35.5 -13.5t-26.5 15.5zM428 406q0 -73 28.5 -105t93.5 -32q43 0 75 12t54 33t38.5 56t26.5 72.5t19 90.5 q15 83 15 130q0 70 -31 101.5t-100 31.5q-49 0 -84 -18t-58 -55t-36.5 -81t-25.5 -109q-15 -82 -15 -127z" />
<glyph unicode="&#xf3;" horiz-adv-x="1178" d="M88 383q0 60 17 163q10 55 23 102.5t36 104t52 102t73.5 89.5t99 73.5t130.5 48t165 18.5q80 0 146 -13.5t113 -39t82 -59.5t55.5 -78t30 -92.5t9.5 -104.5q0 -68 -14 -151q-12 -67 -23 -115.5t-32.5 -111t-49 -107t-71.5 -90.5t-99 -74.5t-134 -46.5t-174 -18 q-99 0 -175 21.5t-124.5 57.5t-79.5 88t-43.5 108.5t-12.5 124.5zM428 406q0 -73 28.5 -105t93.5 -32q43 0 75 12t54 33t38.5 56t26.5 72.5t19 90.5q15 83 15 130q0 70 -31 101.5t-100 31.5q-49 0 -84 -18t-58 -55t-36.5 -81t-25.5 -109q-15 -82 -15 -127zM626 1273l271 372 q16 23 36 27t31 -6l144 -94q19 -11 19 -29t-19 -39l-318 -326q-32 -35 -59 -19l-101 62q-30 19 -4 52z" />
<glyph unicode="&#xf4;" horiz-adv-x="1178" d="M88 383q0 60 17 163q10 55 23 102.5t36 104t52 102t73.5 89.5t99 73.5t130.5 48t165 18.5q80 0 146 -13.5t113 -39t82 -59.5t55.5 -78t30 -92.5t9.5 -104.5q0 -68 -14 -151q-12 -67 -23 -115.5t-32.5 -111t-49 -107t-71.5 -90.5t-99 -74.5t-134 -46.5t-174 -18 q-99 0 -175 21.5t-124.5 57.5t-79.5 88t-43.5 108.5t-12.5 124.5zM307.5 1234.5q0.5 11.5 21.5 31.5l320 291q10 9 13.5 12t12 9t14 8t14.5 5t19 4t22 1h138q38 0 51.5 -7t25.5 -28l209 -299q13 -22 10.5 -32.5t-21.5 -25.5l-84 -69q-20 -15 -32 -14.5t-28 16.5l-239 228 l-316 -228q-20 -11 -28 -14.5t-17.5 -1.5t-18.5 14l-74 74q-13 14 -12.5 25.5zM428 406q0 -73 28.5 -105t93.5 -32q43 0 75 12t54 33t38.5 56t26.5 72.5t19 90.5q15 83 15 130q0 70 -31 101.5t-100 31.5q-49 0 -84 -18t-58 -55t-36.5 -81t-25.5 -109q-15 -82 -15 -127z" />
<glyph unicode="&#xf5;" horiz-adv-x="1178" d="M88 383q0 60 17 163q10 55 23 102.5t36 104t52 102t73.5 89.5t99 73.5t130.5 48t165 18.5q80 0 146 -13.5t113 -39t82 -59.5t55.5 -78t30 -92.5t9.5 -104.5q0 -68 -14 -151q-12 -67 -23 -115.5t-32.5 -111t-49 -107t-71.5 -90.5t-99 -74.5t-134 -46.5t-174 -18 q-99 0 -175 21.5t-124.5 57.5t-79.5 88t-43.5 108.5t-12.5 124.5zM285 1260.5q-4 10.5 3 29.5q34 66 73 111t80.5 69.5t83.5 35t90 10.5q42 0 91 -15.5t85.5 -34t78.5 -33.5t72 -15q68 0 121 76q14 19 25.5 22t29.5 -8l91 -63q15 -10 17.5 -18.5t-7.5 -28.5 q-36 -65 -74 -108.5t-78 -67t-77.5 -33t-82.5 -9.5q-32 0 -77.5 17.5t-83.5 38t-82.5 37.5t-74.5 17q-40 0 -73 -20t-75 -70q-27 -34 -61 -10l-83 55q-8 5 -12 15.5zM428 406q0 -73 28.5 -105t93.5 -32q43 0 75 12t54 33t38.5 56t26.5 72.5t19 90.5q15 83 15 130 q0 70 -31 101.5t-100 31.5q-49 0 -84 -18t-58 -55t-36.5 -81t-25.5 -109q-15 -82 -15 -127z" />
<glyph unicode="&#xf6;" horiz-adv-x="1178" d="M88 383q0 60 17 163q10 55 23 102.5t36 104t52 102t73.5 89.5t99 73.5t130.5 48t165 18.5q80 0 146 -13.5t113 -39t82 -59.5t55.5 -78t30 -92.5t9.5 -104.5q0 -68 -14 -151q-12 -67 -23 -115.5t-32.5 -111t-49 -107t-71.5 -90.5t-99 -74.5t-134 -46.5t-174 -18 q-99 0 -175 21.5t-124.5 57.5t-79.5 88t-43.5 108.5t-12.5 124.5zM372 1270q0 205 194 205q74 0 107 -23.5t33 -70.5q0 -42 -10 -77.5t-32 -66t-62.5 -48t-96.5 -17.5q-73 0 -103 25.5t-30 72.5zM428 406q0 -73 28.5 -105t93.5 -32q43 0 75 12t54 33t38.5 56t26.5 72.5 t19 90.5q15 83 15 130q0 70 -31 101.5t-100 31.5q-49 0 -84 -18t-58 -55t-36.5 -81t-25.5 -109q-15 -82 -15 -127zM821 1270q0 94 45.5 149.5t148.5 55.5q74 0 107 -23.5t33 -70.5q0 -43 -9.5 -78t-31 -65.5t-62.5 -48t-98 -17.5q-133 0 -133 98z" />
<glyph unicode="&#xf7;" d="M172 622l31 154q4 23 17.5 33t37.5 10h886q27 0 33 -9.5t1 -33.5l-29 -154q-5 -26 -16.5 -37t-38.5 -11h-885q-24 0 -33 11.5t-4 36.5zM417 250q-2 30 6 62q14 76 59.5 117.5t143.5 41.5q68 0 103 -19.5t40 -55t-4 -84.5q-7 -37 -18.5 -64t-33.5 -51.5t-60 -37.5t-91 -13 q-55 0 -88.5 14t-44 37t-12.5 53zM566 1013q-2 30 6 62q5 24 11.5 44t17.5 38.5t26.5 32t36 24t48.5 16t62 5.5q68 0 103.5 -20t40.5 -55.5t-2 -84.5q-7 -36 -19 -63.5t-34.5 -52t-60 -37.5t-90.5 -13q-55 0 -88.5 14t-44.5 37t-13 53z" />
<glyph unicode="&#xf8;" horiz-adv-x="1178" d="M38.5 32.5q2.5 10.5 19.5 29.5l86 86q-56 90 -56 235q0 60 17 163q10 55 23 102.5t36 104t52 102t73.5 89.5t99 73.5t130.5 48t165 18.5q198 0 309 -86l106 106q20 20 29.5 22t24.5 -12l33 -32q16 -15 15 -24.5t-21 -29.5l-111 -112q51 -87 51 -219q0 -68 -14 -151 q-12 -67 -23 -115.5t-32.5 -111t-49 -107t-71.5 -90.5t-99 -74.5t-134 -46.5t-174 -18q-197 0 -306 81l-79 -79q-12 -12 -19.5 -16.5t-17 -3.5t-19.5 11l-35 30q-11 16 -8.5 26.5zM428 433l325 324q-28 39 -106 39q-49 0 -84 -18t-58 -55t-36.5 -81t-25.5 -109 q-13 -75 -15 -100zM454 301q25 -32 96 -32q43 0 75 12t54 33t38.5 56t26.5 72.5t19 90.5q10 50 13 91z" />
<glyph unicode="&#xf9;" horiz-adv-x="1186" d="M65 172q-4 28 0 71.5t9 75.5t14 81l121 615q10 48 53 48h243q47 0 37 -48l-107 -559q-16 -89 5 -125t89 -36q16 0 36 3.5t35 7t39 11.5t34.5 12t34.5 13.5t27 10.5l127 662q11 48 56 48h241q50 0 39 -48l-189 -968q-7 -47 -55 -47h-242q-26 0 -32.5 13t-4.5 34l11 52 l-5 2q-84 -54 -182 -86t-175 -32q-55 0 -98.5 8.5t-72 27t-48 39t-28 53.5t-12.5 61zM392 1518q-37 46 4 69l144 88q26 14 41.5 10.5t33.5 -29.5l241 -398q22 -34 -9 -54l-88 -55q-21 -14 -35 -13.5t-27 15.5z" />
<glyph unicode="&#xfa;" horiz-adv-x="1186" d="M65 172q-4 28 0 71.5t9 75.5t14 81l121 615q10 48 53 48h243q47 0 37 -48l-107 -559q-16 -89 5 -125t89 -36q16 0 36 3.5t35 7t39 11.5t34.5 12t34.5 13.5t27 10.5l127 662q11 48 56 48h241q50 0 39 -48l-189 -968q-7 -47 -55 -47h-242q-26 0 -32.5 13t-4.5 34l11 52 l-5 2q-84 -54 -182 -86t-175 -32q-55 0 -98.5 8.5t-72 27t-48 39t-28 53.5t-12.5 61zM607 1273l271 372q31 43 66 21l144 -94q19 -11 19 -29t-19 -39l-318 -326q-31 -35 -58 -19l-101 62q-30 19 -4 52z" />
<glyph unicode="&#xfb;" horiz-adv-x="1186" d="M65 172q-4 28 0 71.5t9 75.5t14 81l121 615q10 48 53 48h243q47 0 37 -48l-107 -559q-16 -89 5 -125t89 -36q16 0 36 3.5t35 7t39 11.5t34.5 12t34.5 13.5t27 10.5l127 662q11 48 56 48h241q50 0 39 -48l-189 -968q-7 -47 -55 -47h-242q-26 0 -32.5 13t-4.5 34l11 52 l-5 2q-84 -54 -182 -86t-175 -32q-55 0 -98.5 8.5t-72 27t-48 39t-28 53.5t-12.5 61zM305.5 1234.5q0.5 11.5 21.5 31.5l320 291q18 16 26.5 22t26.5 11.5t42 5.5h138q38 0 51.5 -7t25.5 -28l209 -299q13 -22 10.5 -32.5t-21.5 -25.5l-84 -69q-20 -15 -32 -14.5t-28 16.5 l-239 228l-316 -228q-20 -11 -28 -14.5t-17.5 -1.5t-18.5 14l-74 74q-13 14 -12.5 25.5z" />
<glyph unicode="&#xfc;" horiz-adv-x="1186" d="M65 172q-4 28 0 71.5t9 75.5t14 81l121 615q10 48 53 48h243q47 0 37 -48l-107 -559q-16 -89 5 -125t89 -36q16 0 36 3.5t35 7t39 11.5t34.5 12t34.5 13.5t27 10.5l127 662q11 48 56 48h241q50 0 39 -48l-189 -968q-7 -47 -55 -47h-242q-26 0 -32.5 13t-4.5 34l11 52 l-5 2q-84 -54 -182 -86t-175 -32q-55 0 -98.5 8.5t-72 27t-48 39t-28 53.5t-12.5 61zM378 1270q0 205 194 205q74 0 107 -23.5t33 -70.5q0 -42 -10 -77.5t-32 -66t-62.5 -48t-96.5 -17.5q-72 0 -102.5 25.5t-30.5 72.5zM827 1270q0 94 46 149.5t149 55.5q74 0 106.5 -23.5 t32.5 -70.5q0 -43 -9.5 -78t-31 -65.5t-62.5 -48t-97 -17.5q-134 0 -134 98z" />
<glyph unicode="&#xfd;" horiz-adv-x="1120" d="M78 -409q-6 12 12 41l224 396l-179 981q-4 27 6 40.5t40 13.5h219q15 0 21.5 -0.5t15 -2.5t12 -7t7 -13.5t4.5 -22.5l41 -305l30 -291h11q11 20 31.5 58t41 77.5t39.5 76t31 60.5l12 23q104 208 155 301q10 25 27.5 35.5t53.5 10.5h233q34 0 38 -15t-12 -42l-779 -1378 q-13 -20 -23.5 -30t-24.5 -14.5t-38 -4.5h-210q-33 0 -39 12zM593 1273l271 372q17 23 36.5 27t30.5 -6l144 -94q20 -11 20 -29t-20 -39l-318 -326q-31 -35 -58 -19l-102 62q-30 19 -4 52z" />
<glyph unicode="&#xfe;" horiz-adv-x="1182" d="M-51 -374l337 1755q11 49 56 49h241q28 0 35 -10t4 -31l-80 -425q0 -3 2 -3q83 55 169 86.5t160 31.5q71 0 122.5 -21t82 -62t45.5 -94.5t16 -123.5q0 -50 -2 -79q-3 -108 -33 -254q-24 -115 -64 -198.5t-102 -145t-151.5 -92t-207.5 -30.5q-48 0 -111 8.5t-113 22.5 l-76 -384q-10 -47 -55 -47h-239q-46 0 -36 47zM406 288q104 -23 173 -23q40 0 73.5 19t55.5 51t38.5 71t25.5 83t13.5 82t4.5 72q0 35 -3.5 57t-13.5 39t-28.5 24t-47.5 7q-79 0 -207 -60q-18 -84 -48.5 -242.5t-35.5 -179.5z" />
<glyph unicode="&#xff;" horiz-adv-x="1120" d="M78 -409q-6 12 12 41l224 396l-179 981q-4 27 6 40.5t40 13.5h219q15 0 21.5 -0.5t15 -2.5t12 -7t7 -13.5t4.5 -22.5l41 -305l30 -291h11q11 20 31.5 58t41 77.5t39.5 76t31 60.5l12 23q104 208 155 301q10 25 27.5 35.5t53.5 10.5h233q34 0 38 -15t-12 -42l-779 -1378 q-13 -20 -23.5 -30t-24.5 -14.5t-38 -4.5h-210q-33 0 -39 12zM338 1270q0 205 193 205q74 0 107 -23.5t33 -70.5q0 -42 -10 -77.5t-31.5 -66t-62 -48t-96.5 -17.5q-72 0 -102.5 25.5t-30.5 72.5zM788 1270q0 205 193 205q74 0 106.5 -23.5t32.5 -70.5q0 -43 -9.5 -78 t-30.5 -65.5t-62 -48t-97 -17.5q-133 0 -133 98z" />
<glyph unicode="&#x152;" horiz-adv-x="1810" d="M152 480q0 96 24 253q12 68 27.5 130t44.5 136t66 135.5t93.5 121t125 100.5t162.5 66t204 25q96 0 178 -17h788q21 0 29.5 -13t3.5 -34l-37 -203q-8 -45 -55 -45h-548l-47 -249h477q23 0 32 -12.5t4 -34.5l-38 -203q-7 -43 -54 -43h-477l-59 -300h564q44 0 37 -48 l-39 -202q-5 -22 -16.5 -32.5t-37.5 -10.5h-744q-87 -19 -197 -19q-118 0 -207.5 26t-146.5 70.5t-92.5 109.5t-50 136t-14.5 157zM517 521q-4 -122 41.5 -181t149.5 -59q26 0 36 3l167 857q-36 6 -47 6q-48 0 -88 -13.5t-71.5 -40.5t-56.5 -63t-45 -87t-35 -106.5 t-28 -126.5q-20 -93 -23 -189z" />
<glyph unicode="&#x153;" horiz-adv-x="1820" d="M88 383q0 60 17 163q10 55 23 102.5t36 104t52 102t73.5 89.5t99 73.5t130.5 48t165 18.5q222 0 336 -105q142 98 367 98q78 0 146 -17.5t121.5 -52t84.5 -90.5t31 -127t-23.5 -128.5t-62 -97.5t-95.5 -71t-114 -49.5t-127.5 -31t-127 -17.5t-121.5 -8q-9 -25 -9 -54 q0 -24 9.5 -40.5t23 -25t39 -13t47 -5.5t57.5 -1q122 0 300 19q26 3 39.5 -3.5t13.5 -33.5v-103q0 -43 -14 -60.5t-61 -36.5q-67 -24 -174.5 -36.5t-208.5 -12.5q-195 0 -301 83q-125 -81 -337 -81q-99 0 -175 21.5t-124.5 57.5t-79.5 88t-43.5 108.5t-12.5 124.5zM428 406 q0 -73 28.5 -105t93.5 -32q43 0 75 12t54 33t38.5 56t26.5 72.5t19 90.5q15 83 15 130q0 70 -31 101.5t-100 31.5q-49 0 -84 -18t-58 -55t-36.5 -81t-25.5 -109q-15 -82 -15 -127zM1131 602q54 3 100 11.5t92 24.5t72.5 45t26.5 68q0 31 -25 49.5t-70 18.5q-36 0 -66 -14 t-49.5 -33.5t-36 -51.5t-25.5 -57t-19 -61z" />
<glyph unicode="&#x178;" horiz-adv-x="1354" d="M207 1377q-7 22 2.5 37.5t33.5 15.5h239q36 0 49.5 -10t22.5 -41l86 -278l78 -266h13l183 269l182 257q17 22 23.5 30t19.5 20t26 15.5t31 3.5h286q24 0 27.5 -14.5t-11.5 -32.5l-651 -864l-90 -472q-2 -18 -14.5 -32.5t-38.5 -14.5h-255q-49 0 -38 47l90 472zM488 1594 q0 206 193 206q75 0 107.5 -24.5t32.5 -74.5q0 -42 -9 -76.5t-30 -64.5t-61 -47t-95 -17q-138 0 -138 98zM938 1594q0 206 195 206q50 0 80.5 -11t43.5 -32t13 -54t-5 -62t-19 -56t-35.5 -46.5t-56 -31t-79.5 -11.5q-137 0 -137 98z" />
<glyph unicode="&#x2c6;" horiz-adv-x="1165" d="M286.5 1234.5q0.5 11.5 21.5 31.5l320 291q15 13 20 17t17.5 11t25.5 9t31 2h138q27 0 41 -3.5t21.5 -10t15.5 -21.5l209 -299q13 -22 10 -32.5t-22 -25.5l-84 -69q-20 -15 -32 -14.5t-28 16.5l-238 228l-316 -228q-15 -8 -22 -11.5t-15.5 -5t-14.5 2t-13 12.5l-73 74 q-13 14 -12.5 25.5z" />
<glyph unicode="&#x2dc;" horiz-adv-x="1165" d="M293.5 1260q-3.5 11 3.5 30q67 126 146.5 176t180.5 50q42 0 91 -15.5t85.5 -34t78.5 -33.5t71 -15q69 0 121 76q14 19 25.5 22t30.5 -8l90 -63q15 -10 17.5 -18.5t-7.5 -28.5q-36 -65 -74 -108.5t-77.5 -67t-77.5 -33t-82 -9.5q-33 0 -78.5 17.5t-83.5 38t-82.5 37.5 t-74.5 17q-40 0 -73 -20t-75 -70q-26 -33 -59 -10l-84 55q-9 4 -12.5 15z" />
<glyph unicode="&#x2000;" horiz-adv-x="987" />
<glyph unicode="&#x2001;" horiz-adv-x="1974" />
<glyph unicode="&#x2002;" horiz-adv-x="987" />
<glyph unicode="&#x2003;" horiz-adv-x="1974" />
<glyph unicode="&#x2004;" horiz-adv-x="658" />
<glyph unicode="&#x2005;" horiz-adv-x="493" />
<glyph unicode="&#x2006;" horiz-adv-x="329" />
<glyph unicode="&#x2007;" horiz-adv-x="329" />
<glyph unicode="&#x2008;" horiz-adv-x="246" />
<glyph unicode="&#x2009;" horiz-adv-x="394" />
<glyph unicode="&#x200a;" horiz-adv-x="109" />
<glyph unicode="&#x2010;" horiz-adv-x="880" d="M97 602l34 176q6 45 54 45h671q26 0 32.5 -10.5t1.5 -34.5l-34 -176q-4 -26 -15 -36t-39 -10h-671q-23 0 -31 10.5t-3 35.5z" />
<glyph unicode="&#x2011;" horiz-adv-x="880" d="M97 602l34 176q6 45 54 45h671q26 0 32.5 -10.5t1.5 -34.5l-34 -176q-4 -26 -15 -36t-39 -10h-671q-23 0 -31 10.5t-3 35.5z" />
<glyph unicode="&#x2012;" horiz-adv-x="880" d="M97 602l34 176q6 45 54 45h671q26 0 32.5 -10.5t1.5 -34.5l-34 -176q-4 -26 -15 -36t-39 -10h-671q-23 0 -31 10.5t-3 35.5z" />
<glyph unicode="&#x2013;" horiz-adv-x="1077" d="M45 478l26 135q10 45 58 45h905q26 0 33 -10t2 -33l-26 -137q-5 -25 -15.5 -35t-36.5 -10h-907q-24 0 -33 10.5t-6 34.5z" />
<glyph unicode="&#x2014;" horiz-adv-x="2143" d="M71 478l26 135q9 45 53 45h1925q26 0 32 -9.5t2 -33.5l-28 -137q-3 -24 -13.5 -34.5t-35.5 -10.5h-1925q-24 0 -32 10.5t-4 34.5z" />
<glyph unicode="&#x2018;" horiz-adv-x="614" d="M236 1045q0 58 19 119.5t51 114t73.5 100.5t86.5 84.5t90 61.5q54 24 78 -11l43 -61q15 -18 17 -28.5t-5.5 -20.5t-32.5 -34q-102 -83 -106 -188q-3 -51 26 -98q25 -28 21 -50.5t-47 -50.5l-163 -110q-17 -13 -31 -17.5t-26 1t-20 12t-22 21.5q-52 61 -52 155z" />
<glyph unicode="&#x2019;" horiz-adv-x="614" d="M225.5 964.5q-1.5 10.5 5.5 20.5t31 32q102 86 106 189q5 49 -26 99q-23 28 -19.5 50.5t45.5 50.5l165 110q23 16 40.5 16.5t28.5 -7.5t28 -27q54 -59 54 -154q0 -73 -29.5 -149t-76.5 -138.5t-102.5 -112t-112.5 -80.5q-55 -27 -77 14l-46 58q-13 18 -14.5 28.5z" />
<glyph unicode="&#x201a;" horiz-adv-x="511" d="M-96 -243.5q4 10.5 10.5 17.5t25.5 26q102 86 105 187q3 55 -26 99q-24 29 -20 51t46 50l164 110q24 17 42 18t29 -7.5t28 -28.5q51 -57 51 -154q0 -59 -19 -120t-51 -114t-73.5 -101t-86.5 -84.5t-90 -60.5q-53 -26 -78 13l-43 58q-10 15 -14 22.5t0 18z" />
<glyph unicode="&#x201c;" horiz-adv-x="1022" d="M232 1045q0 58 19 119.5t51 114t73.5 100.5t86.5 84.5t90 61.5q54 24 78 -11l43 -61q15 -18 17 -28.5t-5.5 -20.5t-32.5 -34q-103 -83 -106 -188q-3 -51 26 -98q25 -28 21 -50.5t-47 -50.5l-163 -110q-18 -13 -31.5 -17.5t-26 1t-20 12t-21.5 21.5q-52 61 -52 155z M665 1049q0 73 29 148.5t75.5 138t102.5 112.5t113 81q54 24 78 -13l43 -58q11 -14 15 -21.5t0.5 -18t-10.5 -17.5l-27 -27q-102 -85 -105 -188q-4 -55 25 -98q25 -29 21 -51t-46 -50l-164 -109q-24 -17 -42 -18.5t-29.5 7t-27.5 28.5q-51 57 -51 154z" />
<glyph unicode="&#x201d;" horiz-adv-x="1022" d="M203 972.5q3 9.5 10.5 17.5t26.5 25q103 87 106 189q4 52 -26 99q-25 29 -20.5 51t46.5 50l163 110q24 17 42 18t29.5 -7.5t26.5 -28.5q53 -56 53 -154q0 -49 -13 -100t-36.5 -97t-54.5 -89t-67 -79t-73.5 -65.5t-75.5 -49.5q-52 -24 -78 14l-43 57q-11 14 -15 22 t-1 17.5zM636.5 977.5q3.5 12.5 36.5 44.5q102 82 105 189q3 50 -25 96q-25 29 -21.5 52t46.5 51l164 110q24 16 41.5 17t29 -7.5t28.5 -27.5q16 -19 28 -45.5t17.5 -54t5.5 -56.5q0 -73 -29 -148.5t-76 -137t-102.5 -111.5t-112.5 -81q-51 -26 -77 12l-43 60 q-19 25 -15.5 37.5z" />
<glyph unicode="&#x201e;" horiz-adv-x="954" d="M-96 -243q4 10 10.5 17t25.5 26q102 86 105 187q3 55 -26 99q-24 29 -20 52t46 49l164 112q24 16 42 16.5t29 -7.5t28 -27q51 -60 51 -154q0 -74 -29 -149.5t-76 -138t-102.5 -112.5t-112.5 -82q-52 -25 -78 13l-43 61q-10 13 -14 20.5t0 17.5zM341.5 -253 q-1.5 10 5.5 19.5t31 33.5q103 87 106 187q3 55 -26 99q-25 30 -21 52.5t47 48.5l163 112q23 16 41.5 16.5t30 -7.5t28.5 -27q51 -60 51 -154q0 -59 -19 -120.5t-51 -114.5t-73.5 -101t-86.5 -84.5t-90 -61.5q-53 -24 -78 13l-43 61q-14 18 -15.5 28z" />
<glyph unicode="&#x2022;" horiz-adv-x="859" d="M125 611q0 85 40.5 157t111 114.5t154 42.5t154 -42.5t111.5 -114.5t41 -157q0 -131 -90 -221.5t-217 -90.5q-128 0 -216.5 89.5t-88.5 222.5z" />
<glyph unicode="&#x2026;" horiz-adv-x="1609" d="M8 92q0 45 11.5 83t35.5 69t66.5 48.5t100.5 17.5q78 0 113 -27t35 -80q0 -33 -5.5 -62.5t-20 -60t-37.5 -52t-61.5 -35.5t-87.5 -14q-150 0 -150 113zM566 92q0 46 10.5 83t34 68.5t65.5 49t100 17.5q79 0 114 -27t35 -80q0 -33 -5.5 -62.5t-20 -60t-37.5 -52t-61 -35.5 t-87 -14q-148 0 -148 113zM1125 92q0 45 11 83t35 69t66.5 48.5t100.5 17.5q79 0 113.5 -26.5t34.5 -80.5q0 -33 -5.5 -62.5t-20.5 -60t-38 -52t-61.5 -35.5t-87.5 -14q-148 0 -148 113z" />
<glyph unicode="&#x202f;" horiz-adv-x="394" />
<glyph unicode="&#x2039;" horiz-adv-x="730" d="M50 439.5q4 16.5 26 38.5l285 285q39 39 74 39h262q20 0 23.5 -10.5t-8.5 -19.5l-342 -339l194 -334q7 -8 2 -23.5t-22 -15.5h-258q-5 0 -9 0.5t-7.5 1.5t-7 3.5t-6 4t-5.5 5t-4.5 4.5t-4.5 5.5t-3.5 5.5t-3.5 5.5t-3 5.5l-172 293q-14 29 -10 45.5z" />
<glyph unicode="&#x203a;" horiz-adv-x="730" d="M6.5 74.5q-0.5 14.5 8.5 22.5l331 336l-204 335q-9 9 -0.5 21.5t28.5 12.5h253q14 0 27.5 -8t18 -12.5t15.5 -18.5l172 -287q15 -21 11.5 -40t-27.5 -44l-287 -291q-14 -14 -20 -19.5t-20.5 -13.5t-28.5 -8h-263q-14 0 -14.5 14.5z" />
<glyph unicode="&#x205f;" horiz-adv-x="493" />
<glyph unicode="&#x20ac;" d="M74 542l16 92q6 39 52 39h878q26 0 33 -8t3 -31l-20 -94q-3 -16 -7 -23.5t-14 -11.5t-28 -4h-394q4 -106 51 -158.5t162 -52.5q76 0 123 3t147 14q19 2 30 3q26 2 42 -0.5t22.5 -12.5t7.5 -32l6 -117q2 -27 -7.5 -46.5t-25 -30.5t-41.5 -22q-177 -70 -394 -70 q-87 0 -158.5 14.5t-122.5 40t-90 63.5t-63.5 81.5t-39 97.5t-19.5 108t-4 117h-112q-23 0 -30.5 8.5t-2.5 32.5zM121 792l19 92q4 22 15 30.5t34 8.5h97q24 88 59 161t92 141.5t129.5 115.5t175.5 75.5t228 28.5q242 0 384 -68q18 -8 28 -15.5t17 -18.5t5.5 -26.5 t-11.5 -36.5l-51 -127q-6 -16 -12 -25t-15.5 -14.5t-22.5 -5.5t-32 2q-32 3 -82.5 8t-80.5 7.5t-68.5 5t-69.5 2.5q-113 0 -181.5 -54.5t-110.5 -155.5h402q27 0 33 -7.5t2 -31.5l-18 -92q-4 -16 -8.5 -24.5t-14 -12.5t-27.5 -4h-882q-23 0 -30.5 9t-2.5 32z" />
<glyph unicode="&#x2122;" horiz-adv-x="1566" d="M56 1282v113q0 29 24 29h560q14 0 19.5 -7t5.5 -22v-113q0 -30 -27 -30h-178v-476q0 -17 -7 -22t-25 -5h-140q-16 0 -24 5t-8 22v476h-172q-28 0 -28 30zM722 774v624q0 28 29 28h148q11 0 19 -4.5t11.5 -8.5t10.5 -15l166 -292h2q-1 0 40 73t83 146l42 73q5 8 7.5 11.5 t7.5 8.5t11 6.5t15 1.5h141q27 0 27 -28v-624q0 -10 -3.5 -16t-9 -7.5t-14.5 -1.5h-144q-28 0 -31 25v318h-5q-13 -30 -28 -58q-2 -5 -81 -144q-9 -14 -16.5 -20t-20.5 -6h-54q-23 0 -34 22l-71 136q-4 8 -12 22t-14 25.5t-11 22.5h-4v-318q0 -15 -7.5 -20t-22.5 -5h-146 q-31 0 -31 25z" />
<glyph unicode="&#xe000;" horiz-adv-x="1063" d="M0 0v1065h1065v-1065h-1065z" />
</font>
</defs>
</svg>
