<?xml version="1.0" encoding="utf-8"?>
<!-- Generator: Adobe Illustrator 16.0.0, SVG Export Plug-In . SVG Version: 6.00 Build 0)  -->
<!DOCTYPE svg PUBLIC "-//W3C//DTD SVG 1.1//EN" "http://www.w3.org/Graphics/SVG/1.1/DTD/svg11.dtd">
<svg version="1.1" id="Layer_1" xmlns="http://www.w3.org/2000/svg" xmlns:xlink="http://www.w3.org/1999/xlink" x="0px" y="0px"
	 width="277.586px" height="285.345px" viewBox="0 0 277.586 285.345" enable-background="new 0 0 277.586 285.345"
	 xml:space="preserve">
<g>
	<path fill="none" d="M193.569,177.996c-3.936,0.95-3.995,0.505-4.606-4.395c-0.616-4.898-1.649-11.325,11.474-16.376
		c6.135-2.874,11.227-6.26,14.842-8.978l-9.185-26.255c-7.079,4.253-16.782,10.895-19.474,13.231
		c-3.654,3.179-8.925,4.295-4.578-2.361c3.612-5.521,13.311-10.736,21.419-18.396l-10.548-30.154
		c-3.926,2.865-8.166,6.764-13.064,13.094c-10.865,14.039-18.104,19.25-20.6,17.306c-2.499-1.945-0.453-7.18,7.842-14.786
		c8.285-7.608,10.418-13.984,15.658-20.754c1.781-2.303,3.739-4.761,5.827-7.257l-8.897-25.435c-0.986,0.944-2.02,1.918-3.146,2.947
		c-10.924,9.973-15.5,11.235-28.497,28.029c-12.999,16.799-40.109,45.106-59.421,45.741c1.625-10.387,5.998-22.248,7.434-36
		c1.428-13.75-5.83-33.863-13.52-39.451c-7.693-5.584-13.461-1.237-15.398,4.887c1.129,6.493,1.336,16.199,0.127,26.938
		l27.385,78.284c23.684,9.478,40.421,32.622,40.421,59.69c0,9.867-2.229,19.211-6.202,27.565c6.798-3.804,13.9-8.65,22.139-14.688
		c24.986-18.313,29.701-16.65,39.234-26.903c25.779-4.842,27.355-8.434,27.355-8.434s5.73-0.839,12.823-3.575l-7.503-21.448
		c-3.909,1.246-7.033,2.397-7.033,2.397C211.269,171.688,197.511,177.048,193.569,177.996z"/>
	<path fill="none" d="M123.761,240.573c4.996-8.293,7.874-18.005,7.874-28.392c0-23.747-15.024-43.985-36.085-51.73l27.264,77.938
		C123.08,239.151,123.398,239.879,123.761,240.573z"/>
	<path fill="none" d="M30.634,202.516c0-11.288,3.825-23.274,9.776-31.926c-11.622,10.103-18.98,24.983-18.98,41.592
		c0,30.432,24.669,55.102,55.103,55.102c15.062,0,28.707-6.05,38.653-15.844c-9.147,3.283-18.748,4.782-30.845,4.782
		C54.679,256.222,30.634,232.177,30.634,202.516z"/>
	<path fill="#FFFFFF" d="M122.242,248.529c-2.345,1.096-4.687,2.06-7.057,2.91c-9.946,9.794-23.592,15.844-38.653,15.844
		c-30.434,0-55.103-24.67-55.103-55.102c0-16.608,7.358-31.489,18.98-41.592c0.011-0.015,0.02-0.031,0.03-0.046
		c0.908-4.366,2.026-7.822,3.753-11.527c-22.234,10.116-37.702,32.509-37.702,58.529c0,35.504,28.781,64.285,64.285,64.285
		c22.999,0,43.165-12.086,54.526-30.244C124.174,250.7,123.143,249.679,122.242,248.529z"/>
	<path fill="none" d="M167.091,99.926c-8.295,7.606-10.341,12.841-7.842,14.786c2.496,1.944,9.734-3.267,20.6-17.306
		c4.898-6.33,9.139-10.229,13.064-13.094l-4.337-12.397c-2.088,2.496-4.046,4.954-5.827,7.257
		C177.509,85.941,175.376,92.317,167.091,99.926z"/>
	<path fill="none" d="M190.233,203.52c-9.533,10.253-14.248,8.59-39.234,26.903c-8.238,6.038-15.341,10.885-22.139,14.688
		c-0.151,0.32-0.312,0.636-0.469,0.952c4.32,3.318,10.171,4.478,15.709,2.541L223.015,221c8.715-3.049,13.316-12.564,10.277-21.258
		l-2.88-8.231c-7.093,2.736-12.823,3.575-12.823,3.575S216.013,198.678,190.233,203.52z"/>
	<path fill="#FFFFFF" d="M127.88,245.665c0.166,0.139,0.34,0.267,0.512,0.398c0.157-0.316,0.317-0.632,0.469-0.952
		C128.534,245.294,128.205,245.487,127.88,245.665z"/>
	<path fill="none" d="M67.13,52.634c1.938-6.124,7.705-10.471,15.398-4.887c7.689,5.588,14.947,25.701,13.52,39.451
		c-1.436,13.752-5.809,25.613-7.434,36c19.312-0.635,46.422-28.942,59.421-45.741c12.997-16.794,17.573-18.057,28.497-28.029
		c1.127-1.029,2.16-2.003,3.146-2.947l-8.747-25.004c-3.041-8.691-12.571-13.266-21.287-10.217L70.731,38.865
		c-8.717,3.05-13.318,12.565-10.277,21.258l6.803,19.448C68.466,68.833,68.259,59.127,67.13,52.634z"/>
	<path fill="none" d="M200.437,157.226c-13.123,5.051-12.09,11.478-11.474,16.376c0.611,4.899,0.671,5.345,4.606,4.395
		c3.941-0.948,17.699-6.308,22.307-5.536c0,0,3.124-1.151,7.033-2.397l-7.631-21.814
		C211.663,150.966,206.571,154.352,200.437,157.226z"/>
	<path fill="none" d="M182.042,132.863c-4.347,6.656,0.924,5.54,4.578,2.361c2.691-2.337,12.395-8.979,19.474-13.231l-2.633-7.526
		C195.353,122.127,185.654,127.342,182.042,132.863z"/>
	<path fill="#FFFFFF" d="M120.363,245.563c-0.357-0.699-0.684-1.421-0.95-2.183l-29.624-84.685
		c-4.247-1.05-8.685-1.616-13.257-1.616c-13.824,0-26.448,5.103-36.122,13.511c-5.951,8.651-9.776,20.638-9.776,31.926
		c0,29.661,24.045,53.706,53.707,53.706c12.097,0,21.697-1.499,30.845-4.782C117.047,249.607,118.776,247.643,120.363,245.563z"/>
	<path fill="#FFFFFF" d="M115.186,251.439c2.37-0.851,4.712-1.814,7.057-2.91c-0.714-0.912-1.339-1.907-1.879-2.967
		C118.776,247.643,117.047,249.607,115.186,251.439z"/>
	<path fill="#FFFFFF" d="M40.41,170.59c9.674-8.408,22.298-13.511,36.122-13.511c4.572,0,9.01,0.566,13.257,1.616l-1-2.858
		c-5.718-1.667-11.757-2.577-18.013-2.577c-9.483,0-18.479,2.07-26.583,5.757c-1.727,3.705-2.845,7.161-3.753,11.527
		C40.43,170.559,40.421,170.575,40.41,170.59z"/>
	<path fill="#FFFFFF" d="M260.286,158.022c-9.906,1.933-24.578,8.984-24.578,8.984c-2.033,0.102-5.061,0.796-8.142,1.657
		l7.32,20.927c1.696-0.808,3.418-1.724,5.112-2.763c17.418-4.925,27.736-12.561,29.592-17.539
		C271.444,164.302,270.19,156.093,260.286,158.022z"/>
	<path fill="#FFFFFF" d="M221.233,143.286c0,0,18.133-13.601,23.098-18.979c13.891-9.669,16.357-13.375,16.357-13.375
		s13.285-7.333,11.865-13.263c-1.424-5.925-6.313-16.162-13.801-11.143c-7.486,5.016-20.412,13.433-24.348,18.003
		c-11.785,8.504-16.775,11.849-22.129,14.108c-0.527,0.223-1.168,0.534-1.891,0.913l8.912,25.476
		C220.544,143.955,221.233,143.286,221.233,143.286z"/>
	<path fill="#FFFFFF" d="M208.188,109.429c8.594-10.585,23.092-22.598,27.166-27.861c4.076-5.268,31.531-20.047,29.418-29.728
		c-2.123-9.687-10.859-12.877-17.186-9.36c-6.32,3.512-15.447,11.675-21.074,15.328c-5.629,3.652-11.916,12.815-20.045,18.139
		c-3.129,2.051-6.186,3.625-9.382,5.585l10.147,29.009C207.554,110.171,207.88,109.809,208.188,109.429z"/>
	<path fill="#FFFFFF" d="M202.149,57.722c7.516-6.605,23.15-22.152,19.592-28.938c-3.555-6.787-10.189-11.148-20.449-3.063
		c-7.719,6.082-11.655,10.787-17.785,16.993l8.732,24.964C195.32,64.228,198.637,60.813,202.149,57.722z"/>
	<path fill="#FFFFFF" d="M127.88,245.665c-1.895,1.035-3.768,1.99-5.638,2.864c0.9,1.149,1.932,2.171,3.061,3.058
		c1.116-1.785,2.148-3.627,3.089-5.523C128.22,245.932,128.046,245.804,127.88,245.665z"/>
	<path fill="#FFFFFF" d="M120.363,245.563c1.219-1.598,2.356-3.261,3.397-4.989c-0.362-0.694-0.681-1.422-0.947-2.184L95.55,160.451
		c-1.874-0.689-3.798-1.271-5.761-1.756l29.624,84.685C119.68,244.142,120.006,244.863,120.363,245.563z"/>
	<path fill="#FFFFFF" d="M94.642,157.855L67.257,79.571c-0.376,3.341-0.893,6.779-1.559,10.255l23.091,66.011
		C90.782,156.417,92.733,157.092,94.642,157.855z"/>
	<path fill="#FFFFFF" d="M123.761,240.573c-1.041,1.729-2.179,3.392-3.397,4.989c0.54,1.06,1.165,2.055,1.879,2.967
		c1.87-0.874,3.743-1.829,5.638-2.864C126.217,244.282,124.803,242.569,123.761,240.573z"/>
	<path fill="#FFFFFF" d="M94.642,157.855c-1.908-0.764-3.859-1.438-5.853-2.019l1,2.858c1.963,0.485,3.887,1.066,5.761,1.756
		L94.642,157.855z"/>
	<path fill-rule="evenodd" clip-rule="evenodd" fill="#FFFFFF" d="M124.758,37.33l-18.936,6.623
		c-1.308,0.457-1.997,1.885-1.542,3.188c0.456,1.303,1.885,1.988,3.193,1.531l18.936-6.623c1.306-0.458,1.996-1.886,1.541-3.188
		C127.494,37.559,126.063,36.872,124.758,37.33z"/>
	<circle fill-rule="evenodd" clip-rule="evenodd" fill="#FFFFFF" cx="176.738" cy="215.309" r="12.866"/>
	<path fill-rule="evenodd" clip-rule="evenodd" fill="#FFFFFF" d="M95.774,87.198c1.427-13.75-5.83-33.863-13.52-39.451
		c-7.694-5.584-13.461-1.237-15.398,4.887c1.615,9.293,1.354,25.158-2.265,41.225c-3.622,16.064-6.335,23.188-10.795,32.571
		l0.26,0.031c-4.455,9.374-7.49,17.438-7.151,27.335c-1.059,1.863-1.94,3.564-2.712,5.221c8.104-3.687,17.1-5.757,26.583-5.757
		c6.256,0,12.295,0.91,18.013,2.577L79.6,129.566l5.375,0.653C86.6,119.833,94.339,100.95,95.774,87.198z"/>
	<path fill-rule="evenodd" clip-rule="evenodd" fill="#FFFFFF" d="M239.062,201.525l-4.175-11.935l-7.32-20.927l-8.269-23.638
		l-8.912-25.476l-3.152-9.011l-10.147-29.009l-4.847-13.854l-8.732-24.964l-8.975-25.654c-3.293-9.413-13.613-14.366-23.054-11.064
		L66.015,35.89c-9.44,3.303-14.423,13.61-11.131,23.023l10.814,30.913c0.666-3.476,1.183-6.914,1.559-10.255l-6.803-19.448
		c-3.041-8.692,1.561-18.208,10.277-21.258l78.913-27.605c8.716-3.049,18.246,1.525,21.287,10.217l8.747,25.004l8.897,25.435
		l4.337,12.397l10.548,30.154l2.633,7.526l9.185,26.255l7.631,21.814l7.503,21.448l2.88,8.231
		c3.039,8.693-1.563,18.209-10.277,21.258l-78.914,27.604c-5.538,1.937-11.389,0.777-15.709-2.541
		c-0.94,1.896-1.973,3.738-3.089,5.523c4.69,3.684,11.104,4.978,17.164,2.857l85.464-29.896
		C237.37,221.245,242.354,210.939,239.062,201.525z"/>
	<g>
		<path fill-rule="evenodd" clip-rule="evenodd" fill="#FFFFFF" d="M95.977,88.057c0.64-6.169-0.471-13.616-2.581-20.461
			l-13.638,4.771c-3.798,1.328-5.8,5.483-4.472,9.28l12.889,36.846C91.193,108.615,95.047,96.962,95.977,88.057z"/>
		<path fill-rule="evenodd" clip-rule="evenodd" fill="#FFFFFF" d="M215.829,172.692L172.13,47.771
			c-1.328-3.798-5.484-5.799-9.281-4.471L97.159,66.278c2.382,7.195,3.684,15.211,3.003,21.778
			c-1.427,13.673-6.597,30.705-8.253,41.109l27.076,77.403c1.329,3.798,5.485,5.799,9.283,4.472l83.09-29.066
			C215.155,180.646,217.159,176.49,215.829,172.692z"/>
	</g>
</g>
</svg>
