<?xml version="1.0" encoding="utf-8"?>
<!-- Generator: Adobe Illustrator 15.1.0, SVG Export Plug-In  -->
<!DOCTYPE svg PUBLIC "-//W3C//DTD SVG 1.1//EN" "http://www.w3.org/Graphics/SVG/1.1/DTD/svg11.dtd" [
	<!ENTITY ns_flows "http://ns.adobe.com/Flows/1.0/">
]>
<svg version="1.1"
	 xmlns="http://www.w3.org/2000/svg" xmlns:xlink="http://www.w3.org/1999/xlink" xmlns:a="http://ns.adobe.com/AdobeSVGViewerExtensions/3.0/"
	 x="0px" y="0px" width="283px" height="283px" viewBox="-3.1879883 -0.9355469 283 283"
	 enable-background="new -3.1879883 -0.9355469 283 283" xml:space="preserve">
<defs>
</defs>
<path fill-rule="evenodd" clip-rule="evenodd" fill="#FFFFFF" d="M254.5493164,158.0932617l24.7075195-18.2329102
	l-24.7075195-18.2299805l17.8701172-24.9887695l-29.1181641-9.6933594l9.2919922-29.2978516l-30.6875-0.2016602
	l-0.2070313-30.7402344l-29.2446289,9.3046875l-9.6748047-29.1674805l-24.9506836,17.8999023L139.6279297,0l-18.2016602,24.7456055
	L96.4760742,6.8457031l-9.6748047,29.1674805l-29.2451172-9.3046875l-0.2070313,30.7402344l-30.6870117,0.2016602
	l9.2915039,29.2978516L6.8334961,96.6416016l17.8701172,24.9887695L0,139.8603516l24.7036133,18.2329102L6.8334961,183.0820313
	l29.1201172,9.6918945l-9.2915039,29.2963867l30.6870117,0.2045898l0.2070313,30.7392578l29.2451172-9.3051758l9.6748047,29.1689453
	l24.9501953-17.9013672l18.2016602,24.7470703l18.2006836-24.7470703l24.9506836,17.9013672l9.6748047-29.1689453
	l29.2446289,9.3051758l0.2070313-30.7392578l30.6875-0.2045898l-9.2919922-29.2963867l29.1181641-9.6918945L254.5493164,158.0932617
	z M163.347168,193.9291992l5.3056641,18.6821289l-13.8974609,3.9448242l-5.0537109-17.7827148
	c-6.5766602,1.8681641-13.3911133,2.3486328-20.3476563,1.7436523c-6.9599609-0.612793-14.1894531-1.6196289-20.4394531-4.8588867
	l5.8491211-26.0512695c8.6914063,4.4760742,21.0537109,7.5874023,30.6186523,4.8706055
	c6.2739258-1.7856445,13.0322266-7.5766602,10.9477539-14.9067383c-2.3798828-8.3710938-14.4584961-6.5507813-27.4980469-7.5317383
	c-12.887207-1.0268555-26.6103516-4.3920898-31.7910156-22.6337891c-5.0073242-17.6357422,2.6098633-37.409668,20.515625-43.7910156
	l-5.1386719-18.0834961l13.8979492-3.9516602l5.144043,18.0859375c9.6704102-1.7758789,20.1049805-1.9873047,29.6640625,0.9472656
	l-4.9033203,24.8115234c-6.6162109-2.8076172-14.1855469-3.8798828-21.215332-1.8852539
	c-6.5776367,1.8676758-12.0200195,6.0024414-10.3251953,11.9824219c1.9516602,6.8696289,12.2177734,7.1845703,17.9570313,7.496582
	c18.659668,0.8349609,35.8349609,2.7421875,41.737793,23.5214844
	C190.3227539,169.4604492,181.418457,183.6254883,163.347168,193.9291992z"/>
</svg>
