<?xml version="1.0" standalone="no"?>
<!DOCTYPE svg PUBLIC "-//W3C//DTD SVG 1.1//EN" "http://www.w3.org/Graphics/SVG/1.1/DTD/svg11.dtd" >
<svg xmlns="http://www.w3.org/2000/svg">
<metadata></metadata>
<defs>
<font id="tticonsregular" horiz-adv-x="2048" >
<font-face units-per-em="2048" ascent="1638" descent="-410" />
<missing-glyph horiz-adv-x="500" />
<glyph horiz-adv-x="0" />
<glyph unicode="&#xd;" />
<glyph unicode="!" d="M1000 1760q48 0 89 -24t65 -65t24 -89v-714q0 -74 -52 -126t-126 -52t-126 52t-52 126v714q0 74 52 126t126 52zM1000 516q74 0 126 -52t52 -126q0 -100 -84 -152q-44 -26 -94 -26q-74 0 -126 52t-52 126t52 126t126 52z" />
<glyph unicode="#" d="M620 414q-8 4 -10 10q-2 4 10 54t28 116q40 164 40 170q0 2 -16 3t-68 1q-54 0 -70 1t-16 5q-2 6 12 64t20 68q4 12 9 15t89 5l84 2l14 58q14 60 14 64t-17 5t-63 1q-88 0 -90 10q-2 2 -2 6q0 12 18 69t22 63q8 8 90 8h84l34 142q36 142 42 149t83 7t84 -6t-17 -106 l-10 -42q-36 -142 -31 -143t73 -1l68 2l32 128q28 112 34 134t12 28t83 6t83 -6q4 -4 5 -6l1 -2q0 -2 -34 -139t-34 -141t84 -4h41t26 -1t15 -2t6 -3q6 -8 -24 -110q-10 -32 -24 -38q-12 -2 -82 -2h-82l-16 -64q-8 -26 -12 -45t-4 -20t25 -2t59 -1q84 0 88 -7t-14 -71 t-24 -72q-4 -4 -21 -5t-69 -1q-70 0 -79 -3t-15 -31q-2 -8 -14 -57t-26 -109q-36 -144 -44 -151t-78 -7q-56 0 -72 3t-18 17q0 8 40 171t38 165t-72 2q-40 0 -56 -1t-16 -3q-2 -4 -43 -170t-47 -174q-2 -6 -14 -7t-64 -1q-70 -2 -82 2zM1072 988q16 64 16 66t-74 2h-72 l-14 -62q-14 -60 -14 -64q0 -2 15 -3t57 -1h72z" />
<glyph unicode="$" d="M2000 1592q-172 -86 -331 -122t-288 -31t-255 26l-252 42t-255 26t-289 -31t-330 -122v-1052q172 86 331 122t288 31t255 -26l252 -42t255 -26t289 31t330 122v1052zM1054 648v-104h-78v100q-12 0 -26 1t-28 4t-27 7t-27 8q-20 8 -35 15t-32 18t-31 23l68 126 q76 -70 152 -70q30 0 54 16t24 44q0 14 -6 24t-21 18t-28 13t-37 12t-38 13q-40 14 -65 30t-46 51t-21 83q0 76 48 133t122 63v100h78v-100q90 -10 152 -50l-62 -120q-50 40 -106 40q-12 0 -22 -1t-19 -5t-16 -9t-11 -13t-4 -18q0 -38 82 -66q34 -10 56 -19t48 -25t41 -33 t26 -44t11 -61q0 -160 -176 -204z" />
<glyph unicode="(" d="M216 756l18 72v240h58l24 98h-294q-22 0 -22 -20v-58q0 -20 22 -20h98v-292q0 -4 1 -8t4 -7t8 -4t11 -1h62h10zM798 982q38 28 38 76q0 52 -34 80t-94 28h-126l-54 -226v-142q0 -42 42 -42h140q42 0 74 16t51 46t19 66q0 32 -15 58t-41 40zM630 1076h70q16 0 24 -7t8 -21 q0 -16 -9 -23t-25 -7h-68v58zM702 848h-72v84h72q46 0 46 -42t-46 -42zM534 1068l-16 64q-4 14 -17 24t-29 10h-132l-100 -410h88q24 0 30 22l14 58h106zM392 922l28 118h10l28 -118h-66zM1992 756h-68q-6 4 -8 8v154q0 28 -28 28q-8 0 -17 -2t-17 -8v-170q0 -10 -10 -10 h-66q-4 0 -7 3t-3 7v324q0 8 10 8h66q10 0 10 -8v-90q24 16 66 16q44 0 62 -26t18 -72v-154q-4 -6 -8 -8zM1734 760q-14 -4 -28 -6t-32 -2q-52 0 -79 31t-27 85v34q0 26 7 48t20 37t33 23t46 8q6 0 14 -1t14 -1t12 -1t11 -2t9 -3q4 0 6 -2t2 -6v-50q0 -10 -8 -10q-4 0 -8 2 h-10t-10 1t-12 1h-12q-14 0 -22 -11t-8 -33v-34q0 -44 30 -44q28 0 52 2q8 2 8 -8v-50q-2 -6 -8 -8zM1534 756h-62q-10 0 -10 8v10q-14 -10 -30 -16t-38 -6q-82 0 -82 102v150q2 8 8 10h66q8 -4 10 -10v-150q0 -18 6 -25t22 -7q8 0 16 3t18 7v172q0 10 8 10h66q4 0 7 -3 t3 -7v-240q-4 -6 -8 -8zM1172 752q-56 0 -86 31t-30 89v26q0 38 14 65t40 41t63 14t63 -14t39 -41t13 -65v-26q0 -58 -30 -89t-86 -31zM1204 898q0 16 -4 27t-11 16t-17 5q-32 0 -32 -48v-26q0 -18 4 -29t11 -16t17 -5q32 0 32 50v26zM1030 950h-34v-118q0 -10 2 -14t10 -4 h20q4 0 7 -2t3 -6v-42q0 -2 -3 -4t-7 -4q-10 -2 -20 -3t-20 -1q-24 0 -40 6t-27 24t-11 50v118l-28 8q-10 2 -10 8v38q0 4 3 7t7 3h28v36q0 2 3 5t7 3l66 12q6 0 8 -2t2 -6v-48h34q6 -4 8 -10v-44q0 -10 -8 -10z" />
<glyph unicode=")" d="M508 826l42 170v560h134l56 230h-690q-48 0 -48 -46v-138q0 -46 48 -46h232v-682q0 -24 14 -36t40 -12h148h24zM1870 1356q42 30 65 78t23 100q0 122 -79 188t-223 66h-292l-128 -530v-332q0 -30 6 -50t29 -35t63 -15h330q146 0 240 85t94 215q0 76 -34 137t-94 93z M1474 1574h166q74 0 74 -66q0 -34 -20 -52t-60 -18h-160v136zM1644 1042h-170v196h170q52 0 80 -26t28 -74q0 -12 -3 -25t-12 -31t-33 -29t-60 -11zM1254 1558l-38 148q-6 22 -23 41t-41 29t-48 10h-308l-232 -960h206q22 0 42 15t26 37l32 134h252zM920 1216l66 276h22 l66 -276h-154zM1984 138h-120q-16 0 -16 14v274q0 28 -12 40t-38 12t-60 -18v-306q-2 -14 -14 -16h-120q-4 0 -8 2t-6 6t-2 8v578q0 14 16 14h120q6 0 10 -4t4 -10v-160q44 30 118 30q144 0 144 -176v-274q0 -14 -16 -14zM1524 142q-10 -2 -18 -3t-19 -3t-21 -3t-23 -2 t-27 -1q-90 0 -139 55t-49 151v60q0 64 21 111t64 72t103 25q58 0 108 -14q16 -2 16 -16v-90q0 -16 -18 -14q-62 6 -90 6q-54 0 -54 -80v-60q0 -42 14 -60t40 -18q28 0 49 1t41 3q18 2 18 -14v-88q-4 -14 -16 -18zM1166 138h-110q-16 0 -16 14v20q-54 -42 -124 -42 q-146 0 -146 182v266q0 8 5 13t11 5h118q8 0 13 -5t5 -13v-266q0 -32 10 -44t40 -12q26 0 58 16v306q4 16 16 18h118q8 0 13 -5t5 -13v-426q-4 -12 -16 -14zM522 130q-98 0 -153 55t-55 159v46q0 104 55 159t154 55t153 -55t54 -159v-46q0 -184 -158 -210q-24 -4 -50 -4z M578 390q0 86 -56 86t-56 -86v-46q0 -46 14 -67t42 -21q12 0 20 3t15 10t12 17t7 24t2 34v46zM280 484h-60v-212q0 -18 4 -24t18 -6h36q18 0 18 -14v-76q0 -10 -18 -14q-32 -8 -70 -8q-46 0 -74 11t-47 43t-19 90v210l-52 12q-16 4 -16 18v66q0 6 5 11t11 5h52v64 q4 12 18 16l116 22q18 2 18 -16v-86h60q14 -4 16 -16v-80q0 -16 -16 -16z" />
<glyph unicode="*" d="M1000 1816l270 -574l630 -80l-464 -434l120 -624l-556 306l-556 -306l120 624l-464 434l630 80z" />
<glyph unicode="+" d="M100 808v300h750v750h300v-750h750v-300h-750v-750h-300v750h-750z" />
<glyph unicode="-" d="M200 1120h1600v-320h-1600v320z" />
<glyph unicode="." d="M1934 26q-64 -66 -157 -66t-159 66l-132 132l-138 138q-212 -124 -454 -124q-182 0 -347 71t-285 190t-191 285t-71 348t71 347t191 285t285 191t347 71t348 -71t285 -191t190 -285t71 -347q0 -242 -124 -454l67 -67l73 -73l68 -68l62 -62q88 -88 60 -208 q-16 -64 -60 -108zM894 1738q-182 0 -337 -90t-245 -245t-90 -337t90 -337t245 -245t337 -90q136 0 261 53t215 143t143 215t53 261q0 62 -11 121t-31 113t-49 105t-67 94t-81 81t-93 67t-105 49t-114 31t-121 11z" />
<glyph unicode="0" d="M1000 360q-248 0 -424 176t-176 424t176 424t424 176q122 0 233 -48t191 -128t128 -191t48 -233q0 -248 -176 -424t-424 -176zM1000 1426q-194 0 -330 -136t-136 -330q0 -76 23 -147t66 -129t101 -101t129 -66t147 -23q126 0 234 62t170 170t62 234q0 194 -136 330 t-330 136zM1142 744q-86 0 -127 56t-41 158t41 159t127 57q168 0 168 -216q0 -214 -168 -214zM1142 1088q-28 0 -39 -29t-11 -101q0 -24 1 -42t4 -33t7 -25t9 -16t12 -9t17 -3q18 0 28 12t15 40t5 76q0 36 -2 61t-8 40t-16 22t-22 7zM992 750h-240v72h64v230l-48 -28l-36 66 l124 76h72v-344h64v-72z" />
<glyph unicode="1" d="M2000 780q0 -130 -94 -215t-240 -85h-330q-40 0 -63 15t-29 35t-6 50v332l128 528h292q144 0 223 -66t79 -186q0 -52 -23 -100t-65 -78q40 -22 69 -56t44 -79t15 -95zM1642 1226h-164v-136h158q80 0 80 72q0 30 -19 47t-55 17zM1646 892h-168v-196h168q30 0 51 8t31 19 t17 26t8 25t1 18q0 46 -28 73t-80 27zM874 664l-32 -132q-4 -14 -15 -26t-25 -19t-30 -7h-206l232 960h310q36 0 69 -24t41 -58l38 -148l-132 -546h-250zM1012 1144h-22l-68 -274h154zM546 1208v-558l-40 -170h-24h-148q-54 0 -54 48v680h-230q-50 0 -50 46v138q0 48 50 48 h688l-56 -232h-136z" />
<glyph unicode="2" d="M1844 560q-36 2 -74 7t-75 16t-69 25t-58 32t-42 38q-60 34 -171 24t-165 -64q-22 2 -42 -1t-35 -7t-27 -11t-20 -14t-15 -16t-11 -18l-8 -18t-6 -17l-4 -16t-6 -12q-14 -32 -64 -72q-2 2 -5 4t-3 4l-7 -7t-6 -5t-7 -4q14 100 42 235t50 219l22 84q-4 4 -10 12t-19 32 t-19 48t-3 57t21 61q-34 -92 15 -165t149 -65q46 -20 82 -37t55 -28t32 -19t15 -12l4 -4l11 -22t32 -36t55 -22q44 0 50 8t-6 24q6 -2 10 -2t8 1t8 3t8 5t7 7t8 11t9 14t10 17q6 8 16 22t12 19t3 18t-5 29t-18 44q-32 68 -139 212t-165 198q-36 32 -54 59t-20 39l-2 12 q6 8 13 23t18 56t9 73q-18 -16 -33 -36t-23 -32l-6 -12q0 8 1 21t-4 49t-17 66q-4 -12 -13 -29t-16 -31t-16 -30t-14 -29l-10 -26t-7 -24t0 -19q-50 28 -112 33t-103 -3t-63 -20q16 -4 33 -9t31 -11t26 -11t22 -9t16 -8t10 -6l4 -2q-16 6 -43 11t-111 3t-166 -26 q26 -6 49 -10t37 -8t23 -6t13 -4l4 -2q-172 -36 -266 -100q10 2 26 3t49 3t49 0q-74 -16 -165 -86t-139 -142q52 24 93 37t55 13h12q-10 -6 -27 -20t-62 -73t-81 -135q-16 -32 -31 -57t-28 -40t-25 -25t-21 -15t-18 -7t-13 -1t-8 1q46 -20 87 -41t77 -43t66 -42t59 -43 t50 -41t45 -43t38 -40t37 -40t35 -35q-10 2 -12 4q0 -2 38 -32q74 -74 146 -100q218 -118 464 -82q62 138 348 124q4 0 14 -2h14q20 -4 35 -1t26 1t17 3t10 4t6 5l2 6l-1 5q-1 5 -1 7q-4 -2 -14 0q4 4 8 12t4 16q4 16 -6 16q-6 -2 -8 -10q-4 -8 -11 -12t-13 -4h-6 q-12 10 -12 12h-20l-12 18l-22 -10v10l-20 -2l-8 10l-18 -2l-10 16l-20 -6v26l-12 -4l-8 8l-26 -22q-6 6 -4 16q30 18 64 28l2 -12l26 8l18 -6l10 6l16 -2l14 10l14 -18l14 8l24 -16l12 10l20 -10l8 14l4 6q4 0 8 -1t4 -3h2l-8 -40q22 12 28 42q32 0 46 19t13 38t-7 23z" />
<glyph unicode="3" d="M1930 1278q2 6 0 16q-48 52 -75 80t-45 42t-20 14t-22 8q-4 0 -10 2t-11 3t-10 1h-10h-9h-7h-5h-4h-2q-4 2 -9 5t-19 8t-24 5q2 -8 5 -15t8 -13t9 -10l8 -8l2 -2h-18q-12 10 -26 18t-26 12t-23 6t-17 2h-6q20 -6 36 -20q-4 4 -10 5t-12 1h-11h-9l-2 -2l18 -12q4 -2 6 -6 q-8 6 -30 10t-40 -2q12 2 22 -5t12 -13l4 -6q-2 2 -5 4t-12 6t-15 4q6 -4 10 -10t4 -8v-4l-32 12q8 -2 11 -8l5 -10v-6q-2 2 -7 4t-20 4t-33 -4q30 0 38 -24l-28 8q14 0 16 -22q-4 0 -40 8q38 -26 26 -38q-8 12 -20 18t-20 4h-8h-3t-6 2l-10 4t-12 4t-13 5t-13 5t-13 6 q-4 6 -6 14t-2 12l2 6l12 2l14 -16q16 2 31 11t21 17l8 6l10 -2q6 2 14 16q4 6 8 8l28 -4l-16 14q16 28 4 62t-44 38q-32 2 -58 -17t-26 -31q0 -6 -7 -10t-13 -6h-6q-2 0 -6 2t-20 7t-35 7t-50 3t-65 -5q-56 -6 -83 -25t-25 -33v-16q-4 -2 -8 -5t-10 -10t-4 -13 q-14 -8 -33 -33t-11 -55q10 -32 61 -51t113 -17l-8 -12l-16 -4l-76 8q-72 12 -95 12t-39 -12q-22 0 -36 2t-36 5t-64 3q-68 0 -143 -39t-101 -75q-24 -34 -75 -79t-109 -79q-60 -34 -137 -25t-117 43q6 -18 29 -35t40 -26t19 -9q-110 -8 -182 16q20 -24 76 -41t104 -19 q-10 -10 -58 -12t-88 4q4 -2 21 -8t52 -13t67 -3q-24 -26 -98 -20q26 -20 132 -4l-5 -5t-15 -10t-26 -11q62 -8 120 12t86 44l28 24q-4 -44 -54 -84q6 2 14 4t16 6t15 9t14 11l14 12t12 12t9 13t8 11q2 -2 4 -9t-1 -18t-13 -23q32 14 48 40t16 44v20q22 -34 92 -72 q10 -4 24 -11t19 -10t13 -7t10 -8t6 -8t4 -10v-13t-2 -19q-4 -26 -29 -59t-25 -59q0 -24 11 -31t37 -10t42 -11q8 -4 17 -10l18 -12t19 -13t18 -13t18 -12t18 -12t16 -11t16 -7q18 -10 20 -20t-4 -14l-6 -6q-12 -24 6 -46q8 -10 12 -20t2 -14v-4q16 -4 42 14q8 4 10 15t0 25 t-5 26t-8 29t-7 23q-4 16 -15 29t-19 19l-8 6q60 -20 102 -42t54 -34l12 -12h28l14 -14l-12 -18q46 -52 76 -58q4 8 5 19t0 21t-3 18t-2 14l-2 6q90 -2 130 -2q30 0 44 22t14 64q0 22 -9 62t-18 72t-9 36q0 22 40 22q10 0 37 -7t35 -7q18 0 86 -24q34 0 56 -3t35 -9t19 -16 t8 -21t0 -29q0 -32 -23 -69t-23 -41l-2 -54q-8 -2 -26 -2q-10 -8 -12 -26t3 -36t15 -28q10 0 16 6t13 20t13 22q8 10 10 25t2 25l-2 10h4t10 9t14 23q36 98 54 164q6 20 -13 40t-61 44q-18 10 -34 19t-28 19t-22 18t-20 18q78 144 74 190l6 6l7 7l8 8t9 11t9 13t12 17t15 22 q14 26 28 42t29 29t17 17q8 8 16 9t20 -4t18 -5q14 -4 38 -11t53 -19t43 -24q10 -8 20 -12t15 -3t11 2t8 1q18 0 10 18q8 -6 16 -1t26 29q24 34 -66 104zM804 696q-12 -22 -19 -44t-7 -34v-12q-14 0 -29 10t-21 18l-8 10q-4 12 2 48q24 20 68 110q16 -14 14 -106zM1114 522 q-12 10 -32 10t-18 26q-2 6 -22 16q-8 -6 -20 -8t-18 0l-8 2l-60 26q-10 4 -19 11t-14 12t-8 14t-4 14t-1 16t1 14t3 16l2 13q18 36 26 66t6 44v12q98 -38 102 -40q20 -6 18 -10q2 -2 4 -2t9 -2t13 -2t14 2l16 4q14 -6 30 -24t29 -40t23 -46t16 -44q4 -22 16 -42t22 -36 t12 -34q-54 -2 -138 12zM1284 1204q-14 -12 -23 -22t-17 -17t-14 -10l-10 -5t-10 -2q8 6 15 16t14 19t12 16t9 13l2 4q22 2 24 -6z" />
<glyph unicode="4" d="M1958 628q-46 22 -54 34q-6 6 -28 20t-45 30t-31 22q-4 22 -78 76q-16 12 -27 22t-17 18t-12 15t-16 19t-24 26q22 22 18 112q-2 48 25 98t71 84q50 -18 91 -45t58 -40t29 -7q2 2 6 4q16 10 14 16q10 -10 17 -10t9 6q4 4 26 24q4 4 5 10t-2 12t-11 14q-4 4 -13 18t-21 32 t-29 40t-33 43t-36 41t-36 32q2 8 4 19t2 21t-1 20t-1 16v6q-18 -24 -20 -34q-6 32 -22 42q-14 -16 -18 -36t0 -40q-6 12 -18 21t-26 14t-27 8t-23 3q38 -18 48 -42q-2 2 -6 3t-15 3t-23 4t-29 0t-33 -6q8 -2 17 -4t15 -5t12 -5t9 -5t6 -5l3 -2l2 -2q-66 14 -136 -10 q26 -2 45 -6t27 -8l6 -4h-28t-24 -1t-23 -3l-22 -4t-21 -5t-21 -7t-23 -10l-24 -12q40 2 60 1t24 -5l6 -2q-10 -2 -23 -5t-42 -13t-41 -18q34 -4 36 -10q-4 -2 -9 -5t-19 -11t-26 -15t-25 -12t-21 -7q-134 -16 -280 -10q-100 2 -158 -6t-118 -38l-452 -74l-8 8q-2 2 -6 2v3 t-1 2t-5 1t-10 -2q-12 -4 -18 -11t-12 -21q-8 -6 -17 -12t-17 -10t-14 -8t-10 -6l-4 -2q-14 8 -18 14q0 22 -26 48t-42 28v16l4 -4t7 -5t9 5l8 46l12 4q-2 4 -7 10t-5 16l2 8q2 2 6 2t12 3t12 9q-10 2 -16 3t-8 1v2q-2 28 -28 41t-62 13q-34 0 -51 -40t11 -86l-10 -30 q-4 -6 -9 -14t-14 -37t1 -55q12 -48 43 -92t63 -60q4 -8 8 -13t7 -10t6 -9t5 -8t4 -6l4 -4t3 -4t3 -2q4 -2 9 -2h9h2l4 -16q4 0 7 1t16 2t25 2t28 3t30 3t29 4t27 5v-16q-68 -14 -103 -67t-35 -103q0 -26 7 -56t25 -66t57 -59t93 -23q104 0 151 58t47 128q0 32 -8 59t-18 37 l-8 12q58 34 108 46q10 4 27 10l34 12t35 14t33 13t28 9t19 4q40 0 66 36q20 -24 23 -39t-3 -53q-12 -34 -12 -58t30 -40q20 -10 42 -26t44 -35t32 -25q6 -6 23 -30t43 -22q-12 -16 0 -40q24 -10 43 -16t23 -6t7 1t1 14t-12 37q-40 40 -46 52q-10 20 -92 78q-20 14 -28 21 t-14 23t-2 40q2 16 17 67t17 101q14 0 45 -12t64 -25t88 -23t111 -8q2 -6 3 -11t3 -8t4 -8t3 -14t1 -23q0 -28 9 -61t9 -45q-12 -8 -34 -11t-38 -1l-16 2q-64 8 -72 20q-2 30 -22 32q-24 -4 -43 -11t-23 -13l-6 -4q38 -20 50 -24q22 -8 38 -20t26 -24q6 -6 17 -6t36 4t37 4 q16 2 34 0t24 -3t18 5q4 4 12 9t12 9t8 14t4 26q-2 24 6 76t8 58q18 0 33 6t29 16q6 0 11 -4t8 -7t14 -6t27 -5q10 -6 19 -10t15 -8t10 -7t9 -6t9 -6t9 -6t13 -5q12 -6 52 -27t52 -25q2 0 13 -9t17 -14t17 -14t18 -16t15 -14t14 -13q10 -14 19 -19t13 -5h20q2 -4 2 -10 q0 -16 6 -20l20 -16q56 20 70 28zM338 1078q28 4 50 8t30 6h8v-10q-48 -24 -96 -36q4 2 6 11t2 15v6zM332 844q-8 -2 -26 0l-8 24q16 -12 44 -4zM328 998q-32 -14 -86 -24l13 13t14 13t11 8q2 0 14 10l7 2t9 8q6 0 21 5t32 12t33 13t26 10l10 6q10 -4 10 -10q-10 -2 -18 0 q0 -4 5 -6t9 -4h4q-4 -2 -20 0q4 -2 8 -8t16 -14q-8 0 -15 3t-10 7t-8 7t-11 3q6 0 14 -15t24 -25q-26 8 -34 18q2 -8 5 -11l9 -9t16 -18q-14 14 -29 17t-23 -1l-8 -4l-42 -4q-4 -2 -6 -2zM370 858q4 16 10 30l26 -14zM506 770q-12 8 -24 15t-23 12t-22 8t-19 5t-14 3t-10 1 h-4v20l34 12l-2 4l20 10q6 -4 14 -9t15 -8t14 -7l14 -8t14 -6t12 -5t9 -4t6 -3h2q-12 -20 -36 -40zM646 1002q-18 -12 -20 -48l-32 -14l-34 2q14 10 37 45t55 51q-2 -8 -3 -18t-2 -13t-1 -5zM574 1046q-14 -8 -23 -13t-24 -9t-27 -1t-25 15t-23 34q12 4 59 15t94 21t67 14 q-18 -14 -48 -39t-50 -37zM480 1092q-2 2 -2 4t2 6q38 6 92 15t89 14l35 5q-18 -4 -47 -10t-88 -18t-81 -16zM716 1036q-18 -2 -18 18q2 32 36 46q6 2 10 4q-2 -2 -5 -7t-10 -23t-13 -38z" />
<glyph unicode="5" d="M1998 1280q-50 4 -98 25t-66 49q-16 10 -41 15t-50 5t-50 -7t-39 -21q-24 2 -41 -1t-27 -12t-15 -17t-9 -19t-6 -13q-4 -8 -14 -18t-32 -23t-48 -21t-64 -7t-80 15q-270 96 -356 102q-132 12 -242 -36q-38 -16 -64 -44t-37 -54t-23 -58t-20 -46q-18 -28 -54 -71t-62 -75 q-40 -52 -103 -64t-149 -6q-34 2 -68 16t-61 27t-45 13q-34 0 -34 -18t30 -18q26 0 76 -28q30 -18 87 -30t109 -10q56 2 109 25t81 61q72 94 110 130q-8 -44 54 -90q18 -14 61 -21t79 -9l34 -2q-6 -36 -26 -64q-44 -56 -82 -88q-10 -10 -11 -19t3 -15l4 -6l-46 2 q-30 10 -41 7t-23 3q-10 0 -29 -11t-35 -21l-14 -10v-1t2 -2t5 -2l9 -3t14 -2q8 -6 44 -7t48 3q8 2 31 2h50h59q6 -8 90 -52q-4 -16 5 -39t21 -39l12 -14q2 0 5 1t8 8t9 17q10 -4 22 -8t22 -6t28 -3t28 -1h32h34q30 0 46 14t18 26v14q2 0 2 -1t3 -2t7 -2t11 -1t15 2 q28 -12 51 -9t41 11q-4 8 -9 12t-11 6t-12 6q-28 24 -40 20l-50 10q6 88 34 178q54 -8 123 20t137 81t110 92t82 81q26 28 56 43t65 18t52 2t51 -5q24 -4 36 -2t14 4t0 8v2h-6q4 6 6 14t-1 10t-5 -6q-2 -4 -7 -6t-7 -2l-4 2q-6 4 -6 6h-10l-6 10l-12 -4v6h-10l-4 6l-10 -2 l-4 10l-10 -4v14l-6 -2l-4 6l-14 -12q-4 4 -4 10q18 8 36 12l2 -6l14 2l8 -2l6 2l8 -2l8 4l8 -10l6 4l14 -8l6 4l10 -6l4 6l2 4l8 -2l-6 -22q2 2 4 3t7 6t7 13q16 -2 25 8t7 20t-2 12zM918 866l4 -14l-74 -54q20 28 70 68zM1084 600q-10 -2 -23 -2t-25 1t-23 4t-18 6t-11 7 q-4 8 -20 4t-20 0q-4 24 -11 36t-13 12h-4q-2 0 -6 2t-14 8t-19 11t-18 12t-15 13q8 4 38 23t56 33q4 -22 6 -62q0 -30 8 -41t44 -21q22 -6 52 -12t50 -8l18 -2l-2 -12q-10 -10 -30 -12zM1054 692q-2 4 -8 15t-8 15t-6 13t-6 14t-4 15t-3 20t-3 22q6 4 23 13t26 14t23 9 t24 4q-2 -26 -1 -60t3 -55t4 -41t2 -22l-16 4t-15 6t-13 7t-12 5t-10 2z" />
<glyph unicode="6" d="M992 1560q-64 0 -98 -6q-116 -20 -216 -84q-46 -30 -86 -68t-74 -82t-58 -94q-46 -90 -56 -170q-6 -42 -3 -123t11 -111q30 -124 100 -218q26 -34 72 -78t80 -66q8 -6 14 -11t11 -8t8 -6l3 -3q0 -2 1 -2h3t4 -1t4 -3t7 -4t9 -4l18 -8q6 -6 9 -3t3 -3t4 -3t4 -2t4 -1 l14 -4t32 -10q42 -14 76 -20t117 -4t113 8q76 18 148 52q104 54 184 146t116 202q4 10 7 17t5 11l2 4l4 10q0 4 2 20t4 34q8 44 6 118q-4 104 -10 116q-2 6 -2 14l-4 8q-2 0 -3 1t1 5l-2 6q-4 0 -2 6t-4 23t-14 27q-10 12 -6 18v3t-2 1q-6 0 -2 4l-2 4q-2 2 -8 11t-12 21 q-16 28 -30 48t-32 40t-44 46q-76 76 -154 116q-32 16 -34 20l-4 2l-8 2q-10 4 -13 3t-3 3t-16 6q-6 2 -21 5t-29 7q-10 2 -27 4t-36 4t-41 3t-44 1zM986 1430q18 0 43 -1t45 -3t36 -5t20 -5q4 -4 20 -8q6 -4 16 -7t21 -8t21 -10t19 -10t15 -9l18 -8q0 2 6 -6q44 -40 48 -36 q4 0 20 -16t16 -20q0 -6 11 -15t11 -12t20 -31q44 -68 66 -150q8 -36 8 -112q0 -50 -2 -69t-8 -45q-6 -20 -15 -47t-18 -47t-12 -21t-1 -5t-4 -4l-2 -2l-4 -10q-2 -2 -8 -10l-12 -16t-11 -15t-5 -9t-13 -14t-13 -16l-1 -1l-1 -1l-24 -18q-106 -98 -248 -114q-18 -2 -53 -3 t-66 0t-43 3q-16 4 -38 12t-45 18t-43 21t-34 19q-18 12 -18 9t-4 4t-8 7q-2 0 -6 4l-10 10q-12 12 -12 8l-18 16q-6 4 -10 9t-7 9l-3 4l-8 14q-10 6 -13 14t-7 8l-4 6q0 6 -6 8t-4 6t-2 4q-2 0 -3 2t-1 4q0 6 -5 6t-2 4t-1 5t-18 37q-68 156 -30 310q36 146 154 247 t268 111h22zM926 1156v-170v-172h100h102v30v28l-70 2h-68l-2 142v140h-32h-30zM1226 1156v-170v-172h104h102v30v28l-68 2h-70v142l-2 140h-32h-34zM664 1152l-46 -160q-18 -64 -33 -113t-15 -53q-2 -6 6 -6l22 -2h30l10 38l12 38h40q4 0 9 -1t10 -1h10h9t7 -1t6 -1h3 q12 -2 17 -11t13 -43l4 -18h32h30l-2 12q-2 6 -15 52t-29 99t-30 99t-16 54l-6 16l-38 2h-40zM704 1082q4 0 10 -20q8 -24 19 -70t9 -48t-25 -1t-41 5q-8 2 -8 14t12 56q16 64 24 64z" />
<glyph unicode="7" d="M1000 -40q-204 0 -389 79t-319 213t-213 319t-79 389t79 389t213 319t319 213t389 79t389 -79t319 -213t213 -319t79 -389q0 -136 -36 -266t-100 -239t-157 -202t-202 -157t-239 -100t-266 -36zM1000 1738q-64 0 -126 -10t-120 -30t-112 -48t-102 -63t-90 -77t-77 -90 t-64 -102t-48 -112t-29 -120t-10 -126q0 -212 104 -391t283 -283t391 -104q158 0 302 62t248 166t166 248t62 302q0 90 -20 178t-59 164t-92 144t-121 121t-144 91t-164 59t-178 21zM1276 888q62 -70 62 -172q0 -68 -20 -123t-60 -96t-97 -66t-131 -35v-168h-78v166 q-132 8 -212 68t-108 170l142 62q8 -32 24 -57t38 -43q44 -36 116 -44v340q-152 64 -222 138q-34 38 -51 82t-17 94q0 24 3 46t9 42t15 39t22 36t29 33q76 76 212 92v126h78v-126q54 -6 98 -19t78 -35q68 -42 98 -120l-138 -68q-12 20 -27 36t-31 26q-32 24 -78 32v-300 q184 -86 246 -156zM1030 556q32 6 55 20t39 33t24 43t8 52q0 26 -7 47t-23 39q-30 36 -96 68v-302zM952 1338q-18 -4 -32 -11t-26 -16t-20 -17q-12 -16 -18 -35t-6 -43q0 -46 24 -80q6 -10 14 -18t18 -16t22 -15t24 -15v266z" />
<glyph unicode="8" d="M1000 1560q-248 0 -424 -176t-176 -424q0 -122 48 -233t128 -191t191 -128t233 -48q248 0 424 176t176 424t-176 424t-424 176zM1000 1426q194 0 330 -136t136 -330q0 -126 -62 -234t-170 -170t-234 -62q-194 0 -330 136t-136 330t136 330t330 136zM1260 1196l-102 -2 l-104 -2l-22 -118q-24 -118 -21 -121t25 9q38 20 84 6t64 -52q12 -26 11 -53t-14 -52t-35 -37q-30 -18 -73 -11t-63 31q-22 26 -36 -16q-8 -26 -1 -37t45 -29q36 -18 86 -18q46 0 73 10t57 40q10 10 18 21t13 24t9 26t6 27t1 27t-4 27t-7 27t-12 25l-16 24q-50 56 -104 56 q-28 0 -36 12t0 44l8 38l74 2l76 2v34v36zM744 1194v-34v-34l34 -2l32 -2l2 -208l2 -206h38h38v244v242h-72h-74z" />
<glyph unicode="9" d="M1000 1560q-248 0 -424 -176t-176 -424t176 -424t424 -176t424 176t176 424q0 98 -30 189t-86 165t-130 130t-165 86t-189 30zM1000 1432q194 0 333 -139t139 -333q0 -204 -152 -346q-138 -126 -320 -126q-194 0 -333 139t-139 333q0 48 9 94t27 88t45 81t58 70t70 58 t81 45t88 27t94 9zM926 1258l-40 -40l-40 -40l110 -108l108 -108l-108 -108l-108 -108l40 -42l42 -42l148 148l148 148l-150 150z" />
<glyph unicode="&#x3c;" d="M1300 1760l200 -200l-600 -600l600 -600l-200 -200l-800 800z" />
<glyph unicode="=" d="M200 800h1600v320h-1600v-320zM200 1760v-320h1600v320h-1600zM200 160h1600v320h-1600v-320z" />
<glyph unicode="&#x3e;" d="M700 160l-200 200l600 600l-600 600l200 200l800 -800z" />
<glyph unicode="?" d="M998 1560q-194 0 -301 -88t-107 -192q0 -86 69 -135t151 -49q46 0 84 16t56 33t18 27q0 14 -24 14q-12 0 -29 19t-17 39q0 28 29 58t79 30q52 0 81 -35t29 -81q0 -40 -26 -82t-94 -110q-134 -134 -134 -192v-66q0 -20 19 -37t49 -17h92q46 0 50 56q2 30 52 81t116 99 q36 26 58 46t52 56t45 81t15 99q0 60 -26 117t-74 105t-129 78t-183 30zM972 658q-60 0 -106 -44t-46 -106t48 -105t106 -43q38 0 72 18t56 53t22 79q0 66 -47 107t-105 41z" />
<glyph unicode="A" d="M738 1960q0 -78 -29 -178t-70 -186t-83 -161t-70 -118t-30 -43l142 46q-26 -92 -70 -179t-87 -145t-83 -103t-64 -67l-24 -22l186 48q-52 -92 -110 -179t-103 -146t-83 -104t-58 -66l-20 -21l562 46l-46 -422h282l-48 422l564 -46q-36 36 -94 104l166 16l-28 -314h168 l-28 314l338 -34q-112 140 -224 386l112 -36q-6 6 -16 17t-37 48t-51 79t-51 108t-43 134l5 -2t12 -5t16 -7l18 -8t17 -7t12 -5l6 -2q-4 8 -10 19t-24 46t-34 71t-35 87t-33 97t-24 98t-10 96q0 -94 -42 -222t-84 -210l-42 -82l84 36q-26 -110 -75 -206t-85 -138l-38 -42 l114 36q-64 -138 -138 -258q-108 144 -198 302q0 -2 47 -13t94 -23l47 -12q-10 8 -26 23t-62 65t-86 105t-84 143t-70 180q-2 0 13 -4t35 -11t41 -14t37 -13l14 -4q-12 16 -31 45t-67 114t-85 165t-68 182t-31 180z" />
<glyph unicode="B" d="M1712 1614h-300q10 0 19 -4t13 -10t6 -12t2 -10v-4v-1006l-152 150l-150 -150v1006q0 4 -1 11t-11 18t-28 11h-646q-6 0 -17 1t-39 10t-50 24t-39 49t-17 79t17 76t40 44t47 19t42 4h16h1092q20 0 20 20q0 18 -20 20h-1106q-32 0 -60 -6t-47 -17t-35 -25t-26 -28t-17 -31 t-10 -29t-5 -24t-2 -17v-7v-1516v-17t5 -42t15 -60t33 -63t55 -59t85 -42t117 -17h1154q4 0 11 1t18 11t11 28v1574q0 38 -40 40z" />
<glyph unicode="C" d="M1448 1560l-1048 -152l70 -480q36 20 60 44t32 38q4 6 12 28t18 37t28 32t52 24t82 3q58 52 175 54t177 -38q38 -56 132 -97t190 -49q4 -2 6 -11t-1 -21t-9 -23t-20 -19t-34 -8q-2 -6 -5 -11t-6 -9l-6 -8t-6 -6t-5 -3t-4 -3l10 40q0 2 -1 2t-5 2l-8 4l-4 -8l-10 -14 l-20 12l-12 -8l-26 18l-14 -8l-14 18l-16 -8l-16 4l-10 -6l-18 8l-28 -6l-2 12q-38 -8 -70 -24q0 -6 1 -10t5 -8l26 22l8 -10l14 4l-2 -28l22 6l8 -18l20 2l6 -12h22l-2 -10l26 8l10 -20q20 2 20 0t3 -5l7 -7l2 -2h3h6t9 2t8 5t6 9q4 8 9 9t7 -4t0 -13q-4 -18 -14 -30 q8 -2 14 -2v-4v-6t-1 -5t-4 -4t-8 -4t-12 -3h-17t-25 1t-33 3q-54 6 -77 8t-82 1t-97 -12t-90 -38t-94 -71q-122 -128 -238 -228l12 -86l1048 152z" />
<glyph unicode="D" d="M460 532l-16 -12t-12 -10q-16 -12 -24 -2q-4 6 4 16t30 26l-32 32q-12 -8 -21 -15t-13 -13q-12 -14 -18 -2l2 14q6 12 32 32q-18 14 -34 28q-22 -16 -28 -24q-14 -18 -20 -2q-4 8 3 17t27 23q-14 10 -30 20q-18 -12 -30 -24q-8 -8 -12 -7t-4 7t2 8q6 10 12 17t14 11 q-14 8 -26 16q-16 -10 -29 -26t-15 -2q0 6 6 12q8 14 20 24q-4 2 -7 4t-7 4l-8 4q-6 -4 -10 -7t-8 -7l-6 -6q-14 -18 -16 -6q-2 2 0 4q4 6 10 13t14 15q-48 18 -100 20q-16 -6 -35 -20t-41 -45t-31 -70t5 -100t56 -129q56 -86 152 -148t188 -85t171 -13t103 56v8t-3 19 t-9 32t-19 44t-31 57t-47 69t-67 79q-20 24 -42 44zM120 740q48 -2 100 -20q20 12 36 14q16 0 20 -2t-2 -4q-4 0 -8 -2q-2 0 -5 -1t-7 -3t-9 -4t-9 -6q10 -4 22 -10q14 12 30 15t26 1q16 -2 2 -8q-2 0 -6 -2q-10 -2 -19 -6t-17 -8q14 -6 26 -14q4 2 9 5t9 5t9 4t8 2t5 2 q22 6 26 -6q0 -4 -6 -6q-2 -2 -6 -3t-8 -3l-8 -4t-9 -4t-9 -6q8 -4 15 -9t15 -11q20 14 34 20q16 6 24 -4q0 -6 -4 -8l-36 -22q10 -6 18 -14t16 -14q26 18 36 20q16 2 22 -8q-2 -4 -4 -6q-16 -8 -38 -22l7 -7l5 -5q6 -8 20 -22l12 8t11 7t9 5t6 4q6 2 10 -2t4 -8t-4 -8 q-4 -2 -12 -8t-20 -14q30 -30 51 -53t53 -63t54 -74t40 -77t24 -81q14 16 24 39t13 51t-1 61t-17 68t-35 74t-54 79q-86 110 -237 169t-261 9zM1234 718q0 10 -9 15t-17 7h-8q0 4 -2 24q-28 6 -51 26t-36 47t-23 58t-14 55t-4 42q0 42 25 83t65 57q14 22 25 51t17 55t10 49 t6 37l2 14q12 -2 22 -2q116 94 181 197t67 187q-16 10 -40 29t-40 35l-16 16l-20 -10t-42 -19t-52 -21q-70 50 -290 50q-212 0 -284 -50q-10 4 -22 8t-22 9t-21 10t-19 9t-15 7t-11 5l-2 2q-8 -8 -19 -18t-37 -31t-42 -31q2 -54 30 -118t84 -134t134 -132l22 2 q12 -128 60 -206q40 -16 65 -57t25 -83q0 -34 -11 -79t-42 -93t-75 -56v-24q-36 0 -36 -22q-20 -4 -22 -20q0 -12 -18 -290q0 -2 1 -4t7 -8t14 -8q0 -8 3 -15t18 -18t40 -18t77 -13t122 -6q50 0 91 3t68 7t46 11t29 13t16 14t7 12t1 10q8 2 14 7t6 9l2 4l-18 290 q0 20 -22 20zM1286 1642q10 -2 15 4t11 22t8 22q6 14 11 22t17 17t28 9q20 0 37 -14t17 -46q0 -34 -9 -66t-24 -58t-34 -50t-38 -39t-37 -26t-31 -12t-19 3q0 22 12 75t24 95zM556 1678q0 32 17 46t37 14q24 0 35 -13t21 -35q4 -6 6 -14t5 -14t5 -11t7 -8t11 -1 q4 -18 12 -47t22 -86t14 -79q-10 -6 -31 -1t-49 30t-53 55t-42 74t-17 90zM1418 622q-88 -110 -98 -250q-4 -70 26 -80q4 -2 22 0t48 9t64 18t78 30t86 41q162 88 262 210q34 42 44 84t-10 58q-64 44 -133 55t-126 -3t-112 -45t-91 -63t-60 -64zM1290 342q2 20 8 46t17 61 t31 72t46 75t65 77t87 73q-88 -58 -148 -138t-83 -144t-29 -124q-4 -48 2 -79t14 -41t20 -14q-42 26 -30 136zM1292 208q14 -10 18 0q-10 -2 -18 0zM1998 616q-6 -8 -13 -17t-19 -21l-20 -20t-28 -25t-31 -26t-40 -32t-43 -35q-42 -34 -95 -75t-103 -79t-91 -66t-55 -34 q-28 -12 -29 -26t21 -20q22 -8 38 -10t60 -3t103 24t127 71q90 62 145 150t67 149t6 95zM1320 206v-9t4 -12t11 -14t18 -15t24 -14t32 -10t39 -6q-36 6 -62 17t-40 23t-20 22t-6 18zM1982 670q-2 -34 -66 -100t-152 -134q-98 -74 -220 -141t-224 -89q38 4 89 22t101 42 t100 53t90 56t70 51q82 64 148 134t64 106z" />
<glyph unicode="E" d="M454 106q0 -46 50 -46h994q26 0 37 10t11 36v268q0 48 -46 48h-700v364h514q50 0 50 46v272q0 44 -50 44h-514v358h694q28 0 39 11t11 35v260q0 48 -48 48h-992q-50 0 -50 -50v-1704z" />
<glyph unicode="F" d="M1000 1952q-272 0 -502 -134t-364 -364t-134 -502q0 -204 79 -389t213 -319t319 -213t389 -79t389 79t319 213t213 319t79 389t-79 389t-213 319t-319 213t-389 79zM1378 1204h-378v-252h252v-252l-252 -4v-374h-252l-4 1134h638z" />
<glyph unicode="H" d="M990 1680l-990 -332v-120l1000 -494l1000 482v126zM250 1046v-232l750 -394l742 394v232l-742 -370zM1944 720v430l-72 -34v-396q-8 0 -15 -4t-11 -10t-7 -11t-3 -9l-2 -4v-444l148 100v344q-6 38 -38 38z" />
<glyph unicode="I" d="M1720 1860h-1440q-74 0 -127 -53t-53 -127v-1440q0 -74 53 -127t127 -53h1440q74 0 127 53t53 127v1440q0 74 -53 127t-127 53zM1120 540q0 -50 -35 -85t-85 -35t-85 35t-35 85v480q0 50 35 85t85 35t85 -35t35 -85v-480zM1000 1260q-50 0 -85 35t-35 85t35 85t85 35 t85 -35t35 -85q0 -32 -16 -60t-44 -44t-60 -16z" />
<glyph unicode="J" d="M100 440h1800v120h-248l-18 144q-76 434 -322 636q-174 142 -416 142q-496 0 -694 -484q-102 -266 -102 -558z" />
<glyph unicode="L" d="M194 956q0 50 1 84t9 62t13 45t24 29t30 18t43 9t53 4t69 1l442 -44q34 0 34 40v122q0 22 -7 32t-27 10l-438 44q-54 0 -115 -18t-113 -46q-64 -30 -98 -55t-63 -68t-40 -106t-11 -163q0 -90 9 -149t33 -107t62 -81t104 -67q80 -42 232 -42l438 42q8 0 14 1t9 4t6 8t4 11 t1 14v112q0 14 -3 23t-10 14t-21 5l-442 -44q-60 0 -92 2t-64 11t-45 24t-25 45t-14 70t-2 104zM1806 964q0 -48 -1 -83t-9 -62t-13 -44t-24 -30t-30 -19t-43 -9t-53 -3h-69l-430 42q-32 0 -32 -40v-122q0 -22 7 -31t25 -9l426 -44q110 0 228 62q52 26 82 45t58 48t42 68 t22 95t8 136q0 120 -18 191t-61 119t-129 96q-80 40 -232 40l-426 -40q-32 0 -32 -40v-118q0 -44 32 -44l430 44q150 0 188 -22q48 -30 54 -160v-66zM504 858v192h996v-192h-996z" />
<glyph unicode="P" d="M1528 260h-352v1400h352v-1400zM824 260h-352v1400h352v-1400z" />
<glyph unicode="R" d="M1032 1960v-118h-32q-242 0 -450 -124q-216 -128 -332 -350q-82 -156 -98 -332q-14 -170 36 -334t156 -296q112 -136 268 -222l14 -8q10 -6 18 -10l10 -5t4 -3l86 166l-5 3t-12 6t-11 5l-16 10q-122 66 -209 175t-125 234t-27 264t77 261q122 234 366 328q122 46 250 46 h32v-118l280 212zM1426 1732l-90 -162q122 -68 207 -177t123 -233t26 -262t-76 -260q-42 -82 -104 -150t-137 -115t-162 -75t-179 -34v116l-280 -210l280 -210v118q224 8 416 124q216 126 332 348q82 158 98 332q6 84 -2 168t-34 164q-48 164 -154 296q-54 68 -120 124 t-144 98z" />
<glyph unicode="S" d="M1720 150q-74 0 -127 53t-53 127t53 127t127 53t127 -53t53 -127q0 -48 -24 -90t-66 -66t-90 -24zM1360 150q-48 0 -90 24t-66 66t-24 90q0 74 53 127t127 53q18 0 36 -4t34 -10t31 -16t27 -22t22 -27t16 -31t10 -34t4 -36q0 -74 -53 -127t-127 -53zM1000 150 q-48 0 -90 24t-66 66t-24 90q0 74 53 127t127 53t127 -53t53 -127t-53 -127t-127 -53zM640 150q-74 0 -127 53t-53 127t53 127t127 53q30 0 57 -9t49 -26t39 -39t26 -49t9 -57q0 -74 -53 -127t-127 -53zM280 150q-74 0 -127 53t-53 127t53 127t127 53t127 -53t53 -127 q0 -102 -86 -154q-44 -26 -94 -26zM1540 464q-74 0 -127 53t-53 127q0 26 6 49t18 43t29 36t36 28t43 18t48 6t48 -6t43 -18t36 -28t29 -36t18 -43t6 -49q0 -48 -24 -89t-66 -66t-90 -25zM1180 464q-48 0 -90 25t-66 66t-24 89q0 38 14 71t38 57t58 38t70 14q74 0 127 -52 t53 -127t-53 -128t-127 -53zM820 464q-74 0 -127 53t-53 128t53 127t127 52q30 0 57 -9t49 -25t39 -38t26 -50t9 -58q0 -48 -24 -89t-66 -66t-90 -25zM460 464q-74 0 -127 53t-53 128t53 127t127 52t127 -52t53 -128q0 -48 -24 -89t-66 -66t-90 -25zM1360 780q-36 0 -70 14 t-58 38t-38 58t-14 70q0 74 53 127t127 53q36 0 70 -14t58 -38t38 -58t14 -70q0 -74 -53 -127t-127 -53zM1000 780q-74 0 -127 53t-53 127t53 127t127 53t127 -53t53 -127t-53 -127t-127 -53zM640 780q-74 0 -127 53t-53 127q0 48 24 90t66 66t90 24q74 0 127 -53t53 -127 t-53 -127t-127 -53zM1180 1096q-74 0 -127 52t-53 127t53 128t127 53t127 -53t53 -128t-53 -127t-127 -52zM820 1096q-36 0 -70 14t-58 38t-38 57t-14 71q0 24 6 47t18 43t29 36t36 28t43 19t48 7q48 0 90 -25t66 -66t24 -90t-24 -90t-66 -65t-90 -24zM1000 1410 q-74 0 -127 53t-53 127t53 127t127 53t127 -53t53 -127q0 -48 -24 -90t-66 -66t-90 -24z" />
<glyph unicode="T" d="M0 1292v-96v-90v-4h190v-8v-464v-4h192v476h190v190h-572zM666 1292v-8v-650v-6v-2h190v666h-190zM950 1292v-2v-6v-650v-6v-2h192v190h286v476h-478zM1524 1292q0 -4 -1 -12t-1 -14v-12v-332v-10h286v-96h-284v-190h476v382h-286v94h4h6h126h138h12v190h-476zM1142 1102 h94v-94h-94v94z" />
<glyph unicode="X" d="M1720 1860h-1440q-74 0 -127 -53t-53 -127v-1440q0 -48 24 -90t66 -66t90 -24h1440q74 0 127 53t53 127v1440q0 18 -4 36t-10 34t-16 31t-22 27t-27 22t-31 16t-34 10t-36 4zM1510 576l-126 -126l-384 382l-382 -382l-128 126l384 384l-384 382l128 128l382 -384l384 384 l126 -128l-382 -382z" />
<glyph unicode="[" d="M1240 1560v-1200l-600 600z" />
<glyph unicode="]" d="M760 360v1200l600 -600z" />
<glyph unicode="^" d="M1800 660l-200 -200l-600 600l-600 -600l-200 200l800 800z" />
<glyph unicode="_" d="M1282 1960h-282h-282q-10 -6 -27 -19t-60 -70t-77 -134t-61 -218t-27 -312t13 -363t32 -342t37 -277t31 -196l13 -69q22 0 45 6t37 12l12 6q4 4 13 10t39 22t64 29t87 23t111 10q190 0 308 -90q4 -2 6 -4q46 -16 94 -16q14 70 35 191t56 449t35 600q0 124 -14 233 t-36 183t-49 135t-54 97t-49 61t-36 33z" />
<glyph unicode="`" d="M1998 594q0 -22 -24 -50t-51 -44t-41 -12q2 -24 -66 -43t-88 -9q-10 -30 -166 -4q-4 0 -10 -3t-14 -11t-17 -15t-23 -20t-24 -23q2 -14 -3 -27t-20 -20t-39 -5q-8 -36 -80 -28q-18 -30 -154 -16q-134 -8 -274 15t-200 55q-40 -4 -106 30t-86 52q-2 0 -3 1t-1 3 q-12 -2 -21 -2h-19q-208 0 -348 154q-120 136 -120 314q0 184 126 319t308 147v12q-16 4 -31 12t-28 18t-23 23t-17 27t-11 31t-4 35q0 62 43 105t105 43q20 0 39 -5t36 -15t30 -24t23 -30t15 -35t5 -39q0 -26 -8 -50t-24 -43t-37 -33t-45 -20v-12q102 -6 190 -56l16 26 l-22 12l52 86l86 -50l-52 -88l-22 14l-14 -26q92 -64 146 -166t54 -218q0 -22 -2 -46q22 18 44 32l14 12q14 -4 64 -5t66 -3l21 -21t18 -19t14 -15t12 -11t9 -7t7 -4l6 -2t6 1t7 4q10 8 0 25t-24 29l-16 14q2 0 5 -2t12 -6t17 -10l26 28q-62 22 -98 24l-8 8t-9 6t-9 5t-6 3 l-2 2l-16 -18h-7t-18 -1t-27 -1h-14q30 20 50 36l102 2l2 -1t6 -4l8 -6t10 -8l12 -10l12 -10t11 -10t10 -11t9 -10q22 -30 46 -20q14 4 2 24q-8 14 -21 28t-23 20l-10 6l40 -14l28 24q-8 4 -20 9t-44 13t-54 8q-2 0 -8 5t-8 6t-7 3t-9 -1t-8 -9q-16 -2 -50 -2l8 8t8 9t8 9 q74 2 108 0q32 -18 59 -40t42 -36t21 -16q16 -6 18 12q2 14 -10 28q-10 12 -21 21t-17 13l-8 4l50 -14q2 2 3 4t2 10t0 13t-7 11t-17 7t-24 3t-25 5t-22 5t-16 4l-6 2l-34 32l-42 -18l24 -22l-58 -2l3 3t1 3q14 18 22 30q36 8 78 26q42 -18 81 -46t67 -53t38 -29 q24 -14 30 6q6 16 -16 36q-8 8 -20 18t-26 21t-26 20t-22 16t-12 7q12 -2 25 -5t24 -7t24 -9t24 -9t22 -9t19 -9t17 -8t14 -6t9 -6q24 -12 30 6q4 14 -20 30q-124 76 -260 66q-22 10 -52 18v0q4 2 11 10t9 10t9 7t13 7t17 5t27 5q30 36 62 50t56 15t54 -17t42 -29t38 -38 l26 -27q50 74 76 89t56 3q58 -20 108 -32q24 -6 37 -41t13 -65q12 -22 20 -72q0 -2 15 -63t19 -121q42 -62 46 -152q8 -6 11 -16t3 -15t-1 -25t-1 -32zM588 1510q0 16 -5 31t-12 28t-18 24t-24 19t-29 12t-32 4q-32 0 -59 -16t-43 -43t-16 -59q0 -26 11 -50t30 -41t43 -23 v24h-32v134h134v-134h-34v-24q38 10 62 42t24 72zM468 1254q-152 0 -260 -108t-108 -260t108 -260t260 -108h21t23 2q0 12 2 25t5 24t7 21t8 16q6 10 12 17t15 10t18 4t21 1q8 2 21 6t55 22t84 40l-40 22l10 16l46 -26l-4 -6q6 4 14 8t14 8q18 38 27 77t9 81q0 152 -108 260 t-260 108zM1088 834l-14 14q-16 18 -38 6q-20 -12 -8 -26h-19t-15 4t-30 8q-20 0 -34 -28v-4q6 -6 18 -4q8 0 51 -15t69 -29q28 -16 41 -17t29 11q8 8 -7 21t-33 23l-18 8l54 -12q18 14 28 22q-4 2 -13 5t-19 5l-20 4t-16 2zM766 894h52v-18h-52v18zM720 1042l46 26l10 -16 l-46 -26zM608 1148l26 44l16 -8l-26 -46zM476 854l2 -60h-20l2 60q-26 6 -26 32t28 32l6 256l6 -256q28 -6 28 -32t-26 -32zM458 1234h20v-52h-20v52zM286 588l26 44l16 -8l-26 -46zM286 1184l16 8l26 -44l-16 -10zM478 536h-20v52h20v-52zM162 718l44 26l10 -16l-46 -26z M162 1052l8 16l46 -26l-10 -16zM170 876h-52v18h52v-18z" />
<glyph unicode="a" d="M1500 1260l400 400l-200 200l-400 -400l-200 200v-600h600zM500 660l-400 -400l200 -200l400 400l200 -200v600h-600zM1700 860h-600v-600l200 200l400 -400l200 200l-400 400zM300 1860l-200 -200l400 -400l-200 -200h600v600l-200 -200z" />
<glyph unicode="b" d="M594 1660h296v-148h-296v148zM1110 1660v-148h296q6 148 0 148h-296zM964 1438v-588h72v588h-72zM890 1438h-368l-222 -588v-590h516v590h74v588zM1110 1438v-588h74v-590h516v590l-222 588h-368z" />
<glyph unicode="c" d="M1000 1346q-160 0 -273 -113t-113 -273t113 -273t273 -113q104 0 193 52t141 141t52 193q0 180 -136 296q-108 90 -250 90zM1000 696q-110 0 -187 77t-77 187t77 187t187 77t187 -77t77 -187t-77 -187t-187 -77zM1984 782q16 88 16 178q0 44 -4 87t-12 87l-348 66 q-8 22 -16 38l202 292q-34 48 -73 92t-83 84t-92 74l-296 -200l-36 14l-64 350q-12 2 -25 4t-25 4t-25 3l-26 2l-26 2t-26 1h-25q-88 0 -174 -16l-66 -348q-20 -8 -38 -16l-292 202q-146 -102 -250 -248l200 -296q-2 -6 -5 -12t-5 -12t-6 -14l-348 -62q-16 -90 -16 -178 t16 -174l348 -66q8 -22 16 -38l-202 -292q52 -72 114 -135t134 -115l296 200q14 -6 36 -16l64 -348q88 -16 178 -16q88 0 174 14l66 350l8 4t8 3t8 3t7 3t7 3l292 -202q146 102 250 248l-200 296l16 36zM1000 492q-194 0 -331 137t-137 331t137 331t331 137q128 0 235 -63 t170 -170t63 -235q0 -96 -37 -182t-100 -149t-149 -100t-182 -37z" />
<glyph unicode="d" d="M1248 1300q-54 40 -118 60l-10 -34q56 -18 106 -54zM600 1090q-12 -30 -17 -63t-5 -67h38q0 62 18 118zM774 1272l-22 30q-26 -20 -50 -44t-42 -50l28 -22q6 8 11 14t11 13t12 13l12 12t13 12t13 11t14 11zM1366 1078l34 12q-10 32 -25 62t-33 56l-30 -22q8 -12 16 -25 t15 -26t13 -27t10 -30zM1366 842l34 -12q22 62 22 130h-38q0 -62 -18 -118zM1000 538q68 0 130 22l-10 34q-58 -18 -120 -18v-38zM634 842l-34 -12q6 -22 15 -42t20 -39t25 -37l28 22q-36 50 -54 108zM400 1156l200 -66q20 64 60 118l-170 124q-60 -82 -90 -176zM1510 590 q30 40 53 84t37 90l-200 66q-20 -64 -58 -118zM368 960q0 -50 8 -99t24 -97l200 66q-8 20 -12 41t-7 44t-3 45h-210zM1372 450l-124 170q54 38 94 92l-30 22q-12 -16 -26 -31t-29 -29t-31 -26l22 -28q-26 -20 -56 -35t-62 -25l66 -200q94 30 176 90zM1342 1208l168 122 q-58 82 -138 140l-124 -170q6 -2 11 -7t10 -9l10 -8t10 -9l9 -9l9 -9t9 -10l8 -10t9 -10t9 -11zM1130 1360l66 200q-48 16 -97 24t-99 8v-210q-66 0 -130 -22l12 -34q56 18 118 18v38q66 0 130 -22zM660 712l-170 -124q-20 28 -36 56t-30 59t-24 61l-38 -12q34 -100 96 -186 l32 22q28 -40 63 -75t77 -63l122 168q-26 20 -50 44t-42 50zM1000 538q-22 0 -45 3t-44 7t-41 12l-66 -200q-94 30 -174 90l-24 -32q28 -20 58 -38t63 -32t65 -26l12 38q96 -32 196 -32v210zM1000 1860q-184 0 -350 -71t-287 -192t-192 -287t-71 -350q0 -122 32 -239 t90 -216t141 -182t182 -141t216 -90t239 -32q184 0 350 71t287 192t192 287t71 350t-71 350t-192 287t-287 192t-350 71zM1000 276q-186 0 -343 92t-249 249t-92 343q0 112 35 216t98 188t147 147t188 98t216 35q94 0 182 -25t163 -69t138 -107t107 -138t69 -164t25 -181 q0 -186 -92 -343t-249 -249t-343 -92zM1542 566l-32 24q-58 -82 -138 -140l22 -32q86 62 148 148zM1000 290q106 0 208 32l-12 38q-96 -32 -196 -32v-38zM1000 1630q-106 0 -206 -32l10 -38q96 32 196 32v38zM1632 960q0 100 -32 196l38 12q-34 100 -96 186l-32 -24 q60 -80 90 -174l-200 -66q12 -30 17 -63t5 -67v0h210q0 -100 -32 -196l38 -12q16 50 24 102t8 106h-38zM606 1502q-28 -20 -54 -44t-50 -50t-44 -54l32 -22q28 40 63 75t77 63l122 -168q54 38 118 58l-66 200q-94 -30 -174 -90zM1208 1598l-12 -38q46 -14 91 -37t85 -53 l22 32q-18 12 -35 23t-36 22t-38 19l-38 16t-39 16zM330 960h38q0 100 32 196l-38 12q-32 -102 -32 -208zM1366 1078l-304 -98q-4 10 -10 18l260 188q-36 50 -86 86l-188 -260q-8 6 -18 10l100 304q-58 18 -120 18v-318q-10 0 -20 -4l-98 304q-58 -18 -108 -54l188 -260 q-8 -6 -14 -14l-260 188q-36 -50 -54 -108l304 -98q-4 -10 -4 -20h-318q0 -20 2 -41t6 -40t10 -37l304 98q2 -6 4 -10t6 -8l-260 -188q18 -24 40 -46t46 -40l188 260q4 -4 9 -6t9 -4l-98 -304q-58 18 -108 54l-22 -30q26 -18 56 -33t62 -25l12 34q56 -18 118 -18v318 q10 0 20 4l100 -304q56 18 106 54l-188 260q8 6 14 14l260 -188q18 24 31 51t23 57l-304 98q4 10 4 20h318q0 30 -4 60t-14 58zM1000 928q-14 0 -23 9t-9 23t9 23t23 9t23 -9t9 -23q0 -6 -2 -12t-7 -11t-11 -7t-12 -2z" />
<glyph unicode="e" d="M1204 686q0 40 8 74t21 57t31 47t36 42t35 41t30 47t22 58t9 72v328q0 158 -118 243t-294 85q-112 0 -203 -35t-149 -111t-58 -182v-328q0 -60 20 -107t48 -79l56 -64t48 -79t20 -109q0 -50 -126 -78q-28 -6 -94 -18q-250 -44 -360 -108q-184 -112 -186 -342h984h986 q0 112 -43 194t-110 126t-149 73t-164 43t-149 26t-109 32t-42 52zM1412 888v-162q0 -24 12 -45t33 -33t45 -12h232q38 0 64 26t26 64v232q0 10 -2 18l178 228l-198 -186q-28 30 -68 30h-232q-18 0 -35 -7t-29 -19t-19 -29t-7 -35v-48l-42 16zM1456 958q0 18 14 32t32 14 h232q22 0 36 -18l-158 -148l-156 56v64zM1456 848l156 -142l168 216v-196q0 -18 -13 -32t-33 -14h-232q-18 0 -32 14t-14 32v122z" />
<glyph unicode="h" d="M1900 210h-900h-900q0 80 24 144t64 104t93 70t111 47t116 29t111 21t93 19t64 26t24 40q0 56 -18 99t-44 72l-52 58t-44 72t-18 99v300q0 144 108 222t268 78t268 -78t108 -222v-300q0 -46 -13 -85t-33 -63t-43 -52t-42 -52t-32 -63t-13 -85q0 -48 120 -74q24 -4 80 -14 q238 -42 340 -106q158 -102 160 -306z" />
<glyph unicode="i" d="M1000 160q-48 0 -89 24t-65 65t-24 89v714q0 36 14 69t38 57t57 38t69 14q74 0 126 -52t52 -126v-714q0 -74 -52 -126t-126 -52zM1000 1404q-74 0 -126 52t-52 126q0 28 9 56t25 49t38 38t49 26t57 9q48 0 89 -24t65 -65t24 -89q0 -36 -14 -69t-38 -57t-57 -38t-69 -14z " />
<glyph unicode="j" d="M1470 1062q-38 14 -78 24t-70 12q-12 112 -64 212q-50 100 -130 157t-184 67q-14 26 -68 26q-12 0 -22 -2q-14 0 -27 -4t-24 -9t-19 -12t-12 -15q-204 -62 -298 -320q-58 -164 -60 -330v-48l34 34q0 2 1 3l4 4t7 6t10 7t12 10q12 -18 27 -38t51 -57t76 -68t97 -59 t117 -38q-2 -148 44 -264l62 24l-6 18t-13 47t-13 70t-6 87t6 98q14 130 10 186t-14 98h14q44 0 95 -7t103 -23q176 -52 310 -38q144 14 144 60q0 40 -110 80q-4 2 -6 2zM796 1444q-52 -68 -84 -185t-10 -251q-8 -2 -18 -4t-18 -4q-12 80 -3 148t30 122t44 93t41 59z M858 714q-2 -4 -2 -9t-1 -10t-1 -11q-62 12 -119 44t-99 73t-64 66t-38 47q130 64 314 72q32 -120 10 -272zM926 1456q4 -2 11 -8t27 -26t39 -42t42 -59t40 -76t29 -93t12 -110q-8 -2 -17 -3t-19 -3q0 90 -16 163t-48 126t-50 76t-50 55zM1120 1002q42 8 77 17t56 17t37 18 t21 14t7 8l6 6l16 -16q18 -30 -64 -46q-56 -12 -156 -18z" />
<glyph unicode="l" d="M1094 1234l-4 4q-12 -4 -24 -10t-24 -15t-24 -23t-22 -32q-4 -6 -8 -16t-9 -28t-6 -35t3 -41l4 -2q2 0 5 -3t14 -11t22 -17t24 -24t23 -31t18 -37t11 -43t0 -50t-15 -54q-8 -22 -20 -41t-18 -29l-8 -10q-32 -40 -73 -60t-77 -19t-68 8t-50 15l-18 10l-396 228 q-56 34 -85 78t-31 83t4 75t16 56l12 22q32 56 76 85t84 31t75 -5t57 -17l20 -10l48 -28q6 16 14 33t17 35t19 36q30 52 64 94l-48 28q-4 2 -13 7t-38 17t-59 21t-74 15t-86 5t-91 -14t-93 -38t-89 -71t-81 -110q-48 -80 -64 -159t-4 -139t37 -114t59 -92t66 -66t52 -42 l20 -14l398 -228q8 -4 21 -11t56 -23t86 -24t103 -7t114 18t114 61t106 114q2 2 4 6t9 15t12 20t12 20t9 19q52 112 51 204t-39 163t-82 119t-82 74zM1762 1246l-398 230q-8 4 -23 11t-60 23t-91 24t-109 5t-119 -24t-116 -74t-107 -134t-63 -159t-4 -138t37 -115t59 -93 t65 -66t52 -41l21 -13l4 -2q56 14 93 78t21 120l-1 1t-3 1q-158 92 -102 266l20 48q22 40 52 66t59 36t59 13t55 -2t45 -12t30 -13l12 -6l396 -228q8 -4 21 -13t41 -40t43 -65t13 -87t-34 -108t-76 -84t-84 -31t-75 4t-57 16l-20 12q-18 10 -48 26q-20 -52 -50 -104 q-10 -16 -21 -33t-22 -32t-21 -29l48 -28q16 -8 44 -21t108 -31t154 -11t164 64t154 167q38 64 56 126t17 113t-13 99t-34 86t-47 71t-51 57t-47 41t-35 25z" />
<glyph unicode="n" d="M1816 1728q0 6 -5 15t-26 22t-54 26t-95 26t-144 22t-207 15t-275 6q-342 0 -542 -22t-242 -43t-42 -43v-5v-7t1 -7t2 -8t4 -9t8 -9t12 -9t16 -10t21 -9t28 -9q38 -80 88 -190q28 -60 53 -118t52 -125t45 -123q26 -76 48 -164l-4 -4q2 0 4 -2l4 -4q16 -68 29 -137 t19 -135t6 -120q0 -76 -12 -126q-8 -38 -26 -97t-29 -100t-11 -65q0 -18 6 -28q8 -10 24 -10q6 0 14 2q30 8 42 40q4 -22 12 -36q14 -22 32 -22q14 2 24 10q12 12 21 36t15 64q4 -12 8 -20q10 -16 30 -16q18 2 37 16t31 32q4 -8 8 -14q-10 -10 -22 -20l-16 -12l-2 -2v-2 q-22 -32 -22 -64q0 -22 10 -38t26 -16q32 0 48 56l8 -20q10 -22 28 -22q28 2 50 52q10 24 16 54q10 -30 26 -56q14 -22 30 -38q10 -6 17 -10t13 -4h2q4 0 9 4t5 10q2 10 3 19t1 17q0 96 -86 212q4 14 13 32t20 38t23 41t24 43q8 -16 14 -26q40 -80 64 -154q-36 -84 -54 -132 q-14 -42 -14 -68q0 -6 1 -12t5 -12q6 -10 18 -10q28 2 64 50q18 22 18 64q0 24 -6 55t-16 63q6 14 68 158q14 -34 28 -72q-16 -106 -16 -178q0 -26 2 -46t5 -35t9 -25q12 -30 38 -30q30 0 50 30q8 10 8 44q0 32 -17 195t-17 267q0 28 2 52v16t2 16q2 14 2 28v10q2 14 6 34 q2 14 4 24t4 17t2 11l2 2v6v2v0q14 68 43 142t81 177t118 222t170 297q10 2 19 6t15 8t10 8t7 8t5 6t2 6v6v4v6zM1744 1724q0 -4 -4 -8t-15 -8t-26 -8t-39 -8t-54 -8q14 38 26 76q112 -18 112 -36zM1314 734q-2 -14 -5 -29t-7 -41q-4 -12 -11 -27t-16 -35t-15 -38l-20 -50 q-8 112 -38 214q20 38 42 79t46 81q0 -4 3 -21t6 -30t5 -27q6 -22 8 -41t2 -35zM1196 746q-12 38 -40 118q-10 24 -19 44t-19 36q12 22 27 42t31 38q10 14 25 32t31 38q20 -54 32 -95t20 -89q-22 -40 -44 -81t-44 -83zM878 478q8 -24 8 -50q0 -10 -1 -21t-3 -22t-5 -21 t-7 -20t-7 -19t-7 -19t-7 -18t-7 -16t-6 -14q-30 38 -74 70l-2 4l-2 2q12 54 30 82q26 40 74 100q10 -22 16 -38zM634 552v38t-2 40l-4 40q2 -16 7 -52t7 -54q2 -14 6 -30q-4 -4 -7 -8t-5 -10v36h-2zM388 1768q14 -28 28 -64q4 -10 6 -14q-32 4 -58 8q0 20 4 36t14 34h6z M1176 1614q6 -70 11 -135t6 -97t3 -78q0 -54 2 -76t8 -53t18 -63l2 -2q-18 -24 -34 -43t-28 -33q-14 -18 -28 -37t-26 -39q-16 22 -29 37t-44 42t-34 30l-6 6t-7 5v2v8q0 74 25 155t65 185t60 186h36zM1152 1662q8 36 12 72q4 -38 8 -72h-11h-9zM1236 1124q-16 42 -20 75 t-6 107q-4 152 -20 308q220 4 362 18q-18 -34 -38 -71t-41 -72l-42 -70t-42 -68t-41 -64t-40 -60t-38 -54t-34 -49zM976 1094q-12 16 -18 44q-2 8 -5 21t-6 29t-8 36t-12 47t-15 57t-14 60t-9 59t-5 51t-4 52t-2 46q0 4 -2 18q62 -2 124 -2h65h61q-16 -60 -94 -276 q-54 -146 -56 -242zM864 1594q0 -12 1 -32t2 -36t3 -36t4 -39t6 -39t8 -43t10 -45q10 -28 16 -56t11 -47t8 -35t6 -30t5 -22q4 -18 11 -31t19 -27q-8 -12 -16 -23t-15 -19t-13 -15t-13 -14l-11 -11t-11 -10t-11 -8q-18 -18 -32 -38q-14 26 -36 56t-40 50t-40 43t-28 29 t-14 12l-4 4q12 126 20 256q2 38 2 98v17v18v17q0 48 2 80q34 -2 71 -3t77 -1q0 -6 2 -18v-2zM656 566q-2 14 -4 31t-4 33t-4 33t-5 37t-7 40q4 28 20 108l2 2q38 -46 88 -128q-8 -12 -18 -22q-48 -68 -64 -150q-2 10 -4 16zM598 874l-2 -2q-4 22 -12 52q32 -28 58 -60 q-2 -6 -2 -12q-10 -46 -16 -74q-10 48 -26 96zM656 868q18 88 32 246q32 -28 62 -64q62 -68 94 -124q-18 -30 -34 -78q-14 -36 -28 -63t-32 -51q-52 84 -94 134zM698 1486q0 -58 -2 -98q-2 -22 -3 -45t-3 -47t-4 -49l-4 -50t-4 -51q0 2 -2 4l-4 4q-26 32 -52 71t-61 109 t-53 138q-22 86 -50 164q50 -6 111 -11t133 -7q-2 -18 -2 -38v-42v-52zM718 1668q10 74 40 122q30 2 38 2q24 -30 38 -62t20 -66q-72 0 -136 4zM704 1668q-154 6 -266 20q-18 46 -34 82q138 14 338 20q-16 -26 -25 -56t-13 -66zM440 1638q30 -82 52 -170q22 -80 64 -160 t69 -116t51 -64q-14 -156 -30 -246q-32 36 -66 66q-48 208 -98 376q-20 74 -61 179t-51 145q34 -6 70 -10zM666 532l2 2l4 2v4q16 84 64 150q2 4 7 10t7 8q16 -26 27 -43t21 -31q28 -38 58 -104q-32 -40 -50 -62v0q-22 -24 -42 -47t-36 -45q-28 38 -42 75t-24 79h2zM764 400 q-10 -22 -18 -52l-10 14q14 20 28 38zM810 642q-16 22 -52 78q42 56 64 122q8 22 15 39t15 29v-2q12 -24 28 -47t26 -34t28 -31q42 -44 56 -74q-14 -22 -24 -40q-24 -40 -48 -71t-52 -69q-28 62 -56 100zM946 806q-58 60 -82 108q0 2 -1 4l-3 6q8 14 16 23t18 17q4 4 12 11 t13 12l14 14t16 17t16 21t19 27l8 -8q8 -8 18 -17t18 -15t16 -14l15 -15t14 -15t14 -17t15 -21q-24 -40 -64 -122q-26 -56 -40 -84q-14 26 -52 68zM1110 930q8 -14 16 -32t16 -38q34 -90 46 -132q-8 -14 -14 -28t-11 -24t-9 -20t-6 -13t-4 -7l-3 -5l-6 -10t-8 -14t-12 -19 t-13 -20t-14 -23t-16 -25q-20 44 -34 89t-28 99q-2 6 -6 14q18 30 51 101t55 107zM1242 1108q184 250 328 526h4q-52 -150 -76 -221t-53 -176t-31 -155q-54 -50 -118 -154q-10 44 -22 84t-32 96zM1186 1664q-2 14 -4 29t-4 31t-4 33t-4 35q102 -2 190 -6t148 -10t108 -14 q-18 -40 -38 -80q-144 -16 -392 -18zM1156 1792q-6 -64 -18 -130h-130h-138q-14 74 -56 130q46 0 95 1t101 1h75t71 -2zM242 1738q0 2 5 4t15 5t24 6t34 6t44 7q-12 -30 -14 -64q-108 20 -108 36zM294 1664q14 -4 29 -7t33 -7q8 -42 50 -150t64 -180q22 -78 44 -164 q-10 30 -22 62t-25 62t-26 62t-27 62t-26 58t-24 54t-22 48t-20 43t-16 33zM618 174q-6 -16 -14 -25t-22 -11q-6 -2 -10 -2q-8 0 -12 4q-4 6 -4 20q0 22 10 62t28 100t28 96v2q0 -24 2 -57t2 -58v-43q0 -30 -2 -52t-6 -36zM640 232v30q0 24 -2 96t-2 120q2 12 6 21t10 17 q18 -82 66 -154q-10 -16 -20 -31t-16 -27l-9 -18l-5 -10q-18 -20 -28 -44zM686 126l-14 -6q-10 0 -20 16t-10 40q0 48 38 92v2q4 4 8 14q6 14 16 31t24 35q2 -4 6 -9t8 -9q-6 -26 -16 -80t-19 -85t-21 -41zM770 196q-12 0 -18 8q-8 14 -8 42q0 20 4 46v2l4 24q8 -4 18 -14 q4 -2 7 -5t8 -7t9 -8l9 -9t9 -10t9 -11t9 -12q-16 -34 -50 -46h-10zM846 244q2 8 13 34t19 45t15 49t7 56v2q12 -36 12 -68q0 -40 -15 -73t-37 -61q-2 0 -4 -4q-2 6 -5 10t-5 10zM856 122q-14 -50 -36 -48q-8 2 -14 10q-8 12 -8 30q0 4 1 9t2 11t3 12t5 12t7 12q4 2 8 5 t12 10t16 15q10 -24 10 -46q0 -16 -6 -32zM942 132q-8 -20 -19 -32t-19 -12t-16 16q-2 4 -4 10t-4 13t-3 17t-3 20q0 12 -3 24t-9 22q64 70 64 152q0 16 -2 32q2 -4 3 -7t4 -6l5 -5v0v-2l20 -20q8 -12 18 -22q-2 0 -2 -2v-2q-6 -18 -9 -37t-3 -39v-14t2 -14q-4 -52 -20 -92z M1062 122q0 -16 -2 -32q-2 -4 -4 -4q-6 0 -20 12q-12 10 -24 28t-22 44t-14 54v22v2h-2v2v2q0 34 10 66q78 -110 78 -196zM980 346q-18 24 -34 38q-16 22 -28 46t-26 54q-4 8 -8 18v-2q-2 4 -4 10t-4 10l-4 8q12 16 20 26l20 25t22 29t21 31t23 35q8 14 18 30q10 -36 19 -66 t21 -65t28 -69q-28 -48 -50 -88t-34 -70zM1172 188q0 -18 -4 -32t-10 -24q-34 -44 -54 -42h-3t-3 2q-4 6 -4 16q0 12 4 27t10 35q16 46 46 116q18 -58 18 -98zM1156 326q-22 68 -60 142q-2 6 -5 12l-6 12t-5 12l2 2q66 114 76 124v0q0 2 24 54q6 10 12 24q28 -102 32 -222 q-6 -14 -31 -71t-39 -89zM1336 116q-16 -26 -38 -24q-4 0 -8 1t-9 7t-9 14q-6 14 -10 39t-4 61q0 60 10 146q10 -32 16 -49t20 -42t32 -49h2q4 -44 4 -68q0 -28 -6 -36zM1336 244q-10 14 -18 28t-15 31t-10 27t-10 32t-9 32q0 2 1 8t1 8q18 116 32 204q0 -96 28 -370z M1264 422q-10 30 -24 56v4q22 50 34 78q4 10 8 21t10 23zM1322 792q0 4 -1 7t-1 7t-2 8q-2 12 -5 26t-5 24t-4 22t-4 20q60 102 110 152q-34 -76 -55 -141t-33 -125zM1430 1102q14 110 160 534q48 6 84 13t62 13q-114 -196 -187 -329t-119 -231z" />
<glyph unicode="o" d="M1824 830l176 130l-176 130l128 180l-210 68l68 210l-220 2l-2 220l-210 -66l-68 208l-180 -128l-130 178l-130 -178l-180 128l-68 -208l-210 66l-2 -220l-220 -2l68 -210l-210 -68l128 -180l-176 -130l176 -130l-128 -180l210 -70l-68 -210h220l2 -220l210 66l68 -208 l180 128l130 -178l130 178l180 -128l68 208l210 -66l2 220h220l-68 210l210 70zM1170 572l38 -134l-100 -28l-36 128q-68 -20 -146 -12q-94 8 -146 34l42 186q122 -62 220 -34q38 10 63 40t15 66q-6 18 -18 28t-34 15t-40 7t-52 2t-54 2q-54 4 -93 16t-78 49t-55 97 q-28 98 12 189t134 125l-36 130l98 28l38 -130q118 22 212 -6l-36 -178q-78 34 -152 14q-24 -8 -42 -19t-27 -29t-5 -38q6 -18 20 -29t37 -16t35 -6t38 -3q48 -2 79 -5t71 -14t65 -28t48 -48t35 -73q58 -206 -150 -326z" />
<glyph unicode="p" d="M560 1660v-1400l1050 700z" />
<glyph unicode="r" d="M100 1220q30 -108 54 -190q90 -8 182 4q-8 28 -26 92t-28 98q-92 -12 -182 -4zM208 838q8 -28 27 -92t27 -98q92 -8 184 4q-14 48 -56 190l-44 -4t-45 -3t-46 0t-47 3zM510 1070q-90 -26 -174 -36l8 -28t8 -27t8 -27l8 -28l8 -28t8 -27t6 -27q44 6 87 15t87 23 q-34 116 -54 190zM446 652q8 -34 27 -98t27 -94q84 10 172 38q-18 68 -54 190q-90 -26 -172 -36zM372 264q90 -6 182 6q-4 14 -7 23t-7 23t-7 25t-6 24t-7 24t-7 23t-7 24t-6 24q-92 -12 -182 -4q10 -36 30 -106q4 -14 6 -22l5 -20t6 -23t7 -21zM1628 1654q-30 4 -61 4 t-61 -2t-60 -6q6 -22 18 -64q24 -86 36 -126q92 10 182 4q-2 12 -6 26l-8 28t-8 27t-8 27t-8 27t-8 28t-8 27zM1792 1082q-6 16 -12 37t-11 39t-10 37t-11 39t-10 38q-90 8 -184 -4q10 -32 28 -96t28 -94q92 10 182 4zM1900 700q-2 8 -54 190q-90 8 -182 -4q6 -20 13 -47 t13 -48t14 -48t14 -49q92 12 182 6zM622 1322q-88 -38 -166 -60q8 -28 17 -60t20 -71t17 -61q78 24 166 62q-6 20 -25 87t-29 103zM564 880q8 -28 17 -61t20 -70t17 -61q28 8 56 18t55 21t55 23q0 4 -5 21t-7 22t-6 20t-6 22t-6 20t-6 22t-5 21t-6 22t-7 20 q-88 -36 -166 -60zM892 1016q-30 108 -54 190q-46 -22 -85 -40t-77 -34q8 -28 26 -93t28 -99q26 12 55 25t54 25t53 26zM784 750q8 -26 18 -61t20 -69t16 -62q70 30 164 76q-10 30 -20 64t-17 61t-19 65q-94 -46 -162 -74zM726 306q78 24 168 62q-6 14 -11 31t-8 31t-9 34 l-9 30t-9 33t-10 31q-88 -38 -166 -60q8 -24 26 -90t28 -102zM944 1478q-18 -10 -40 -21l-40 -20l-40 -20t-40 -19q10 -38 29 -105t25 -87q26 14 80 40t82 40q-8 22 -15 48t-13 47l-14 49t-14 48zM892 1016q8 -30 27 -94t27 -98l82 41t80 39q-10 36 -29 101t-25 91 q-14 -8 -28 -15l-26 -13t-27 -13t-27 -13t-27 -13t-27 -13zM1216 1170q-8 28 -17 61t-20 70t-17 61q-68 -30 -162 -76q8 -32 17 -63t18 -64t19 -63q94 46 162 74zM1108 904q32 -112 54 -192q94 48 162 76q-8 28 -26 92t-28 100q-68 -30 -162 -76zM1056 442q26 14 80 40 t80 40q-10 32 -28 96t-26 94q-28 -12 -81 -39t-79 -39q10 -38 30 -110q16 -56 24 -82zM1274 1614q-14 -6 -28 -10t-28 -9l-28 -10l-28 -10t-28 -11t-26 -12q14 -52 54 -190q88 36 166 60q-10 30 -28 94t-26 98zM1270 980q88 36 166 60q-2 10 -5 21t-6 21t-6 21t-7 22t-6 21 t-6 21t-6 21t-6 21t-6 21q-78 -22 -166 -60q38 -138 54 -190zM1328 1422q2 -10 5 -21l6 -22t6 -21t6 -21t6 -21t6 -21t6 -21t7 -22t6 -22q22 8 43 13l42 10t43 9t44 6q-8 28 -26 93t-28 99q-84 -12 -172 -38zM1490 848q30 10 58 17t57 12t59 9q-8 24 -26 90t-28 102 q-84 -12 -174 -38q38 -134 54 -192zM1378 596q44 20 85 35t81 27q-6 26 -16 60t-20 69t-18 61q-78 -22 -166 -60q10 -34 54 -192z" />
<glyph unicode="s" d="M486 936l16 -16q28 14 50 18q-16 2 -31 1t-35 -3zM1700 1116l-484 72l-216 438l-216 -438l-484 -72l176 -170q20 12 48 23t52 19t44 14t34 8l12 2q-24 10 -100 24q66 18 129 21t93 -5l30 -6q-2 2 -5 3t-15 7t-24 11t-31 12t-37 11q18 8 51 15t82 3t87 -26q-2 8 2 21 t11 30t14 31t18 35t17 31q8 -22 12 -49t4 -43v-16q18 36 48 64q2 -58 -30 -120q-4 -30 58 -86q46 -42 131 -157t109 -169q10 -18 14 -30t6 -20t-1 -15t-5 -11t-8 -13l-10 -15q-18 -30 -29 -39t-25 -5q8 -14 4 -20t-40 -6q-10 0 -21 3t-18 9t-14 13t-11 14t-7 12t-5 9v4 q-22 24 -150 80q-40 -4 -72 10t-48 41t-20 61t10 70q-22 -44 -17 -81t23 -61l18 -26q-40 -86 -52 -200l158 84l432 -228l-82 482z" />
<glyph unicode="t" d="M796 1496q26 14 32 37t-2 37l-6 16l-200 340q-2 2 -4 6t-11 12t-19 12t-25 3t-31 -9q-166 -98 -209 -290t27 -439t239 -535t351 -469t368 -238t356 43q26 16 31 40t1 34t-8 16l-200 340q0 2 -3 6t-12 12t-19 12t-25 4t-31 -10q-28 -16 -45 -23t-47 -12t-65 7t-79 42 q-58 38 -111 97t-85 109t-95 157t-91 159t-54 127t-30 143q-4 54 2 91t25 60t33 35t42 28z" />
<glyph unicode="u" d="M1494 60v490h34v100h-1056v-100h34v-490h-132v490h34v1310h64v-1146h1056v1146h64v-1310h34v-490h-132z" />
<glyph unicode="v" d="M200 1260l200 200l600 -600l600 600l200 -200l-800 -800z" />
<glyph unicode="w" d="M1134 954q12 18 31 56t37 80t34 81t25 64l9 25q-4 -150 -136 -306zM684 1352q40 -10 71 -35t54 -59t40 -80t27 -97t16 -113q-2 18 -23 55t-45 70t-50 68t-30 43q-4 4 -12 17t-15 23t-16 25t-14 27t-9 23t-2 20t8 13zM754 1070q-2 32 32 -10q64 -88 80 -212q6 -62 -6 -112 q-8 16 -31 67t-30 69t-21 56t-19 71t-5 71zM770 902q52 -114 80 -186q-30 8 -56 73t-24 113zM932 918q16 108 -24 268t-80 244q-2 4 -4 9t-3 9t-3 6q-144 44 -144 174q0 20 20 56t56 76t97 70t132 30t133 -28t98 -67t56 -73t20 -52q0 -70 -42 -117t-109 -68t-155 -21 q-78 0 -138 14q18 -20 50 -62q26 -34 44 -83t25 -85t28 -68t59 -42q32 -8 60 16t50 71t39 96t37 105t32 82q-2 10 -3 18t0 15t4 13t6 10t7 7t9 5t9 2t8 -1t8 -3q14 -14 12 -26t-22 -62q-6 -14 -10 -24q-8 -20 -29 -79t-44 -125t-48 -133t-47 -121t-36 -74q-12 -18 -17 -58 t-9 -87t-13 -99t-34 -107t-65 -97q32 64 46 142t9 127t-15 53q-6 2 -18 -21t-28 -64t-34 -88t-42 -102t-46 -97q2 12 8 32t21 81t28 120t28 138t23 145zM1096 1226q-8 -28 -19 -38t-31 -5t-28 18t-8 35q0 16 3 28t12 21t23 7q16 -4 28 -11t19 -22t1 -33zM1140 506 q12 -12 26 -45t24 -72t18 -78t12 -63t4 -26h-404q134 60 203 128t117 156zM728 60l62 110h454l64 -108z" />
<glyph unicode="x" d="M200 1532l228 228l572 -572l572 572l228 -228l-572 -572l572 -572l-228 -228l-572 572l-572 -572l-228 228l572 572z" />
<glyph unicode="y" d="M1744 562q-6 4 -32 12t-50 21t-40 37l6 10l-46 26q68 136 68 288q0 156 -68 292l46 28l-6 10q16 24 40 37t50 21t34 12q8 6 13 9t12 9t10 10t3 11t-4 15q-14 24 -64 -4q-6 -4 -26 -23t-44 -33t-52 -16l-4 10l-48 -26q-84 124 -215 201t-287 85v58h-10q-14 26 -14 53t7 54 t7 35q0 10 -1 16t-2 15t-4 14t-8 8t-13 3q-12 0 -18 -4t-8 -14t-3 -17t-1 -21q0 -8 7 -35t7 -54t-14 -53h-10v-58q-154 -8 -285 -85t-215 -201l-50 28l-6 -10q-28 2 -52 16t-44 33t-26 23q-48 28 -62 2q-4 -10 -5 -16t7 -14t14 -11t18 -11q6 -4 24 -10l33 -11t34 -18t31 -31 l-6 -10l50 -28q-70 -138 -70 -294q0 -150 66 -284l-46 -28l6 -10q-10 -12 -21 -22t-22 -16t-23 -11t-22 -8t-20 -7t-16 -6q-8 -6 -13 -9t-12 -9t-10 -10t-3 -11t4 -15q14 -24 64 4q4 4 12 11l16 14t18 15t21 14t25 11t30 7l4 -10l48 26q82 -126 214 -205t288 -87v-52h10 q14 -26 14 -53t-7 -54t-7 -35q0 -18 1 -28t8 -19t19 -9t18 4t8 14t3 17t1 21q0 8 -7 35t-7 54t14 53h10v50q156 10 289 88t217 204l44 -26l6 10q14 -2 29 -6t25 -11t21 -15t18 -15t15 -14t14 -11q12 -6 19 -9t16 -6t16 0t11 13q16 24 -34 52zM1162 902l-26 14q6 20 6 40 q0 12 -2 23t-4 21l28 18l10 24q16 -2 24 2q10 6 16 16t16 16q6 4 22 8t37 16t34 24t19 16q10 6 22 6t22 6l12 20q2 0 5 -2t11 -4t12 2l28 18q56 -108 56 -230q0 -118 -54 -224l-32 18q-6 2 -12 2t-10 -4l-4 -2q-6 16 -14 20q-10 6 -22 6t-20 6q-8 4 -14 10t-15 13t-25 17 q-20 12 -36 16t-24 8q-8 6 -15 16t-17 16l-24 2l-2 18zM1424 1240l-30 -18l-10 -26q-2 2 -5 2h-9t-10 -2q-6 -4 -10 -8t-6 -8t-6 -8t-10 -8q-8 -4 -23 -9t-37 -17t-34 -23t-18 -15q-10 -6 -22 -7t-22 -5l-12 -20l-28 4l-30 -18q-14 16 -32 26t-38 14v36q0 6 -5 12t-7 7t-4 3 q10 12 10 22t-5 21t-5 21q0 8 4 25t4 41q0 14 -2 25t-3 15t-2 11t-1 13q0 12 5 22t5 22q0 8 -10 22q2 0 4 2l7 7t5 11v32q120 -8 223 -68t169 -156zM972 956q0 30 30 30q10 0 19 -9t9 -21q0 -6 -4 -13t-11 -11t-14 -4t-14 4t-11 11t-4 13zM970 1464v-32q0 -6 4 -11t8 -7 l4 -2q0 -4 -10 -22q0 -12 5 -22t5 -22q0 -8 -3 -24t-3 -40t3 -41t3 -25q0 -6 -1 -10t-2 -7t-3 -7t-3 -8t-1 -10l10 -22l-14 -12l-2 -10v-36q-40 -8 -70 -38l-32 18q-6 2 -12 1t-10 -3l-4 -2q-2 0 -14 20q-4 2 -8 3t-7 2t-6 1h-6t-7 1t-8 5q-8 4 -20 15t-33 23t-37 17t-22 9 q-10 6 -17 16t-15 16h-24q0 20 -12 26l-26 16q64 98 167 157t223 67zM826 878l-24 -2q-10 -6 -16 -16t-16 -16q-8 -4 -15 -6t-18 -6t-27 -12l-21 -14t-12 -10t-8 -8t-11 -8q-10 -6 -22 -6t-20 -6q-4 -2 -8 -7t-4 -9l-2 -4q-2 0 -5 2t-10 4t-13 -2l-30 -18q-50 106 -50 222 q0 32 3 62t10 59t17 56t24 53l28 -16q6 -2 12 -2t10 4l4 2q6 -16 14 -20q6 -4 12 -5t10 -1t9 -1t11 -5q8 -4 20 -16t34 -24q16 -8 27 -12t18 -6t15 -8q8 -4 15 -14t17 -16q2 -2 8 -2h10h6l-1 -4t2 -11t9 -11l30 -16q-8 -22 -8 -46q0 -18 6 -36l-30 -18q-10 -6 -10 -24z M576 680l30 18q6 2 8 9t2 11v6q2 -2 5 -2h9t10 2q6 4 10 8t6 8t6 8t10 8q4 2 7 3l6 2l6 2t7 2t9 3t11 5t14 9q22 12 34 23t18 15q10 6 22 7t22 5l12 20q2 0 5 -2t10 -4t13 2l26 16q14 -16 33 -28t41 -16v-30q0 -6 4 -12t8 -8l4 -2q0 -2 -10 -22q0 -10 5 -21t5 -21 q0 -8 -1 -14t-2 -11t-2 -15t-1 -26q0 -24 3 -40t3 -24q0 -6 -1 -11t-2 -8t-3 -6t-3 -8t-1 -11q0 -8 10 -22l-14 -10l-2 -10v-38q-122 8 -225 69t-167 161zM1030 450v38q0 14 -16 20q10 14 10 22q0 6 -1 11t-3 8t-3 6t-2 8t-1 11q0 8 3 24t3 40t-3 41t-3 25t2 14t5 13t3 15 t-10 22q16 8 16 22v28q22 6 41 17t35 27l26 -16l26 4q2 0 14 -20q8 -4 15 -5t13 -1t14 -6q6 -2 11 -7t9 -8t12 -10t20 -13q22 -12 38 -17t22 -9q10 -6 17 -16t15 -16h26q0 -2 -1 -6t2 -11t9 -9l32 -18q-44 -66 -104 -115t-135 -79t-157 -34z" />
<glyph unicode="{" d="M1600 660h-1200l600 600z" />
<glyph unicode="}" d="M400 1260h1200l-600 -600z" />
<glyph unicode="~" d="M1156 980q-40 -108 17 -194t175 -76q54 -22 96 -43t64 -34t37 -22t19 -13l4 -4l5 -10t13 -23t22 -29t32 -22t42 -10q52 0 58 9t-6 27q22 -4 38 9t42 57q6 10 18 26t14 22t3 21t-6 34t-21 51q-38 80 -163 249t-193 231q-18 18 -33 34t-24 28t-15 24t-9 19t-4 13t-1 8v4 q2 2 5 9t11 27t14 41t11 48t3 51q-8 -8 -17 -18t-16 -18t-14 -17t-11 -16t-7 -13t-5 -8l-2 -4q2 10 2 26t-5 58t-19 76q-8 -16 -24 -47t-27 -52t-22 -46t-15 -44t-2 -31q-58 32 -131 39t-121 -3t-74 -24q44 -10 85 -27t61 -27l20 -12q-2 2 -9 4t-27 5t-42 6t-56 4t-70 -2 t-81 -11t-89 -20q32 -6 59 -11t42 -9t27 -7t16 -5l4 -2q-8 -2 -23 -5t-55 -15t-77 -24t-81 -32t-74 -42q10 2 28 4t57 4t59 0q-88 -18 -194 -101t-162 -167q62 30 109 45t63 15h16q-12 -8 -32 -25t-73 -86t-95 -157q-26 -56 -53 -94t-47 -52t-37 -20t-25 -4l-8 4q4 -2 9 -4 t22 -6t35 -6t42 -2t46 4t47 14t45 26q108 -102 323 -181t391 -65q-2 64 6 130t20 116t24 91t22 61l8 22q-4 4 -11 13t-22 38t-22 56t-4 66t25 73z" />
<glyph unicode="&#xa6;" d="M1096 88q0 -46 -33 -79t-79 -33q-22 0 -43 9t-36 24t-24 36t-9 43q0 46 33 79t79 33t79 -33t33 -79zM1892 98l-846 846l308 308q36 36 73 63t64 40t49 21t32 8l12 2l18 18t50 42t75 52t89 39t100 13q54 44 74 99t7 102t-30 79t-33 48q-12 12 -34 26t-59 27t-74 14 t-81 -20t-80 -65q4 -46 -12 -98t-41 -92t-50 -73t-43 -51l-18 -18q-2 -12 -6 -32t-37 -80t-91 -116q-22 -24 -308 -310q-108 108 -193 194t-115 116q-26 26 -48 53t-35 48t-23 42t-15 36t-8 26t-4 17l-1 6l-10 10t-24 26t-34 41t-36 53t-33 63t-21 68t-6 71q-44 56 -99 75 t-102 6t-79 -30t-48 -33t-33 -48t-30 -79t7 -102t74 -99q48 4 99 -12t91 -41t73 -50t51 -43l18 -18q12 0 32 -5t80 -38t118 -91q32 -34 260 -260l48 -48q-358 -356 -846 -846h-24l-52 -54l34 -34l34 -34l54 54v22l846 846q358 -356 846 -846v-22l54 -54l34 34l34 34l-52 54 h-24zM1944 1794h2q2 -4 3 -8t3 -8h-8v16zM1944 1772h10q2 -4 3 -8t1 -8h-14v16zM1944 1750h16l4 -16h-20v16zM1944 1728h20v-16h-20v16zM1944 1706h20v-8t-2 -8h-18v16zM1944 1684h18q-2 -10 -4 -16h-14v16zM1944 1662h12q-2 -8 -6 -16h-6v16zM1944 1638h4l-4 -4v4z M1650 1712h-12l12 8v-8zM1672 1506l-16 -12v12h16zM1672 1512h-16v16h16v-16zM1672 1534h-16v16h16v-16zM1672 1556h-16v16h16v-16zM1672 1578h-16v4v12h14h2v-16zM1672 1600h-16v16h16v-16zM1672 1636v-14h-12h-4v16h16v-2zM1672 1646h-16v14h16v-14zM1672 1668h-16v16h16 v-16zM1672 1690h-16v16h16v-16zM1672 1712h-16v12q4 2 6 4h10v-16zM1672 1762l-16 -4v14h16v-10zM1672 1778h-16v16h16v-16zM1672 1800h-16v16h16v-16zM1672 1822h-16v16h12h4v-16zM1738 1836l-2 1l-2 1h4v-2zM1784 1812q-2 0 -8 4h8v-4zM1806 1570l-4 -2q2 2 2 4h2v-2z M1828 1600h-14q2 10 4 16h10v-16zM1828 1622h-8l2 16h6v-16zM1828 1646h-6q2 6 2 16h4v-16zM1828 1668h-4v16h4v-16zM1828 1690h-6q0 8 -4 16h10v-16zM1872 1720q-4 6 -4 8h4v-8zM1916 1622h-2q-2 10 -4 16h6v-16zM1916 1646h-8q-4 6 -6 16h14v-16zM1922 1832l4 -4t4 -6h-8 v10zM1922 1816h12l4 -8v-8h-16v16zM1922 1794h16v-16h-16v16zM1922 1772h16v-16h-16v16zM1922 1750h16v-16h-16v16zM1922 1728h16v-16h-16v16zM1922 1706h16v-16h-16v16zM1922 1684h16v-16h-16v16zM1922 1662h16v-16h-16v16zM1922 1638h16v-16h-16v16zM1922 1616h12 q-4 -8 -12 -16v16zM1922 1598zM1900 1858l8 -6q2 -2 6 -8h-14v14zM1900 1826v12h14h2v-16h-16v4zM1900 1816h16v-16h-16v16zM1900 1794h16v-16h-16v16zM1900 1772h16v-16h-16v16zM1900 1750h16v-16h-16v16zM1900 1728h16v-16h-16v16zM1900 1706h16v-16h-16v16zM1900 1684h16 v-16h-16v16zM1878 1874l10 -8h-10v8zM1878 1860h16v-2v-14h-12h-4v16zM1878 1838h16v-16h-16v16zM1878 1804v12h14h2v-16h-16v4zM1878 1794h16v-16h-16v16zM1878 1772h16v-16h-16v16zM1878 1750h16v-16h-16v16zM1878 1728h16v-16h-16v16zM1888 1690q-2 8 -8 16h14v-16h-6z M1894 1684v-6q0 2 -2 6h2zM1878 1660q2 -2 3 -5t1 -5t2 -4h-6v14zM1878 1638h8q2 -6 6 -16h-14v16zM1878 1616h14q2 0 2 -1v-3v-12h-16v16zM1878 1594h16v-8l6 2l2 -6h8h-2h-30v12zM1856 1882h8l8 -4v-12h-16v16zM1856 1860h16v-16h-16v16zM1856 1838h16v-2v-14h-12h-4v16z M1856 1816h16v-16h-16v16zM1856 1782v12h12h4v-16h-16v4zM1856 1772h16v-16h-16v16zM1856 1750h16v-16h-10q-4 6 -6 10v6zM1856 1706h2l4 -8l4 -8h-10v16zM1856 1684h12q2 -2 3 -5l1 -3v-8h-16v16zM1856 1662h16v-16h-16v16zM1856 1638h16v-16h-16v16zM1856 1616h16v-16h-16 v16zM1856 1594h16v-12q-4 0 -8 -1t-8 -1v14zM1834 1896l16 -6h-16v6zM1834 1882h16v-16h-16v16zM1834 1860h16v-16h-16v16zM1834 1838h16v-16h-16v16zM1834 1816h16v-2v-14h-14h-2v16zM1834 1794h16v-16h-16v16zM1834 1772h12h4v-16h-4q-6 8 -12 14v2zM1834 1744q2 -4 8 -10 h-8v10zM1834 1728h12l4 -8v-8h-16v16zM1834 1706h16v-16h-16v16zM1834 1684h16v-16h-16v16zM1834 1662h16v-16h-16v16zM1834 1638h16v-16h-16v16zM1834 1616h16v-16h-16v16zM1834 1594h16v-14h-2q-2 -2 -4 -2h-10v16zM1812 1904q8 -2 16 -6v-8h-16v14zM1812 1882h16v-16h-16 v16zM1812 1860h16v-16h-16v16zM1812 1838h16v-16h-16v16zM1812 1816h16v-16h-16v16zM1812 1794h16v-2v-2v-12h-2l-7 7t-7 5v4zM1812 1768l6 -6l6 -6h-12v12zM1812 1736v14h12h4v-16h-16v2zM1812 1728h16v-16h-12q-2 6 -4 10v6zM1812 1594h16v-16h-16v16zM1812 1572h2h-2v0z M1790 1908l16 -4v-14h-16v18zM1790 1882h16v-16h-16v16zM1790 1860h16v-16h-16v16zM1790 1838h16v-16h-16v16zM1790 1816h16v-16h-6q-6 4 -10 8v8zM1790 1786q2 -2 5 -4t5 -4h-10v8zM1790 1772h16v-4v-12h-14h-2v16zM1790 1750h16v-16h-2l-6 8q-4 4 -8 6v2zM1790 1714v14h4 l4 -8l4 -8h-12v2zM1790 1706h14q0 -2 1 -3l1 -1v-12h-16v16zM1790 1684h16v-16h-16v16zM1790 1662h16v-2q-2 -8 -4 -14h-12v16zM1790 1638h10q-4 -6 -8 -16h-2v16zM1768 1908h8h8v-18h-16v18zM1768 1882h16v-16h-16v16zM1768 1860h16v-16h-16v16zM1768 1838h16v-16h-16v16z M1768 1794h8l8 -4v-12h-16v16zM1768 1772h16v-16h-6l-10 4v12zM1768 1746q2 0 5 -2t6 -3t5 -3v-4h-14h-2v12zM1768 1728h16v-16h-16v16zM1768 1692v14h12h4v-16h-16v2zM1768 1684h16v-16h-16v16zM1768 1662h16v-16h-16v16zM1768 1638h16v-16h-16v16zM1768 1616h16v-10 q-2 -2 -4 -6h-12v16zM1768 1594h8l-8 -12v12zM1746 1906l16 2v-18h-16v16zM1746 1882h16v-16h-16v16zM1746 1860h16v-16h-16v16zM1746 1838h16v-14q-8 4 -16 10v4zM1746 1810q6 -4 16 -8v-2h-16v10zM1746 1794h16v-16h-16v16zM1746 1772h16v-8q-8 2 -16 2v6zM1746 1750h12 q2 0 4 -2v-14h-16v16zM1746 1728h16v-4v-12h-14h-2v16zM1746 1706h16v-16h-16v16zM1746 1670v14h12h4v-16h-16v2zM1746 1662h16v-16h-16v16zM1746 1638h16v-16h-16v16zM1746 1616h16v-16h-16v16zM1746 1594h16v-16h-16v16zM1746 1572h14q-6 -8 -14 -16v16zM1722 1902l16 4 v-16h-16v12zM1722 1882h16v-16h-16v16zM1722 1860h16v-16h-16v16zM1722 1816h10l6 -4v-12h-16v16zM1722 1794h16v-16h-16v16zM1722 1772h16v-4h-16v4zM1722 1750h16v-16h-16v16zM1722 1728h16v-16h-16v16zM1722 1706h16v-4v-12h-12h-4v16zM1722 1684h16v-16h-16v16z M1722 1648v12h14v2h2v-16h-16v2zM1722 1638h16v-16h-16v16zM1722 1616h16v-16h-16v16zM1722 1594h16v-16h-16v16zM1722 1572h16v-16h-16v16zM1722 1550h16v-2q-4 -6 -6 -8q-2 0 -6 -2q-2 -2 -4 -2v14zM1700 1894q8 4 16 6v-10h-16v4zM1700 1882h16v-16h-16v16zM1700 1860h16 v-14q-8 4 -16 6v8zM1700 1828q8 -2 16 -6h-16v6zM1700 1816h16v-16h-16v16zM1700 1794h16v-16h-16v16zM1700 1772h16v-4h-16v4zM1700 1746l16 4v-16h-16v12zM1700 1728h16v-16h-16v16zM1700 1706h16v-16h-16v16zM1700 1684h16v-4v-12h-12h-4v16zM1700 1660h16v-14h-16v14z M1700 1626v12h14h2v-16h-16v4zM1700 1616h16v-16h-16v16zM1700 1594h16v-16h-16v16zM1700 1572h16v-16h-16v16zM1700 1550h16v-16h-16v16zM1700 1528h10h-2q-4 -4 -8 -4v4zM1694 1892v-2h-4q2 0 4 2zM1678 1882h16v-16h-16v16zM1678 1860h16v-6q-8 2 -16 6zM1678 1836 q8 -2 16 -6v-8h-16v14zM1678 1816h16v-16h-16v16zM1678 1794h16v-16h-16v16zM1678 1772h16v-6q-8 0 -16 -2v8zM1678 1736q10 4 16 8v-10h-16v2zM1678 1728h16v-16h-16v16zM1678 1706h16v-16h-16v16zM1678 1684h16v-16h-16v16zM1678 1660h16v-2v-12h-12h-4v14zM1678 1638h16 v-16h-16v16zM1678 1604v12h14h2v-16h-16v4zM1678 1594h16v-16h-16v16zM1678 1572h16v-16h-16v16zM1678 1550h16v-16h-16v16zM1678 1528h16v-8q-8 -6 -12 -8h-4v16zM1672 1880v-14h-18q10 8 18 14zM1654 1866zM1638 1854v-8l6 -2l-4 -6h10v-16h-12v30v2zM1638 1816h12v-16 h-14q2 8 2 16zM1634 1788l2 6h14v-16h-16v10zM1634 1772h16v-16h-16v16zM1634 1706h16v-16h-16v16zM1634 1684h16v-16h-16v16zM1634 1660h16v-14h-16v14zM1634 1638h16v-16h-16v16zM1634 1616h16v-2v-14h-12h-4v16zM1634 1594h16v-16h-16v16zM1634 1560v12h14h2v-16h-16v4z M1634 1550h16v-16h-16v16zM1634 1528h16v-16h-16v16zM1634 1506h16v-16h-16v16zM1634 1484h8q-2 -2 -6 -4l-2 -2v6zM1628 1760v-4v1v3zM1628 1750v-2h-2l-2 -2q0 2 1 3l1 1h2zM1612 1690q8 8 16 14v-14h-16zM1612 1684h16v-16h-16v16zM1612 1660h16v-14h-16v14zM1612 1638 h16v-16h-16v16zM1612 1616h16v-16h-16v16zM1612 1594h16v-2v-14h-12h-4v16zM1612 1572h16v-16h-16v16zM1612 1538v12h12h4v-16h-16v4zM1612 1528h16v-16h-16v16zM1612 1506h16v-16h-16v16zM1612 1484h16v-10q-4 -4 -8 -6h-8v16zM1612 1462zM1472 1404q-4 2 -7 5t-5 7h12v-12 zM1596 1676l8 8h2v-16h-14zM1590 1660h16v-14h-16v14zM1590 1638h16v-16h-16v16zM1590 1616h16v-16h-16v16zM1590 1594h16v-16h-16v16zM1590 1572h16v-2v-14h-14h-2v16zM1590 1550h16v-16h-16v16zM1590 1516v12h12h4v-16h-16v4zM1590 1506h16v-16h-16v16zM1590 1484h16v-16 h-16v16zM1590 1462h16v-6l-4 -4t-5 -3t-5 -3h-2v16zM1584 1654v-8h-6q2 0 4 3t2 5zM1568 1626l8 12h8v-16h-16v4zM1568 1616h16v-16h-16v16zM1568 1594h16v-16h-16v16zM1568 1572h16v-16h-16v16zM1568 1550h16v-2v-2v-12h-14h-2v16zM1568 1528h16v-16h-16v16zM1568 1492v14 h12h4v-16h-16v2zM1568 1484h16v-16h-16v16zM1568 1462h16v-16h-16v16zM1568 1440h16v-2q-8 -6 -10 -10l-6 -2v14zM1562 1616v-16h-12q4 8 12 16zM1546 1594h16v-16h-16v16zM1546 1572h16v-16h-16v16zM1546 1550h16v-16h-16v16zM1546 1528h16v-4v-12h-14h-2v16zM1546 1506h16 v-16h-16v16zM1546 1470v14h12h4v-16h-16v2zM1546 1462h16v-16h-16v16zM1546 1440h16v-16h-16v16zM1546 1418v-2v2zM1540 1586v-8h-6q2 4 6 8zM1524 1564q0 2 6 8h10v-16h-16v8zM1524 1550h16v-16h-16v16zM1524 1528h16v-16h-16v16zM1524 1506h16v-4v-12h-14h-2v16z M1524 1484h16v-16h-16v16zM1524 1448v14h12h4v-16h-16v2zM1524 1440h16v-16h-16v16zM1524 1418h16v-4q-4 -2 -8 -3t-8 -3v10zM1518 1556zM1502 1536q2 4 4 7t6 7h6v-16h-16v2zM1502 1528h16v-16h-16v16zM1502 1506h16v-16h-16v16zM1502 1484h16v-4v-12h-14h-2v16zM1502 1462 h16v-16h-16v16zM1502 1426v14h12h4v-16h-16v2zM1502 1418h16v-10q-10 -4 -16 -4v14zM1484 1518l10 10v-16h-12zM1478 1506h16v-16h-16v16zM1478 1484h16v-16h-16v16zM1478 1462h16v-4v-12h-12h-4v16zM1478 1440h16v-16h-16v16zM1478 1404v12h14v2h2v-16h-8h-8v2zM1472 1490z M1470 1484h2v-16h-8q2 8 6 16zM1462 1462h10v-16h-12q0 6 2 16zM1472 1440v-4v-12h-12h-2v16h14zM56 1634l-4 4h4v-4zM56 1646h-6l-6 16h12v-16zM56 1668h-14l-4 16h18v-16zM56 1690h-18q-2 8 -2 16h20v-16zM56 1712h-20v16h20v-16zM56 1734h-20l4 16h16v-16zM56 1756h-14 q0 8 4 16h10v-16zM56 1778h-8q2 8 6 16h2v-16zM350 1838h10q-2 2 -2 6h-2l6 2v8v-2v-30h-12v16zM350 1816h12q0 -4 1 -8t1 -8h-14v16zM350 1794h14q2 -4 2 -6v-10h-16v16zM350 1772h16v-16h-16v16zM350 1720l12 -8h-12v8zM350 1706h16v-16h-16v16zM350 1684h16v-16h-16v16z M350 1660h16v-14h-16v14zM350 1638h16v-16h-16v16zM328 1838h4h12v-16h-16v16zM328 1816h16v-16h-16v16zM328 1794h16v-16h-16v16zM328 1772h16v-14q-10 2 -16 4v10zM328 1728h10l6 -4v-12h-16v16zM328 1706h16v-16h-16v16zM328 1684h16v-16h-16v16zM328 1660h16v-14h-16v14 zM306 1892l4 -2h-4v2zM306 1882h16v-16h-16v16zM306 1860h16q-4 -2 -8 -3t-8 -3v6zM306 1830q8 4 16 6v-14h-16v8zM306 1816h16v-16h-16v16zM306 1794h16v-16h-16v16zM306 1772h16v-8l-16 2v6zM306 1744l16 -8v-2h-16v10zM306 1728h16v-16h-16v16zM306 1706h16v-16h-16v16z M306 1684h16v-16h-16v16zM284 1900q8 -2 16 -6v-4h-16v10zM284 1882h16v-16h-16v16zM284 1860h16v-8q-8 -2 -16 -6v14zM300 1828v-6h-16q6 4 16 6zM284 1816h16v-16h-16v16zM284 1794h16v-16h-16v16zM284 1772h16v-4h-16v4zM284 1750q4 -2 8 -3t8 -1v-12h-16v16zM284 1728 h16v-16h-16v16zM284 1706h16v-16h-16v16zM262 1906q8 -2 14 -4v-12h-14v16zM262 1882h14v-16h-14v16zM262 1860h14v-16h-14v16zM262 1838h4h-2l-2 -2v2zM262 1812q4 4 6 4h8v-16h-14v12zM262 1794h14v-16h-14v16zM262 1772h14v-4h-14v4zM262 1750h14v-16h-14v16zM262 1728 h14v-16h-14v16zM238 1908q10 0 16 -2v-16h-16v18zM238 1882h16v-16h-16v16zM238 1860h16v-16h-16v16zM238 1838h16v-4q-8 -4 -16 -10v14zM238 1802l16 8v-10h-16v2zM238 1794h16v-16h-16v16zM238 1772h16v-6q-8 0 -16 -2v8zM238 1748q2 2 4 2h12v-16h-16v14zM216 1908h16 v-18h-16v18zM216 1882h16v-16h-16v16zM216 1860h16v-16h-16v16zM216 1838h16v-16h-16v16zM216 1816h8l-8 -4v4zM216 1790l8 4h8v-16h-16v12zM194 1904l16 4v-18h-16v14zM194 1882h16v-16h-16v16zM194 1860h16v-16h-16v16zM194 1838h16v-16h-16v16zM194 1816h16v-8 q-4 -4 -10 -8h-6v16zM210 1786v-8h-10q2 2 5 4t5 4zM172 1898q8 4 16 6v-14h-16v8zM172 1882h16v-16h-16v16zM172 1860h16v-16h-16v16zM172 1838h16v-16h-16v16zM172 1816h16v-16h-16v16zM150 1890q4 2 8 3t8 3v-6h-16zM150 1882h16v-16h-16v16zM150 1860h16v-16h-16v16z M150 1838h16v-16h-16v16zM128 1878l8 4h8v-16h-16v12zM128 1860h16v-16h-16v16zM122 1874v-8h-10q2 2 5 4t5 4zM106 1860h16v-16h-4h-12v14v2zM122 1838v-16h-16v16h16zM106 1690v16h14l-8 -16h-6zM108 1684q0 -2 -1 -3t-1 -3v6h2zM92 1852q4 2 8 6v-14h-14zM84 1838h2h14 v-12v-4h-16v16zM84 1816h16v-16h-16v16zM84 1794h16v-16h-16v16zM84 1772h16v-16h-16v16zM84 1750h16v-16h-16v16zM84 1728h16v-16h-16v16zM84 1706h16v-16h-16v16zM84 1684h16v-16h-16v16zM84 1662h14q-2 -6 -3 -10t-3 -6h-8v16zM78 1600q-8 8 -12 16h12v-16zM78 1622h-16 v16h16v-16zM78 1646h-16v16h16v-16zM78 1668h-16v16h16v-16zM78 1690h-16v16h16v-16zM78 1712h-16v16h16v-16zM78 1734h-16v16h16v-16zM78 1756h-16v16h16v-16zM78 1778h-16v16h16v-16zM78 1800h-16v8l4 8h12v-16zM78 1822h-8q2 4 4 6l4 4v-10zM78 1598zM86 1622h-2v16h6 q-2 -6 -4 -16zM122 1582h-15h-15l-2 2l8 -2q0 2 2 6q2 -2 3 -2h3v8h16v-12zM122 1600h-16v12v4h16v-16zM122 1622h-14q2 4 3 8t3 8h8v-16zM122 1646h-6q2 2 3 6t3 8v-14zM122 1712h-16v16h16v-16zM122 1734h-16v16h16v-16zM122 1756h-16v16h16v-16zM122 1778h-16v16h16v-16z M122 1800h-16v16h2h14v-12v-4zM128 1838h16v-16h-4h-12v14v2zM144 1816v-16h-16v16h16zM128 1728h4l-4 -8v8zM144 1580q-4 0 -8 1t-8 1v12h16v-14zM144 1600h-16v16h16v-16zM144 1622h-16v16h16v-16zM144 1646h-16v16h16v-16zM144 1668h-16v8l4 8h12v-16zM144 1690h-10l8 16 h2v-16zM144 1744q-4 -4 -6 -10h-10v16h16v-6zM144 1756h-16v16h16v-16zM144 1778h-16v16h4h12v-12v-4zM150 1816h16v-16h-2h-14v14v2zM150 1778v16h16v-16h-16zM166 1772v-2l-7 -7t-5 -7h-4v16h4h12zM166 1578h-10q-2 0 -4 2h-2v14h16v-16zM166 1600h-16v16h16v-16z M166 1622h-16v16h16v-16zM166 1646h-16v16h16v-16zM166 1668h-16v16h16v-16zM166 1690h-16v16h16v-16zM166 1712h-16v8l4 8h12v-16zM166 1734h-8q4 6 8 10v-10zM172 1794h16v-4q-4 -2 -7 -5l-7 -7h-2v12v2v2zM188 1768v-12h-12q2 2 3 4t3 2zM176 1662l2 -16h-6v16h4z M172 1668v16h4v-8v-8h-4zM178 1638q2 -6 2 -16h-8v16h6zM182 1616l4 -16h-14v16h10zM178 1690h-6v16h10q-4 -8 -4 -16zM188 1572h-2h2zM188 1578h-16v16h16v-16zM188 1722q-2 -2 -3 -5t-1 -5h-12v16h16v-6zM188 1734h-16v16h4h12v-14v-2zM194 1772h16v-16h-2h-14v12v4z M210 1750v-2q-4 -2 -8 -6l-6 -8h-2v16h16zM194 1572h2q0 -2 2 -2v-2q0 2 -1 2h-3v2zM210 1622h-2q-4 10 -8 16h10v-16zM210 1646h-12q-2 6 -4 14v2h16v-16zM210 1668h-16v16h16v-16zM210 1690h-16v12l2 4h14v-16zM210 1712h-12l8 16h4v-14v-2zM216 1772h16v-12l-10 -4h-6v16 zM230 1734h-14v4l8 4l8 4v-12h-2zM232 1728v-16h-16v16h16zM232 1582l-8 12h8v-12zM232 1600h-12q-2 4 -4 6v10h16v-16zM232 1622h-16v16h16v-16zM232 1646h-16v16h16v-16zM232 1668h-16v16h16v-16zM232 1690h-16v16h4h12v-14v-2zM238 1728h16v-16h-2h-14v12v4zM254 1706 v-16h-16v16h16zM254 1556q-4 4 -7 8t-7 8h14v-16zM254 1578h-16v16h16v-16zM254 1600h-16v16h16v-16zM254 1622h-16v16h16v-16zM254 1646h-16v16h16v-16zM254 1668h-16v16h4h12v-14v-2zM262 1706h14v-16h-2h-12v12v4zM276 1684v-16h-14v16h14zM278 1536l-10 4q-2 4 -6 8v2 h16v-14zM278 1556h-16v16h16v-16zM278 1578h-16v16h16v-16zM278 1600h-16v16h16v-16zM278 1622h-16v16h16v-16zM278 1646h-16v16h2v-2h12v-12h2v-2zM284 1684h16v-16h-4h-12v12v4zM300 1660v-14h-16v14h16zM300 1524q-6 2 -10 4h10v-4zM300 1534h-16v16h16v-16zM300 1556 h-16v16h16v-16zM300 1578h-16v16h16v-16zM300 1600h-16v16h16v-16zM300 1622h-16v16h2h14v-12v-4zM306 1660h16v-14h-4h-12v12v2zM322 1638v-16h-16v16h16zM322 1512h-4q-4 2 -12 8v8h16v-16zM322 1534h-16v16h16v-16zM322 1556h-16v16h16v-16zM322 1578h-16v16h16v-16z M322 1600h-16v16h2h14v-12v-4zM328 1638h16v-16h-4h-12v14v2zM344 1616v-16h-16v16h16zM344 1494l-16 12h16v-12zM344 1512h-16v16h16v-16zM344 1534h-16v16h16v-16zM344 1556h-16v16h16v-16zM344 1578h-16v16h2h14v-12v-4zM328 1866v14q8 -6 18 -14h-18zM346 1866z M350 1616h16v-16h-4h-12v14v2zM366 1594v-16h-16v16h16zM366 1478l-3 2t-5 4h8v-6zM366 1490h-16v16h16v-16zM366 1512h-16v16h16v-16zM366 1534h-16v16h16v-16zM366 1556h-16v16h2h14v-12v-4zM372 1760v-4v4zM372 1750h2l1 -1q1 -1 1 -3q-2 2 -4 2v2zM372 1704l16 -14h-16 v14zM372 1684h16v-16h-16v16zM372 1660h16v-14h-16v14zM372 1638h16v-16h-16v16zM372 1616h16v-16h-16v16zM372 1594h16v-16h-4h-12v14v2zM388 1572v-16h-16v16h16zM388 1462zM388 1468h-8l-8 6v10h16v-16zM388 1490h-16v16h16v-16zM388 1512h-16v16h16v-16zM388 1534h-16 v16h4h12v-12v-4zM528 1490zM528 1484h2q4 -8 6 -16h-8v16zM528 1462h10q2 -10 2 -16h-12v16zM506 1528l10 -10q0 -2 2 -6h-12v16zM506 1506h14v-16h-14v16zM506 1484h14v-16h-14v16zM482 1556zM482 1550h6q8 -10 10 -14v-2h-16v16zM482 1528h16v-16h-16v16zM482 1506h16v-16 h-16v16zM460 1586q4 -4 6 -8h-6v8zM460 1572h10q4 -4 6 -8v-8h-16v16zM460 1550h16v-16h-16v16zM460 1528h16v-16h-16v16zM438 1616q4 -4 6 -8t6 -8h-12v16zM438 1594h16v-16h-16v16zM438 1572h16v-16h-16v16zM438 1550h16v-16h-16v16zM416 1654q4 -6 6 -8h-6v8zM416 1638h8 l8 -12v-4h-16v16zM416 1616h16v-16h-16v16zM416 1594h16v-16h-16v16zM416 1572h16v-16h-16v16zM394 1684h2l8 -8q2 -2 4 -6v-2h-14v16zM394 1660h16v-14h-16v14zM394 1638h16v-16h-16v16zM394 1616h16v-16h-16v16zM394 1594h16v-16h-16v16zM394 1572h16v-16h-2h-2h-12v14v2z M410 1550v-16h-16v16h16zM410 1446h-2l-14 10v6h16v-16zM410 1468h-16v16h16v-16zM410 1490h-16v16h16v-16zM410 1512h-16v16h4h12v-12v-4zM416 1550h16v-16h-2h-14v12v2v2zM432 1528v-16h-16v16h16zM432 1426l-6 2l-10 10v2h16v-14zM432 1446h-16v16h16v-16zM432 1468h-16 v16h16v-16zM432 1490h-16v16h4h12v-14v-2zM438 1528h16v-16h-2h-14v12v4zM454 1506v-16h-16v16h16zM454 1416v2v-2zM454 1424h-16v16h16v-16zM454 1446h-16v16h16v-16zM454 1468h-16v16h4h12v-14v-2zM460 1506h16v-16h-2h-14v12v4zM476 1484v-16h-16v16h16zM476 1408 q-6 4 -16 6v4h16v-10zM476 1424h-16v16h16v-16zM476 1446h-16v16h4h12v-14v-2zM482 1484h16v-16h-2h-14v12v4zM498 1462v-16h-16v16h16zM498 1404q-6 0 -16 4v10h16v-14zM498 1424h-16v16h4h12v-14v-2zM506 1462h14v-16h-2h-12v12v4zM520 1440v-16h-14v16h14zM522 1402h-16 v16h2v-2h12v-12h2v-2zM535 1409q-3 -3 -7 -5v12h12q-2 -4 -5 -7zM542 1424h-2h-12v12v4h14v-16z" />
<glyph unicode="&#xa9;" d="M1432 914l-38 -10l-36 104q104 -4 134 16q48 -6 110 -2t58 24q-2 6 -21 11t-53 4t-70 -9q-8 8 -16 13t-12 7l-4 2l-4 28q6 -2 17 -4t41 -2t52 10q18 -18 70 4q6 -16 14 -17t14 11l52 12l20 2l4 4q4 4 3 8t-5 6l-2 2l-12 46v4t-8 6t-23 4t-45 2t-52 4l-24 4q-52 -4 -86 2 l-92 26q-2 10 -6 26t-15 52t-21 58q24 48 10 122l26 -2l4 -32l26 2v22q54 -28 56 8q14 0 18 6t0 14q14 0 17 3t7 15q32 -8 34 10q20 6 31 32t11 80q-2 18 -6 31t-10 32t-15 32t-22 27t-31 22t-42 13t-55 4t-69 -9q-48 -12 -126 -56t-76 -62q-52 10 -84 13t-63 1t-71 -12 q-62 -14 -125 -52t-127 -108q-44 -46 -64 -88t-19 -72t9 -58h-28q-24 2 -33 2t-24 -3t-12 -12t3 -25q2 -2 4 -10t4 -11t7 -5t11 -2q16 2 18 5t6 19h16q10 -20 16 -30q8 -10 14 -6l8 -16q0 -2 2 -3t7 -3t9 -2l46 -180l24 -14l8 -46l-36 -8l18 -72q-6 -2 -12 -6t-15 -19 t-5 -33l-10 -6q-124 122 -294 88q-20 -4 -47 -15t-66 -35t-69 -60t-57 -89t-31 -121t10 -160q32 -156 157 -236t253 -54q166 34 248 208q42 -14 60 -18t24 -4t26 4q14 4 25 8t17 8l4 4q14 -36 18 -56q6 -40 26 -36q8 0 12 3l4 3v2q30 12 64 14q2 4 2 8v6v2l40 -4q2 0 5 2 t8 12t-5 28q-34 10 -74 50t-54 72q0 20 -5 35t-7 19l-4 4q256 306 298 362q12 16 24 26t20 14t14 6t8 0h2l12 -44q-4 -2 -9 -5t-23 -16t-33 -27t-37 -37t-37 -48t-33 -60t-24 -71t-10 -83t10 -95q22 -112 93 -193t168 -115t197 -16q60 14 118 50t107 92t69 143t0 187 q-26 132 -111 215t-176 106t-171 7zM626 1240l-8 -2q-10 12 -16 26l20 4zM650 1246q-6 0 -12 6t-4 16h14l20 -16q-8 -4 -18 -6zM766 980h-8l-62 252l64 -36q46 -114 124 -182q-8 -10 -14 -18t-10 -12t-6 -7t-2 -5l-82 -6zM888 696q2 -14 -1 -40t-7 -46l-4 -20q-10 2 -18 6 q10 16 -6 48q-10 18 -13 71t9 93q8 20 26 39t32 29l16 8q-42 -80 -34 -188zM1168 920q-8 -10 -23 -27t-53 -64t-70 -85q8 18 11 54t13 60q6 12 14 26t10 19t6 17t-2 22q36 0 76 2q18 2 23 -4t-1 -14zM1236 1038q2 -10 2 -12t4 -10t8 -6t12 0l34 12q0 -2 2 -6t-6 -11t-24 -9 l-208 -14q16 26 66 54q30 16 49 31t33 41t12 56q-4 22 -19 43t-27 31t-48 33t-48 29q-42 30 -71 48t-45 26l10 10q32 -4 60 18h25h19h6q4 -4 14 -7t35 -8t47 -3q22 -94 72 -204q0 -2 2 -10t3 -10t3 -7t5 -7l6 -4t9 -4l20 -4l6 -14l20 2l4 -10l-11 -2t-26 -7t-29 -13t-22 -22 t-4 -30z" />
<glyph unicode="&#xab;" d="M1148 1560l-60 200l-800 -800l800 -800l60 200l-600 600zM1712 1560l-60 200l-800 -800l800 -800l60 200l-600 600z" />
<glyph unicode="&#xad;" d="M200 1120h1600v-320h-1600v320z" />
<glyph unicode="&#xae;" d="M1922 476h-680v-142q0 -8 1 -19t18 -29t45 -18h338h4t9 -2t13 -4t13 -7t13 -11t10 -17t4 -25q0 -30 -17 -47t-33 -21l-16 -2h-1314q-6 0 -17 3t-30 20t-19 47t17 46t33 18l16 2h364q6 0 17 2t29 18t18 46v142h-680q-54 0 -72 50q-6 14 -6 28v1152q0 32 23 55t55 23h1844 q20 0 38 -10t29 -29t11 -39v-1152q0 -32 -23 -55t-55 -23zM1930 1680q0 16 -12 27t-28 11h-1780q-8 0 -14 -2t-10 -5t-8 -8t-6 -11t-2 -12v-1100q0 -16 12 -28t28 -12h1780q16 0 28 12t12 28v1100zM1660 958l-6 -68h-346v482h336v-68h-196v-140h164v-68h-164v-138h212z M1038 890l-144 482h142l62 -272q6 -20 8 -58q2 10 2 19t2 19t6 20l58 272h136l-138 -482h-134zM622 954h70v350h-70v66h276v-66h-68v-350h68v-64h-276v64zM276 890v476h138v-390h206l-4 -86h-340z" />
<glyph unicode="&#xaf;" d="M1644 584l8 128h-1288v-128l-264 -8v-128h1800v128zM1644 1344q0 32 -34 64t-68 48l-34 16h-1024q-2 -2 -7 -4t-17 -9t-23 -14t-25 -19t-24 -24t-17 -28t-7 -30v-512h1280v53v151v159v149z" />
<glyph unicode="&#xb1;" d="M1090 1322h-362v362h-364v-362h-364v-358h364v-370h358v370h368v358zM1090 594v-358h910v358h-910z" />
<glyph unicode="&#xb4;" d="M2000 1152l-848 848h848v-848z" />
<glyph unicode="&#xb6;" d="M200 552q-30 -30 -46 -48t-36 -59t-18 -77t28 -89t82 -110t110 -83t90 -28t76 18t59 36t49 46l70 70l-394 394zM1898 976q-6 4 -14 8t-14 6t-13 4t-12 3t-8 1t-7 2h-2q48 46 70 116q-68 24 -140 0q12 10 26 28t38 65t22 81q-36 20 -81 23t-71 -3l-26 -8q10 14 26 36 t35 82t7 106q-42 16 -90 6t-71 -19t-41 -19q12 18 21 41t18 71t-5 90q-32 8 -64 4t-61 -16t-51 -25t-36 -23l-12 -10q4 12 8 30t2 65t-24 85q-16 0 -34 -4t-34 -11t-32 -17t-29 -19t-23 -17t-16 -12l-6 -6q4 8 7 21t4 50t-11 69q-18 -6 -38 -16t-33 -19t-24 -17t-15 -14 l-6 -4q-2 36 -24 70q-38 -14 -77 -58t-70 -102t-60 -126t-50 -132t-37 -117t-24 -85l-8 -34l-280 -434l200 -200l2 -2l200 -200l436 280q0 -2 60 14t150 46t182 69t167 92t93 105zM1072 718h54q-2 -2 -3 -4t-3 -8t-4 -14l-148 -92l-30 28zM758 1086v-3v-3v-6v-9v-9v-11v-13 l-88 -134l-30 30l92 148zM696 1136l-4 -30l-88 -142l-8 8zM462 756l118 192l10 -8l-120 -192zM506 714l118 190l30 -30l-122 -184zM800 992q8 -2 16 -2t14 1t11 3t7 2h2q-2 0 -4 -4t-5 -19t-3 -35l-94 -116l-36 36zM568 654l124 182l36 -34l-138 -170zM642 582l-10 10 l-10 10l144 160l36 -36zM822 744l-38 38l96 108q38 2 68 18l2 4v-4l2 2l-4 -4q-4 -6 -7 -13t-7 -22t-4 -31zM694 528l-22 22l170 138l34 -36zM862 704l116 94q10 0 18 1t14 2t11 2t8 2t5 2l2 1l2 2q-2 -2 -3 -7t-3 -18t0 -27l-132 -90zM730 490l186 124l28 -30l-190 -118z M796 422l-8 8l192 118l8 -8zM1012 554l-8 10l142 86q6 0 11 1t9 1t6 1t4 3h2zM290 642l394 -394l106 104l-394 394z" />
<glyph unicode="&#xb8;" d="M1152 -52l848 848v-848h-848z" />
<glyph unicode="&#xbb;" d="M852 360l60 -200l800 800l-800 800l-60 -200l600 -600zM288 360l60 -200l800 800l-800 800l-60 -200l600 -600z" />
<glyph unicode="&#xbc;" d="M1370 1760l60 -200l-600 -600l600 -600l-60 -200l-800 800z" />
<glyph unicode="&#xbd;" d="M630 160l-60 200l600 600l-600 600l60 200l800 -800z" />
<glyph unicode="&#xbe;" d="M1952 94q-30 -2 -54 -1t-68 2t-85 6t-72 14t-52 22t-30 23t-21 28t-18 26q-18 22 -552 738l-552 -738q-6 -6 -12 -15t-10 -16t-10 -15t-14 -15t-18 -14t-24 -13t-34 -12q-88 -24 -278 -20q-18 0 -29 3t-14 13t-4 12t-1 18q-2 40 58 48q38 4 134 6t114 8q78 22 114 53 t130 155q88 118 428 570l-642 860l-2 2t-4 7t2 7q14 10 16 12l14 -6q336 -448 638 -852l638 852l14 6q4 -4 8 -6t8 -6q2 -2 1 -6t-3 -8l-2 -2q-38 -50 -101 -134t-232 -311t-309 -415q354 -472 428 -570q66 -90 100 -126t61 -51t83 -31q12 -4 42 -6t64 -2t75 -2t67 -4 q60 -8 58 -48v-4q0 -14 -2 -21t-13 -14t-33 -7zM1004 248q42 0 71 -29t29 -70t-29 -70t-70 -29t-70 29t-29 69q0 16 5 32t14 28t21 21t27 14t31 5z" />
<glyph unicode="&#xbf;" d="M1000 1952q-370 0 -650 -240q-270 -232 -334 -578q-16 -90 -16 -182q0 -204 79 -389t213 -319t319 -213t389 -79t389 79t319 213t213 319t79 389t-79 389t-213 319t-319 213t-389 79zM968 206q-74 0 -132 54t-58 130q0 38 15 73t41 60t60 40t72 15q72 0 130 -51t58 -133 q0 -54 -27 -98t-69 -67t-90 -23zM1298 936q-80 -60 -143 -123t-65 -99q-2 -38 -17 -54t-45 -16h-114q-38 0 -62 22t-24 44v82q0 74 168 240q56 58 88 98t46 73t14 67q0 14 -2 29t-8 29t-14 27t-19 23t-25 18t-32 13t-36 5q-64 0 -100 -37t-36 -71q0 -26 21 -50t39 -24h12 t8 -2t6 -6t2 -10t-8 -16t-25 -24t-40 -26t-55 -20t-68 -8q-48 0 -95 15t-87 42t-65 72t-25 101q0 46 19 94t60 94t98 81t143 57t186 22q126 0 226 -37t161 -97t92 -131t31 -145q0 -68 -18 -124t-55 -100t-65 -69t-72 -59z" />
<glyph unicode="&#xc0;" d="M1990 1364l-28 -36v-16h-12l-292 -358h30v-16h-36v12l-242 -298l-256 274l-290 -356v-8h-6l-186 -228l-240 228h-12v12l-26 24l-18 -18h8v-18h-26l-286 -290l-72 96l214 206v6h6l174 170l176 -170h20v-18h-4l66 -62l52 62h-10v18h24l422 516l130 -142h6v-4l118 -128 l402 490h-6v18h20l88 110l102 24zM1722 1330h34v-18h-34v18zM1654 1330h34v-18h-34v18zM1584 1330h34v-18h-34v18zM1516 1330h34v-18h-34v18zM1448 954h34v-16h-34v16zM1448 1330h34v-18h-34v18zM1378 954h36v-16h-36v16zM1378 1330h36v-18h-36v18zM1310 954h34v-16h-34v16z M1310 1330h34v-18h-34v18zM1242 1330h34v-18h-34v18zM1174 1330h34v-18h-34v18zM1104 1330h34v-18h-34v18zM1036 1330h34v-18h-34v18zM968 954h34v-16h-34v16zM968 1330h34v-18h-34v18zM900 954h34v-16h-34v16zM900 1330h34v-18h-34v18zM830 954h34v-16h-34v16zM830 1330h34 v-18h-34v18zM762 954h34v-16h-34v16zM762 1330h34v-18h-34v18zM694 954h34v-16h-34v16zM694 1330h34v-18h-34v18zM624 580h36v-18h-36v18zM624 954h36v-16h-36v16zM556 938v16h34v-16h-34zM522 938h-34v16h34v-16zM420 938v16h34v-16h-34zM350 938v16h34v-16h-34zM282 938 v16h34v-16h-34zM214 938v16h34v-16h-34zM180 562h-34v18h34v-18zM146 954h34v-16h-34v16zM110 562h-34v18h34v-18zM76 954h34v-16h-34v16zM328 1010q-132 0 -226 94t-94 227t94 226t226 93t226 -93t94 -227h12v-18h-14q-8 -152 -132 -242q-84 -58 -186 -60zM328 1610 q-58 0 -109 -22t-89 -59t-60 -89t-22 -110q0 -116 82 -198t198 -82t198 82t82 198t-82 198t-198 82zM328 1082q-40 0 -78 12t-69 36t-54 54t-35 68t-12 78q0 104 72 177t175 73t176 -73t73 -176t-73 -176t-175 -73zM334 1390q32 0 56 -20l24 60q-8 4 -15 7t-14 5t-15 4 t-16 2l2 38h-54l2 -40q-66 -20 -66 -74q0 -58 76 -70l14 -2q22 -4 22 -16q0 -14 -28 -14q-32 0 -68 30l-24 -62q38 -26 76 -28l-2 -38h50l-2 38q32 4 53 26t21 54q0 36 -23 51t-63 21q-28 2 -28 12q4 14 22 16zM934 562h-34v18h34v-18zM1002 562h-34v18h34v-18zM1070 562 h-34v18h34v-18zM1138 562h-34v18h34v-18zM1208 562h-34v18h34v-18zM1276 562h-34v18h34v-18zM1344 562h-34v18h34v-18zM1414 562h-36v18h36v-18zM1482 562h-34v18h34v-18zM1550 562h-34v18h34v-18zM1618 562h-34v18h34v-18zM1688 562h-36v18h36v-18zM1756 938h-34v16h34v-16 zM1756 562h-34v18h34v-18zM1824 938h-34v16h34v-16zM1824 562h-34v18h34v-18zM1892 938h-34v16h34v-16zM1892 562h-34v18h34v-18zM1962 938h-34v16h34v-16zM1962 562h-34v18h34v-18z" />
<glyph unicode="&#xc1;" d="M1990 286q-22 -40 -124 -65t-210 -9q-120 18 -171 43t-49 79q0 8 1 16t2 15t1 11l-440 576l-440 -576q2 -16 4 -42q0 -38 -26 -62t-70 -36t-124 -24q-78 -10 -147 -2t-121 29t-66 47q-10 28 -9 63t25 57t60 4q76 -36 218 -30q34 0 68 6t69 13t65 9h16l450 582l-506 660 l-6 2l-22 30q-2 0 -3 2t1 9t8 11l30 6q2 -4 5 -8l9 -12t8 -12l2 -6l502 -646l502 646l2 6q2 2 7 10t11 14l4 8q14 10 30 -6q6 -4 8 -10t0 -10l-2 -2l-22 -30l-6 -2l-506 -660l450 -582h8h8q30 -2 65 -9t69 -13t68 -6q40 -2 78 0t76 10t64 20q58 28 80 -34q16 -50 -4 -90z M320 234q2 0 6 1t7 3t5 4q-2 0 -5 -1t-6 -1h-9zM318 248l28 2v-4q6 2 12 6t11 7t9 7t9 8t9 8l8 8h-2q-14 -2 -36 -4t-52 -4zM314 232l-2 -2l-2 10h-25h-29l-14 -20q38 0 72 12zM216 220h22l-4 4l12 16q-4 0 -10 2q-10 0 -19 1t-19 1l-4 -20q14 -2 22 -4zM198 284 q-54 4 -102 20l-16 -28q44 -16 112 -22zM100 312q48 -16 100 -20l10 40q-22 2 -39 5t-29 6t-22 5zM112 350q-18 4 -32 10q-12 6 -18 2q-4 -2 -10 -10q-4 -10 -4 -14q4 -8 10 -12q2 0 2 -2l30 -10zM184 224l6 20q-32 4 -58 10l-14 -18q28 -6 66 -12zM116 236l-6 4l12 16 q-26 4 -46 12l-10 -14q8 -4 16 -7l16 -6t18 -5zM60 256h-2l10 16q-12 4 -20 8q-22 14 -36 30q12 -34 48 -54zM10 320l2 2q12 -20 40 -34l20 -8l14 26q-18 6 -30 12h-2q-10 6 -12 14l-34 -6q2 -4 2 -6zM8 334l32 6q0 6 6 16l3 6t3 4l4 4l-10 38q-34 -12 -38 -74zM84 404 q-6 2 -14 4t-16 2l10 -38q4 0 9 -1t9 -3q16 -6 34 -10l16 28q-28 8 -48 18zM300 354q-64 2 -134 22q-16 4 -26 8l-16 -28q26 -6 88 -16l4 24l8 -2l-4 -24q36 -6 82 -4zM302 324q-46 0 -84 6l-10 -40h21h21h56zM250 280q-22 0 -44 2l-6 -30q52 -4 110 -4l-4 34q-28 -2 -56 -2 zM382 358h-14q-32 -4 -60 -4l2 -20q20 0 40 2t36 4zM310 324l4 -34q18 2 36 3t28 3t20 2h2l-10 34q-18 -4 -38 -5t-42 -3zM390 358l6 -18l18 4q10 2 20 2l2 -8h-2q-16 -2 -36 -6l10 -32l2 -6q4 6 10 12t10 13t5 12t1 9t-3 7t-7 5t-10 4t-12 2h-14zM1990 320q0 2 1 3t1 3 l-34 6q-2 -8 -12 -14h-2q-12 -6 -30 -12l14 -26q12 4 20 8q28 14 40 34zM1910 314q10 2 17 5t13 5l2 2q6 2 7 5t3 7l-4 14q-6 8 -10 10q-6 4 -18 -2q-14 -6 -32 -10zM1880 348q-6 -2 -12 -3t-14 -3t-18 -3t-21 -3t-25 -4l10 -40q52 4 100 20zM1988 310q-14 -16 -36 -30 q-4 -2 -9 -4t-11 -4l10 -16h-2q38 22 48 54zM1934 254l-10 14q-4 -2 -10 -4t-12 -3t-12 -3t-12 -2l12 -16l-6 -4q14 4 26 8t24 10zM1816 224q18 2 35 5t31 7l-14 18q-26 -6 -58 -10zM1920 276l-16 28q-8 -4 -16 -6t-18 -4t-21 -4t-23 -4t-24 -2l6 -30q68 6 112 22zM1784 220 q8 2 22 4l-4 20q-18 -2 -38 -2q-2 0 -5 -1t-5 -1l12 -16l-4 -4h22zM1758 220l-14 20h-54l-2 -10l-2 2q34 -12 72 -12zM1680 234l2 6h-12t-8 2q10 -6 18 -8zM1654 246v4h3h10t15 -2l4 34q-50 2 -88 8h-2q26 -28 58 -44zM1580 306l10 -12l2 6l10 32q-20 4 -36 6v8q10 0 20 -2 q4 -2 9 -2t9 -2l6 18q-76 2 -30 -52zM1600 298h2q16 -2 37 -4t47 -4l4 34q-22 2 -42 3t-38 5zM1632 358h-6h-8l-4 -18q38 -6 76 -6l2 20q-30 0 -60 4zM1690 248q58 0 110 4l-6 30q-22 -2 -44 -2q-28 0 -56 2zM1694 290h56h42l-10 40q-38 -6 -84 -6zM1834 376 q-70 -20 -134 -22l-2 -20q46 -2 82 4l-4 24l8 2l6 -24q60 10 86 16l-16 28q-18 -6 -26 -8zM1916 404q-20 -10 -48 -18l16 -28q18 4 34 10q10 4 16 4l12 38q-8 0 -16 -2t-14 -4zM1954 408l-10 -38q4 -4 10 -14l3 -6t2 -5t1 -5l32 -6q-2 34 -12 52t-26 22zM1000 384 q34 0 58 -24t24 -58t-24 -58t-58 -24t-58 24t-24 58t24 58t58 24z" />
<glyph unicode="&#xc2;" d="M1000 64q-184 0 -350 71t-287 192t-192 287t-71 350v24v4q2 -10 2 -21t1 -21t3 -20q2 76 11 147t22 118t25 82t20 52l8 17l92 88q4 -96 66 -210q-30 -48 -51 -102t-32 -97t-18 -78t-7 -55l-2 -18q-68 0 -130 18q30 -216 155 -392t319 -277t416 -101q240 0 444 116 t326 316t130 438v-28q0 -184 -71 -350t-192 -287t-287 -192t-350 -71zM1742 914q18 -34 29 -74t14 -75t4 -65t-1 -48l-2 -16q-8 -18 -25 -48t-75 -104t-120 -124q-34 16 -67 33t-55 31t-39 25t-25 17l-8 6q108 228 108 340q168 36 262 102zM1766 1264q-2 4 -6 10t-19 25 l-30 38t-38 45t-45 50t-51 50t-55 48q-4 58 -22 108t-34 72l-16 20q10 -6 29 -16t70 -47t96 -79t96 -113t83 -149q-10 -16 -25 -31l-23 -23zM856 1000q-6 4 -14 15t-32 43t-47 65t-52 81t-53 94q24 44 84 111t106 113l48 44q32 -6 69 -16t70 -23t65 -26t57 -25t45 -21 t30 -15l10 -6q22 -126 -6 -354q-34 -10 -85 -22t-101 -22l-95 -19t-71 -13zM1002 370q-20 -20 -37 -40t-30 -36t-24 -32t-19 -28t-15 -23t-12 -19t-8 -14t-3 -8l-2 -4q-244 68 -296 100q-42 24 -80 120t-36 192q26 0 56 3t59 8l58 10t52 11t42 10t29 6l10 2 q116 -148 256 -258zM818 1760q-24 6 -58 6t-73 -4t-84 -15t-85 -27q264 160 568 132q-66 0 -170 -34q-76 -26 -98 -58z" />
<glyph unicode="&#xc3;" d="M1820 1332q-10 -14 -24 -28l-22 -22l-10 -8q-12 18 -34 48t-86 101t-122 115q-2 38 -10 72t-19 56t-20 39t-17 25l-6 8l2 -1l8 -4t12 -7q-188 116 -408 132q-12 -2 -27 -4t-32 -6t-35 -8t-37 -9t-36 -12t-32 -15t-26 -17t-19 -19q-38 12 -120 3t-156 -35 q-202 -120 -323 -326t-121 -450q0 -184 71 -350t192 -287t287 -192t350 -71t350 71t287 192t192 287t71 350q0 66 -9 130t-27 124t-44 118zM246 886q-72 0 -136 20q0 130 25 247t39 151t24 52l92 88q2 -96 64 -210q-46 -76 -73 -168t-31 -126t-4 -54zM854 182 q-244 68 -294 98q-42 24 -80 120t-34 192q54 0 130 13t124 25l50 12q114 -150 254 -258q-32 -34 -60 -68t-43 -57t-27 -41t-16 -28zM1236 1092q-24 -8 -58 -16t-69 -16t-71 -16t-68 -14t-57 -10t-40 -7l-15 -3q-14 16 -35 43t-73 105t-88 150q24 44 83 111t107 111l46 46 q32 -6 69 -17t70 -23t64 -25t57 -25t45 -21t29 -15l12 -6q2 -14 5 -41t1 -119t-14 -192zM1784 648q-2 -6 -8 -18t-27 -46t-45 -65t-62 -72t-76 -73q-36 16 -68 33t-54 31t-39 25t-25 17l-8 6q108 228 108 338q166 34 260 102q30 -52 41 -122t7 -112z" />
<glyph unicode="&#xc4;" d="M1862 1204q-6 14 -12 33t-12 35t-14 35t-12 31t-10 24t-6 14q-2 2 -5 10t-4 11t-5 8t-10 6t-14 1q-36 -76 -76 -152q6 0 14 -5t16 -17l46 -92q36 -84 40 -152q-34 -88 -77 -170t-104 -168t-135 -162l-8 -8q0 -2 -3 -5t-5 -3q-212 -206 -500 -316q-114 6 -244 86 q-20 14 -22 30q-40 -20 -78 -40t-74 -38q0 -6 2 -11t4 -8t6 -5t7 -4t9 -4t8 -4q122 -52 174 -64q-138 -32 -266 -38t-194 8t-60 32q-94 14 -126 187t18 409q52 -210 332 -450q34 -28 56 -46q84 42 162 84h-4l-4 -2q-396 320 -482 620q22 64 52 130l10 -10q4 -4 11 -10 t25 -16t28 2q16 16 9 34t-25 32q0 6 6 24t14 32l6 14l18 -14q26 -20 46 8q6 10 0 25t-16 17l-18 8l40 62l10 -2q4 -2 8 -8q32 -28 52 4q10 14 -2 30t-30 20q0 6 14 23t28 31l14 14q8 -2 22 -16q18 -18 40 -2q16 12 0 36l-24 20l18 18l8 8l16 18q2 -2 5 -6t8 -10t7 -8 q26 -16 38 0q4 4 6 8t2 8t-1 8t-3 8t-6 8l-16 22l6 6l14 14t19 17t17 13t12 6q4 -18 20 -30t30 -2t15 24t-11 28l-10 18l62 40l6 -18q2 -6 11 -12t18 -7t15 3q28 18 8 46l-14 18l2 1l8 4t12 5t13 5t14 5t12 4t9 2q14 -18 32 -25t34 9q4 8 3 16t-5 17t-9 15t-9 10l-4 6l-8 8 q20 10 41 19t42 17t43 16q298 -86 618 -482q0 -2 -1 -4l-1 -2q22 36 43 76t41 82q-12 18 -33 43t-76 83t-110 106t-131 93t-144 63q160 32 289 30t212 -39t93 -99q26 8 38 -110q16 -182 -34 -408z" />
<glyph unicode="&#xc5;" d="M1630 1686q-62 -4 -124 -16t-128 -38q14 -10 26 -22t21 -22t13 -20q10 -16 -3 -21t-37 23q-8 10 -23 23t-35 25q-28 -12 -56 -26q30 -24 54 -58q22 -32 6 -44q-12 -4 -30 14q-8 12 -18 22t-24 22t-30 22q-32 -16 -64 -36q34 -30 64 -70q2 -6 3 -13t-1 -14t-6 -10t-12 1 t-20 16q-6 6 -13 11t-14 11t-15 12l-16 12t-18 12q-18 -10 -35 -23t-35 -27q46 -32 64 -56q26 -36 2 -54q-18 -14 -42 14q-6 8 -18 18t-25 21t-29 21q-14 -10 -28 -22l-28 -24l-28 -24q66 -48 80 -76q8 -12 9 -22t-3 -16t-11 -9t-16 2t-17 15q-10 12 -32 30t-52 38 q-20 -18 -41 -38t-43 -40q58 -42 80 -66q28 -32 -4 -44q-24 -10 -48 10q-22 20 -70 56q-52 -52 -104 -110q-126 -138 -217 -267t-132 -215t-63 -152t-24 -96v-32q40 -76 144 -114t239 -36t297 45t314 118t293 195t231 262q78 124 118 237t44 197t-16 159t-52 125t-73 91 t-72 62t-57 31zM666 1256q-8 6 -9 18t10 20t25 2q26 -8 94 -56q12 12 19 20t15 16t14 16q8 6 15 14t15 18q-54 36 -92 54q-24 12 0 26q18 12 42 8q12 -4 37 -17t55 -33q38 36 82 70q-18 12 -37 23t-33 19t-20 12q-28 10 -6 26q26 14 56 2q34 -12 88 -46q34 26 70 50 q-12 8 -26 15l-26 13t-24 11t-22 9q-26 8 -5 23t53 7q58 -16 100 -46l64 36q-14 8 -27 14t-29 12t-32 10q-52 14 -20 22q4 2 10 2q66 12 142 -38q12 6 26 12l28 12q-24 14 -46 24t-32 10q-22 4 -26 10q-2 4 8 6h42q44 -2 92 -34q130 50 246 54q-198 80 -429 37t-450 -175 t-355 -306q-114 -146 -181 -289t-81 -260t9 -212t83 -161q12 94 58 201t99 191t133 183t132 155t124 132q-58 44 -78 58z" />
<glyph unicode="&#xc6;" d="M1796 1376l6 -14t10 -25t12 -30t14 -35t12 -35t12 -33q30 136 36 264t-8 194t-32 60q-10 62 -93 99t-212 39t-289 -30q108 -28 236 -129t178 -159t80 -100q-20 -42 -41 -82t-43 -76l1 2q1 2 1 4q-118 146 -230 248t-203 154t-185 80q-62 -24 -126 -52l8 -8q4 -6 10 -12 t15 -25t-1 -27q-16 -16 -34 -9t-32 25q-4 0 -9 -2t-12 -4t-14 -5t-13 -5t-11 -5t-9 -3l-2 -2l14 -18q8 -14 6 -26t-14 -20q-6 -4 -15 -3t-17 7t-10 12l-8 18l-62 -40l2 -10q2 -4 8 -8q12 -14 11 -28t-15 -24t-30 2t-20 30q-12 0 -68 -56q2 -10 16 -22q18 -18 2 -40 q-12 -16 -36 0q-4 2 -9 8t-9 10l-4 6l-16 -18l-8 -8l-18 -18q20 -14 24 -20q16 -24 0 -36q-10 -8 -20 -8t-20 10l-22 16l-4 -4l-8 -8l-11 -11t-12 -13t-11 -14t-7 -11t-3 -7q8 -2 16 -8t13 -13t6 -15t-3 -14q-20 -32 -52 -4l-18 10l-40 -62q6 -4 18 -8q10 -2 16 -17t0 -25 q-20 -28 -46 -8l-18 14q-2 -6 -7 -16t-12 -29t-7 -25q18 -14 25 -32t-9 -34q-24 -18 -64 24l-10 10q-30 -68 -52 -130q86 -300 482 -620q2 0 5 1l3 1q-78 -44 -160 -84q-6 2 -12 8t-26 21t-39 33t-46 43t-52 52t-53 58t-52 65t-46 69t-38 73t-26 74q-50 -236 -18 -409 t126 -187q-6 -18 60 -32t194 -8t266 38q-52 14 -174 64q-2 2 -8 4t-9 4t-7 4t-6 5t-4 8t-2 11q76 38 152 78q0 -8 5 -15t17 -15q2 -2 7 -5t21 -11l32 -16t39 -17t46 -17t49 -13t50 -7q288 110 500 316q4 2 8 8q4 2 8 8q206 212 316 502q-2 50 -24 111t-42 97l-20 34 q-14 20 -30 22q14 28 28 54t25 50t23 48q24 0 34 -28q2 -6 4 -8zM1196 790l122 -118l-18 -18l-116 126q-2 2 -9 2t-9 -2q-18 -24 -50 -67t-48 -63l-24 42q-6 12 -20 12l-208 -22l12 34q6 14 -14 24q-4 2 -6 4l-80 46l80 52q12 8 4 20l-20 38l110 -6q16 -2 20 8t-14 22 l-142 96l46 14q24 8 20 26l-36 118l118 -36q10 -2 16 3t10 17l14 46l96 -142q12 -18 22 -14t8 20l-6 110l38 -20q12 -8 20 4l52 80l46 -80q2 -2 4 -6q10 -20 24 -14l34 12l-22 -208q0 -14 12 -20l42 -22q-20 -18 -63 -50t-67 -50q-2 -2 -2 -5t1 -7t3 -6z" />
<glyph unicode="&#xc7;" d="M1522 226q16 12 30 22l-1264 1264q-4 -8 -10 -15t-12 -15zM364 324q150 -150 348 -217t401 -41t377 138l-1246 1246q-112 -174 -138 -377t41 -401t217 -348zM1712 408q10 14 22 30l-1256 1256q-4 -4 -9 -8l-10 -8t-11 -6zM510 1716l1246 -1246q56 86 91 183t47 196t2 200 t-42 196t-87 185t-131 166q-150 150 -348 217t-401 41t-377 -138zM338 1622q-22 -22 -30 -45t2 -33q2 -2 4 -2h-2l1270 -1270l2 -2q10 -10 34 -2t45 30t29 45t-2 33l-2 2l-1270 1270l-2 2q-10 10 -33 2t-45 -30z" />
<glyph unicode="&#xc8;" d="M1116 1588q-18 38 -48 102q-28 -18 -56 -40q10 -20 27 -56t21 -46q30 22 56 40zM898 1410q-4 8 -7 15t-7 16t-6 15t-7 16t-6 14t-7 17t-6 15q-10 -8 -19 -16t-17 -16t-18 -16q8 -18 46 -108q14 14 27 26t27 22zM790 1314q-6 14 -14 34l-16 40t-14 34q-16 -14 -29 -25 t-25 -23q4 -12 13 -34t16 -40t15 -34q4 2 8 6l7 7l7 7t8 7t8 7t8 7t8 7zM680 1218l-5 15t-6 16t-7 15t-7 16l-6 16l-6 16t-5 16q-30 -26 -56 -46q8 -20 23 -58t19 -54q26 22 56 48zM452 1044q-6 14 -11 29t-9 28t-10 29t-10 28q-30 -20 -60 -36q6 -16 13 -35t14 -42t13 -37 q6 4 12 7t12 7t12 7t12 7zM330 978q-20 58 -38 114q-32 -14 -62 -26q32 -100 36 -114q32 12 64 26zM166 1046q-34 -8 -66 -14l34 -114q34 4 66 14q-2 10 -34 114zM344 210q36 -120 42 -144q38 4 76 12q-34 108 -44 144q-36 -8 -74 -12zM490 244q6 -18 21 -67t25 -77 q18 6 35 13t35 15q-6 20 -15 46t-17 52t-14 46q-36 -16 -70 -28zM628 306l48 -144q16 10 33 20t35 20q-24 70 -50 142q-8 -4 -16 -9t-17 -10t-17 -10t-16 -9zM758 388q24 -62 52 -142q14 12 31 24t33 26q-8 18 -25 66t-27 74q-32 -26 -64 -48zM590 1068q-232 -178 -438 -210 q14 -48 32 -110t34 -116t34 -112t36 -121t36 -119q222 28 472 224q-66 180 -206 564zM568 1126q-8 24 -14 38t-13 35l-13 39q-16 -10 -30 -21t-28 -21q10 -24 14 -38t12 -36t14 -38q30 20 58 42zM884 486q6 -16 13 -35t13 -34t13 -35t13 -34q30 24 62 54q-24 60 -54 138 q-34 -32 -60 -54zM1004 594q8 -20 26 -66t28 -70q26 24 60 56q-18 44 -56 134q-30 -28 -58 -54zM1122 704q6 -18 26 -64t30 -70q34 32 58 56q-34 80 -56 132q-24 -22 -58 -54zM1238 812q8 -20 14 -34t14 -31l16 -34t14 -33q32 28 60 52q-52 116 -58 130q-30 -24 -60 -50z M646 1114q76 -200 212 -560q70 60 206 187t204 185q-206 452 -238 524q-64 -52 -191 -167t-193 -169zM1006 1504q-38 82 -48 104q-24 -20 -54 -44q4 -8 7 -16t7 -15t7 -15t6 -15t7 -15t7 -15t7 -15q28 24 54 46zM1356 912q8 -14 20 -40t22 -48t18 -42q6 4 10 8t8 7t9 6t9 7 t9 7t9 6t8 7q-6 14 -60 128q-30 -20 -62 -46zM1480 1000l31 -62t31 -66q34 22 66 40q-26 52 -64 126q-16 -8 -32 -18zM1612 1072q6 -12 12 -25t13 -26t13 -25l13 -26t13 -24q18 8 35 15t35 13q-8 18 -31 60t-33 66q-36 -14 -70 -28zM1832 1138q-8 -2 -14 -3t-13 -2t-13 -3 t-12 -3t-13 -2t-13 -3q12 -20 34 -62t34 -64q4 2 8 3l8 2t9 2t9 1t8 1t9 2t9 2t9 2t9 1q-12 22 -35 64t-33 62zM1328 974q238 188 470 224q-32 58 -72 131t-71 129t-68 123t-67 123q-212 -40 -434 -210q38 -82 118 -255t124 -265zM1492 1754q-36 68 -56 102q-10 -2 -22 -5 t-23 -6t-23 -5q38 -72 54 -102q18 6 35 10t35 6zM1356 1718l-52 100q-30 -12 -62 -26q10 -20 30 -58t22 -42q32 14 62 26zM1232 1660q-4 12 -12 26t-13 26t-12 25t-13 25q-28 -16 -58 -34l13 -26t11 -23t13 -28t13 -25q8 4 15 9t14 9t15 8t14 8z" />
<glyph unicode="&#xc9;" d="M1922 -6q-40 -30 -80 -34t-72 15t-52 36t-34 35q-8 10 -111 148t-277 370t-296 394q-148 -198 -450 -598l-234 -314q-14 -18 -34 -35t-52 -36t-72 -15t-80 34q-50 40 -65 87t-8 72t17 37q42 54 90 16q26 -22 27 -57t9 -41q22 -18 48 6t96 116q52 68 84 108 q210 270 552 682q4 6 14 16q-234 312 -286 378q-42 54 -145 188t-141 182q-12 16 -25 31t-22 25t-16 17l-11 11l-4 2q-2 4 -5 8t-10 13t-11 13q-10 22 20 46l10 5t10 4t9 1h9t7 -1l3 -1l2 -2l28 -34v-1t2 -6t5 -9t8 -13t11 -18t15 -21t21 -26q32 -40 350 -448 q68 -88 124 -157t100 -119q98 116 224 276q68 88 131 168t99 127t72 92t48 61q16 18 27 35t18 27t11 18t4 10l2 4l28 34q2 2 7 3t19 0t24 -9q14 -12 19 -23t3 -17l-2 -6q-4 -4 -10 -12t-12 -14l-4 -8q-34 -28 -78 -86q-18 -24 -42 -55l-48 -62t-51 -66t-51 -66t-49 -64 t-45 -57q-54 -68 -286 -378q4 -6 8 -10l5 -5l1 -1q342 -412 552 -682q32 -40 84 -108q70 -92 96 -116t48 -6q8 6 8 23t4 38t24 37q20 18 41 14t31 -11t18 -19q28 -34 14 -94q-14 -56 -70 -102zM994 194q48 0 81 -33t33 -79q0 -30 -15 -56t-41 -42t-58 -16q-46 0 -79 33 t-33 81q0 70 64 102q24 10 48 10z" />
<glyph unicode="&#xca;" d="M1952 104q-16 -2 -52 -1t-73 2t-80 6t-74 14t-52 22t-30 23t-21 28t-18 28q-18 20 -552 736q-112 -152 -202 -272t-171 -227t-127 -169t-52 -68q-6 -10 -15 -23t-16 -22t-18 -20t-29 -20t-44 -15q-88 -26 -278 -22q-18 0 -29 3t-14 13t-4 12t-1 18q-2 40 58 48 q38 4 134 6t114 8q78 22 114 53t130 155q72 96 428 572l-642 858q0 2 -2 3t-4 6t2 7t8 6q4 2 8 6q6 4 14 -6q336 -448 638 -852l638 852l14 6q4 -2 6 -6q4 -2 10 -6q2 -2 1 -6t-3 -8l-2 -2q-328 -438 -642 -858q360 -482 428 -572q94 -124 130 -155t114 -53q18 -6 114 -8 t134 -6q60 -8 58 -48v-4q0 -14 -2 -21t-13 -14t-33 -7zM1076 100v-46q0 -12 -79 -12t-79 12v46q0 12 80 12q32 0 55 -4t23 -8z" />
<glyph unicode="&#xcb;" d="M1892 380q-28 14 -70 30t-69 26t-73 36t-93 59t-118 94t-157 143q-102 98 -238 232q242 270 574 622q8 8 16 15t16 10t15 6t13 3h12t11 -2t8 -3t7 -2t6 -1q10 4 17 9t11 9t6 8t2 6l2 2v6t-4 17t-10 27t-20 34t-34 40q-34 -34 -292 -297t-430 -435q-172 172 -431 436 t-291 296q-32 -30 -49 -62t-17 -48l-2 -14q2 -20 38 -34l6 2l9 3t10 2t13 1t14 -2t16 -5t18 -10t18 -17q332 -352 574 -622q-136 -134 -238 -232t-180 -164t-137 -102t-94 -53t-87 -36t-82 -33q-40 -14 -65 -35t-33 -39t-9 -37t1 -26t4 -11q0 -6 5 -14t25 -28t48 -36t81 -29 t119 -13q60 2 112 55t120 157q114 180 484 594q370 -414 484 -594q68 -104 120 -157t112 -55q48 0 89 7t69 17t50 23t35 25t21 23t11 17t3 8l6 36q-4 74 -102 110q-4 2 -6 2zM1120 256q0 -28 -14 -53t-38 -39t-54 -14q-42 0 -73 31t-31 75t31 75t73 31q30 0 54 -14t38 -39 t14 -53z" />
<glyph unicode="&#xcc;" d="M1988 596q-10 24 -15 35t-18 27t-32 29t-49 29q14 24 -10 26l2 14q0 2 1 3l5 5t6 8q20 24 -14 36l-2 44l-12 -4v-40l-80 -6q-26 38 -78 58q-14 30 -35 84t-38 97t-25 57q-18 30 -44 42q-4 6 -8 10l-6 6v2l-14 34l66 40l12 6q4 2 4 6l224 150h10q4 2 2 10l-102 374 q-4 14 -9 17t-9 -7q-20 -12 -420 -248l-62 14l-26 100q-2 8 -4 8t-10 -4q-6 -4 -373 -221t-369 -219q-8 -4 -4 -18q2 -6 39 -126t39 -124q2 -12 20 -4l296 138l88 -22l-10 -30l-182 -154q-4 -2 -11 -3t-28 -8t-41 -17t-51 -26t-51 -26l-20 -10l-188 44v36t-9 19t-27 -3 q-104 -58 -232 -120q-12 -6 -18 -14t-6 -10t-2 -18l-6 -70q-40 -50 -49 -107t8 -102t49 -75q50 -46 105 -59t117 17q6 -10 17 -18t11 -10q10 -8 94 8q28 -14 42 2q36 -48 46 -58q14 -12 25 -14t63 2q30 -52 87 -83t107 -31q40 0 77 13t79 56t58 113l180 30q14 -2 34 4 l160 26q12 -4 19 -5t13 -2t9 -1h7q2 0 6 -1t6 -1t6 1t6 4t5 8t5 13l130 20l24 -34q26 -30 62 -44q184 -70 276 28q26 28 42 64t20 70t1 63t-11 47zM156 562l18 14q12 6 12 -4q0 -4 -2 -10v-6q0 -4 -4 -10q-4 -2 -4 -3t-10 1q-20 6 -10 18zM138 506v18q2 16 16 8 q14 -10 14 -16q0 -14 -16 -20q-10 -6 -12 4q-2 2 -2 6zM190 474l-22 -10q-6 2 -10 8q-4 4 4 12l18 10q6 -8 12 -12zM208 562q0 4 -6 12q2 8 6 8v-20zM334 326q-4 2 -12 -2q-8 6 -10 10q-4 4 4 10q10 6 18 6v-24zM364 328v24l8 4q0 -12 4 -26zM538 266q-16 -4 -28 10 q-12 12 -28 38l56 2v-50zM1018 970l22 4l4 -14l-30 -2zM990 1006q0 -2 -2 -9t-2 -13l-2 -4l6 -8l-4 -24q-12 0 -20 -1t-12 -4t-6 -6t-4 -7v-2q-4 -14 -32 -18q-8 -2 -23 -4t-30 -5t-28 -6t-23 -5h-8l186 160l20 -4l-6 -32q-2 -4 -10 -8zM996 340l-2 36q42 -12 70 -16l12 -8 q-32 -6 -80 -12zM1392 1054l-2 4l8 2l2 -6h-8zM1522 1112l12 -10l-40 -166l-4 68l4 4l-2 36l-8 4l-4 44l4 2l2 8zM1476 1140q6 2 10 0t6 -6l2 -2l-14 -4l-4 4v8zM1474 942q-16 0 -26 -4v28v20v6h20zM1416 1122l40 24l2 -4l-4 -4v-8l-4 -2l-2 -10l-32 -10v14zM1428 428l-6 -2 l-8 14v32q8 -2 18 4zM1416 498l2 6q10 6 14 4q-2 -4 -5 -6t-7 -4h-4zM1416 1050l-4 14q10 10 32 20q2 0 6 -5t7 -14t3 -17q-4 -4 0 -8l-2 -12l-14 -4q-2 8 -6 13t-7 8t-7 4t-6 1h-2zM1448 894l-2 28q18 10 28 8l2 -26h-4v4h-10v-4l-12 -6zM1536 432l-86 -2q2 2 2 8t1 22 t1 28l20 18q12 -4 22 -5t16 -1l4 2q10 -10 22 -18zM1848 766l-38 -28h-6q0 18 -20 46l64 6v-24z" />
<glyph unicode="&#xcd;" d="M680 1012h-42q0 -16 4 -42t24 -101t52 -144t98 -152t152 -141v-372l64 74v298q86 58 152 140t98 153t52 143t24 103t4 41h-42q0 -10 -3 -25t-13 -61t-24 -90t-41 -102t-58 -105t-79 -89t-102 -66q-206 82 -296 414zM1032 1860v-828h640q0 148 -36 274t-91 208t-125 147 t-136 101t-126 60t-91 31t-35 7zM990 1032h-662q0 148 37 274t92 208t132 148t139 101t131 60t93 30t38 7v-828z" />
<glyph unicode="&#xce;" d="M1900 1860q-348 -80 -698 -306t-638 -558t-446 -702q-14 -30 -18 -50t3 -36t13 -24t26 -26t29 -27t27 -29t26 -26t24 -13t36 -3t50 18q278 118 540 316t467 433t352 504t207 529zM256 502q10 24 46 59t66 60t32 25q-2 -4 -6 -8t-14 -17l-20 -26t-25 -28l-28 -28t-26 -23 t-25 -14zM256 216q6 16 23 36t37 38t39 34t32 26l13 10l-72 -86q-46 -48 -72 -58zM400 364q98 106 207 222t211 220t206 208t196 194t177 172t152 145t116 110t76 71l27 24q-78 -86 -213 -229t-496 -506t-659 -631zM686 360q-12 -14 -28 -35t-54 -60t-62 -49q6 16 23 36 t37 38t39 34t31 26z" />
</font>
</defs>
</svg>
