<?xml version="1.0" encoding="utf-8"?>
<!-- Generator: Adobe Illustrator 16.0.0, SVG Export Plug-In . SVG Version: 6.00 Build 0)  -->
<!DOCTYPE svg PUBLIC "-//W3C//DTD SVG 1.1//EN" "http://www.w3.org/Graphics/SVG/1.1/DTD/svg11.dtd">
<svg version="1.1" id="Layer_1" xmlns="http://www.w3.org/2000/svg" xmlns:xlink="http://www.w3.org/1999/xlink" x="0px" y="0px"
	 width="117px" height="149px" viewBox="0 0 117 149" enable-background="new 0 0 117 149" xml:space="preserve">
<path fill="#343333" d="M116.938,61.789c-0.08,2.68-0.463,5.323-0.985,7.948c-0.745,3.748-1.882,7.373-3.416,10.871
	c-2.104,4.805-4.882,9.179-8.347,13.115c-2.149,2.44-4.551,4.604-7.086,6.635c-3.66,2.932-7.058,6.151-10.272,9.566
	c-4.99,5.299-9.424,11.042-13.582,17.008c-3.192,4.58-6.19,9.288-9.229,13.969c-1.5,2.311-3.112,4.548-4.674,6.817
	c-0.289,0.418-0.582,0.833-0.896,1.282c-0.094-0.141-0.173-0.254-0.248-0.37c-4.009-6.209-8.01-12.423-12.031-18.625
	c-2.574-3.971-5.268-7.858-8.171-11.598c-3.053-3.931-6.341-7.647-9.958-11.067c-2.271-2.146-4.685-4.122-7.155-6.033
	C12.171,94.564,6.124,85.932,2.705,75.45c-0.937-2.872-1.606-5.81-2.05-8.797c-0.27-1.814-0.452-3.639-0.537-5.473
	C0.104,60.889,0.041,60.599,0,60.309c0-1.279,0-2.557,0-3.836c0.02-0.115,0.049-0.23,0.058-0.346
	c0.058-0.79,0.101-1.582,0.169-2.372c0.188-2.169,0.477-4.324,0.896-6.462c0.778-3.969,1.953-7.816,3.539-11.536
	c3.501-8.212,8.644-15.23,15.342-21.11c5.731-5.03,12.192-8.814,19.382-11.346c4.131-1.455,8.375-2.429,12.724-2.921
	c1.383-0.156,2.776-0.212,4.165-0.317C56.473,0.049,56.671,0.021,56.869,0c1.276,0,2.553,0,3.828,0
	c0.164,0.02,0.326,0.049,0.49,0.059c0.506,0.03,1.015,0.037,1.521,0.083c1.199,0.107,2.397,0.22,3.593,0.352
	c1.713,0.189,3.406,0.504,5.086,0.878C76.55,2.521,81.475,4.326,86.139,6.83c7.309,3.924,13.528,9.151,18.618,15.711
	c4.785,6.167,8.177,13.041,10.224,20.573c1.09,4.005,1.799,8.077,1.957,12.235c0.004,0.138,0.041,0.276,0.063,0.414
	c0,1.871,0,3.741,0,5.612C116.979,61.513,116.941,61.65,116.938,61.789z M106.35,49.641c-0.779-4.382-2.147-8.573-4.119-12.561
	c-3.34-6.755-8.008-12.424-13.974-17.012c-5.224-4.018-11.028-6.857-17.407-8.512c-2.322-0.603-4.672-1.029-7.059-1.277
	c-1.352-0.141-2.705-0.249-4.063-0.258c-1.193-0.008-2.388,0.009-3.58,0.059c-1.049,0.044-2.098,0.122-3.142,0.236
	c-1.57,0.171-3.129,0.428-4.677,0.752c-3.921,0.821-7.688,2.095-11.284,3.858c-7.534,3.692-13.723,8.971-18.462,15.908
	c-5.524,8.087-8.191,17.071-8.247,26.85c-0.006,1.531,0.075,3.055,0.213,4.576c0.211,2.325,0.581,4.623,1.136,6.889
	c2.435,9.944,7.467,18.328,15.197,25.024c8.454,7.325,18.338,11.128,29.484,11.654c1.52,0.071,3.047,0.002,4.57-0.038
	c1.664-0.044,3.316-0.247,4.963-0.497c2.229-0.339,4.426-0.825,6.582-1.483c10.166-3.109,18.523-8.86,24.953-17.34
	c6.064-8,9.248-17.063,9.613-27.107C107.167,56.097,106.919,52.855,106.35,49.641z M82.127,90.418
	c-0.55-0.508-1.02-1.086-1.438-1.706c-1.019-1.512-1.733-3.168-2.328-4.884c-0.045-0.135-0.092-0.268-0.141-0.401
	c-0.007-0.02-0.029-0.034-0.08-0.093c-0.025,0.251-0.063,0.465-0.066,0.682c-0.014,1.219,0.34,2.344,1.012,3.344
	c0.493,0.735,1.059,1.423,1.615,2.111c0.9,1.112,1.824,2.205,2.73,3.313c0.344,0.422,0.647,0.875,0.852,1.385
	c0.33,0.826,0.255,1.62-0.192,2.383c-0.019,0.03-0.039,0.058-0.09,0.132c-0.039-0.174-0.065-0.291-0.091-0.41
	c-0.124-0.602-0.453-1.064-0.975-1.377c-0.281-0.168-0.582-0.314-0.889-0.434c-1.848-0.714-3.699-1.417-5.551-2.123
	c-0.053-0.02-0.107-0.037-0.168-0.057c0.086,0.458,0.869,1.576,1.615,2.328c0.668,0.674,1.445,1.203,2.266,1.672
	c-2.609-0.422-4.764-1.615-6.357-3.751c-1.302-1.745-2.055-3.708-2.313-5.87c-0.192-1.605-0.156-3.213-0.075-4.822
	c0.012-0.234,0.001-0.471,0.001-0.74c-0.147-0.017-0.295-0.031-0.491-0.053c-0.147,1.836-0.295,3.648-0.445,5.512
	c-0.063-0.078-0.112-0.119-0.135-0.17c-0.55-1.227-0.918-2.507-1.11-3.837c-0.273-1.889-0.201-3.774,0.044-5.661
	c0.252-1.938,0.682-3.842,1.044-5.758c0.208-1.103,0.387-2.212,0.577-3.319c0.005-0.031-0.004-0.063-0.008-0.143
	c-0.078,0.107-0.135,0.178-0.184,0.256c-1.768,2.897-3.58,5.767-5.474,8.584c-0.406,0.604-0.694,1.263-0.829,1.983
	c-0.172,0.918-0.014,1.789,0.383,2.623c0.357,0.752,0.62,1.533,0.751,2.357c0.208,1.308,0.097,2.594-0.25,3.865
	c-0.306,1.124-0.761,2.188-1.286,3.223c-0.552,1.09-1.027,2.207-1.269,3.412c-0.218,1.094-0.247,2.189,0.022,3.274
	c0.107,0.438,0.069,0.84-0.102,1.244c-0.249,0.587-0.495,1.176-0.748,1.762c-0.23,0.531-0.473,1.058-0.702,1.588
	c-0.065,0.15-0.128,0.263-0.323,0.267c-0.857,0.009-1.636,0.32-2.407,0.656c-0.681,0.297-1.356,0.609-2.09,0.762
	c-0.96,0.199-1.844,0.017-2.712-0.525c0.418-0.736,0.804-1.48,1.252-2.188c1-1.578,2.063-3.115,3.041-4.707
	c0.982-1.599,1.726-3.311,2.152-5.148c0.299-1.289,0.438-2.59,0.293-3.91c-0.165-1.501-0.68-2.883-1.571-4.095
	c-1.647-2.24-2.952-4.675-4.174-7.161c-0.381-0.773-0.767-1.547-1.146-2.321c-0.501-1.021-0.81-2.096-0.867-3.233
	c-0.063-1.242,0.207-2.419,0.737-3.541c0.126-0.267,0.244-0.54,0.335-0.819c0.212-0.655,0.125-1.285-0.202-1.885
	c-0.24-0.442-0.58-0.803-0.938-1.15c-1.504-1.459-2.916-3.004-4.23-4.637c-3.125-3.881-5.578-8.148-7.327-12.817
	c-0.182-0.485-0.457-0.878-0.856-1.189c-0.382-0.298-0.77-0.589-1.164-0.871c-0.461-0.33-0.932-0.646-1.4-0.966
	c-0.097-0.067-0.197-0.131-0.302-0.185c-0.706-0.365-1.304-0.15-1.539,0.61c-0.191,0.619-0.332,1.258-0.432,1.898
	c-0.064,0.414-0.04,0.848-0.012,1.27c0.033,0.506,0.222,0.975,0.52,1.378c0.234,0.317,0.34,0.648,0.285,1.027
	c-0.043,0.301,0.068,0.487,0.326,0.633c0.287,0.163,0.561,0.352,0.833,0.54c0.873,0.604,1.159,1.356,0.916,2.398
	c-0.206,0.881-0.716,1.583-1.299,2.226c-0.29,0.019-0.487-0.108-0.681-0.277c-2.753-2.411-4.893-5.282-6.444-8.595
	c-0.299-0.639-0.307-1.317-0.136-1.981c0.426-1.66,0.881-3.312,1.332-4.966c0.242-0.889,0.51-1.772,0.746-2.663
	c0.114-0.433,0.338-0.775,0.691-1.04c0.686-0.515,1.446-0.837,2.31-0.891c0.33-0.021,0.627,0.065,0.904,0.25
	c1.426,0.95,2.854,1.896,4.281,2.842c0.106,0.07,0.215,0.136,0.345,0.218c0.252-0.567,0.553-1.067,0.639-1.673
	c0.143-1.006,0.664-1.808,1.469-2.425c0.511-0.391,1.08-0.675,1.669-0.923c1.421-0.598,2.69-1.423,3.753-2.551
	c1.265-1.343,2.104-2.932,2.653-4.68c0.229-0.731,0.411-1.477,0.614-2.219c-0.061-0.03-0.089-0.055-0.118-0.056
	c-0.885-0.026-1.771-0.075-2.657-0.065c-0.958,0.01-1.911,0.11-2.81,0.478c-0.37,0.151-0.729,0.333-1.08,0.528
	c-0.714,0.396-1.463,0.515-2.255,0.324c-0.421-0.102-0.791-0.312-1.104-0.611c-0.576-0.55-0.797-1.219-0.613-2.001
	c0.242-1.032,0.829-1.818,1.734-2.362c1.893-1.137,3.79-2.269,5.684-3.404c0.11-0.066,0.218-0.136,0.335-0.21
	c-0.016-0.06-0.03-0.103-0.038-0.147c-0.05-0.31-0.241-0.412-0.543-0.427c-0.553-0.028-1.104-0.091-1.662-0.169
	c0.634-0.221,1.298-0.316,2.03-0.516c-1.385-0.386-2.713-0.669-4.031-1.028c0.032-0.147,0.056-0.26,0.082-0.382
	c0.44,0.093,0.861,0.19,1.285,0.27c1.506,0.281,2.96,0.092,4.364-0.504c0.267-0.113,0.537-0.176,0.822-0.186
	c1.027-0.036,2.054-0.07,3.081-0.102c0.234-0.007,0.468-0.001,0.729-0.001c0.026,0.479,0.051,0.938,0.079,1.443
	c0.29-0.203,0.447-0.479,0.651-0.708c0.212-0.238,0.413-0.488,0.618-0.732c0.204-0.243,0.408-0.485,0.663-0.79
	c0.009,0.183,0.009,0.293,0.021,0.402c0.035,0.292,0.047,0.591,0.119,0.875c0.143,0.56,0.515,0.945,1.017,1.213
	c0.505,0.27,1.054,0.412,1.605,0.536c0.709,0.159,1.373,0.43,2.008,0.773c0.59,0.319,1.177,0.645,1.783,0.979
	c-0.058,0.119-0.107,0.22-0.17,0.346c-0.393-0.153-0.77-0.3-1.146-0.447c-0.009,0.019-0.019,0.037-0.028,0.056
	c0.368,0.312,0.74,0.619,1.104,0.935c2.053,1.784,3.807,3.813,5.105,6.217c0.479,0.886,0.881,1.805,1.217,2.754
	c0.033,0.098,0.058,0.199,0.039,0.329c-0.082-0.093-0.164-0.185-0.244-0.278c-0.59-0.695-1.189-1.379-1.908-1.948
	c-0.805-0.635-1.711-1.037-2.715-1.225c-0.045-0.008-0.094-0.001-0.184-0.001c0.068,0.094,0.114,0.168,0.17,0.232
	c0.717,0.833,1.457,1.647,2.151,2.5c0.96,1.18,1.612,2.526,2.017,3.992c0.021,0.077,0.031,0.156-0.004,0.263
	c-0.5-0.682-0.999-1.363-1.498-2.045c-0.02,0.01-0.039,0.02-0.059,0.029c1.035,3.071,2.068,6.141,3.111,9.239
	c-0.189,0.068-0.353,0.127-0.547,0.197c-0.326-0.795-0.646-1.578-0.965-2.36c-0.025,0-0.052-0.001-0.078-0.001
	c-0.138,0.536-0.298,1.067-0.408,1.608c-0.604,2.935,0.084,5.604,1.683,8.081c0.688,1.069,1.503,2.035,2.388,2.943
	c0.082,0.084,0.161,0.17,0.252,0.268c-0.992-0.104-3.305-1.729-4.398-3.074c-1.17-1.438-1.891-3.096-2.412-4.879
	c-0.021,0.082-0.053,0.162-0.061,0.244c-0.088,0.928,0.059,1.813,0.469,2.655c0.467,0.956,1.123,1.776,1.799,2.584
	c1.047,1.251,2.078,2.517,3.133,3.762c0.675,0.797,0.855,1.692,0.615,2.687c-0.086,0.352-0.211,0.694-0.318,1.042
	c-0.025-0.005-0.051-0.009-0.076-0.014c-0.031-0.232-0.051-0.467-0.093-0.698c-0.112-0.615-0.428-1.102-0.969-1.417
	c-0.274-0.159-0.567-0.293-0.864-0.402c-1.684-0.616-3.37-1.221-5.057-1.829c-0.098-0.036-0.198-0.07-0.322-0.113
	c0,0.36,0.098,0.67,0.305,0.933c0.197,0.249,0.409,0.493,0.643,0.707c0.709,0.646,1.43,1.276,2.146,1.912
	c0.13,0.114,0.259,0.228,0.44,0.388c-0.506,0.073-0.918,0.021-1.328-0.081c-1.503-0.374-2.645-1.269-3.547-2.496
	c-0.568-0.774-1.018-1.622-1.447-2.479c-0.359-0.719-0.714-1.44-1.072-2.16c-0.057-0.115-0.121-0.227-0.217-0.402
	c-0.023,0.123-0.042,0.18-0.042,0.236c-0.003,0.308-0.024,0.618,0.003,0.923c0.023,0.255,0.055,0.532,0.17,0.752
	c0.719,1.372,1.434,2.746,2.2,4.091c0.821,1.439,1.937,2.651,3.093,3.824c0.914,0.926,1.83,1.85,2.738,2.782
	c0.807,0.828,1.458,1.767,1.988,2.794c0.352,0.683,0.711,1.362,1.066,2.044c0.037,0.073,0.086,0.148,0.096,0.227
	c0.052,0.389,0.31,0.612,0.603,0.831c1.61,1.201,3.216,2.409,4.817,3.622c0.897,0.68,1.898,1.137,2.976,1.447
	c0.382,0.11,0.759,0.245,1.153,0.373c-0.042,0.168-0.076,0.302-0.118,0.469c-0.392-0.037-0.771-0.072-1.218-0.113
	c0.891,1.143,1.746,2.24,2.617,3.356c-0.104,0.078-0.195,0.146-0.313,0.235c-0.785-0.856-1.558-1.698-2.34-2.552
	c-0.089,0.054-0.166,0.101-0.265,0.16c0.043,0.116,0.076,0.227,0.121,0.332c0.229,0.532,0.444,1.07,0.692,1.593
	c0.56,1.181,0.815,2.434,0.967,3.723c0.253,2.144,0.328,4.293,0.302,6.45c-0.016,1.221,0.053,2.438,0.289,3.639
	c0.328,1.664,1.062,3.126,2.184,4.395c0.361,0.408,0.722,0.813,1.082,1.222c0.045,0.051,0.086,0.106,0.107,0.222
	c-0.185-0.035-0.373-0.058-0.554-0.107C83.252,91.32,82.663,90.913,82.127,90.418z"/>
</svg>
