<?xml version="1.0" encoding="utf-8"?>
<!-- Generator: Adobe Illustrator 16.0.3, SVG Export Plug-In . SVG Version: 6.00 Build 0)  -->
<!DOCTYPE svg PUBLIC "-//W3C//DTD SVG 1.1//EN" "http://www.w3.org/Graphics/SVG/1.1/DTD/svg11.dtd">
<svg version="1.1" id="Layer_1" xmlns="http://www.w3.org/2000/svg" xmlns:xlink="http://www.w3.org/1999/xlink" x="0px" y="0px"
	 width="140px" height="20px" viewBox="0 0 140 20" enable-background="new 0 0 140 20" xml:space="preserve">
<path fill="#FFFFFF" d="M18.877,7.938c0,0,0.021-0.049,0-0.137c-1.191-1.289-1.181-1.199-1.463-1.295
	c-0.282-0.094-0.607-0.063-0.607-0.063s-0.29-0.17-0.472-0.157c0.032,0.214,0.287,0.429,0.287,0.429s-0.036,0.006-0.167,0
	c-0.346-0.347-0.88-0.345-0.88-0.345s0.179,0.06,0.326,0.173c-0.139-0.088-0.403-0.029-0.403-0.029s0.134,0.023,0.222,0.168
	c-0.082-0.067-0.428-0.149-0.634-0.08c0.263-0.016,0.344,0.227,0.344,0.227s-0.156-0.132-0.288-0.126
	c0.126,0.067,0.132,0.201,0.132,0.201s-0.146-0.151-0.283-0.119c0.133,0.037,0.133,0.219,0.133,0.219s-0.189-0.138-0.534-0.038
	c0.271,0.006,0.333,0.221,0.333,0.221s-0.044-0.105-0.238-0.082c0.125,0.015,0.139,0.213,0.139,0.213s-0.033-0.004-0.353-0.071
	c0.352,0.229,0.275,0.371,0.226,0.347c-0.164-0.271-0.439-0.201-0.439-0.201s-0.378-0.125-0.622-0.23
	c-0.081-0.12-0.063-0.289-0.063-0.289l0.119-0.02c0,0,0,0,0.113,0.146c0.332-0.063,0.546-0.313,0.546-0.313s0,0,0.088,0.021
	c0.112-0.031,0.106-0.169,0.208-0.223c0.188,0.076,0.237,0.053,0.237,0.053s-0.038-0.053-0.138-0.126
	c0.164-0.354,0.063-0.866-0.363-0.903c-0.428-0.037-0.754,0.313-0.741,0.43c-0.026,0.111-0.239,0.147-0.239,0.147
	s-0.489-0.267-1.596-0.142c-1.104,0.128-0.966,0.682-0.966,0.682s-0.265,0.109-0.188,0.251c-0.077,0.036-0.526,0.361-0.402,0.774
	c0.126,0.416,0.879,0.642,1.556,0.628c-0.055,0.021-0.07,0.099-0.07,0.099s0.044,0.105-0.824-0.025
	c-0.865-0.14-1.029-0.144-1.2-0.013C9.195,8.354,9.363,8.25,8.483,8.25S6.558,8.891,6.285,9.286
	c-0.272,0.396-0.947,0.991-1.643,1.42c-0.697,0.431-1.86,0.202-2.302-0.165c0.131,0.367,0.799,0.622,0.799,0.622
	S2.147,11.23,1.501,11.02c0.245,0.309,1.088,0.533,1.623,0.543c-0.135,0.117-0.843,0.146-1.318,0.07
	c0.016,0.01,0.623,0.277,1.263,0.221c-0.156,0.175-0.494,0.213-0.88,0.182c0.226,0.188,1.191,0.025,1.191,0.025
	s-0.159,0.166-0.415,0.24c1.228,0.164,2.104-0.711,2.104-0.711s-0.036,0.381-0.494,0.74c0.354-0.02,0.776-0.436,0.914-0.703
	c0.042,0.049,0.104,0.24-0.075,0.457c0.65-0.277,0.574-0.932,0.574-0.932s0.188,0.301,0.828,0.64
	c0.642,0.339,0.716,0.282,0.66,0.772c-0.057,0.49-0.49,0.602-0.49,1.072c0,0.469,0.396,0.264,0.811,0.473
	c0.414,0.207,0.905,0.639,1.262,0.809s0.093,0.357,0.093,0.357S9.04,15.48,9.21,15.686c0.169,0.209,0.119,0.342,0.119,0.342
	s0.151,0.035,0.383-0.126c0.232-0.163-0.019-0.761-0.094-1.074c-0.077-0.313-0.384-0.444-0.37-0.481
	c1.192,0.435,1.506,0.791,1.506,0.791l0.252,0.008c0,0,0.024,0.043,0.131,0.125c-0.006,0.052-0.106,0.17-0.106,0.17
	s0.416,0.459,0.671,0.515c0.125-0.244-0.012-0.696-0.012-0.696s0.803,0.008,1.173,0.008c0.37,0,0.517-0.283,0.517-0.762
	s-0.327-1.418-0.327-1.535c0-0.121,0.194-0.195,0.365-0.195c0.168,0,0.495,0.119,0.652,0.119c0.156,0,0.777,0.213,0.777,0.213
	c0.999,0,1.088,0.232,1.062,0.716c-0.025,0.483-0.414,0.851-0.414,0.985c0,0.14-0.031,0.479-0.031,0.479s-0.057,0.021-0.227,0.021
	c-0.195,0.176-0.129,0.637,0.051,0.813c0.221,0,0.221-0.213,0.378-0.429c0.155-0.213,0.093-0.545,0.093-0.545
	s0.125,0.023,0.245-0.295c0.119-0.319,0.414-1.192,0.489-1.463c0.075-0.271-0.207-0.504-0.664-0.754
	c-0.459-0.25-0.704-0.451-0.937-0.68c0.232-0.427,0.704-1.337,0.665-1.708c0.127-0.125,0.276-0.245,0.59-0.753
	c0.314-0.509,0.522-0.622,0.68-0.791c0.156-0.17,0.282-0.031,0.49,0.005c0.205,0.039,0.921,0.252,1.198,0.474
	c0.275,0.22,0.402,0.119,0.49,0.119c0.088,0,0.137-0.052,0.088-0.158c0.099,0.05,0.143,0.05,0.37-0.258
	C19.687,8.573,18.877,7.938,18.877,7.938z M8.731,13.182c-0.251,0.43-0.228,0.806-0.228,0.806c-0.287-0.015-0.525-0.339-0.525-0.339
	s-0.039-0.102,0.013-0.43c0.124-0.101,0.327-0.39,0.628-0.99C8.757,12.35,8.731,13.182,8.731,13.182z M11.52,14.752
	c0,0-0.102-0.089-0.277-0.089c-0.175,0-0.162-0.252-0.162-0.252s-0.025-0.051-0.201-0.14c-0.163,0.129-0.414,0.063-0.414,0.063
	s0,0-0.541-0.237c-0.539-0.237-0.413-0.664-0.363-0.99c0.363-0.717,0.289-1.104,0.289-1.104c0.463,0.188,0.678,0.313,0.916,0.364
	c0.239,0.051,0.176,0.102,0.176,0.102s0.276,0.101,0.49-0.014c0.364,0.188,0.777,0.916,0.879,1.395
	c0.101,0.479,0.414,0.629,0.453,1.004C12.273,14.877,11.52,14.752,11.52,14.752z M13.051,8.598c-0.375,0.414-0.515,0.5-0.652,0.516
	c0.2-0.227,0.463-0.615,0.463-0.615C13.064,8.485,13.102,8.549,13.051,8.598z"/>
<path fill="#FFFFFF" d="M39.118,13.191c0,0-0.402-0.196-0.489-0.305c-0.101-0.129-0.778-0.485-0.925-0.647
	c-0.037-0.188-0.406-0.459-0.702-0.681c-0.515-0.383-0.401-0.438-0.873-0.903c0.163-0.146,0.202-0.415,0.177-1.006
	c-0.025-0.59,0.344-1.242,0.848-1.639c1.099,0.383,1.313,0.817,1.613,0.821c0.213,0.003,0.162-0.065,0.152-0.128
	c0.1,0.128,0.212,0.061,0.262-0.01c0.051-0.068,0.15-0.148,0.228-0.221c0.075-0.068,0.067-0.184-0.069-0.319
	c-0.137-0.14-0.865-1.396-1.52-1.854c0.105-0.227,0.037-0.74,0.037-0.74s-0.155,0.213-0.17,0.303
	c-0.045-0.229-0.125-0.325-0.201-0.369c-0.176,0.208-0.201,0.458-0.164,0.686c-0.168-0.293-0.596-0.414-0.846-0.414
	c0.352,0.17,0.433,0.377,0.433,0.377s-0.421-0.184-0.96-0.037c0.414,0.07,0.582,0.252,0.582,0.252
	c-0.514-0.104-0.834-0.031-1.223,0.101c0.526,0.037,0.695,0.149,0.695,0.149c-0.684,0.014-1.066,0.058-1.664,0.391
	c0.742-0.068,0.805,0.051,0.805,0.051s-0.715,0.139-0.949,0.326c0.303,0.031,0.314,0.096,0.314,0.096s-0.646,0.4-0.896,0.435
	c-0.252,0.028-1.377,0.146-2.512,0.104c-1.136-0.037-1.733,0.012-2.488,0.396c-0.992,0.169-4.074,0.666-4.074,0.666
	s-0.008-0.063-0.113-0.102c-0.025-0.039,0.012-0.076-0.158-0.031c-0.169,0.043-0.219,0.188-0.264,0.281
	c-0.238,0.185-0.558,0.34-0.558,0.34S23.32,9.492,23.29,9.434c-0.007-0.281-0.439-0.66-0.616-0.686c-0.031-0.082,0-0.132,0-0.132
	s0.113,0.132,0.169,0.038C22.9,8.559,22.925,8.24,22.925,8.24s0.106,0.042,0.099-0.046c-0.006-0.09-0.106-0.09-0.094-0.232
	c0.006-0.08,0.006-0.08,0.006-0.08s0.196-0.015,0.276-0.121c-0.2-0.031-0.225-0.043-0.225-0.043
	c-0.008-0.365-0.416-0.502-0.799-0.502s-0.728,0.59-0.371,1.137c-0.037,0.207-0.074,0.274-0.074,0.274s-0.352,0.402-0.207,0.96
	c0.145,0.561,0.559,1.156,0.96,1.369c0.182,0.313,0.302,0.453,0.353,0.504c0.1,0.014,0.182,0.008,0.182,0.008l0.044,0.146
	c0,0,0.959-0.076,1.444-0.168c0.003,0.059,0.003,0.094,0.002,0.112c-0.768,0.193-1.335,0.892-1.335,1.719
	c0,0.98,0.792,1.771,1.77,1.771s1.771-0.795,1.771-1.771c0-0.364-0.111-0.704-0.301-0.985c0.106-0.062,0.548-0.31,0.938-0.407
	c0.446-0.111,1.351-0.554,1.589-0.554c0.257,0,0.42-0.088,0.603-0.326c0.207,0.275,0.271,0.39,0.17,0.828
	c-0.102,0.438-0.233,0.672,0.163,0.879c0.395,0.207,0.791,0.584,1.061,0.779c0.271,0.194,0.201,0.483,0.604,0.474
	c-0.125,0.161-0.037,0.301-0.007,0.362c0.238,0.088,0.539,0.194,0.589,0.194c0.051,0,0.184,0-0.029-0.465
	c-0.266-0.276-0.34-0.34-0.414-0.483c-0.076-0.146-0.534-0.481-0.831-0.69c-0.295-0.205-0.458-0.308-0.402-0.767
	c0.057-0.457,0.289-0.733,0.314-1.515c0.409,0.037,1.269,0.666,2.775,0.617c0.021,0.228,0.119,0.131,0.119,0.584
	c0,0.449,0.17,0.699,0.17,0.939c-0.25,0.191-0.791,0.104-0.791,0.104s-0.577-0.088-0.646-0.183
	c-0.014-0.155-0.096-0.287-0.201-0.295c-0.516,0.095-0.652,0.258-0.652,0.258s0.344,0.179,0.445,0.207
	c0.295,0.119,0.482,0.283,0.584,0.401c0.1,0.119,0.42,0.015,0.797-0.024c0.377-0.038,0.547,0.104,0.691-0.021
	s0.326-0.125,0.319-0.51c-0.007-0.381,0.138-1.061,0.132-1.218c0.221-0.007,0.385-0.067,0.56-0.2
	c0.177,0.051,0.094,0.148,0.54,0.207c0.459,0.215,0.459,0.313,0.746,0.435c0.289,0.118,0.736,0.407,0.949,0.459
	c0.201,0.163,0.635,0.5,0.834,0.735c0.203,0.229,0.271,0.205,0.484,0.205c0.014,0.139,0,0.228,0.057,0.275
	c0.057,0.052,0.194,0.131,0.194,0.131s0.496-0.17,0.621-0.242C39.269,13.292,39.118,13.191,39.118,13.191z M24.544,9.155
	c0.546-0.113,0.797-0.139,0.797-0.139l-0.006,0.088c0,0-0.434,0.227-0.867,0.34C24.557,9.369,24.544,9.155,24.544,9.155z
	 M24.028,9.783c0.082-0.024,0.075-0.058,0.113-0.088c0.038-0.031,0.125-0.021,0.145-0.089c0.219-0.037,1.1-0.416,1.1-0.416
	c0.1,0.021,0.087,0.082,0.087,0.082s-0.087,0.025-0.163,0c0.014,0.063,0.176,0.096,0.176,0.096s-0.051,0.014-0.195-0.007
	c0.089,0.057,0.045,0.075,0.227,0.208c-0.232-0.02-0.232-0.17-0.389-0.194c0.106,0.024,0.082,0.2,0.326,0.369
	c0,0-0.227-0.08-0.308-0.162c0.063,0.188,0.095,0.069,0.271,0.341c-0.258-0.289-0.534-0.107-0.534-0.107s-0.22-0.018-0.434,0.063
	c-0.214,0.082-0.446,0.146-0.767,0.215C23.771,9.99,23.947,9.807,24.028,9.783z M26.072,11.898c-0.291-0.233-0.658-0.383-1.06-0.396
	l-0.011-0.161l0.314-0.103l-0.012-0.043c0,0,0,0,0.182-0.091c0.332,0.246,0.898,0.453,0.898,0.453S26.277,11.73,26.072,11.898z
	 M24.832,11.135c0,0,0.038-0.148,0.095-0.271c0.019,0,0.22,0.123,0.22,0.123C25.033,11.075,24.832,11.135,24.832,11.135z
	 M24.493,11.251c0,0-0.074,0.021-0.232,0l-0.068-0.213c0.068,0.052,0.213,0.082,0.383,0.037
	C24.563,11.126,24.493,11.251,24.493,11.251z M27.32,9.833c0,0-0.164,0.113-0.182,0.434c-0.227,0.106-0.289,0.121-0.289,0.121
	s-0.107-0.033-0.308-0.021c0.314-0.188,0.314-0.604,0.822-0.858C27.326,9.682,27.32,9.833,27.32,9.833z M26.673,9.432
	c-0.321,0.201-0.786,0.465-1.1-0.228c0.227-0.094,1.639-0.39,1.985-0.444C27.15,9.055,26.994,9.229,26.673,9.432z M25.817,9.022
	c-0.018-0.021-0.031-0.045,0.008-0.082c0.747-0.15,1.946-0.319,1.946-0.319S26.289,8.96,25.817,9.022z M27.954,9.524
	c-0.289,0.037-0.183-0.502,0.251-0.608C28.205,8.916,28.043,9.117,27.954,9.524z"/>
<path fill="#FFFFFF" d="M59.478,8.331c-0.576-0.046-1.238-0.316-1.475-0.658c-0.391-0.236-1.24-0.261-1.615,0.069
	c-0.757-0.069-0.779,0.401-0.875,0.565c-0.094,0.164-0.837,0.943-2.146,0.483c-1.311-0.461-2.773-0.886-3.198-0.92
	c-0.425-0.036-1.204-0.097-2.183,0.317c-0.98,0.412-1.017,1.369-1.299,1.828c-0.283,0.461-0.496,0.603-1.039,1.311
	s-1.521,0.687-2.266,0.638c-0.744-0.048-1.168-0.508-1.581-0.508c-0.413,0-0.378,0.318-0.024,0.318c0.217,0,0.343,0.063,0.681,0.257
	c0.336,0.192,1.104,0.39,1.762,0.36c0.654-0.025,1.353-0.311,1.716-0.785c0.48-0.633,0.752-0.946,0.982-1.16
	c-0.045,0.238,0.132,0.541,0.486,0.808c0.354,0.264,1.576,0.28,1.576,0.28s-0.055,0.336-0.25,0.583
	c-0.193,0.248-0.539,0.631-0.734,0.801c-0.194,0.168-0.033,0.344-0.033,0.344s-0.24,0.02-0.417-0.008
	c-0.114-0.035-0.282-0.08-0.362-0.063c-0.08,0.017-0.098,0.018-0.213-0.035c-0.186,0-0.697,0.391-0.697,0.391
	s0.008,0.063,0.272,0.09c0.099,0.08,0.673,0.08,0.832,0.035c0.159-0.043,0.69-0.01,1.257-0.025c0.061,0.089,0.408,0.257,0.814,0.47
	c-0.115,0.336,0.335,0.832,0.335,0.832s0.135-0.021,0.194-0.239c0.346,0.203,0.877,0.16,1.488,0.16c0.61,0,0.594-0.479,0.594-0.479
	s0.08,0.069,0.328,0.045c0.246,0.168,0.725,0.024,0.838-0.02c-0.104-0.188-0.177-0.124-0.289-0.223
	c-0.115-0.098-0.224-0.221-0.373-0.186c-0.078-0.035-0.433-0.082-0.433-0.082s0.054-0.806,0.3-1.609
	c1.398,0.215,3.397-1.771,4.07-2.47c0.673-0.699,1.495-0.576,2.009-0.512c0.515,0.063,0.46-0.035,0.46-0.107
	c-0.021,0-0.043-0.002-0.064-0.004c0.019-0.021,0.051-0.078,0.064-0.139c0.02-0.07-0.031-0.117-0.068-0.035
	c-0.041,0.084-0.146,0.07-0.146,0.07s-0.059-0.048-0.059-0.063c0-0.012-0.088-0.004-0.088-0.004l-0.053-0.088L58.443,9l0.006-0.044
	h-0.098l-0.029-0.054l-0.09,0.004l-0.041-0.08l-0.103,0.025l0.015-0.125l-0.062,0.021L58.001,8.7l-0.123,0.102
	c-0.018-0.018-0.029-0.041-0.021-0.078c0.106-0.054,0.213-0.088,0.315-0.109l0.011,0.053l0.129-0.025l0.08,0.031l0.053-0.023
	l0.07,0.017l0.075-0.034l0.06,0.084l0.067-0.037l0.112,0.084l0.061-0.035l0.088,0.049l0.047-0.061l0.018-0.033
	c0.044,0.017,0.07,0.026,0.07,0.026L59.06,8.895c0,0,0.105-0.045,0.148-0.187C59.536,8.717,59.524,8.367,59.478,8.331z
	 M49.76,12.072l0.048,0.123c0,0-0.647,0.447-0.679,0.488C49.274,12.462,49.601,12.195,49.76,12.072z M51.265,14.469
	c-0.336,0.055-0.813-0.035-0.902-0.158c-0.088-0.125-0.295,0.041-0.358-0.024c-0.097-0.485-0.255-0.431-0.255-0.431
	s-0.479-0.254-0.654-0.411c0.182-0.097,0.441-0.289,0.854-0.509c0,0,0.035,0.201,0.043,0.55c0.004,0.349,0.023,0.431,0.478,0.56
	c0.454,0.133,1.081,0.202,1.081,0.202S51.603,14.415,51.265,14.469z M50.989,13.637c-0.203-0.377-0.293-0.479-0.344-1.031
	c0.283-0.148,0.59-0.366,0.86-0.354c-0.028,0.716,0.063,1.491,0.07,1.601C51.312,13.813,51.153,13.641,50.989,13.637z"/>
<path fill="#FFFFFF" d="M76.27,10.25c-0.5-0.181-1.039-0.312-1.414-0.343c-0.03-0.271-0.158-1.143-0.606-2.021
	c-0.646-1.265-1.677-1.988-2.996-2.115c-0.078-0.162-0.313-0.256-0.646-0.256c-0.066,0-0.141,0.004-0.209,0.012
	c-0.332,0.041-0.674,0.175-0.765,0.39c-1.282,0.382-2.254,1.412-2.84,3.039c-0.558,1.553-0.565,3.081-0.565,3.145l-0.002,0.457
	l0.312-0.334c0.003-0.004,0.108-0.112,0.332-0.269c0.205,0.306,1.493,2.121,3.502,2.465c-0.021,1.386,0.392,2.458,0.411,2.513
	l0.602-0.233c-0.006-0.015-0.547-1.438-0.307-3.039c0.217-1.444,0.033-2.381-0.053-2.703c0.05,0,0.097-0.001,0.144-0.002
	c0.455,0.007,1.144,0.063,1.888,0.283c0.662,0.194,1.813,0.479,2.938,0.37c1.126-0.108,1.368-0.393,1.368-0.571
	C77.359,10.936,77.359,10.645,76.27,10.25z M69.848,6.623c-0.506,0.664-1.209,2.242-0.885,4.139
	c-0.121,0.021-0.236,0.047-0.35,0.073C68.209,8.33,69.848,6.623,69.848,6.623z M70.438,13.559c-0.015,0.096-0.024,0.188-0.035,0.281
	c-1.672-0.32-2.815-1.859-3.039-2.179c0.609-0.308,1.574-0.638,2.977-0.698C70.421,11.268,70.637,12.237,70.438,13.559z
	 M71.086,6.495c0,0,1.865,1.329,1.912,3.941c-0.111,0.021-0.229,0.037-0.355,0.056C72.656,8.067,71.591,7.016,71.086,6.495z
	 M72.928,10.813c1.438-0.221,1.842-0.63,1.895-0.69l0.05-0.058C74.87,10.065,75.943,10.682,72.928,10.813z"/>
<path fill="#FFFFFF" d="M95.195,5.227l-9.738,1.412l0.646,4.466c0.494-0.295,0.785-0.63,0.861-0.765
	c0.192-0.336,0.24-1.295,1.771-1.152c0.769-0.67,2.492-0.619,3.283-0.143c0.479,0.694,1.82,1.245,2.996,1.342
	c0.096,0.071,0.118,0.778-0.547,0.761c-0.09,0.287-0.305,0.378-0.305,0.378l0.107-0.378c0,0-0.053-0.023-0.146-0.059l-0.035,0.066
	L94,11.281l-0.182-0.098l-0.125,0.069l-0.225-0.171l-0.145,0.072l-0.117-0.172l-0.152,0.07l-0.145-0.023l-0.107,0.044l-0.16-0.063
	l-0.262,0.055l-0.021-0.104c-0.211,0.046-0.428,0.115-0.646,0.224c-0.014,0.076,0.013,0.125,0.048,0.158l0.25-0.203l0.08,0.099
	l0.127-0.035l-0.027,0.252l0.207-0.056l0.08,0.162l0.182-0.01l0.063,0.108h0.196l-0.01,0.089l0.226-0.07l0.108,0.18
	c0,0,0.179-0.018,0.179,0.009s0.12,0.128,0.12,0.128s0.217,0.023,0.297-0.146c0.081-0.17,0.181-0.069,0.146,0.072
	c-0.03,0.12-0.098,0.232-0.135,0.277c0.047,0.007,0.092,0.01,0.135,0.01c0,0.145,0.106,0.342-0.937,0.217
	c-1.041-0.127-2.714-0.377-4.079,1.041c-0.472,0.491-1.267,1.293-2.221,2.115l0.115,0.799l9.74-1.412L95.195,5.227z"/>
<g>
	<g>
		<path fill="#FFFFFF" d="M109.325,7.48c0,0,0.007,0.009,0.009,0.011c0.022,0.013,0.049,0.019,0.07,0.033
			C109.354,7.495,109.325,7.48,109.325,7.48z M112.922,9.233c-0.079-0.05-0.021-0.197,0.1-0.158c0.06,0.019,0.209,0.108,0.359,0.213
			c0.072-0.074,0.136-0.139,0.184-0.194c0.034-0.038,0.073-0.077,0.115-0.12c-0.131-0.086-0.263-0.164-0.352-0.206
			c-0.105-0.049,0.01-0.157,0.158-0.128c0.066,0.012,0.206,0.091,0.348,0.187c0.094-0.085,0.198-0.176,0.315-0.268
			c-0.148-0.096-0.291-0.178-0.347-0.202c-0.138-0.058,0.034-0.171,0.192-0.113c0.076,0.027,0.205,0.096,0.332,0.178
			c0.087-0.065,0.177-0.126,0.271-0.188c-0.132-0.082-0.27-0.15-0.375-0.183c-0.125-0.039,0.021-0.159,0.184-0.114
			c0.096,0.027,0.234,0.068,0.385,0.174c0.079-0.047,0.158-0.093,0.239-0.136c-0.096-0.059-0.205-0.109-0.331-0.142
			c-0.106-0.027-0.204-0.059-0.04-0.089c0.111-0.02,0.324,0.002,0.537,0.146c0.068-0.033,0.137-0.064,0.206-0.094
			c-0.121-0.071-0.239-0.124-0.294-0.131c-0.113-0.016-0.187-0.079,0.095-0.06c0.12,0.009,0.241,0.061,0.351,0.13
			c0.304-0.116,0.619-0.192,0.931-0.204c-1.444-0.643-3.668,0.368-4.7,1.692c-0.458,0.586-0.745,1.141-0.894,1.64
			c0.034-0.188,0.059-0.379,0.059-0.577c0-0.477-0.104-0.932-0.29-1.34c-0.085,0.115-0.198,0.206-0.198,0.206
			s-0.404-0.586-0.881-0.951c-0.023-0.449-0.222-0.684-0.246-0.71c-0.418-0.245-0.894-0.406-1.405-0.441
			c-0.218,0.028-0.743,0.128-0.875,0.321c-0.205-0.045-0.624-0.016-0.998,0.118c-0.96,0.563-1.603,1.605-1.603,2.798
			c0,0.28,0.046,0.547,0.113,0.806c-0.063-0.104-0.122-0.212-0.213-0.302c-0.522-0.523-1.329-0.59-1.926-0.203l2.13,2.131
			c0.198-0.305,0.275-0.662,0.235-1.011c0.528,1.077,1.626,1.825,2.908,1.825c1.526,0,2.799-1.057,3.146-2.477
			c-0.166,0.717-0.044,1.307,0.292,1.677c0.157-1.271,1.39-2.57,2.082-3.281C113.097,9.356,112.975,9.267,112.922,9.233z
			 M104.978,10.558c0,0-0.257,0-0.49-0.075c0-1.061,0.318-1.621,0.318-1.621l0.33-0.319c0,0,0.013,0.343,0.232,0.758
			C105.001,9.922,104.978,10.558,104.978,10.558z M107.174,13.096c0,0-0.877-0.245-1.063-0.355
			c-0.181-0.109-0.426-0.634-0.414-1.122c0.44-0.012,1.1-0.184,1.1-0.184s0.415,0.537,0.915,0.927
			C107.298,12.814,107.174,13.096,107.174,13.096z M108.556,9.813c-0.429,0.133-1.367,0.292-1.367,0.292s-0.415-0.488-0.71-1.074
			c0.195-0.354,0.856-0.964,0.856-0.964c0.572,0.109,1.245,0.475,1.245,0.475S108.653,8.995,108.556,9.813z M110.533,11.41
			c0,0-0.281,0.587-0.792,0.99c-0.44-0.196-0.697-0.403-0.697-0.403s0.391-0.819,0.391-1.221c0,0,0.598-0.123,0.94-0.366
			C110.608,10.837,110.533,11.41,110.533,11.41z M119.229,11.784c-0.019,0.088-0.095,0.197-0.339,0.188
			c-0.627-0.024-1.158-0.669-1.796-0.177c-0.639,0.49-0.289,1.347,0.448,1.542c-1.111-0.278-0.999-1.265-0.556-1.59
			c0.442-0.324,0.751-0.348,1.442-0.018c0.648,0.311,0.741,0.129,0.795-0.007c-0.039-0.459-0.389-1.27-1.445-1.27
			c-0.18,0-0.352,0.042-0.512,0.107c0.969-1.948-0.334-2.822-0.674-2.969c-0.291,0.02-0.606,0.074-0.957,0.204
			c0.107,0.083,0.193,0.177,0.229,0.246c0.034,0.06-0.024,0.154-0.153-0.005c-0.05-0.06-0.132-0.125-0.221-0.184
			c-0.072,0.029-0.144,0.062-0.218,0.097c0.071,0.06,0.141,0.133,0.206,0.226c0.083,0.124,0.029,0.247-0.089,0.108
			c-0.063-0.07-0.153-0.165-0.275-0.252c-0.078,0.043-0.16,0.09-0.245,0.141c0.083,0.068,0.166,0.156,0.247,0.271
			c0.024,0.053,0.021,0.242-0.144,0.074c-0.066-0.07-0.172-0.151-0.284-0.226c-0.089,0.06-0.18,0.123-0.271,0.194
			c0.103,0.072,0.195,0.149,0.244,0.215c0.12,0.162-0.02,0.306-0.147,0.148c-0.051-0.063-0.16-0.148-0.276-0.227
			c-0.103,0.083-0.21,0.171-0.32,0.267c0.141,0.104,0.268,0.213,0.309,0.285c0.089,0.159-0.039,0.257-0.147,0.12
			c-0.053-0.065-0.178-0.167-0.319-0.264c-0.104,0.096-0.208,0.196-0.318,0.302c0.125,0.089,0.242,0.182,0.301,0.249
			c0.138,0.159-0.068,0.238-0.197,0.128c-0.057-0.046-0.16-0.128-0.268-0.212c-0.129,0.132-0.261,0.271-0.396,0.421
			c-1.713,1.878-1.664,2.897-1.664,2.897c0.551,1.04,3.428,0.638,5.115-0.976c-0.005,0.049-0.015,0.096-0.015,0.145
			c0,1.099,0.964,1.438,1.562,1.438C118.474,13.42,119.442,12.729,119.229,11.784z M102.01,10.989l2.148,2.146
			c0.017-0.012,0.034-0.024,0.052-0.037l-2.161-2.162C102.037,10.953,102.023,10.97,102.01,10.989z M102.178,12.969
			c0.522,0.524,1.329,0.591,1.926,0.204l-2.13-2.13C101.584,11.64,101.653,12.446,102.178,12.969z M102.321,10.664l2.161,2.16
			c0.013-0.017,0.025-0.034,0.039-0.052l-2.149-2.146C102.356,10.639,102.338,10.649,102.321,10.664z M104.441,12.875l-2.172-2.17
			c0-0.002,0-0.004-0.003-0.004c-0.024-0.025-0.086-0.005-0.135,0.045c-0.051,0.052-0.071,0.111-0.047,0.138
			c0.003,0,0.003,0.001,0.005,0.003l2.172,2.169c0,0.002,0.001,0.003,0.003,0.003c0.024,0.026,0.086,0.006,0.135-0.044
			c0.051-0.049,0.071-0.11,0.047-0.137C104.443,12.878,104.443,12.876,104.441,12.875z"/>
	</g>
</g>
<path fill="#FFFFFF" d="M130.597,16.529c-3.356,0-6.077-2.721-6.077-6.076c0-3.356,2.721-6.077,6.077-6.077
	c3.355,0,6.076,2.72,6.076,6.077C136.673,13.809,133.952,16.529,130.597,16.529z M130.597,5.727c-2.61,0-4.727,2.116-4.727,4.727
	c0,2.61,2.116,4.726,4.727,4.726c2.609,0,4.726-2.115,4.726-4.726C135.322,7.842,133.206,5.727,130.597,5.727z M132.271,10.887
	c0.254,0.283,0.381,0.635,0.381,1.054c0,0.546-0.163,0.986-0.486,1.322c-0.325,0.337-0.786,0.541-1.383,0.613v0.769h-0.475v-0.75
	c-0.536-0.036-0.968-0.176-1.293-0.416c-0.326-0.242-0.544-0.584-0.652-1.028l0.855-0.379c0.072,0.259,0.199,0.461,0.38,0.604
	c0.181,0.144,0.418,0.232,0.71,0.265v-2.067c-0.618-0.253-1.066-0.531-1.348-0.834c-0.28-0.302-0.421-0.659-0.421-1.069
	c0-0.48,0.157-0.875,0.471-1.186c0.313-0.31,0.747-0.5,1.298-0.57V6.707h0.475v0.516c0.432,0.039,0.786,0.146,1.063,0.321
	s0.476,0.418,0.593,0.729l-0.833,0.416c-0.102-0.16-0.22-0.286-0.353-0.377c-0.132-0.092-0.288-0.155-0.471-0.188v1.818
	C131.521,10.288,132.019,10.604,132.271,10.887z M130.783,12.913c0.248-0.063,0.437-0.174,0.565-0.328
	c0.13-0.155,0.194-0.35,0.194-0.582c0-0.198-0.06-0.372-0.18-0.52c-0.121-0.148-0.314-0.286-0.58-0.417V12.913z M130.309,8.15
	c-0.22,0.066-0.38,0.159-0.479,0.278c-0.098,0.119-0.148,0.276-0.148,0.473c0,0.187,0.051,0.35,0.148,0.488
	c0.1,0.139,0.26,0.268,0.479,0.385V8.15z"/>
</svg>
