<?xml version="1.0" encoding="utf-8"?>
<!-- Generator: Adobe Illustrator 16.0.0, SVG Export Plug-In . SVG Version: 6.00 Build 0)  -->
<!DOCTYPE svg PUBLIC "-//W3C//DTD SVG 1.1//EN" "http://www.w3.org/Graphics/SVG/1.1/DTD/svg11.dtd">
<svg version="1.1" id="Layer_1" xmlns="http://www.w3.org/2000/svg" xmlns:xlink="http://www.w3.org/1999/xlink" x="0px" y="0px"
	 width="120px" height="180px" viewBox="0 0 120 180" enable-background="new 0 0 120 180" xml:space="preserve">
<g>
	<path fill="#FFFFFF" d="M69.641,160.947c-1.146-1.428-2.754-2.255-4.271-2.255c-2.008,0-2.856,0.954-4.25,0.954
		c-1.436,0-2.528-0.952-4.265-0.952c-1.706,0-3.52,1.036-4.669,2.807c-1.618,2.491-1.344,7.177,1.28,11.169
		c0.938,1.428,2.192,3.033,3.83,3.048c1.457,0.014,1.869-0.929,3.845-0.939c1.976-0.012,2.35,0.949,3.806,0.936
		c1.639-0.016,2.961-1.793,3.899-3.222c0.672-1.022,0.922-1.539,1.444-2.696C66.496,168.364,65.886,163.003,69.641,160.947z
		 M63.846,157.097c0.729-0.937,1.283-2.258,1.083-3.61c-1.192,0.083-2.585,0.84-3.399,1.829c-0.739,0.897-1.349,2.227-1.111,3.521
		C61.719,158.876,63.065,158.099,63.846,157.097z M108.054,131.084h-2.43l1.08-4.293c0.108-0.378-0.027-0.513-0.378-0.513h-2.106
		c-0.378,0-0.405,0.135-0.54,0.513l-1.053,4.293h-2.295l1.053-4.266c0.108-0.405-0.027-0.54-0.378-0.54h-2.079
		c-0.405,0-0.432,0.135-0.54,0.513l-1.053,4.293h-2.322c-0.405,0-0.567,0.135-0.675,0.513l-0.459,1.647
		c-0.108,0.378,0.054,0.486,0.378,0.486h2.403l-0.486,2.025h-2.349c-0.405,0-0.567,0.108-0.675,0.486l-0.432,1.674
		c-0.135,0.378,0.027,0.486,0.351,0.486h2.43l-1.296,5.238c-0.081,0.378,0.081,0.54,0.486,0.54h1.998
		c0.351,0,0.432-0.189,0.513-0.513l1.296-5.265h2.295l-1.296,5.238c-0.081,0.378,0.108,0.54,0.486,0.54h1.998
		c0.351,0,0.432-0.189,0.513-0.513l1.296-5.265h2.403c0.378,0,0.513-0.135,0.621-0.486l0.459-1.647c0.108-0.378,0-0.513-0.378-0.513
		h-2.43l0.513-2.025h2.403c0.378,0,0.513-0.162,0.621-0.486l0.432-1.647C108.541,131.219,108.46,131.084,108.054,131.084z
		 M101.467,135.755h-2.295l0.486-2.025h2.322L101.467,135.755z M14.534,165.49h0.011v5.269c0,0.402,0.327,0.729,0.729,0.729h1.559
		v3.242c0,0.716,0.581,1.297,1.297,1.297c0.717,0,1.298-0.581,1.298-1.297v-3.242h2.413v3.242c0,0.716,0.581,1.297,1.298,1.297
		s1.297-0.581,1.297-1.297v-3.242h1.559c0.402,0,0.729-0.327,0.729-0.729v-5.269h0.012v-5.022H14.534V165.49z M28.684,160.053
		c-0.717,0-1.298,0.581-1.298,1.298v5.832c0,0.716,0.581,1.297,1.298,1.297s1.298-0.581,1.298-1.297v-5.832
		C29.982,160.634,29.401,160.053,28.684,160.053z M12.586,160.053c-0.716,0-1.297,0.581-1.297,1.298v5.832
		c0,0.716,0.581,1.297,1.297,1.297c0.717,0,1.298-0.581,1.298-1.297v-5.832C13.884,160.634,13.303,160.053,12.586,160.053z
		 M14.585,159.75h12.101c0,0-0.124-3.232-3.109-4.573l1.044-1.474c0.022-0.03-0.009-0.089-0.069-0.132s-0.126-0.052-0.148-0.022
		l-1.078,1.521c-0.728-0.285-1.613-0.463-2.691-0.466c-1.084-0.003-1.973,0.168-2.703,0.449l-1.066-1.504
		c-0.022-0.03-0.088-0.021-0.147,0.022c-0.061,0.042-0.091,0.102-0.07,0.132l1.032,1.457
		C14.674,156.489,14.585,159.75,14.585,159.75z M23.291,156.385c0.402,0,0.729,0.326,0.729,0.729c0,0.402-0.326,0.729-0.729,0.729
		c-0.402,0-0.728-0.327-0.728-0.729C22.563,156.712,22.889,156.385,23.291,156.385z M17.98,156.385c0.402,0,0.729,0.326,0.729,0.729
		c0,0.402-0.326,0.729-0.729,0.729s-0.729-0.327-0.729-0.729C17.251,156.712,17.577,156.385,17.98,156.385z M60.988,134.615v-3.152
		c0.313,0.058,0.585,0.166,0.815,0.326s0.434,0.377,0.611,0.655l1.443-0.722c-0.204-0.538-0.546-0.959-1.027-1.262
		s-1.095-0.489-1.842-0.557v-0.894h-0.823v0.878c-0.957,0.12-1.707,0.45-2.25,0.988c-0.543,0.539-0.815,1.223-0.815,2.054
		c0,0.711,0.243,1.329,0.729,1.854c0.486,0.525,1.265,1.008,2.336,1.447v3.583c-0.507-0.057-0.917-0.21-1.231-0.458
		c-0.313-0.248-0.533-0.597-0.659-1.047l-1.482,0.659c0.188,0.769,0.564,1.362,1.129,1.78c0.565,0.418,1.312,0.659,2.243,0.722
		v1.301h0.823v-1.333c1.035-0.125,1.833-0.479,2.396-1.063c0.562-0.583,0.843-1.347,0.843-2.293c0-0.727-0.22-1.335-0.659-1.827
		C63.129,135.762,62.269,135.216,60.988,134.615z M60.165,134.324c-0.382-0.204-0.659-0.426-0.831-0.667
		c-0.173-0.24-0.259-0.523-0.259-0.847c0-0.339,0.086-0.613,0.259-0.819c0.172-0.206,0.449-0.367,0.831-0.482V134.324z
		 M61.968,139.198c-0.225,0.269-0.551,0.458-0.98,0.568v-3.199c0.46,0.225,0.794,0.465,1.003,0.721s0.314,0.557,0.314,0.902
		C62.305,138.593,62.193,138.928,61.968,139.198z M60.662,124.968c-5.818,0-10.534,4.716-10.534,10.534s4.716,10.534,10.534,10.534
		s10.535-4.716,10.535-10.534S66.48,124.968,60.662,124.968z M60.662,143.695c-4.525,0-8.193-3.668-8.193-8.193
		c0-4.525,3.668-8.193,8.193-8.193c4.525,0,8.193,3.668,8.193,8.193C68.856,140.027,65.188,143.695,60.662,143.695z M32.475,124.658
		c-0.995,0.59-2.096,1.018-3.268,1.249c-0.938-1-2.276-1.625-3.756-1.625c-2.842,0-5.146,2.304-5.146,5.146
		c0,0.403,0.045,0.796,0.133,1.173c-4.277-0.214-8.069-2.263-10.607-5.377c-0.443,0.76-0.697,1.644-0.697,2.587
		c0,1.785,0.908,3.36,2.289,4.283c-0.843-0.027-1.637-0.258-2.331-0.644c0,0.021,0,0.043,0,0.064c0,2.494,1.774,4.573,4.128,5.046
		c-0.432,0.117-0.887,0.181-1.356,0.181c-0.332,0-0.654-0.033-0.968-0.093c0.655,2.044,2.555,3.532,4.807,3.574
		c-1.761,1.38-3.98,2.203-6.391,2.203c-0.416,0-0.825-0.024-1.228-0.072c2.277,1.46,4.982,2.313,7.889,2.313
		c9.465,0,14.642-7.842,14.642-14.642c0-0.223-0.005-0.445-0.015-0.666c1.005-0.726,1.878-1.632,2.568-2.664
		c-0.923,0.409-1.915,0.686-2.956,0.811C31.274,126.869,32.091,125.86,32.475,124.658z M103.45,97.343
		c0.847,0,1.755,0.262,1.755,0.262l0.544-3.228c0,0-1.158-0.392-3.906-0.392c-1.687,0-2.667,0.642-3.381,1.586
		c-0.678,0.892-0.702,2.332-0.702,3.264v2.119h-2.179v3.151h2.179v10.951h4.083v-10.951h3.232l0.242-3.151h-3.474v-2.461
		C101.844,97.645,102.603,97.343,103.45,97.343z M17.446,112.302c0,1.485,1.362,2.579,2.682,2.579s2.62-1.032,2.62-2.641
		c0-1.609-1.382-2.579-2.641-2.579C18.684,109.661,17.446,110.816,17.446,112.302z M24.77,104.606
		c1.279-0.949,2.971-2.27,2.971-4.952s-2.27-5.777-7.18-5.777s-7.139,2.765-7.139,4.91c0,2.146,2.104,3.219,3.838,3.219
		c1.733,0,2.765-1.073,2.765-1.32s-0.165-0.248-0.413-0.248c-0.289,0-0.825-0.537-0.825-1.032s0.577-1.527,1.898-1.527
		c1.32,0,1.939,1.073,1.939,2.022s-0.537,1.774-2.104,3.342c-1.568,1.568-2.352,2.6-2.352,3.384c0,0.784,0,0.784,0,1.155
		s0.413,0.949,1.197,0.949h1.609c0.537,0,0.825-0.248,0.867-0.99C21.882,106.999,23.491,105.555,24.77,104.606z M68.661,95.152
		c-0.981,0.065-2.041,0.249-3.224,0.687c0.365,0.281,0.65,0.598,0.773,0.83c0.117,0.2-0.083,0.517-0.517-0.017
		c-0.164-0.202-0.442-0.422-0.744-0.621c-0.238,0.1-0.481,0.21-0.73,0.332c0.238,0.199,0.473,0.447,0.69,0.756
		c0.284,0.417,0.1,0.833-0.3,0.367c-0.207-0.242-0.513-0.559-0.92-0.85c-0.27,0.146-0.545,0.304-0.827,0.478
		c0.273,0.228,0.554,0.522,0.83,0.906c0.083,0.184,0.067,0.817-0.483,0.25c-0.229-0.237-0.578-0.508-0.961-0.761
		c-0.298,0.199-0.602,0.415-0.915,0.648c0.35,0.245,0.663,0.506,0.825,0.729c0.4,0.55-0.066,1.034-0.5,0.5
		c-0.174-0.214-0.534-0.496-0.926-0.766c-0.351,0.278-0.71,0.578-1.08,0.902c0.473,0.346,0.902,0.721,1.04,0.964
		c0.3,0.534-0.133,0.867-0.5,0.4c-0.175-0.223-0.6-0.559-1.073-0.887c-0.348,0.318-0.705,0.656-1.07,1.016
		c0.419,0.298,0.813,0.613,1.01,0.838c0.467,0.533-0.233,0.8-0.667,0.434c-0.187-0.158-0.534-0.434-0.898-0.715
		c-0.433,0.441-0.878,0.913-1.336,1.416c-5.768,6.335-5.602,9.769-5.602,9.769c2.134,4.034,14.67,1.634,19.505-6.035
		C74.896,99.053,69.895,95.686,68.661,95.152z M57.302,101.424c-0.419-0.321-0.829-0.624-1.011-0.737
		c-0.267-0.167-0.066-0.667,0.333-0.533c0.204,0.067,0.708,0.368,1.217,0.717c0.242-0.25,0.452-0.468,0.617-0.65
		c0.116-0.128,0.245-0.264,0.386-0.405c-0.438-0.289-0.884-0.551-1.186-0.695c-0.353-0.168,0.033-0.534,0.534-0.434
		c0.226,0.045,0.696,0.308,1.171,0.631c0.316-0.291,0.672-0.596,1.06-0.905c-0.492-0.32-0.975-0.594-1.165-0.677
		c-0.46-0.2,0.117-0.583,0.65-0.383c0.255,0.096,0.69,0.325,1.117,0.598c0.292-0.215,0.597-0.429,0.915-0.637
		c-0.447-0.271-0.91-0.501-1.265-0.611c-0.425-0.132,0.067-0.533,0.617-0.383c0.324,0.088,0.788,0.229,1.297,0.585
		c0.264-0.159,0.534-0.313,0.81-0.46c-0.322-0.195-0.696-0.366-1.124-0.476c-0.355-0.091-0.684-0.2-0.133-0.3
		c0.377-0.069,1.093,0.004,1.811,0.493c0.229-0.112,0.461-0.218,0.695-0.317c-0.407-0.239-0.807-0.417-0.989-0.442
		c-0.381-0.052-0.634-0.267,0.316-0.2c0.402,0.028,0.815,0.206,1.18,0.439c1.023-0.388,2.085-0.646,3.138-0.689
		c-4.868-2.167-12.356,1.243-15.837,5.702c-4.034,5.168-4.167,9.636-2.167,11.836C50.816,108.2,54.97,103.819,57.302,101.424z
		 M96.125,72.495l4.111,12.333c0,0,2.466-7.4,4.111-12.333c1.645-4.934,0.822-9.044-4.111-9.044
		C95.303,63.45,94.481,67.561,96.125,72.495z M100.237,65.917c1.362,0,2.467,1.104,2.467,2.466s-1.104,2.467-2.467,2.467
		s-2.467-1.104-2.467-2.467S98.874,65.917,100.237,65.917z M60.635,85.114c0.653,0,1.199-0.529,1.199-1.182V81.06
		c2.917-0.553,5.106-3.115,5.106-6.193v-3.152c0-0.436-0.353-0.788-0.789-0.788c-0.435,0-0.821,0.353-0.821,0.788v3.152
		c0,2.612-2.084,4.729-4.696,4.729c-2.611,0-4.695-2.117-4.695-4.729v-3.152c0-0.436-0.386-0.788-0.822-0.788
		c-0.435,0-0.788,0.353-0.788,0.788v3.152c0,3.078,2.19,5.64,5.106,6.193v2.871C59.436,84.584,59.983,85.114,60.635,85.114z
		 M60.635,63.045c-2.177,0-3.908,1.764-3.908,3.941v7.881c0,2.176,1.731,3.941,3.908,3.941c2.176,0,3.907-1.765,3.907-3.941v-7.881
		C64.543,64.809,62.812,63.045,60.635,63.045z M31.315,80.876c0.509,0,0.922-0.413,0.922-0.922V66.401
		c0-0.509-0.413-0.922-0.922-0.922H10.153c-0.509,0-0.922,0.413-0.922,0.922v13.553c0,0.509,0.413,0.922,0.922,0.922h7.382
		c0,0,0,0.974,0,1.742s-0.768,0.768-0.768,0.768h-3.733c0,0-0.768-0.16-0.768,0.608c0,0.768,0.768,0.688,0.768,0.688h15.363
		c0,0,0.768,0.12,0.768-0.648c0-0.769-0.768-0.648-0.768-0.648s-2.924,0-3.693,0c-0.768,0-0.768-0.768-0.768-0.768v-1.742H31.315
		L31.315,80.876z M10.298,80.174c-0.254,0-0.461-0.206-0.461-0.461V66.638c0-0.254,0.207-0.461,0.461-0.461h20.875
		c0.254,0,0.46,0.207,0.46,0.461v13.074c0,0.254-0.206,0.461-0.46,0.461H10.298z M98.684,54.069l9.79-9.789l-9.79-9.79l-2.447,2.447
		l7.342,7.342l-7.342,7.342L98.684,54.069z M61.897,49.946c0.342-2.785,3.041-5.628,4.556-7.184
		c-0.272-0.208-0.538-0.404-0.657-0.479c-0.173-0.108-0.043-0.433,0.217-0.346c0.132,0.044,0.46,0.239,0.791,0.465
		c0.158-0.162,0.293-0.304,0.401-0.422c0.075-0.083,0.159-0.171,0.251-0.263c-0.285-0.188-0.574-0.358-0.771-0.451
		c-0.229-0.109,0.022-0.347,0.347-0.281c0.147,0.029,0.452,0.2,0.761,0.41c0.206-0.189,0.437-0.387,0.688-0.587
		c-0.319-0.208-0.633-0.386-0.756-0.439c-0.299-0.13,0.076-0.378,0.422-0.249c0.166,0.063,0.448,0.211,0.726,0.389
		c0.189-0.14,0.388-0.278,0.594-0.414c-0.291-0.176-0.591-0.325-0.822-0.396c-0.276-0.086,0.043-0.346,0.401-0.249
		c0.21,0.058,0.512,0.149,0.843,0.38c0.171-0.104,0.347-0.203,0.526-0.299c-0.209-0.126-0.452-0.237-0.73-0.309
		c-0.231-0.06-0.444-0.13-0.087-0.195c0.246-0.044,0.71,0.002,1.177,0.32c0.149-0.072,0.3-0.141,0.452-0.206
		c-0.265-0.155-0.524-0.271-0.643-0.287c-0.248-0.034-0.412-0.173,0.206-0.13c0.261,0.018,0.53,0.134,0.766,0.285
		c0.665-0.251,1.355-0.418,2.039-0.447c-3.163-1.407-8.028,0.807-10.29,3.701c-0.959,1.228-1.577,2.394-1.914,3.45
		c-0.057,0.358-0.141,0.708-0.249,1.046C60.935,48.112,61.237,49.219,61.897,49.946z M54.37,51.697c3.17,0,5.855-2.075,6.772-4.939
		c0.051-0.334,0.133-0.684,0.249-1.046c0.058-0.365,0.088-0.739,0.088-1.12c0-1.047-0.227-2.042-0.634-2.938
		c-0.186,0.254-0.435,0.454-0.435,0.454s-0.882-1.282-1.925-2.083c-0.054-1.042-0.562-1.576-0.562-1.576s0.064,0.031,0.173,0.093
		c-0.95-0.586-2.049-0.955-3.227-1.037c-0.479,0.061-1.627,0.279-1.918,0.704c-0.45-0.1-1.367-0.037-2.183,0.256
		c-2.101,1.234-3.51,3.516-3.51,6.127c0,0.539,0.062,1.063,0.176,1.568c-0.113-0.164-0.243-0.32-0.389-0.466
		c-1.146-1.146-2.912-1.294-4.218-0.444l4.663,4.663c0.416-0.64,0.592-1.39,0.53-2.123C49.192,50.106,51.594,51.697,54.37,51.697z
		 M58.165,45.66c0,0,1.31-0.267,2.058-0.801c0.508,0.935,0.348,2.19,0.348,2.19s-0.615,1.282-1.737,2.164
		c-0.962-0.427-1.524-0.881-1.524-0.881S58.165,46.541,58.165,45.66z M53.568,39.731c1.256,0.24,2.727,1.042,2.727,1.042
		s0.161,0.988-0.053,2.778c-0.936,0.294-2.994,0.641-2.994,0.641s-0.909-1.068-1.55-2.351
		C52.124,41.066,53.568,39.731,53.568,39.731z M52.392,47.102c0,0,0.909,1.175,2.004,2.03c-0.909,0.988-1.176,1.603-1.176,1.603
		s-1.925-0.534-2.326-0.774s-0.936-1.389-0.909-2.457C50.948,47.476,52.392,47.102,52.392,47.102z M47.34,45.019
		c0-2.324,0.695-3.552,0.695-3.552l0.722-0.694c0,0,0.027,0.748,0.508,1.656c-0.802,1.362-0.855,2.751-0.855,2.751
		S47.847,45.179,47.34,45.019z M78.86,48.277c-1.371-0.052-2.535-1.462-3.931-0.389c-1.397,1.073-0.634,2.949,0.982,3.375
		c-2.432-0.608-2.186-2.767-1.216-3.479c0.971-0.711,1.643-0.763,3.156-0.039c1.423,0.681,1.624,0.283,1.739-0.014
		c-0.085-1.007-0.852-2.779-3.162-2.779c-0.388,0-0.761,0.079-1.106,0.22c2.107-4.254-0.746-6.161-1.489-6.482
		c-0.638,0.042-1.326,0.161-2.095,0.446c0.237,0.182,0.422,0.388,0.502,0.539c0.076,0.13-0.054,0.335-0.335-0.011
		c-0.106-0.131-0.287-0.274-0.483-0.403c-0.155,0.064-0.313,0.136-0.475,0.215c0.155,0.129,0.307,0.291,0.449,0.491
		c0.184,0.271,0.065,0.541-0.195,0.238c-0.135-0.157-0.333-0.363-0.598-0.552c-0.175,0.094-0.354,0.197-0.537,0.31
		c0.177,0.148,0.36,0.339,0.54,0.588c0.054,0.119,0.043,0.53-0.314,0.162c-0.149-0.153-0.376-0.33-0.625-0.494
		c-0.193,0.129-0.391,0.27-0.594,0.421c0.227,0.159,0.431,0.329,0.536,0.474c0.26,0.357-0.043,0.671-0.325,0.325
		c-0.113-0.139-0.347-0.322-0.602-0.498c-0.228,0.181-0.461,0.375-0.702,0.585c0.308,0.224,0.586,0.468,0.675,0.626
		c0.195,0.347-0.086,0.563-0.325,0.26c-0.114-0.145-0.39-0.363-0.698-0.576c-0.226,0.207-0.458,0.426-0.695,0.66
		c0.272,0.193,0.528,0.397,0.656,0.544c0.303,0.346-0.152,0.519-0.434,0.281c-0.121-0.103-0.347-0.282-0.583-0.464
		c-0.281,0.287-0.571,0.592-0.868,0.919c-3.748,4.112-3.639,6.342-3.639,6.342c1.202,2.27,7.481,1.401,11.178-2.113
		c-0.009,0.098-0.014,0.197-0.014,0.297c0,2.404,2.108,3.142,3.415,3.142c1.299,0,3.418-1.511,2.955-3.578
		C79.561,48.059,79.395,48.297,78.86,48.277z M41.916,46.124l4.7,4.7c0.039-0.027,0.077-0.056,0.114-0.085l-4.729-4.729
		C41.971,46.048,41.943,46.086,41.916,46.124z M47.236,50.254C47.236,50.254,47.237,50.254,47.236,50.254l-4.75-4.751
		c0,0,0,0,0,0.001c-0.002-0.003-0.005-0.006-0.008-0.009c-0.055-0.055-0.188-0.011-0.298,0.099c-0.109,0.11-0.154,0.243-0.099,0.298
		c0.002,0.003,0.006,0.005,0.009,0.007c0,0,0,0.001,0,0.001l4.75,4.75c0,0,0,0,0.001-0.001c0.002,0.003,0.004,0.006,0.007,0.009
		c0.055,0.055,0.188,0.01,0.298-0.099c0.109-0.11,0.154-0.243,0.099-0.298C47.242,50.259,47.239,50.257,47.236,50.254z M42.28,50.46
		c1.146,1.146,2.912,1.294,4.218,0.445l-4.663-4.663C40.986,47.549,41.134,49.315,42.28,50.46z M42.596,45.414l4.729,4.729
		c0.029-0.037,0.057-0.075,0.084-0.114l-4.7-4.7C42.672,45.357,42.634,45.385,42.596,45.414z M33.804,50.422
		c-1.859-0.021-4.032-0.741-4.865-1.783c-1.298-0.667-4.019-0.553-5.152,0.588c-2.431-0.058-2.401,1.457-2.666,2.007
		c-0.093,0.192-0.428,0.642-1.001,1.096c-0.042-0.033-0.091-0.066-0.132-0.099c-0.095,0.089-0.194,0.167-0.296,0.239
		c0.474-3.47,1.741-8.268,1.741-8.268s-1.439-1.638-0.446-3.226c-0.695,1.836,0.397,3.722,2.53,3.523
		c2.481,1.092,2.878,1.538,2.878,1.538s0.447,1.241,1.488,1.241c1.042,0,0.794-0.149,0.695-0.497c0.396,0.1,0.595-0.099,1.042-0.844
		c0.447-0.744,0.745-0.645,0.1-2.034s-3.474-5.21-4.665-6.302c-1.19-1.091-1.141-1.687-1.141-1.687s0.645-1.191,0.596-2.333
		c-0.596,0.546-0.943,1.241-0.943,1.241s0.1-1.092-0.297-2.084c-0.496,0.992-1.29,2.282-1.191,2.877
		c-1.637-0.943-3.721-0.447-4.267-0.148c1.29,0.297,2.183,0.843,2.183,0.843s-2.034-0.645-4.912,0.199
		c1.489,0.248,1.935,0.446,1.935,0.446s-2.63,0.546-4.069,1.539c0,0,1.34-0.149,1.886-0.1c-1.588,0.348-3.721,2.134-4.664,3.523
		c1.836-0.893,2.481-0.794,2.481-0.794s-1.389,0.894-2.63,3.523c-1.117,2.367-2.032,2.242-2.204,2.193
		c4.319,1.854,6.031,4.047,7.566,5.668c-0.083-0.03-0.146-0.052-0.183-0.062c0.055,0.012,0.256,0.201,0.594,0.484
		c0.674,0.669,1.356,1.209,2.257,1.542c1.688,0.906,4.088,1.682,7.106,1.239c1.017-2.233,4.371-1.94,5.778-1.87
		c1.654,0.083,1.463-0.215,1.447-0.442c-0.065,0.004-0.137,0.003-0.212,0c0.053-0.076,0.147-0.261,0.181-0.453
		c0.041-0.23-0.126-0.375-0.234-0.098c-0.108,0.278-0.45,0.259-0.45,0.259s-0.195-0.143-0.198-0.185s-0.284,0.005-0.284,0.005
		l-0.19-0.271l-0.346,0.138l0.004-0.143l-0.311,0.022l-0.111-0.163l-0.281,0.034l-0.146-0.246l-0.32,0.107l0.014-0.399l-0.193,0.07
		l-0.139-0.146l-0.371,0.347c-0.06-0.047-0.106-0.123-0.09-0.244c0.33-0.192,0.663-0.327,0.99-0.422l0.045,0.165l0.404-0.114
		l0.26,0.081l0.165-0.082l0.229,0.025l0.233-0.129l0.202,0.256l0.22-0.129l0.371,0.245l0.191-0.128l0.293,0.136l0.127-0.208
		l0.048-0.108c0.149,0.041,0.235,0.074,0.235,0.074l-0.129,0.606c0,0,0.33-0.165,0.44-0.628
		C34.079,51.634,33.963,50.524,33.804,50.422z M116.191,11.825c-1.028-0.083-2.203-0.566-2.623-1.174
		c-0.692-0.419-2.202-0.461-2.874,0.126c-1.342-0.126-1.384,0.713-1.552,1.007c-0.167,0.293-1.489,1.678-3.818,0.86
		c-2.328-0.818-4.929-1.573-5.685-1.636c-0.755-0.063-2.14-0.168-3.881,0.566c-1.741,0.734-1.804,2.433-2.307,3.251
		c-0.503,0.818-0.881,1.07-1.846,2.329c-0.965,1.259-2.706,1.217-4.027,1.133s-2.077-0.902-2.811-0.902
		c-0.734,0-0.671,0.566-0.042,0.566c0.383,0,0.608,0.11,1.206,0.456c0.598,0.346,1.966,0.692,3.131,0.645
		c1.164-0.047,2.407-0.55,3.052-1.4c0.853-1.124,1.337-1.684,1.747-2.061c-0.079,0.425,0.236,0.959,0.865,1.432
		c0.629,0.472,2.8,0.503,2.8,0.503s-0.094,0.598-0.44,1.039c-0.346,0.44-0.96,1.117-1.306,1.416
		c-0.346,0.298-0.063,0.613-0.063,0.613s-0.425,0.031-0.74-0.016c-0.205-0.063-0.503-0.142-0.645-0.11s-0.173,0.031-0.377-0.063
		c-0.331,0-1.243,0.692-1.243,0.692s0.016,0.11,0.487,0.157c0.173,0.142,1.196,0.142,1.479,0.063s1.227-0.016,2.234-0.047
		c0.11,0.157,0.724,0.457,1.447,0.834c-0.205,0.598,0.598,1.479,0.598,1.479s0.236-0.031,0.346-0.425
		c0.614,0.362,1.558,0.283,2.643,0.283s1.054-0.85,1.054-0.85s0.142,0.126,0.582,0.079c0.44,0.299,1.29,0.047,1.495-0.031
		c-0.189-0.331-0.315-0.22-0.519-0.394c-0.205-0.173-0.394-0.393-0.661-0.33c-0.142-0.063-0.771-0.142-0.771-0.142
		s0.094-1.431,0.535-2.863c2.486,0.377,6.042-3.146,7.237-4.39c1.196-1.243,2.659-1.022,3.571-0.913
		c0.913,0.11,0.818-0.063,0.818-0.189c-0.037,0-0.076-0.003-0.118-0.008c0.033-0.04,0.091-0.138,0.118-0.243
		c0.031-0.126-0.055-0.212-0.126-0.063s-0.259,0.126-0.259,0.126s-0.103-0.087-0.103-0.11s-0.157-0.008-0.157-0.008l-0.094-0.157
		l-0.197,0.063l0.008-0.079h-0.173l-0.055-0.094l-0.157,0.008l-0.071-0.142l-0.181,0.047l0.023-0.22l-0.11,0.031l-0.071-0.086
		l-0.219,0.178c-0.031-0.029-0.054-0.072-0.041-0.138c0.19-0.094,0.38-0.156,0.564-0.195l0.018,0.093l0.228-0.047l0.142,0.055
		l0.094-0.039l0.126,0.023l0.134-0.063l0.102,0.15l0.126-0.063l0.197,0.149l0.11-0.063l0.157,0.086l0.079-0.11l0.031-0.058
		c0.081,0.029,0.127,0.05,0.127,0.05l-0.094,0.331c0,0,0.188-0.079,0.267-0.331C116.296,12.507,116.275,11.889,116.191,11.825z
		 M98.917,18.475l0.084,0.22c0,0-1.154,0.797-1.206,0.871C98.057,19.168,98.634,18.696,98.917,18.475z M101.591,22.734
		c-0.598,0.094-1.447-0.063-1.604-0.283s-0.524,0.073-0.64-0.042c-0.168-0.871-0.451-0.766-0.451-0.766s-0.85-0.451-1.164-0.734
		c0.325-0.167,0.787-0.514,1.521-0.902c0,0,0.063,0.356,0.074,0.976c0.01,0.619,0.042,0.766,0.85,0.996s1.919,0.357,1.919,0.357
		S102.189,22.639,101.591,22.734z M101.098,21.255c-0.357-0.671-0.514-0.85-0.608-1.835c0.503-0.262,1.049-0.65,1.531-0.629
		c-0.052,1.269,0.115,2.654,0.126,2.842C101.675,21.569,101.392,21.265,101.098,21.255z M42.476,12.801
		c0.253,1.145,1.053,2.386,1.854,2.848c0.348,0.651,0.58,0.939,0.678,1.045c0.203,0.032,0.37,0.025,0.37,0.025l0.079,0.296
		c0,0,1.956-0.084,2.944-0.242c0.004,0.243-0.01,0.293-0.01,0.293c-1.81,0.281-2.599,2.028-2.633,3.022s0.393,3.729,3.223,3.828
		s3.668-1.939,3.714-3.266s-0.53-1.997-0.53-1.997s1.067-0.588,1.981-0.786c0.913-0.198,2.78-1.026,3.265-1.009
		c0.523,0.019,0.861-0.148,1.248-0.62c0.401,0.576,0.521,0.81,0.285,1.695c-0.235,0.885-0.52,1.348,0.269,1.796
		s1.565,1.242,2.1,1.656c0.534,0.415,0.374,0.996,1.19,0.999c-0.267,0.323-0.098,0.609-0.039,0.739
		c0.479,0.195,1.083,0.434,1.185,0.437c0.102,0.004,0.37,0.013-0.031-0.945c-0.516-0.58-0.665-0.713-0.807-1.011
		c-0.143-0.299-1.049-1.02-1.634-1.461c-0.584-0.442-0.909-0.658-0.761-1.584c0.147-0.927,0.639-1.471,0.745-3.05
		c0.826,0.105,2.528,1.441,5.592,1.446c0.022,0.46,0.232,0.276,0.201,1.194c-0.032,0.918,0.294,1.44,0.277,1.924
		c-0.524,0.378-1.614,0.161-1.614,0.161s-1.167-0.219-1.3-0.416c-0.015-0.32-0.171-0.593-0.387-0.614
		c-1.052,0.155-1.344,0.477-1.344,0.477s0.689,0.381,0.891,0.452c0.591,0.264,0.961,0.608,1.157,0.858
		c0.195,0.249,0.854,0.055,1.621,0.005s1.102,0.255,1.404,0.011c0.302-0.245,0.672-0.232,0.687-1.01
		c0.014-0.778,0.355-2.145,0.354-2.464c0.447,0.003,0.783-0.113,1.149-0.368c0.354,0.114,0.181,0.313,1.082,0.459
		c0.916,0.466,0.908,0.67,1.486,0.933c0.578,0.263,1.463,0.881,1.893,0.999c0.396,0.346,1.252,1.065,1.644,1.551
		c0.392,0.486,0.534,0.44,0.967,0.455c0.016,0.282-0.016,0.459,0.095,0.565c0.111,0.106,0.386,0.282,0.386,0.282
		s1.02-0.309,1.28-0.453c-0.459-0.374-0.758-0.588-0.758-0.588s-0.802-0.43-0.973-0.66c-0.195-0.262-1.547-1.037-1.829-1.379
		c-0.063-0.385-0.796-0.96-1.379-1.427c-1.019-0.814-0.785-0.921-1.708-1.898c0.341-0.281,0.437-0.827,0.428-2.027
		c-0.009-1.2,0.79-2.5,1.838-3.268c2.204,0.856,2.685,2.079,3.218,1.785c0.316-0.174,0.422-0.209,0.356-0.345
		c0.271,0.265,0.388,0.231,0.495,0.094c0.107-0.136,0.316-0.295,0.475-0.43c0.158-0.135,0.153-0.365-0.118-0.655
		c-0.271-0.291-1.66-2.892-2.954-3.869C76.003,6.838,75.9,5.787,75.9,5.787s-0.334,0.423-0.366,0.6
		c-0.073-0.475-0.232-0.672-0.382-0.767c-0.372,0.408-0.44,0.917-0.38,1.378c-0.323-0.611-1.182-0.884-1.692-0.902
		c0.702,0.369,0.853,0.796,0.853,0.796s-0.841-0.4-1.948-0.145c0.837,0.17,1.168,0.552,1.168,0.552
		c-1.038-0.241-1.693-0.123-2.493,0.117c1.068,0.114,1.404,0.356,1.404,0.356c-1.391-0.023-2.171,0.039-3.406,0.672
		c1.509-0.087,1.628,0.159,1.628,0.159s-1.463,0.229-1.948,0.596c0.609,0.085,0.631,0.213,0.631,0.213s-1.342,0.771-1.854,0.816
		c-0.512,0.046-2.803,0.196-5.108,0.039c-2.305-0.157-3.52-0.098-5.077,0.626c-2.026,0.274-8.322,1.062-8.322,1.062
		s-0.008-0.128-0.222-0.212c-0.048-0.078,0.031-0.152-0.317-0.075c-0.347,0.077-0.459,0.367-0.556,0.555
		c-0.498,0.353-1.159,0.648-1.159,0.648s-0.25-0.149-0.31-0.266c0.007-0.574-0.846-1.37-1.201-1.433
		c-0.058-0.168,0.009-0.268,0.009-0.268s0.22,0.276,0.342,0.089c0.122-0.188,0.195-0.836,0.195-0.836s0.213,0.097,0.207-0.082
		s-0.21-0.186-0.175-0.479c0.019-0.165,0.019-0.165,0.019-0.165s0.396-0.012,0.569-0.223c-0.406-0.078-0.456-0.105-0.456-0.105
		c0.013-0.74-0.806-1.05-1.583-1.077C43.194,8,42.45,9.174,43.138,10.309c-0.091,0.418-0.172,0.556-0.172,0.556
		S42.223,11.656,42.476,12.801z M48.364,16.389c0,0-0.154,0.033-0.472-0.017l-0.125-0.438c0.137,0.106,0.428,0.181,0.775,0.104
		C48.512,16.139,48.364,16.389,48.364,16.389z M49.06,16.171c0,0,0.087-0.303,0.21-0.542c0.038,0.001,0.438,0.271,0.438,0.271
		C49.472,16.071,49.06,16.171,49.06,16.171z M51.478,17.852c-0.968-0.787-2.076-0.864-2.076-0.864l-0.012-0.383l0.645-0.182
		l-0.022-0.09c0,0,0,0,0.376-0.166c0.658,0.521,1.792,0.982,1.792,0.982S51.937,17.51,51.478,17.852z M54.202,13.709
		c0,0-0.34,0.218-0.401,0.867c-0.466,0.201-0.595,0.222-0.595,0.222s-0.214-0.071-0.624-0.06c0.651-0.36,0.68-1.202,1.731-1.688
		C54.225,13.403,54.202,13.709,54.202,13.709z M56.065,11.91c0,0-0.346,0.396-0.553,1.219C54.922,13.185,55.177,12.096,56.065,11.91
		z M51.231,11.792c1.528-0.253,3.975-0.512,3.975-0.512s-3.033,0.583-3.994,0.677C51.175,11.918,51.152,11.866,51.231,11.792z
		 M54.762,11.546c-0.85,0.57-1.181,0.916-1.845,1.301s-1.627,0.888-2.215-0.537C51.168,12.135,54.057,11.635,54.762,11.546z
		 M48.615,12.135c1.117-0.19,1.629-0.224,1.629-0.224l-0.019,0.178c0,0-0.896,0.428-1.783,0.627
		C48.625,12.569,48.615,12.135,48.615,12.135z M47.524,13.373c0.168-0.045,0.157-0.109,0.236-0.17s0.256-0.029,0.299-0.168
		c0.449-0.061,2.261-0.764,2.261-0.764c0.203,0.045,0.173,0.172,0.173,0.172s-0.18,0.044-0.332-0.012
		c0.021,0.128,0.351,0.204,0.351,0.204s-0.103,0.022-0.395-0.027c0.175,0.121,0.084,0.156,0.444,0.437
		c-0.47-0.055-0.459-0.361-0.777-0.423c0.215,0.059,0.152,0.414,0.637,0.775c0,0-0.453-0.182-0.613-0.354
		c0.114,0.387,0.186,0.147,0.524,0.708c-0.502-0.605-1.076-0.255-1.076-0.255s-0.445-0.054-0.884,0.097
		c-0.439,0.151-0.915,0.262-1.57,0.379C46.987,13.775,47.357,13.418,47.524,13.373z M35.178,9.1c0,0,0.034-0.09,0-0.25
		c-2.156-2.327-2.134-2.168-2.645-2.338c-0.511-0.17-1.101-0.114-1.101-0.114s-0.522-0.306-0.852-0.284
		c0.057,0.386,0.522,0.772,0.522,0.772s-0.068,0.011-0.307,0c-0.624-0.625-1.589-0.619-1.589-0.619s0.323,0.102,0.59,0.312
		c-0.25-0.159-0.727-0.057-0.727-0.057s0.238,0.045,0.397,0.307c-0.147-0.125-0.771-0.272-1.146-0.148
		c0.477-0.022,0.624,0.409,0.624,0.409s-0.284-0.238-0.522-0.227c0.227,0.125,0.238,0.363,0.238,0.363s-0.261-0.272-0.511-0.216
		c0.238,0.068,0.238,0.397,0.238,0.397s-0.34-0.25-0.964-0.068c0.488,0.012,0.602,0.397,0.602,0.397s-0.08-0.193-0.432-0.147
		c0.227,0.023,0.25,0.386,0.25,0.386s-0.057-0.011-0.636-0.136c0.636,0.409,0.5,0.67,0.409,0.625
		c-0.295-0.488-0.794-0.363-0.794-0.363s-0.681-0.227-1.124-0.42c-0.147-0.216-0.113-0.522-0.113-0.522l0.216-0.034
		c0,0,0,0,0.204,0.261c0.602-0.113,0.987-0.567,0.987-0.567s0,0,0.159,0.034c0.204-0.057,0.193-0.307,0.375-0.397
		c0.34,0.136,0.431,0.091,0.431,0.091s-0.068-0.091-0.25-0.227c0.295-0.635,0.113-1.566-0.658-1.634
		c-0.772-0.068-1.362,0.567-1.339,0.772c-0.045,0.204-0.431,0.272-0.431,0.272s-0.886-0.477-2.883-0.25s-1.748,1.226-1.748,1.226
		S20.174,6.91,20.31,7.16c-0.136,0.068-0.953,0.658-0.726,1.407s1.589,1.158,2.814,1.135c-0.102,0.037-0.127,0.176-0.127,0.176
		s0.077,0.196-1.49-0.051s-1.864-0.255-2.171-0.017c-0.936,0.026-0.63-0.162-2.222-0.162s-3.481,1.158-3.975,1.873
		c-0.494,0.715-1.711,1.796-2.971,2.571c-1.26,0.775-3.362,0.366-4.163-0.298c0.238,0.664,1.447,1.124,1.447,1.124
		s-1.796,0.128-2.962-0.255c0.442,0.553,1.966,0.962,2.937,0.979c-0.247,0.213-1.524,0.264-2.384,0.128
		c0.025,0.017,1.124,0.502,2.281,0.4c-0.281,0.315-0.894,0.383-1.592,0.324c0.409,0.34,2.154,0.051,2.154,0.051
		s-0.29,0.298-0.749,0.434c2.219,0.295,3.805-1.285,3.805-1.285s-0.068,0.689-0.894,1.336c0.639-0.034,1.405-0.783,1.651-1.269
		c0.077,0.085,0.188,0.434-0.136,0.826c1.175-0.502,1.039-1.686,1.039-1.686s0.34,0.545,1.498,1.158s1.294,0.511,1.192,1.396
		c-0.102,0.886-0.885,1.09-0.885,1.941c0,0.852,0.715,0.477,1.464,0.852c0.749,0.375,1.634,1.158,2.281,1.464
		c0.647,0.307,0.17,0.647,0.17,0.647s-0.205,0.375,0.102,0.749c0.306,0.375,0.215,0.613,0.215,0.613s0.272,0.068,0.692-0.228
		c0.42-0.295-0.034-1.373-0.17-1.94c-0.136-0.568-0.692-0.806-0.669-0.874c2.156,0.783,2.724,1.43,2.724,1.43l0.454,0.011
		c0,0,0.045,0.08,0.239,0.227c-0.012,0.091-0.193,0.306-0.193,0.306s0.75,0.829,1.215,0.931c0.227-0.443-0.023-1.26-0.023-1.26
		s1.453,0.012,2.123,0.012c0.67,0,0.931-0.511,0.931-1.374s-0.59-2.565-0.59-2.781c0-0.215,0.352-0.352,0.659-0.352
		c0.306,0,0.896,0.216,1.18,0.216s1.407,0.386,1.407,0.386c1.805,0,1.964,0.42,1.918,1.294s-0.749,1.532-0.749,1.782
		c0,0.25-0.057,0.862-0.057,0.862s-0.102,0.034-0.408,0.034c-0.352,0.318-0.233,1.152,0.091,1.476c0.397,0,0.397-0.386,0.681-0.772
		s0.17-0.987,0.17-0.987s0.227,0.045,0.442-0.534c0.216-0.579,0.75-2.156,0.886-2.645c0.136-0.488-0.375-0.908-1.203-1.362
		c-0.829-0.454-1.271-0.817-1.691-1.226c0.42-0.771,1.271-2.417,1.203-3.087c0.227-0.228,0.5-0.443,1.067-1.362
		s0.942-1.124,1.226-1.43c0.284-0.306,0.511-0.057,0.885,0.012c0.375,0.068,1.668,0.454,2.168,0.851
		c0.5,0.397,0.727,0.216,0.885,0.216c0.159,0,0.25-0.091,0.159-0.284c0.182,0.09,0.261,0.09,0.669-0.465
		C36.643,10.247,35.178,9.1,35.178,9.1z M16.837,18.578c-0.454,0.771-0.409,1.453-0.409,1.453c-0.522-0.022-0.954-0.613-0.954-0.613
		s-0.068-0.182,0.023-0.772c0.227-0.182,0.59-0.704,1.135-1.793C16.883,17.079,16.837,18.578,16.837,18.578z M21.877,21.415
		c0,0-0.182-0.159-0.5-0.159s-0.295-0.454-0.295-0.454s-0.045-0.091-0.363-0.25c-0.295,0.227-0.75,0.114-0.75,0.114s0,0-0.976-0.431
		c-0.976-0.432-0.749-1.204-0.658-1.793c0.658-1.294,0.522-1.998,0.522-1.998c0.84,0.34,1.226,0.567,1.657,0.658
		s0.318,0.181,0.318,0.181s0.5,0.182,0.885-0.022c0.658,0.34,1.407,1.657,1.589,2.52c0.182,0.863,0.75,1.135,0.817,1.816
		C23.239,21.642,21.877,21.415,21.877,21.415z M24.646,10.292c-0.681,0.749-0.931,0.908-1.18,0.931
		c0.363-0.409,0.84-1.112,0.84-1.112C24.669,10.088,24.737,10.201,24.646,10.292z"/>
</g>
<path fill="#FFFFFF" d="M106.814,166.368l-0.538,0.138l-0.5-1.461c0,0,1.466,0.048,1.886-0.228c0.895,0.088,2.441,0.091,2.364-0.295
	c-0.04-0.2-0.958-0.33-2.012-0.104c-0.254-0.231-0.463-0.308-0.463-0.308l-0.063-0.389c0,0,0.837,0.249,1.563-0.06
	c0.168,0.174,0.546,0.128,0.986-0.05c0.098,0.337,0.264,0.275,0.372,0.075c0.357-0.071,0.754-0.166,0.754-0.166
	s0.234,0.057,0.329-0.066c0.094-0.123-0.063-0.24-0.063-0.24l-0.157-0.638c0,0,0.02-0.196-0.455-0.191
	c-0.474,0.006-1.677-0.14-1.677-0.14s-0.731,0.057-1.212-0.04c-0.48-0.097-1.306-0.362-1.306-0.362s-0.294-1.25-0.575-1.907
	c0.324-0.688,0.164-1.489,0.115-1.732c0.302,0.028,0.366,0.046,0.366,0.046l0.057,0.434l0.369-0.014l0.008-0.33
	c0.449,0.238,0.766,0.338,0.797-0.1c0.24,0.011,0.317-0.123,0.244-0.271c0.266-0.009,0.282-0.072,0.33-0.275
	c0.252,0.068,0.464,0.012,0.478-0.14c0.369-0.089,0.574-0.546,0.609-1.563c-0.212-1.131-0.635-2.727-3.535-2.146
	c-0.835,0.211-2.875,1.303-2.818,1.663c-1.4-0.24-1.972-0.274-3.067-0.026c-1.095,0.249-2.289,0.889-3.564,2.244
	c-1.274,1.355-1.304,2.327-1.018,3.087c-0.883-0.032-1.632-0.208-1.323,0.518c0.088,0.219,0.071,0.431,0.36,0.388
	c0.289-0.043,0.274-0.039,0.335-0.333c0.226,0.014,0.226,0.014,0.226,0.014s0.128,0.271,0.231,0.414s0.197,0.094,0.197,0.094
	l0.088,0.22c0,0,0.137,0.093,0.26,0.112c0.125,0.554,0.64,2.532,0.64,2.532l0.349,0.183l0.114,0.646l-0.494,0.129l0.228,0.994
	c0,0-0.553,0.274-0.428,0.829c-0.061,0.071-0.146,0.089-0.146,0.089c-1.552-1.518-3.17-1.432-4.127-1.241
	c-0.958,0.192-4.673,1.677-3.662,6.736c0.617,3.087,3.506,4.531,5.765,4.079c1.986-0.397,2.944-1.778,3.475-2.909
	c1.161,0.377,1.106,0.329,1.549,0.24c0.443-0.089,0.646-0.263,0.646-0.263s0.203,0.495,0.246,0.784
	c0.043,0.288,0.126,0.554,0.369,0.505c0.244-0.048,0.229-0.119,0.229-0.119s0.414-0.157,0.909-0.212
	c0.06-0.071,0.015-0.226,0.015-0.226l0.563,0.066c0,0,0.352-0.026,0.135-0.592c-0.678-0.191-1.575-1.112-1.801-1.72
	c-0.051-0.629-0.234-0.8-0.234-0.8s3.596-4.316,4.199-5.09c0.603-0.774,0.955-0.652,0.955-0.652l0.154,0.623
	c0,0-3.61,1.94-2.755,6.214c0.64,3.201,3.621,5.102,6.436,4.539c2.158-0.431,4.934-2.68,4.146-6.625
	C112.476,167.035,108.901,165.951,106.814,166.368z M95.479,161.784l-0.115,0.023c0,0-0.113-0.163-0.223-0.372l0.295-0.052
	L95.479,161.784z M95.833,161.698c-0.137,0.02-0.264-0.133-0.239-0.301c0,0,0.082-0.039,0.215,0
	c0.075,0.112,0.277,0.228,0.277,0.228S95.97,161.677,95.833,161.698z M97.452,165.447l-0.11,0.007l-0.864-3.542
	c0.414,0.252,0.903,0.504,0.903,0.504s0.651,1.585,1.738,2.557c-0.42,0.5-0.449,0.58-0.449,0.58l-1.156,0.09L97.452,165.447z
	 M99.186,169.432c0.034,0.432-0.169,1.498-0.169,1.498s-0.141-0.031-0.269-0.08c0.157-0.254,0.053-0.404-0.083-0.674
	c-0.135-0.27-0.307-1.647-0.061-2.313c0.246-0.666,1.034-1.069,1.034-1.069C99.022,167.987,99.151,169.001,99.186,169.432z
	 M103.102,166.278c0,0-1.061,1.275-2.032,2.473c0.205-0.576,0.052-0.969,0.337-1.583c0.286-0.615,0.482-0.713,0.389-1.178
	c0,0,0.485-0.023,1.067-0.05C103.446,165.913,103.102,166.278,103.102,166.278z M104.066,164.63
	c0.037,0.223,0.058,0.472,0.373,0.379c0.316-0.093,0.476-0.147,0.476-0.147s0.131,0.286-0.405,0.355
	c-0.536,0.07-2.926,0.191-2.926,0.191s0.226-0.357,0.936-0.744s1.407-0.92,1.312-1.808c-0.097-0.887-1.045-1.285-1.976-1.923
	c-0.929-0.639-1.424-0.919-1.631-1.027c0.067-0.11,0.135-0.139,0.135-0.139s0.435,0.055,0.828-0.247
	c0.406-0.051,0.705-0.007,0.705-0.007s0.668,0.334,1.348,0.235c0.248,1.021,0.664,2.097,1.014,2.881c0.1,0.315,0.118,0.52,0.4,0.589
	c0.281,0.07,0.281,0.07,0.281,0.07l0.09,0.19l0.285-0.027l0.04,0.125C105.349,163.577,103.843,163.775,104.066,164.63z"/>
</svg>
