<?xml version="1.0" encoding="utf-8"?>
<!-- Generator: Adobe Illustrator 16.0.0, SVG Export Plug-In . SVG Version: 6.00 Build 0)  -->
<!DOCTYPE svg PUBLIC "-//W3C//DTD SVG 1.1//EN" "http://www.w3.org/Graphics/SVG/1.1/DTD/svg11.dtd">
<svg version="1.1" id="Layer_1" xmlns="http://www.w3.org/2000/svg" xmlns:xlink="http://www.w3.org/1999/xlink" x="0px" y="0px" fill="#8dbb00"
	 width="100px" height="100px" viewBox="0 0 100 100" enable-background="new 0 0 100 100" xml:space="preserve">
<path d="M72.5,36.5l-8.145-7.138l-23.76,28.05L28.636,47.195l-6.438,8.112L42.301,72.66L72.5,36.5z"/>
<path d="M83.146,22.146c-15.66-18.582-43.417-20.952-62-5.292c-18.583,15.659-20.952,43.417-5.292,62
	c15.66,18.584,43.417,20.953,62,5.293C96.438,68.486,98.805,40.729,83.146,22.146z M49.499,83.613
	c-18.288,0-33.113-14.825-33.113-33.113s14.825-33.113,33.113-33.113S82.611,32.212,82.611,50.5S67.787,83.613,49.499,83.613z"/>
</svg>
