<?xml version="1.0" encoding="utf-8"?>
<!-- Generator: Adobe Illustrator 19.1.0, SVG Export Plug-In . SVG Version: 6.00 Build 0)  -->
<svg version="1.1" id="Layer_2" xmlns="http://www.w3.org/2000/svg" xmlns:xlink="http://www.w3.org/1999/xlink" x="0px" y="0px"
	 viewBox="0 0 477.3 75.9" style="enable-background:new 0 0 477.3 75.9;" xml:space="preserve">
<style type="text/css">
	.st0{fill:#0051A0;}
</style>
<g>
	<path class="st0" d="M54,27.4H40.7l-4.5,11h11.3l-3.2,7.5H26.8l11.3-25.8h34.2l4.3-11.8c0,0-39.5,0-41.3,0
		c-3.4,0-10.2-0.2-15.7,12.8c-5.5,13-11.3,26.5-11.3,26.5s-3.3,9.8,8.3,9.8s25.5,0,30.8,0s9.4-1.6,12.7-8.7c3.3-7,9.3-21.3,9.3-21.3
		H54z"/>
	<polygon class="st0" points="68.5,57.6 70.2,57.7 86.5,57.7 101.9,21.5 83.9,21.5 	"/>
	<polygon class="st0" points="89.5,8.4 84.7,19.9 102.6,19.9 107.3,8.4 	"/>
	<path class="st0" d="M267.5,45.6h-15.7l10-25.1h-18.4c0,0-8.5,21-10.3,25.1s-2.1,12.1,8.6,12.1c7.8,0,20.8,0,20.8,0l-5.1,11.9h19.7
		l19.8-49.2l-18.9,0L267.5,45.6z"/>
	<polygon class="st0" points="300.3,38.9 337.7,38.9 342.5,26.9 305,26.9 	"/>
	<path class="st0" d="M395.8,8.1c0,0-13.7,34.3-14.4,36c-0.7,1.7-2.2,1.8-2.2,1.8h-13.4c0,0-1.3,0.3-0.2-2
		c0.9-2,15.2-35.7,15.2-35.7h-19c0,0-15.9,38.7-16.5,40.2c-0.6,1.4-2,7.8,4.8,9c9.5-0.2,34.4,0,36.8,0c2.4,0,8.8-2,12-10.2
		s16.3-39.2,16.3-39.2H395.8z"/>
	<path class="st0" d="M462.8,20.9c-10.1,0-32.2,0-32.2,0s-8.8-0.1-12.5,8.9c-4.2,10.3-16.8,40.4-16.8,40.4H419l15.1-37.8l15.8,0
		l-5.6,13.1h-14.8l-4.9,12.1c5,0,23.4-0.1,25.9-0.1c3,0,10.4-3.3,11.8-8c0,0,4.6-14.7,5.9-17.4C469.5,29.3,471,20.9,462.8,20.9z"/>
	<path class="st0" d="M218.6,8.5l-15.1,37.8l-15.8,0l5.6-13.1H208l4.9-12.1c-5,0-22.4,0.1-24.9,0.1c-3,0-10.4,3.3-11.8,8
		c0,0-5.6,14.7-6.9,17.4s-2.8,11.2,5.4,11.2c10.1,0,32.2,0,32.2,0s8.8,0.1,12.5-8.9c4.2-10.3,16.7-40.4,16.7-40.4H218.6z"/>
	<path class="st0" d="M154.2,8.9l-15.1,37.8l-15.8,0l5.6-13.1h14.8l4.9-12.1c-5,0-22.4,0.1-24.9,0.1c-3,0-10.4,3.3-11.8,8
		c0,0-5.6,14.7-6.9,17.4c-1.3,2.8-2.8,11.2,5.4,11.2c10.1,0,32.2,0,32.2,0s8.8,0.1,12.5-8.9c4.2-10.3,16.7-40.4,16.7-40.4H154.2z"/>
</g>
</svg>
