<?xml version="1.0" encoding="utf-8"?><!DOCTYPE svg PUBLIC "-//W3C//DTD SVG 1.1//EN" "http://www.w3.org/Graphics/SVG/1.1/DTD/svg11.dtd"><svg xmlns="http://www.w3.org/2000/svg" xmlns:xlink="http://www.w3.org/1999/xlink"><symbol viewBox="0 0 500 500" id="arrow-down-solid"><path d="M0 134.989h500L250.002 385.011 0 134.989z"/></symbol><symbol viewBox="0 0 500 500" id="arrow-up-solid"><path d="M250.002 114.989L500 365.011H0l250.002-250.022z"/></symbol><symbol viewBox="0 0 521 523" id="blog"><path d="M87.85 271.161c0 35.923-.404 71.815.14 107.726.434 28.488 24.076 53.007 52.417 55.747 26.964 2.627 54.66-17.879 60.328-45.529 4.214-20.495 2.459-40.068-14.404-55.209-11.386-10.227-25.413-13.565-40.305-13.488-17.774.093-31.582-7.002-39.12-23.108-7.804-16.666-5.948-33.171 5.305-48.19 6.531-8.7 15.534-13.563 26.079-14.149 58.981-3.316 114.878 24.87 136.995 80.738 23.147 58.394 14.207 113.62-28.709 160.705-38.764 42.559-87.936 55.718-142.409 39.191-54.126-16.422-86.438-55.521-98.459-110.567-2.969-13.634-3.208-28.023-3.278-42.084-.315-65.144-.138-130.273-.093-195.421.009-13.497 2.287-26.314 13.197-35.732 14.107-12.182 30.193-14.679 47.157-7.541 17.013 7.164 24.711 21.088 24.791 39.19.152 35.911.043 71.819.043 107.724.105-.003.221-.003.325-.003zM519.756 341.686h-65.503c-1.32-75.055-27.127-140.316-80.014-193.631-52.801-53.204-117.558-79.656-192.87-80.916V1.5c93.761 1.745 174.273 34.446 239.977 101.024 65.049 65.903 96.898 146.049 98.41 239.162z"/><path d="M181.347 182.325V117.75c111.791-3.997 224.014 92.83 223.034 223.254-1.428.196-2.913.509-4.398.512-18.429.034-36.858-.109-55.317.153-4.4.053-5.778-1.46-5.902-5.686-1.3-40.933-16.264-76.181-44.749-105.57-25.112-25.918-55.667-41.441-91.502-46.265-6.779-.919-13.638-1.2-21.166-1.823z"/></symbol><symbol viewBox="0 0 500 500" id="external-link"><path d="M428.567 214.284v-71.432L214.284 357.148l-71.431-71.433L357.147 71.432h-71.432V0H500v214.284h-71.433zM71.433 428.568h285.715V285.717h71.42v181.818C428.567 500 396.103 500 396.103 500H32.465C0 500 0 467.535 0 467.535V103.896c0-32.465 32.465-32.465 32.465-32.465h181.819v71.42H71.433v285.717z"/></symbol><symbol viewBox="-449.5 -449.5 1000 1000" id="jackpot"><g fill="#231F20"><path d="M73.18-9.897v-149.469c14.868 2.726 27.764 7.887 38.654 15.426 10.941 7.573 20.578 17.932 29.028 31.066l68.359-34.22c-9.666-25.54-25.89-45.49-48.679-59.864-22.8-14.399-51.947-23.173-87.383-26.387v-63.093H34.143v62.346c-45.385 5.705-80.97 21.31-106.704 46.84-25.814 25.55-38.674 57.986-38.674 97.407 0 33.711 11.509 63.008 34.583 87.906 23.039 24.907 59.969 47.796 110.795 68.633v169.872c-24.06-2.73-43.501-10.024-58.409-21.784-14.868-11.738-25.266-28.27-31.18-49.664l-70.258 31.299c8.899 36.452 26.776 64.543 53.552 84.354 26.726 19.83 62.196 31.26 106.306 34.22v82.45H73.18v-83.905c49.098-5.979 86.935-22.739 113.541-50.382 26.686-27.653 39.999-63.896 39.999-108.758 0-34.439-10.394-63.316-31.239-86.615-20.797-23.27-61.585-49.188-122.301-77.678zM34.143-23.684C16.012-33.345 2.898-43.877-5.253-55.288-13.47-66.682-17.55-80.04-17.55-95.426c0-16.093 4.081-29.053 12.297-38.838 8.151-9.796 21.275-17.409 39.396-22.87v133.45zm85.513 231.062c-10.662 12.774-26.178 21.764-46.496 26.955V82.646c21.804 10.693 37.658 22.063 47.633 34.2 9.865 12.138 14.867 26.417 14.867 42.77 0 19.073-5.341 34.988-16.004 47.762z"/><path d="M50.54-449.5c-276.183 0-500.04 223.837-500.04 499.99 0 276.158 223.857 500.01 500.04 500.01 276.128 0 499.96-223.852 499.96-500.01 0-276.133-223.832-499.99-499.96-499.99zm0 887.756c-214.171 0-387.795-173.569-387.795-387.766 0-214.141 173.624-387.745 387.795-387.745 214.106 0 387.716 173.614 387.716 387.745 0 214.197-173.61 387.766-387.716 387.766z"/></g></symbol><symbol viewBox="-449.5 -449.5 1000 1000" id="jackpot-bright"><path fill="#010101" d="M51-449c276.148 0 500 223.857 500 500 0 276.148-223.852 500-500 500-276.143 0-500-223.852-500-500 0-276.143 223.857-500 500-500z"/><path fill="none" stroke="#F2A900" stroke-width="80" stroke-miterlimit="10" d="M438.756 51c0 214.106-173.649 387.756-387.756 387.756-214.131 0-387.755-173.649-387.755-387.756 0-214.131 173.624-387.755 387.755-387.755 214.106 0 387.756 173.624 387.756 387.755z"/><path fill="#F2A900" d="M187.449 67.264c19.611 21.941 29.397 49.116 29.397 81.532 0 42.231-12.526 76.312-37.638 102.35-25.052 26.019-60.656 41.804-106.863 47.413v78.973H35.614v-77.607c-41.534-2.77-74.911-13.532-100.053-32.177-25.206-18.664-42.042-45.091-50.408-79.4l66.123-29.456c5.561 20.129 15.356 35.684 29.347 46.756 14.031 11.051 32.326 17.916 54.971 20.487V66.246C-12.247 46.636-47.01 25.082-68.684 1.644c-21.713-23.438-32.541-51-32.541-82.734 0-37.094 12.103-67.637 36.397-91.677 24.235-24.03 57.717-38.714 100.432-44.08v-58.683h36.721v59.386c33.343 3.024 60.786 11.285 82.23 24.838 21.475 13.532 36.731 32.306 45.839 56.336l-64.363 32.207c-7.942-12.346-17.021-22.112-27.314-29.227-10.264-7.1-22.381-11.958-36.371-14.519V-5.834c57.138 26.795 95.543 51.204 115.103 73.098zM72.325 224.012c19.133-4.883 33.741-13.334 43.767-25.371 10.004-12.027 15.047-26.984 15.047-44.941 0-15.387-4.704-28.818-13.971-40.249-9.388-11.419-24.314-22.112-44.843-32.167v142.728zM35.604-144.417C18.54-139.285 6.193-132.12-1.48-122.908c-7.723 9.213-11.569 21.41-11.569 36.551 0 14.479 3.847 27.06 11.569 37.777 7.673 10.742 20.02 20.652 37.084 29.745v-125.582z"/></symbol><symbol viewBox="0 0 1000 1000" id="mastercard"><path fill="#E82128" d="M623.457 501.641c0 172.164-139.565 311.734-311.729 311.734C139.565 813.375 0 673.805 0 501.641c0-172.163 139.565-311.728 311.729-311.728 172.163 0 311.728 139.565 311.728 311.728z"/><path fill="#F59E20" d="M1000 498.355c0 172.168-139.57 311.729-311.729 311.729-172.168 0-311.729-139.561-311.729-311.729 0-172.163 139.561-311.729 311.729-311.729C860.43 186.626 1000 326.192 1000 498.355z"/><path fill="#F16124" d="M376.543 498.355c0 102.403 49.375 193.262 125.61 250.088 73.784-57.012 121.304-146.348 121.304-246.803 0-102.397-49.375-193.256-125.61-250.087-73.78 57.012-121.304 146.348-121.304 246.802z"/></symbol><symbol viewBox="0 0 500 500" id="special-bright"><path fill="#FFF" d="M250 487.997L12.004 250 250 12.005l237.996 237.996z"/><path fill="#F2A900" d="M249.999 1L1 250l248.999 249L499 250 249.999 1zm49.453 378.98c-16.089 6.39-34.704 9.662-55.842 9.662-15.064 0-30.759-.787-47.086-2.328-16.327-1.498-31.627-3.744-45.982-6.664v-61.598h30.366c3.707 15.932 9.858 27.723 18.535 35.453 8.597 7.848 21.296 11.711 37.976 11.711 8.716 0 16.563-1.262 23.465-3.941 6.941-2.723 12.54-6.979 16.761-12.937 4.221-5.915 6.312-13.368 6.312-22.282 0-8.24-1.697-15.418-5.088-21.414-3.394-6.111-8.872-11.869-16.405-17.351-7.533-5.44-17.983-11.278-31.47-17.392-11.517-5.168-21.926-10.569-31.234-16.17-9.306-5.6-17.272-11.751-23.82-18.496-6.584-6.743-11.671-14.078-15.301-22.083-3.589-7.966-5.442-16.998-5.442-26.935 0-16.406 4.497-30.327 13.567-41.803 8.992-11.515 22.004-20.191 39.081-26.066 17.075-5.956 36.833-8.913 59.272-8.913 13.171 0 25.712.631 37.662 1.893 11.986 1.262 25.673 3.509 40.974 6.704v57.933h-30.287c-2.839-10.491-6.429-18.851-10.807-25.042-4.337-6.191-9.779-10.767-16.246-13.724-6.508-2.879-14.711-4.377-24.609-4.377-8.438 0-15.971 1.301-22.635 3.982-6.626 2.682-11.871 6.664-15.696 11.949-3.864 5.206-5.756 11.595-5.756 19.048 0 7.729 1.656 14.434 4.968 20.074 3.312 5.639 8.913 11.2 16.72 16.563 7.809 5.481 19.245 11.633 34.151 18.496 18.144 8.558 32.416 16.917 42.83 25.121 10.409 8.202 18.141 17.115 23.069 26.737 4.928 9.701 7.452 20.899 7.452 33.679 0 16.406-4.258 30.643-12.62 42.67-8.439 12.068-20.704 21.338-36.835 27.841z"/></symbol><symbol viewBox="80.78 158.667 500 500" id="tabtouch"><path d="M134.911 459.517l4.385-18.132v-59.833h14.461l5.966-24.679H86.061c-3.702 0-5.28 1.457-5.28 4.992v14.782c0 3.16 1.877 4.905 5.28 4.905h24.596v72.922c0 3.301 2.042 5.043 5.899 5.043h18.355zm145.49-56.634c5.88-4.394 9.494-11.626 9.494-19.096 0-17.139-11.78-26.965-32.309-26.965h-31.288l-13.668 56.537v35.503c0 5.533 1.275 10.654 10.519 10.654h35.283c20.672 0 35.676-13.465 35.676-32.021 0-10.912-5.099-20.04-13.707-24.612zm-42.232-23.202H255.9c5 0 7.757 2.454 7.757 6.913 0 5.054-2.852 7.611-8.46 7.611h-17.028v-14.524zm18.153 56.831h-18.153v-20.987h18.153c7.232 0 11.55 3.955 11.55 10.564 0 2.445-.837 10.423-11.55 10.423zm-41.826-55.153l-4.053-15.813c-1.229-4.871-6.547-8.688-11.813-8.672h-33.032l-24.809 102.644h22c3.295 0 6.594-2.494 7.332-5.543l3.436-14.226h26.909l14.03-58.39zm-35.646 36.48l7.107-29.419h2.36l6.963 29.419h-16.43zm399.716 41.678h-16.811a2.217 2.217 0 0 1-2.213-2.207v-38.154c0-5.853-2.43-7.296-6.967-7.296-2.543 0-5.526.884-8.401 2.435v42.793c0 1.216-.884 2.429-2.211 2.429h-16.587c-1.329 0-2.434-1.213-2.434-2.429v-80.834c0-1.218.993-2.213 2.214-2.213h16.807c1.215 0 2.211.995 2.211 2.213v22.227c4.756-3.32 9.623-4.199 16.365-4.199 15.922 0 20.24 11.166 20.24 24.874v38.154a2.22 2.22 0 0 1-2.213 2.207zm-64.324-.771c-3.755.886-8.62 1.768-15.145 1.768-16.919 0-26.428-10.836-26.428-28.971v-8.295c0-18.022 9.509-29.082 26.428-29.082 6.524 0 12.053.995 15.145 1.775 1.444.327 2.217.879 2.217 2.318v12.494c0 1.33-.667 2.321-2.323 2.104-3.759-.332-7.292-.775-12.719-.775-4.751 0-7.517 2.987-7.517 11.167v8.295c0 8.182 2.766 11.057 7.517 11.057 5.427 0 8.961-.223 12.719-.663 1.656-.22 2.323.663 2.323 2.101v12.388c0 1.432-.772 1.987-2.217 2.319zm-50.143.771H448.73a2.216 2.216 0 0 1-2.213-2.207v-2.545c-3.98 2.984-9.286 5.748-17.476 5.748-16.363 0-20.344-12.275-20.344-25.43v-37.49c0-1.218.883-2.433 2.209-2.433h16.589c1.328 0 2.432 1.215 2.432 2.433v37.49c0 5.856 1.328 7.852 6.857 7.852 2.545 0 5.751-1.109 8.294-2.432v-42.91c0-1.218.886-2.433 2.214-2.433h16.587c1.326 0 2.432 1.215 2.432 2.433v59.714a2.214 2.214 0 0 1-2.212 2.21zm-90.225.996c-18.468 0-29.083-10.501-29.083-29.964v-6.413c0-19.466 10.615-29.969 29.083-29.969 18.467 0 28.969 10.503 28.969 29.969v6.413c0 19.463-10.502 29.964-28.969 29.964zm7.85-36.377c0-8.738-2.762-12.165-7.85-12.165s-7.961 3.32-7.961 12.165v6.413c0 8.733 2.873 12.272 7.961 12.272s7.85-3.43 7.85-12.272v-6.413zm-43.657-13.267h-8.405v29.742c0 3.32.333 4.202 3.1 4.202h5.084c1.332 0 2.326.886 2.326 2.101v10.395c0 1.215-.994 1.879-2.326 2.209-3.649.778-7.074.994-9.841.994-11.83 0-19.57-3.646-19.57-20.123v-29.521l-7.299-1.66c-1.219-.333-2.321-1.217-2.321-2.433v-9.289c0-1.218.995-2.326 2.321-2.326h7.299v-8.952c0-1.217 1.106-2.105 2.32-2.328l16.477-2.87c1.992-.335 2.432.883 2.432 2.097v12.052h8.406c1.215 0 2.209.994 2.209 2.214v11.276a2.223 2.223 0 0 1-2.212 2.22z"/></symbol><symbol viewBox="0 0 1000 1000" id="visa"><path fill="#00498A" d="M352.295 657.145l50.627-313.48h80.937l-50.635 313.48h-80.929M726.834 351.361c-15.994-6.294-41.162-13.156-72.528-13.156-80.023 0-136.356 42.539-136.819 103.468-.512 45.05 40.198 70.183 70.882 85.153 31.547 15.355 42.147 25.182 42.017 38.906-.211 20.998-25.168 30.617-48.457 30.617-32.401 0-49.621-4.742-76.236-16.441l-10.408-4.988-11.322 70.168c18.877 8.73 53.861 16.316 90.181 16.707 85.058 0 140.306-42.031 140.968-107.08.292-35.73-21.289-62.808-67.997-85.172-28.292-14.538-45.644-24.168-45.452-38.881.02-13.021 14.678-26.976 46.387-26.976 26.463-.422 45.633 5.671 60.572 12.051l7.264 3.577 10.948-67.953M934.494 343.987h-62.563c-19.41 0-33.918 5.546-42.418 25.976l-120.22 287.291h85.027s13.864-38.641 17.009-47.125c9.283 0 91.89.161 103.685.161 2.42 10.946 9.855 46.964 9.855 46.964H1000l-65.506-313.267M834.628 546.01c6.701-18.023 32.241-87.619 32.241-87.619-.463.818 6.681-18.17 10.76-29.92l5.465 27.046s15.533 74.815 18.738 90.493h-67.204zM284.378 343.926l-79.229 213.723-8.49-43.438C181.9 464.148 135.946 409.889 84.536 382.708l72.479 274.169 85.67-.055L370.15 343.926h-85.772"/><path fill="#F29813" d="M131.604 343.705H1.075L0 350.21c101.574 25.966 168.769 88.639 196.658 164l-28.362-144.052c-4.883-19.867-19.109-25.749-36.692-26.453"/></symbol></svg>