<?xml version="1.0" encoding="utf-8"?>
<!-- Generator: Adobe Illustrator 16.0.0, SVG Export Plug-In . SVG Version: 6.00 Build 0)  -->
<!DOCTYPE svg PUBLIC "-//W3C//DTD SVG 1.1//EN" "http://www.w3.org/Graphics/SVG/1.1/DTD/svg11.dtd">
<svg version="1.1" id="Layer_1" xmlns="http://www.w3.org/2000/svg" xmlns:xlink="http://www.w3.org/1999/xlink" x="0px" y="0px"
	 width="113.39px" height="113.39px" viewBox="0 0 113.39 113.39" enable-background="new 0 0 113.39 113.39" xml:space="preserve">
<path fill="#FFFFFF" d="M107.846,40.778c0,0,0.113-0.305,0-0.836c-7.22-7.788-7.144-7.256-8.853-7.826
	c-1.71-0.57-3.686-0.38-3.686-0.38s-1.748-1.026-2.849-0.95c0.19,1.292,1.748,2.584,1.748,2.584s-0.229,0.037-1.026,0
	c-2.089-2.089-5.319-2.071-5.319-2.071s1.084,0.342,1.978,1.045c-0.836-0.533-2.433-0.19-2.433-0.19s0.798,0.152,1.329,1.025
	c-0.494-0.418-2.583-0.912-3.836-0.494c1.596-0.076,2.09,1.367,2.09,1.367s-0.95-0.797-1.748-0.759
	c0.759,0.417,0.798,1.215,0.798,1.215s-0.875-0.912-1.711-0.722c0.799,0.228,0.799,1.33,0.799,1.33s-1.141-0.835-3.229-0.228
	c1.634,0.038,2.014,1.33,2.014,1.33s-0.267-0.646-1.444-0.494c0.76,0.076,0.837,1.292,0.837,1.292s-0.189-0.038-2.128-0.456
	c2.128,1.368,1.671,2.242,1.368,2.089c-0.988-1.633-2.66-1.216-2.66-1.216s-2.28-0.76-3.761-1.405
	c-0.494-0.722-0.379-1.748-0.379-1.748l0.721-0.114c0,0,0,0,0.685,0.874c2.012-0.38,3.306-1.899,3.306-1.899s0,0,0.53,0.114
	c0.684-0.19,0.647-1.026,1.255-1.331c1.14,0.456,1.442,0.305,1.442,0.305s-0.228-0.305-0.836-0.76
	c0.987-2.128,0.38-5.242-2.202-5.471c-2.584-0.228-4.561,1.9-4.483,2.584c-0.152,0.684-1.443,0.912-1.443,0.912
	s-2.964-1.596-9.649-0.836c-6.688,0.76-5.851,4.103-5.851,4.103s-1.595,0.684-1.141,1.52c-0.455,0.228-3.191,2.204-2.431,4.711
	c0.759,2.507,5.317,3.875,9.422,3.799c-0.342,0.123-0.429,0.589-0.429,0.589s0.258,0.655-4.985-0.171
	c-5.242-0.826-6.24-0.854-7.266-0.057c-3.134,0.086-2.109-0.542-7.436-0.542c-5.329,0-11.653,3.875-13.307,6.269
	c-1.651,2.394-5.726,6.012-9.943,8.605c-4.218,2.592-11.255,1.225-13.933-0.997c0.796,2.222,4.842,3.76,4.842,3.76
	s-6.01,0.428-9.915-0.854c1.482,1.854,6.582,3.221,9.831,3.276c-0.827,0.714-5.101,0.885-7.978,0.428
	c0.085,0.058,3.76,1.682,7.635,1.339c-0.939,1.055-2.991,1.283-5.328,1.083c1.368,1.141,7.209,0.172,7.209,0.172
	s-0.969,0.997-2.507,1.452c7.426,0.987,12.735-4.302,12.735-4.302s-0.229,2.308-2.991,4.473c2.137-0.113,4.7-2.62,5.527-4.245
	c0.257,0.286,0.627,1.454-0.456,2.764c3.931-1.681,3.476-5.642,3.476-5.642s1.141,1.825,5.015,3.875
	c3.874,2.052,4.33,1.71,3.988,4.673c-0.341,2.964-2.963,3.647-2.963,6.497s2.394,1.594,4.9,2.85c2.507,1.252,5.471,3.875,7.637,4.9
	c2.165,1.025,0.57,2.164,0.57,2.164s-0.685,1.254,0.341,2.508s0.721,2.053,0.721,2.053s0.913,0.227,2.317-0.761
	c1.406-0.987-0.113-4.597-0.57-6.497c-0.455-1.899-2.317-2.696-2.241-2.926c7.219,2.622,9.118,4.788,9.118,4.788l1.52,0.038
	c0,0,0.151,0.266,0.798,0.759c-0.039,0.305-0.646,1.026-0.646,1.026s2.507,2.773,4.065,3.114c0.759-1.48-0.075-4.215-0.075-4.215
	s4.861,0.037,7.104,0.037s3.116-1.711,3.116-4.597c0-2.888-1.977-8.585-1.977-9.308s1.178-1.178,2.204-1.178
	c1.025,0,3,0.723,3.951,0.723c0.949,0,4.71,1.291,4.71,1.291c6.041,0,6.571,1.406,6.42,4.33c-0.151,2.927-2.507,5.129-2.507,5.965
	c0,0.837-0.19,2.888-0.19,2.888s-0.34,0.113-1.367,0.113c-1.178,1.064-0.778,3.857,0.305,4.939c1.329,0,1.33-1.292,2.279-2.584
	c0.95-1.291,0.57-3.305,0.57-3.305s0.759,0.153,1.48-1.785c0.722-1.937,2.507-7.219,2.963-8.853
	c0.457-1.632-1.254-3.039-4.025-4.558c-2.774-1.521-4.256-2.736-5.661-4.104c1.405-2.583,4.255-8.091,4.026-10.333
	c0.76-0.76,1.672-1.481,3.572-4.559c1.899-3.077,3.152-3.761,4.102-4.787c0.95-1.026,1.71-0.19,2.963,0.038
	c1.255,0.229,5.586,1.52,7.258,2.849c1.671,1.331,2.43,0.723,2.962,0.723c0.533,0,0.836-0.304,0.533-0.95
	c0.607,0.305,0.872,0.305,2.239-1.557C112.745,44.615,107.846,40.778,107.846,40.778z M46.453,72.499
	c-1.519,2.584-1.367,4.863-1.367,4.863c-1.748-0.075-3.191-2.052-3.191-2.052s-0.229-0.607,0.076-2.583
	c0.76-0.608,1.976-2.354,3.799-6.004C46.604,67.485,46.453,72.499,46.453,72.499z M63.32,81.998c0,0-0.608-0.533-1.672-0.533
	s-0.987-1.52-0.987-1.52s-0.152-0.305-1.216-0.835c-0.988,0.759-2.507,0.378-2.507,0.378s0,0-3.267-1.442
	c-3.269-1.443-2.507-4.026-2.205-6.002c2.205-4.33,1.748-6.686,1.748-6.686c2.812,1.139,4.103,1.899,5.547,2.202
	c1.443,0.305,1.063,0.608,1.063,0.608s1.672,0.607,2.965-0.077c2.201,1.142,4.71,5.548,5.316,8.434
	c0.608,2.889,2.509,3.799,2.736,6.08C67.879,82.758,63.32,81.998,63.32,81.998z M72.59,44.767c-2.279,2.507-3.115,3.04-3.949,3.115
	c1.215-1.368,2.81-3.723,2.81-3.723C72.667,44.083,72.894,44.462,72.59,44.767z"/>
</svg>
